<svg xmlns="http://www.w3.org/2000/svg" viewBox="0 0 514 514">
    <defs>
        <style>
            .cls-1 {
                fill: none;
                stroke: #000;
                stroke-miterlimit: 10;
                stroke-width: 2px;
            }
        </style>
    </defs>
    <g id="Layer_2" data-name="Layer 2">
        <g id="Layer_1-2" data-name="Layer 1">
            <g id="element">
                <path id="main_outline" class="cls-1"
                    d="M494,513H397c-15.9-5.88-18.59-9.76-18.6-26.87,0-10.83,0-21.66,0-32.5,0-7.58,2.3-11.15,7-11.19s7.12,3.55,7.15,11.08c0,12.5.07,25,0,37.5,0,4.59,1.62,7.35,6.62,7.35q46.26,0,92.5,0c4.59,0,6.66-2.28,6.66-6.8q0-46,0-92c0-4.81-2.23-7-7-7q-46,.06-92,0c-4.55,0-6.77,2.13-6.75,6.7,0,5.33.1,10.67-.13,16-.23,5.16-3,8.18-6.95,8.21s-6.81-3-7-8.11-.16-10-.08-15c.21-14.23,7.85-21.84,22.17-22,10.16-.11,20.33,0,30.49-.06,2.13,0,4.36.35,6.79-1.36V271.75H347.15c-1.7,3-1.39,5.51-1.39,8,0,14.33.08,28.66-.08,43-.16,13.25-9.53,22.66-22.69,23-7,.16-14,0-21,.09-2.13,0-4.38-.28-6.79,2a224.88,224.88,0,0,0,0,31.58C311,392.07,314,405,304,415.84a21.92,21.92,0,0,1-31.37.51A21.25,21.25,0,0,1,266.32,400c.4-9.81,6.47-15.65,14.55-20.35a281.26,281.26,0,0,0-.09-33.59c-14.25-.51-27.68-.51-41.12.34-1.3,3.42-.9,6.13-.9,8.77q0,41.49,0,83c0,10-1.58,11.58-11.64,11.59q-41.25,0-82.5,0c-2.77,0-5.7-.52-8.22,1.45-1,2-.75,4.22-.75,6.37,0,11.33.11,22.66-.09,34-.19,10.64-5.36,17.42-14.75,20.1-1.28.37-2.52.85-3.78,1.28H20c-10.13-2-16.39-8.07-19-18V396c3.17-11.26,10.13-17.63,22.29-17.61,30.15.06,60.3-.06,90.45.06,13.93.06,21.63,7.87,21.82,21.8.14,9.49,0,19,.06,28.48,0,2.13-.34,4.35,1.62,7.31,28.49.45,57.62.4,87.28,0V347.17c-2.71-1.59-4.91-1.39-7.05-1.4-8,0-16,0-24,0-16.1-.11-25.1-9.05-25.21-25,0-6,0-12,0-18,0-2,.21-4-1.36-5.92-3-1.57-6.2-1.2-9.32-.33-13.6,15.7-25.86,18.45-36.58,8.31a21.93,21.93,0,0,1-.16-31.37,21.33,21.33,0,0,1,15.88-6.1c10.06.28,15.9,6.63,20.61,14.42,3.55.46,6.8,1.23,10.61-1.16a259.33,259.33,0,0,0,0-30.16c-3.2-2-5.75-1.63-8.21-1.64q-25.23,0-50.47,0c-12.83,0-25.66.06-38.48-.06-6.53-.05-9-2.58-9.28-9.09-.08-1.83,0-3.67,0-5.5q0-45,0-90c0-2.59.59-5.34-1.2-7.74-2-1-4.23-.78-6.38-.78-10.33,0-20.66.11-31-.09-10.68-.22-17.27-4.87-20.36-13.82C2,120.45,1.49,119.23,1,118V19Q4.74,4.73,19,1h99c13.83,3.7,18.34,13.31,17.7,26.81-.5,10.81-.08,21.66-.11,32.49,0,7.57-2.31,11.17-7,11.22s-7.13-3.58-7.16-11.08c0-12.49-.07-25,0-37.49,0-4.6-1.66-7.32-6.65-7.32q-46.24,0-92.49,0c-4.6,0-6.64,2.29-6.64,6.8q0,46,0,92c0,4.81,2.23,7,7,7q46-.06,92,0c4.53,0,6.78-2.11,6.76-6.68,0-5.33-.09-10.67.13-16,.22-5.16,2.94-8.18,6.93-8.22s6.81,3,7.06,8.09c.23,4.83.14,9.67.09,14.5-.15,14.65-7.59,22.27-22.17,22.49-10.16.16-20.33,0-30.5.08-2.12,0-4.35-.35-6.72,1.31v97.62h90.57c1.8-2.82,1.47-5.21,1.48-7.51,0-12-.09-24,.09-36,.2-13.17,9.67-22.53,22.87-22.74,8.83-.14,17.66,0,26.49-.07,2.28,0,4.72.39,7.18-2.05a199.45,199.45,0,0,0,0-27.55c-15.8-12.35-18.83-25.22-9.07-36.22a21.93,21.93,0,0,1,31.36-1.05,21.26,21.26,0,0,1,6.53,16.21c-.24,10.06-6.56,15.94-14.59,20.82a207.91,207.91,0,0,0,.21,29.59c14.11.34,27.42.58,40.32-.06,2-3.35,1.61-6.07,1.61-8.69q0-42.74,0-85.49c0-10.64,1.75-12.35,12.59-12.36q38.24,0,76.49,0c2.43,0,5,.53,7.26-1.22,1-2,.77-4.21.77-6.35,0-10.5-.11-21,.09-31.5.2-10.17,5-16.81,13.82-19.85,1.26-.43,2.48-1,3.71-1.45h99q14.26,3.74,18,18v99c-3.26,11.5-10.48,17.67-22.81,17.62-29.83-.11-59.65.06-89.47-.08-14.65-.07-22.16-7.76-22.3-22.34-.09-10.16,0-20.33-.05-30.49,0-2.11.39-4.36-1.49-6.63h-82c-.26,30.74-.17,61,.41,91.26,3,1.15,5.19.9,7.34.92,6.83,0,13.66-.08,20.49.07,12.85.27,22.25,9.67,22.55,22.57.15,6.33,0,12.66.09,19,0,2.13-.28,4.37,1.81,6.88,11.15.94,22.85.63,34.1.14,13.29-16.07,26-18.89,36.81-8.6a21.8,21.8,0,0,1,0,31.36c-10.76,10.28-23.34,7.51-36.95-8.67-11.27-.22-23.1-.77-35.31.36-.64,9-1,17,.17,24.81,2.93,1.55,5.47,1.2,7.93,1.2q42.48,0,85,0c11.25,0,13.27,2.06,13.28,13.5q0,49.49,0,99c0,2.59-.59,5.35,1.2,7.74,2.05,1,4.24.78,6.38.78,10.5,0,21-.11,31.49.09,10.18.2,16.79,5,19.84,13.83.44,1.25,1,2.47,1.46,3.7v99C510.38,504.92,504.14,511,494,513Z" />
                <path class="cls-1"
                    d="M256.49,332.27c20.83,0,41.65,0,62.48,0,10,0,13.26-3.2,13.27-13.14q.06-62,0-124c0-10.31-3.11-13.38-13.51-13.39q-61.73,0-123.45,0c-10.41,0-13.51,3.07-13.52,13.37q0,61.73,0,123.45c0,10.62,3.07,13.65,13.76,13.67Q226,332.32,256.49,332.27Z" />
                <path class="cls-1"
                    d="M498.39,68.72c0-14.82,0-29.64,0-44.46,0-7.31-1.27-8.63-8.32-8.63q-44.71-.06-89.43,0c-6.59,0-8,1.4-8,7.93q-.06,45,0,89.93c0,6.49,1.43,7.87,8,7.88q44.71.06,89.43,0c6.88,0,8.24-1.36,8.26-8.18C498.43,98.37,498.39,83.54,498.39,68.72Z" />
                <path class="cls-1"
                    d="M68.24,498.39c15,0,30,0,45,0,6.81,0,8.15-1.38,8.16-8.27q.06-44.72,0-89.44c0-6.6-1.4-8-7.9-8q-45-.06-89.93,0c-6.52,0-7.9,1.42-7.91,8q-.06,44.72,0,89.43c0,6.92,1.33,8.27,8.14,8.29C38.6,498.43,53.42,498.39,68.24,498.39Z" />
                <path class="cls-1" d="M240,117.2A8,8,0,1,0,231.8,125,8.11,8.11,0,0,0,240,117.2Z" />
                <path class="cls-1" d="M128,288.89a8,8,0,1,0,8.09-7.87A8.11,8.11,0,0,0,128,288.89Z" />
                <path class="cls-1" d="M296,400.76a8,8,0,1,0-7.74,8.21A8.12,8.12,0,0,0,296,400.76Z" />
                <path class="cls-1" d="M411.25,223.93a7.78,7.78,0,1,0-7.84,8A7.91,7.91,0,0,0,411.25,223.93Z" />
                <path class="cls-1"
                    d="M445.62,408.43c7.66,0,15.31-.13,23,0,9.46.19,13.84,4.42,13.94,13.83q.25,23.21,0,46.43c-.1,9.4-4.48,13.73-13.93,13.82q-23.22.24-46.43,0c-9.17-.1-13.58-4.45-13.69-13.55q-.27-23.48,0-46.93c.11-9.11,4.51-13.37,13.68-13.58C430,408.29,437.8,408.43,445.62,408.43Z" />
                <path class="cls-1" d="M423,467.73h44.82V423.27H423Z" />
                <path class="cls-1"
                    d="M31.43,68.49c0-7.66-.12-15.31,0-23,.18-9.68,4.46-14,14.22-14.07q23-.19,45.93,0c9.46.09,13.83,4.41,13.93,13.82q.25,23.22,0,46.43c-.1,9.4-4.49,13.72-14,13.81q-23.2.24-46.43,0C36,105.42,31.69,101.06,31.47,92,31.28,84.14,31.43,76.31,31.43,68.49Z" />
                <path class="cls-1" d="M46.27,46V91.36c15.17-.15,29.67.55,44.46-.44V46Z" />
                <path class="cls-1"
                    d="M212.29,212.55v89h89.22v-88.2c-3.24-2.49-6.87-1.42-10.27-1.61-5.65-.31-8.77-2.61-8.78-6.76s3.06-6.58,8.77-6.69c4.17-.08,8.34-.1,12.5,0,8,.22,11.89,4,11.94,12.18.12,20.65.06,41.31.07,62,0,10.16.06,20.33-.05,30.49-.09,8.76-3.83,12.69-12.44,12.72q-46.23.13-92.46,0c-8.65,0-12.46-3.92-12.48-12.68q-.1-46,0-92c0-8.79,3.82-12.66,12.42-12.72,14.66-.11,29.32,0,44,0,2.36,0,4.69.11,6.57,1.83a6.08,6.08,0,0,1,1.94,6.78,6.48,6.48,0,0,1-6.42,4.69c-7.83.14-15.66,0-23.48.18C226.56,211.91,219.74,211.15,212.29,212.55Z" />
                <path class="cls-1"
                    d="M482.58,69c0,7.49.11,15,0,22.46-.19,9.69-4.46,14-14.21,14.08q-23,.21-45.93,0c-9.46-.09-13.84-4.42-13.94-13.82q-.24-23.2,0-46.43c.1-9.4,4.48-13.72,13.94-13.82q23-.23,45.93,0c9.76.09,14,4.39,14.21,14.08C482.69,53.35,482.58,61.18,482.58,69Z" />
                <path class="cls-1" d="M468,46.26H422.65c.13,15.16-.54,29.66.42,44.48H468Z" />
                <path class="cls-1"
                    d="M31.42,445.51c0-7.66-.11-15.31,0-23,.18-9.69,4.45-14,14.2-14.08q23-.21,45.93,0c9.47.1,13.85,4.41,14,13.81q.25,23.22,0,46.43c-.1,9.41-4.48,13.74-13.93,13.83q-23,.24-45.93,0c-9.75-.09-14-4.4-14.23-14.08-.1-3.82,0-7.65,0-11.48V445.51Z" />
                <path class="cls-1"
                    d="M46.14,468.31c15.2,0,29.69.48,45-.35.3-15.24.44-29.85-.11-45.28-15.4,0-29.9-.48-44.93.35Z" />
            </g>
        </g>
    </g>
</svg>