<svg xmlns="http://www.w3.org/2000/svg" xmlns:xlink="http://www.w3.org/1999/xlink" viewBox="0 0 1000 717.83"><defs><style>.cls-1,.cls-9{fill:none;}.cls-17,.cls-2{fill:#50d890;}.cls-12,.cls-3,.cls-6,.cls-8{fill:#fff;}.cls-3{opacity:0.7;}.cls-3,.cls-8{isolation:isolate;}.cls-4,.cls-5{fill:#263238;}.cls-12,.cls-17,.cls-4,.cls-9{stroke:#263238;stroke-linecap:round;stroke-linejoin:round;}.cls-7{clip-path:url(#clip-path);}.cls-8{opacity:0.5;}.cls-10{clip-path:url(#clip-path-2);}.cls-11{clip-path:url(#clip-path-3);}.cls-13{clip-path:url(#clip-path-4);}.cls-14{clip-path:url(#clip-path-5);}.cls-15{opacity:0.2;}.cls-16{clip-path:url(#clip-path-6);}</style><clipPath id="clip-path"><path class="cls-1" d="M388.21,384.46s-67.43,14.31-123.63,46-100.11,57.21-100.11,69.44S142,706.26,142,706.26H652.84S602.77,599,594.61,553s-17.38-75.69-43.94-105.23S446.44,380.39,388.21,384.46Z"/></clipPath><clipPath id="clip-path-2"><path class="cls-1" d="M365.76,391.63a67.31,67.31,0,0,0-31.69,53.12c-2,36.77,0,74.59-2,95s-16.35,36.81-5.11,35.77,36.78-41.89,46-41.89,12.25,19.42,16.34,25.54,18.45,8.71,18.45,8.71,13.22-15.85,13.22-21-4.09-22.49,7.09-20.43,35.74,40.87,36.78,28.59-11.26-30.75-11.26-60.26S439.34,430.44,418.81,409,386.67,390,365.76,391.63Z"/></clipPath><clipPath id="clip-path-3"><path class="cls-1" d="M374.25,391.89A157.79,157.79,0,0,0,362,451c0,32.31,16.7,65.73,23.39,81.32S407.67,568,407.67,568s-1.13-41.2,8.9-61.26,18.92-34.53,18.92-34.53-12.25-12.25-30.09-40.09S374.25,391.89,374.25,391.89Z"/></clipPath><clipPath id="clip-path-4"><path class="cls-1" d="M543.36,313.41s-3.1,45.77-8,61.85-11.83,65.58-26.61,87.22S474.7,502.69,453,504s-50.71-37.14-67.43-61.88-18.55-49.48-24.13-73.6-6.79-52,1.87-73.63,52-48.25,88.46-45.15,82.26,22.28,91.55,36.5A24.85,24.85,0,0,1,543.36,313.41Z"/></clipPath><clipPath id="clip-path-5"><path class="cls-1" d="M377,223.16s-40.21,13-43.31,29.09,17.34,72.37,16.73,79.16-6.82,12.39,0,22.28,19.15,24.74,24.12,16.7-1.87-19.8,6.17-24.74,19.18-13,13-23.51-3.08-26,9.91-27.84,24.12-10.5,17.31-.62-26.58,34-16.08,35.88,52-26,52-26-14.19,28.38-6.81,30.29,65.58-36.49,65.58-36.49,27.84,36.49,33.4,34,1.87-22.87,1.87-22.87,4.33,27.22,13,28.38,20.41-13.62,16.7-22.89-10-22.23-10-22.23,12.37-3.1,17.32-8.68,4.33-6.18-6.2-8.05-18.54-13.6-28.38-24.12-26-24.74-26-24.74,18.54,8,8.66-1.23S473.47,194.61,445,194.61s-39,14.88-39,14.88,4.94-18.57-.64-16.09-11.82,17.32-11.82,17.32-13-3.72-19.78.63-8.68,8.66-3.1,8.66a32.34,32.34,0,0,1,9.28,1.23Z"/></clipPath><clipPath id="clip-path-6"><path class="cls-1" d="M377,383.3s-14.83-34.63-27.84-34.63-12.37,29.07-4.33,44.54,25.38,21.64,30.32,12.37"/></clipPath></defs><g id="Layer_2" data-name="Layer 2"><g id="Layer_1-2" data-name="Layer 1"><g id="freepik--background-simple--inject-93"><path class="cls-2" d="M925.76,707.82c6.93-26,29.59-113.31,44.94-201.77,18.35-105.58,34.41-251-39-312s-169.77,11.71-220.24-11.82-52.74-140.78-188.1-176-211,86.82-270.69,152.6S126.48,179.94,39.37,250.33C-46.86,320,26.27,635.12,90,707.82Z"/><path class="cls-3" d="M925.76,707.82c6.93-26,29.59-113.31,44.94-201.77,18.35-105.58,34.41-251-39-312s-169.77,11.71-220.24-11.82-52.74-140.78-188.1-176-211,86.82-270.69,152.6S126.48,179.94,39.37,250.33C-46.86,320,26.27,635.12,90,707.82Z"/></g><g id="freepik--Codes--inject-93"><path class="cls-2" d="M620.06,226.56H612.4a1.89,1.89,0,1,1,0-3.78h7.66a1.89,1.89,0,1,1,0,3.78Zm1.9,6.86a1.9,1.9,0,0,0-1.9-1.89H612.4a1.89,1.89,0,1,0,0,3.78h7.66a1.89,1.89,0,0,0,1.9-1.89Zm0,8.75a1.9,1.9,0,0,0-1.9-1.89H612.4a1.89,1.89,0,1,0,0,3.78h7.66a1.88,1.88,0,0,0,1.9-1.89v0Zm0,8.75a1.9,1.9,0,0,0-1.9-1.89H612.4a1.89,1.89,0,1,0,0,3.78h7.66a1.89,1.89,0,0,0,1.9-1.89Zm0,8.75a1.9,1.9,0,0,0-1.9-1.89H612.4a1.89,1.89,0,0,0,0,3.76h7.66a1.87,1.87,0,0,0,1.9-1.84v0Zm0,8.73a1.87,1.87,0,0,0-1.87-1.87H612.4a1.89,1.89,0,0,0,0,3.76h7.66a1.89,1.89,0,0,0,1.9-1.89Zm0,8.75a1.9,1.9,0,0,0-1.9-1.89H612.4a1.89,1.89,0,1,0,0,3.78h7.66a1.89,1.89,0,0,0,1.9-1.89Zm0,8.75a1.9,1.9,0,0,0-1.9-1.89H612.4a1.9,1.9,0,0,0,0,3.79h7.66a1.9,1.9,0,0,0,1.9-1.9Zm28.61-61.23a1.86,1.86,0,0,0-1.84-1.89H628.6a1.89,1.89,0,1,0,0,3.78h20.1a1.86,1.86,0,0,0,1.87-1.87v0Zm0,8.75a1.86,1.86,0,0,0-1.84-1.89H628.6a1.89,1.89,0,1,0,0,3.78h20.1a1.86,1.86,0,0,0,1.87-1.87v0Zm0,8.75a1.86,1.86,0,0,0-1.84-1.89H628.6a1.89,1.89,0,1,0,0,3.78h20.1a1.86,1.86,0,0,0,1.88-1.86.49.49,0,0,0,0-.12Zm0,8.75a1.86,1.86,0,0,0-1.84-1.89H628.6a1.89,1.89,0,1,0,0,3.78h20.1a1.86,1.86,0,0,0,1.87-1.86v0Zm0,8.75a1.86,1.86,0,0,0-1.84-1.89H628.6a1.89,1.89,0,1,0-.42,3.76,1.48,1.48,0,0,0,.42,0h20.1a1.86,1.86,0,0,0,1.87-1.87Zm24.08,8.73a1.87,1.87,0,0,0-1.87-1.87H652.65a1.89,1.89,0,1,0-.42,3.76,1.48,1.48,0,0,0,.42,0h20.11a1.89,1.89,0,0,0,1.89-1.89Zm0,8.75a1.89,1.89,0,0,0-1.89-1.89H652.65a1.89,1.89,0,1,0,0,3.78h20.11a1.89,1.89,0,0,0,1.89-1.89Zm0,8.75a1.89,1.89,0,0,0-1.89-1.89H652.65a1.9,1.9,0,0,0,0,3.79h20.11a1.9,1.9,0,0,0,1.89-1.9Zm-15.23-61.23a2.21,2.21,0,1,0,0,.45A3.38,3.38,0,0,0,659.42,224.67Zm6.57,0a2.2,2.2,0,1,0-2.2,2.2h0a2.2,2.2,0,0,0,2.2-2.2Zm6.56,0a2.21,2.21,0,1,0,0,.45A3.38,3.38,0,0,0,672.55,224.67Zm6.55,0a2.18,2.18,0,1,0-2.18,2.2,2.18,2.18,0,0,0,2.18-2.2v0Zm6.57,0a2.2,2.2,0,1,0-2.2,2.2h0a2.2,2.2,0,0,0,2.2-2.2Zm6.55,0a2.21,2.21,0,1,0,0,.45A1.7,1.7,0,0,0,692.22,224.67Zm-32.8,17.41a2.2,2.2,0,1,0-2.22,2.17h0A2.2,2.2,0,0,0,659.42,242.08Zm6.57,0a2.2,2.2,0,1,0-4.37-.46,1.77,1.77,0,0,0,0,.46,2.2,2.2,0,0,0,4.37,0Zm6.56,0a2.2,2.2,0,1,0-4.4-.05,2.19,2.19,0,0,0,2.17,2.22h0A2.2,2.2,0,0,0,672.55,242.08Zm6.55,0a2.18,2.18,0,1,0-2.18,2.17,2.19,2.19,0,0,0,2.18-2.17Zm6.57,0a2.2,2.2,0,1,0-4.37-.46,1.77,1.77,0,0,0,0,.46,2.2,2.2,0,0,0,4.37,0Zm6.55,0a2.2,2.2,0,1,0-2.22,2.17h0a2.19,2.19,0,0,0,2.1-2.17Zm-10.38,25.14a2.2,2.2,0,1,0,0,.45A1.69,1.69,0,0,0,681.84,267.22Zm6.55,0a2.16,2.16,0,1,0,0,.09Zm6.58,0a2.2,2.2,0,1,0-2.2,2.2h0a2.2,2.2,0,0,0,2.2-2.11Zm6.55,0a2.2,2.2,0,1,0,0,.45A3.38,3.38,0,0,0,701.52,267.22Zm6.57,0a2.2,2.2,0,1,0-2.2,2.2h0a2.2,2.2,0,0,0,2.2-2.11Zm6.55,0a2.2,2.2,0,1,0-2.19,2.2h0a2.18,2.18,0,0,0,2.2-2.11Zm-32.8,18a2.2,2.2,0,1,0-2.22,2.18h0a2.18,2.18,0,0,0,2.18-2.08Zm6.55,0a2.13,2.13,0,1,0,0,.1Zm6.58,0a2.2,2.2,0,1,0-2.23,2.18h0a2.2,2.2,0,0,0,2.2-2.08Zm6.55,0a2.2,2.2,0,1,0-2.22,2.18h0a2.18,2.18,0,0,0,2.27-2.08h0Zm6.57,0a2.2,2.2,0,1,0-2.22,2.18h0a2.2,2.2,0,0,0,2.2-2.08Zm6.55,0a2.2,2.2,0,1,0-2.22,2.18h0a2.19,2.19,0,0,0,2.2-2.08Z"/><path class="cls-2" d="M620.06,296.48H612.4a1.9,1.9,0,0,1,0-3.79h7.66a1.9,1.9,0,1,1,0,3.79Zm1.9,6.85a1.9,1.9,0,0,0-1.9-1.89H612.4a1.89,1.89,0,0,0,0,3.76h7.66a1.87,1.87,0,0,0,1.9-1.77Zm0,8.73a1.87,1.87,0,0,0-1.87-1.87H612.4a1.89,1.89,0,0,0,0,3.76h7.66a1.9,1.9,0,0,0,1.9-1.79Zm0,8.75a1.9,1.9,0,0,0-1.9-1.89H612.4a1.89,1.89,0,1,0,0,3.78h7.66a1.89,1.89,0,0,0,1.9-1.79Zm0,8.75a1.9,1.9,0,0,0-1.9-1.89H612.4a1.9,1.9,0,0,0,0,3.79h7.66a1.91,1.91,0,0,0,1.9-1.87Zm0,8.75a1.9,1.9,0,0,0-1.9-1.89H612.4a1.9,1.9,0,0,0,0,3.79h7.66a1.91,1.91,0,0,0,1.9-1.8Zm0,8.76a1.9,1.9,0,0,0-1.9-1.9H612.4a1.9,1.9,0,0,0,0,3.79h7.66a1.91,1.91,0,0,0,1.9-1.8Zm0,8.75a1.9,1.9,0,0,0-1.9-1.9H612.4a1.87,1.87,0,0,0-1.87,1.87v0a1.87,1.87,0,0,0,1.87,1.87h7.66a1.88,1.88,0,0,0,1.9-1.78Zm28.61-61.24a1.86,1.86,0,0,0-1.84-1.89H628.6a1.9,1.9,0,0,0,0,3.79h20.1a1.87,1.87,0,0,0,1.87-1.8Zm0,8.75a1.87,1.87,0,0,0-1.84-1.89H628.6a1.89,1.89,0,0,0-.42,3.76,1.48,1.48,0,0,0,.42,0h20.1a1.87,1.87,0,0,0,1.87-1.77Zm0,8.73a1.87,1.87,0,0,0-1.87-1.87H628.6a1.89,1.89,0,0,0-.42,3.76,1.48,1.48,0,0,0,.42,0h20.1a1.86,1.86,0,0,0,1.87-1.79Zm0,8.75a1.86,1.86,0,0,0-1.84-1.89H628.6a1.89,1.89,0,1,0,0,3.78h20.1a1.85,1.85,0,0,0,1.87-1.79Zm0,8.75a1.86,1.86,0,0,0-1.84-1.89H628.6a1.9,1.9,0,0,0,0,3.79h20.1a1.87,1.87,0,0,0,1.87-1.87h0Zm24.08,8.75a1.89,1.89,0,0,0-1.89-1.89H652.65a1.9,1.9,0,0,0,0,3.79h20.11a1.89,1.89,0,0,0,1.89-1.8Zm0,8.76a1.9,1.9,0,0,0-1.89-1.9H652.65a1.9,1.9,0,0,0,0,3.79h20.11a1.89,1.89,0,0,0,1.89-1.8Zm0,8.75a1.9,1.9,0,0,0-1.89-1.9H652.65a1.9,1.9,0,0,0-1.89,1.9,1.87,1.87,0,0,0,1.87,1.87h20.13a1.87,1.87,0,0,0,1.89-1.78Zm-15.23-61.24a2.2,2.2,0,1,0-2.22,2.18h0a2.2,2.2,0,0,0,2.18-2.08Zm6.57,0a2.2,2.2,0,0,0-4.37-.45,1.7,1.7,0,0,0,0,.45,2.2,2.2,0,0,0,4.37,0Zm6.56,0a2.2,2.2,0,1,0-2.23,2.18h0a2.21,2.21,0,0,0,2.18-2.08Zm6.55,0a2.18,2.18,0,1,0-2.18,2.18,2.21,2.21,0,0,0,2.18-2.08Zm6.57,0a2.2,2.2,0,1,0-4.37-.45,1.7,1.7,0,0,0,0,.45,2.2,2.2,0,0,0,4.37,0Zm6.55,0a2.2,2.2,0,1,0-2.22,2.18h0a2.2,2.2,0,0,0,2.1-2.08Zm-32.8,17.48a2.2,2.2,0,1,0,0,.46A3.53,3.53,0,0,0,659.42,312.06Zm6.57,0a2.2,2.2,0,1,0-2.2,2.2h0a2.2,2.2,0,0,0,2.2-2.1Zm6.56,0a2.2,2.2,0,1,0,0,.46A3.53,3.53,0,0,0,672.55,312.06Zm6.55,0a2.15,2.15,0,1,0,0,.1Zm6.57,0a2.2,2.2,0,1,0-2.2,2.2h0a2.2,2.2,0,0,0,2.2-2.1Zm6.55,0a2.2,2.2,0,1,0,0,.46A1.77,1.77,0,0,0,692.22,312.06Zm-10.38,25.17a2.2,2.2,0,1,0-2.22,2.17h0a2.19,2.19,0,0,0,2.18-2.08Zm6.55,0a2.13,2.13,0,1,0,0,.09Zm6.58,0a2.2,2.2,0,1,0-4.38-.46,3.53,3.53,0,0,0,0,.46,2.2,2.2,0,0,0,4.38,0Zm6.55,0a2.2,2.2,0,1,0-2.22,2.17h0a2.19,2.19,0,0,0,2.27-2.08Zm6.57,0a2.2,2.2,0,1,0-4.37-.46,1.77,1.77,0,0,0,0,.46,2.2,2.2,0,0,0,4.37,0Zm6.55,0a2.2,2.2,0,1,0-4.37-.46,1.77,1.77,0,0,0,0,.46,2.2,2.2,0,0,0,4.37,0Zm-32.8,18a2.2,2.2,0,1,0-2.22,2.18h0a2.18,2.18,0,0,0,2.18-2.08Zm6.55,0a2.13,2.13,0,1,0,0,.1Zm6.58,0a2.2,2.2,0,0,0-4.38-.45,3.38,3.38,0,0,0,0,.45,2.2,2.2,0,0,0,4.38,0Zm6.55,0a2.2,2.2,0,1,0-2.22,2.18h0a2.18,2.18,0,0,0,2.27-2.08h0Zm6.57,0a2.2,2.2,0,0,0-4.37-.45,1.7,1.7,0,0,0,0,.45,2.2,2.2,0,0,0,4.37,0Zm6.55,0a2.2,2.2,0,1,0-2.22,2.18h0a2.19,2.19,0,0,0,2.2-2.08Z"/><path class="cls-2" d="M620.06,368.26H612.4a1.9,1.9,0,0,1,0-3.79h7.66a1.9,1.9,0,1,1,0,3.79Zm1.9,6.86a1.9,1.9,0,0,0-1.9-1.9H612.4a1.89,1.89,0,0,0,0,3.76h7.66a1.87,1.87,0,0,0,1.9-1.84v0Zm0,8.72a1.87,1.87,0,0,0-1.87-1.86H612.4a1.89,1.89,0,0,0,0,3.76h7.66a1.9,1.9,0,0,0,1.9-1.9Zm0,8.75a1.9,1.9,0,0,0-1.9-1.89H612.4a1.9,1.9,0,0,0,0,3.79h7.66a1.9,1.9,0,0,0,1.9-1.9Zm0,8.76a1.9,1.9,0,0,0-1.9-1.9H612.4a1.9,1.9,0,0,0,0,3.79h7.66a1.9,1.9,0,0,0,1.9-1.89Zm0,8.75a1.9,1.9,0,0,0-1.9-1.9H612.4a1.9,1.9,0,0,0,0,3.79h7.66a1.9,1.9,0,0,0,1.9-1.89v0Zm0,8.75a1.89,1.89,0,0,0-1.9-1.89H612.4a1.89,1.89,0,1,0,0,3.78h7.66a1.9,1.9,0,0,0,1.9-1.89Zm0,8.75a1.89,1.89,0,0,0-1.9-1.89H612.4a1.87,1.87,0,0,0-1.87,1.87v0a1.87,1.87,0,0,0,1.87,1.87h7.66a1.89,1.89,0,0,0,1.9-1.85v0Zm28.61-61.23a1.87,1.87,0,0,0-1.84-1.9H628.6a1.9,1.9,0,0,0,0,3.79h20.1a1.87,1.87,0,0,0,1.87-1.87v0Zm0,8.75a1.87,1.87,0,0,0-1.84-1.9H628.6a1.9,1.9,0,0,0-.42,3.77H648.7a1.87,1.87,0,0,0,1.87-1.87Zm0,8.72A1.86,1.86,0,0,0,648.7,382H628.6a1.89,1.89,0,1,0-.42,3.76H648.7a1.87,1.87,0,0,0,1.87-1.87v0Zm0,8.76a1.87,1.87,0,0,0-1.84-1.9H628.6a1.9,1.9,0,0,0,0,3.79h20.1a1.87,1.87,0,0,0,1.87-1.87v0Zm0,8.75a1.87,1.87,0,0,0-1.84-1.9H628.6a1.9,1.9,0,0,0,0,3.79h20.1a1.87,1.87,0,0,0,1.87-1.87v0ZM674.65,410a1.89,1.89,0,0,0-1.89-1.89H652.65a1.89,1.89,0,1,0,0,3.78h20.11a1.89,1.89,0,0,0,1.89-1.89Zm0,8.75a1.89,1.89,0,0,0-1.89-1.89H652.65a1.9,1.9,0,0,0,0,3.79h20.11a1.89,1.89,0,0,0,1.89-1.8Zm0,8.75a1.89,1.89,0,0,0-1.89-1.89H652.65a1.89,1.89,0,0,0-1.89,1.89,1.87,1.87,0,0,0,1.87,1.87h20.13a1.86,1.86,0,0,0,1.89-1.77Zm-15.23-61.23a2.2,2.2,0,1,0-2.22,2.18h0a2.21,2.21,0,0,0,2.18-2.08Zm6.57,0a2.2,2.2,0,0,0-4.37-.45,1.7,1.7,0,0,0,0,.45,2.2,2.2,0,0,0,4.37,0Zm6.56,0a2.2,2.2,0,1,0-2.23,2.18h0a2.21,2.21,0,0,0,2.18-2.08Zm6.55,0a2.18,2.18,0,1,0-2.18,2.18,2.21,2.21,0,0,0,2.18-2.08Zm6.57,0a2.2,2.2,0,1,0-4.37-.45,1.7,1.7,0,0,0,0,.45,2.2,2.2,0,0,0,4.37,0Zm6.55,0a2.2,2.2,0,0,0-4.4,0,2.22,2.22,0,0,0,2.18,2.23h0a2.2,2.2,0,0,0,2.1-2.08Zm-32.8,17.48a2.2,2.2,0,1,0,0,.45A3.38,3.38,0,0,0,659.42,383.75Zm6.57,0a2.2,2.2,0,1,0-2.2,2.2h0a2.2,2.2,0,0,0,2.2-2.11Zm6.56,0a2.2,2.2,0,1,0,0,.45A3.38,3.38,0,0,0,672.55,383.75Zm6.55,0a2.16,2.16,0,1,0,0,.09Zm6.57,0a2.2,2.2,0,1,0-2.2,2.2h0a2.2,2.2,0,0,0,2.2-2.11Zm6.55,0a2.2,2.2,0,1,0,0,.45A1.7,1.7,0,0,0,692.22,383.75Zm-10.38,25.16a2.2,2.2,0,1,0-2.22,2.18h0a2.19,2.19,0,0,0,2.18-2.08Zm6.55,0a2.18,2.18,0,1,0-2.17,2.18,2.19,2.19,0,0,0,2.17-2.08Zm6.58,0a2.2,2.2,0,0,0-4.38-.45,3.38,3.38,0,0,0,0,.45,2.2,2.2,0,0,0,4.38,0Zm6.55,0a2.2,2.2,0,1,0-2.22,2.18h0a2.19,2.19,0,0,0,2.27-2.08Zm6.57,0a2.2,2.2,0,0,0-4.37-.45,1.7,1.7,0,0,0,0,.45,2.2,2.2,0,0,0,4.37,0Zm6.55,0a2.2,2.2,0,0,0-4.37-.45,1.7,1.7,0,0,0,0,.45,2.2,2.2,0,0,0,4.37,0Zm-32.8,18a2.2,2.2,0,1,0-2.22,2.18h0a2.18,2.18,0,0,0,2.18-2.08Zm6.55,0a2.13,2.13,0,1,0,0,.1Zm6.58,0a2.2,2.2,0,0,0-4.38-.45,3.38,3.38,0,0,0,0,.45,2.2,2.2,0,0,0,4.38,0Zm6.55,0a2.2,2.2,0,1,0-2.22,2.18h0a2.18,2.18,0,0,0,2.27-2.08h0Zm6.57,0a2.2,2.2,0,0,0-4.37-.45,1.7,1.7,0,0,0,0,.45,2.2,2.2,0,0,0,4.37,0Zm6.55,0a2.2,2.2,0,1,0-2.22,2.18h0a2.19,2.19,0,0,0,2.2-2.08Z"/><path class="cls-2" d="M737.56,226.56H730a1.89,1.89,0,1,1,0-3.78h7.64a1.89,1.89,0,1,1,0,3.78Zm1.9,6.86a1.9,1.9,0,0,0-1.9-1.89H730a1.89,1.89,0,1,0,0,3.78h7.64A1.9,1.9,0,0,0,739.46,233.42Zm0,8.75a1.9,1.9,0,0,0-1.9-1.89H730a1.89,1.89,0,1,0,0,3.78h7.64a1.89,1.89,0,0,0,1.83-2v.07Zm0,8.75a1.9,1.9,0,0,0-1.9-1.89H730a1.89,1.89,0,1,0,0,3.78h7.64a1.89,1.89,0,0,0,1.83-1.89Zm0,8.75a1.87,1.87,0,0,0-1.85-1.89H730a1.89,1.89,0,1,0-.42,3.76,1.48,1.48,0,0,0,.42,0h7.64a1.87,1.87,0,0,0,1.83-1.87Zm0,8.73a1.87,1.87,0,0,0-1.87-1.87H730a1.89,1.89,0,1,0-.42,3.76,1.48,1.48,0,0,0,.42,0h7.64a1.87,1.87,0,0,0,1.83-1.89Zm0,8.75a1.9,1.9,0,0,0-1.9-1.89H730a1.89,1.89,0,1,0,0,3.78h7.64a1.89,1.89,0,0,0,1.83-1.89Zm0,8.75a1.9,1.9,0,0,0-1.9-1.89H730a1.9,1.9,0,0,0,0,3.79h7.64a1.91,1.91,0,0,0,1.83-1.9Zm28.64-61.23a1.89,1.89,0,0,0-1.89-1.89H746.13a1.89,1.89,0,1,0,0,3.78h20.08a1.89,1.89,0,0,0,1.89-1.89Zm0,8.75a1.89,1.89,0,0,0-1.89-1.89H746.13a1.89,1.89,0,1,0,0,3.78h20.08a1.89,1.89,0,0,0,1.89-1.89Zm0,8.75a1.89,1.89,0,0,0-1.89-1.89H746.13a1.89,1.89,0,1,0,0,3.78h20.08a1.88,1.88,0,0,0,1.89-1.89v0Zm0,8.75a1.89,1.89,0,0,0-1.89-1.89H746.13a1.89,1.89,0,1,0,0,3.78h20.08a1.89,1.89,0,0,0,1.89-1.89Zm0,8.75a1.89,1.89,0,0,0-1.89-1.89H746.13a1.89,1.89,0,1,0-.43,3.76,1.55,1.55,0,0,0,.43,0h20.08a1.87,1.87,0,0,0,1.89-1.84v0Zm24,8.73a1.87,1.87,0,0,0-1.87-1.87H770.2a1.89,1.89,0,1,0-.42,3.76,1.48,1.48,0,0,0,.42,0h20.08a1.88,1.88,0,0,0,1.87-1.89Zm0,8.75a1.89,1.89,0,0,0-1.89-1.89H770.2a1.89,1.89,0,0,0,0,3.78h20.08a1.88,1.88,0,0,0,1.87-1.89Zm0,8.75a1.89,1.89,0,0,0-1.89-1.89H770.2a1.9,1.9,0,0,0,0,3.79h20.08a1.9,1.9,0,0,0,1.87-1.9Zm-15.21-61.23a2.2,2.2,0,1,0-2.2,2.2h0a2.2,2.2,0,0,0,2.2-2.2Zm6.55,0a2.21,2.21,0,1,0,0,.45A1.69,1.69,0,0,0,783.49,224.67Zm6.58,0a2.2,2.2,0,1,0-2.2,2.2h0a2.21,2.21,0,0,0,2.2-2.2Zm6.55,0a2.2,2.2,0,1,0-2.2,2.2h0a2.18,2.18,0,0,0,2.2-2.15v-.05Zm6.55,0a2.21,2.21,0,1,0,0,.45A1.7,1.7,0,0,0,803.17,224.67Zm6.58,0a2.2,2.2,0,1,0-2.2,2.2h0a2.21,2.21,0,0,0,2.2-2.2Zm-32.81,17.41a2.2,2.2,0,1,0-4.37-.46,1.77,1.77,0,0,0,0,.46,2.2,2.2,0,0,0,4.37,0Zm6.55,0a2.2,2.2,0,1,0-2.22,2.17h.05A2.19,2.19,0,0,0,783.49,242.08Zm6.58,0a2.2,2.2,0,1,0-4.38-.46,3.53,3.53,0,0,0,0,.46,2.2,2.2,0,0,0,4.38,0Zm6.55,0a2.2,2.2,0,1,0-4.37-.46,1.77,1.77,0,0,0,0,.46,2.2,2.2,0,0,0,4.37,0Zm6.55,0a2.2,2.2,0,1,0-2.22,2.17h0a2.19,2.19,0,0,0,2.17-2.17Zm6.58,0a2.2,2.2,0,1,0-4.38-.46,3.53,3.53,0,0,0,0,.46,2.2,2.2,0,0,0,4.38,0Zm-10.39,25.14a2.2,2.2,0,1,0-2.2,2.2h0a2.2,2.2,0,0,0,2.2-2.11Zm6.56,0a2.2,2.2,0,1,0-2.2,2.2h0a2.2,2.2,0,0,0,2.2-2.11Zm6.55,0a2.2,2.2,0,1,0,0,.45A3.38,3.38,0,0,0,812.47,267.22Zm6.57,0a2.2,2.2,0,1,0-2.2,2.2h0a2.2,2.2,0,0,0,2.2-2.11Zm6.55,0a2.2,2.2,0,1,0,0,.45A1.69,1.69,0,0,0,825.59,267.22Zm6.56,0a2.2,2.2,0,1,0,0,.45A3.38,3.38,0,0,0,832.15,267.22Zm-32.79,18a2.2,2.2,0,1,0-2.22,2.18h0a2.19,2.19,0,0,0,2.2-2.08Zm6.56,0a2.2,2.2,0,1,0-2.23,2.18h0a2.2,2.2,0,0,0,2.2-2.08Zm6.55,0a2.2,2.2,0,1,0-2.23,2.18h0a2.18,2.18,0,0,0,2.18-2.08Zm6.57,0a2.2,2.2,0,1,0-2.22,2.18h0a2.2,2.2,0,0,0,2.2-2.08Zm6.55,0a2.2,2.2,0,1,0-2.22,2.18h0a2.18,2.18,0,0,0,2.17-2.08Zm6.56,0a2.2,2.2,0,1,0-2.23,2.18H830a2.19,2.19,0,0,0,2.18-2.08Z"/><path class="cls-2" d="M737.56,298.25H730a1.89,1.89,0,0,1,0-3.78h7.64a1.89,1.89,0,1,1,0,3.78Zm1.9,6.86a1.89,1.89,0,0,0-1.9-1.89H730a1.89,1.89,0,0,0,0,3.78h7.64A1.9,1.9,0,0,0,739.46,305.11Zm0,8.75a1.89,1.89,0,0,0-1.9-1.89H730a1.89,1.89,0,0,0,0,3.78h7.64a1.9,1.9,0,0,0,1.83-1.89Zm0,8.75a1.9,1.9,0,0,0-1.9-1.89H730a1.89,1.89,0,0,0,0,3.78h7.64a1.9,1.9,0,0,0,1.83-1.89Zm0,8.75a1.87,1.87,0,0,0-1.85-1.89H730a1.89,1.89,0,1,0-.42,3.76,1.48,1.48,0,0,0,.42,0h7.64a1.88,1.88,0,0,0,1.83-1.87Zm0,8.73a1.87,1.87,0,0,0-1.87-1.87H730a1.89,1.89,0,1,0-.42,3.76,1.48,1.48,0,0,0,.42,0h7.64a1.88,1.88,0,0,0,1.83-1.89Zm0,8.75a1.89,1.89,0,0,0-1.9-1.89H730a1.89,1.89,0,1,0,0,3.78h7.64a1.9,1.9,0,0,0,1.83-1.89Zm0,8.75a1.9,1.9,0,0,0-1.9-1.89H730a1.89,1.89,0,1,0,0,3.78h7.64A1.9,1.9,0,0,0,739.46,357.59Zm28.64-61.11a1.9,1.9,0,0,0-1.89-1.9H746.13a1.9,1.9,0,1,0,0,3.79h20.08A1.89,1.89,0,0,0,768.1,296.48Zm0,8.75a1.9,1.9,0,0,0-1.89-1.9H746.13a1.9,1.9,0,1,0,0,3.79h20.08a1.89,1.89,0,0,0,1.89-1.89v0Zm0,8.75a1.89,1.89,0,0,0-1.89-1.89H746.13a1.89,1.89,0,1,0,0,3.78h20.08A1.89,1.89,0,0,0,768.1,314v0Zm0,8.75a1.89,1.89,0,0,0-1.89-1.89H746.13a1.89,1.89,0,1,0,0,3.78h20.08a1.89,1.89,0,0,0,1.89-1.89v0Zm0,8.75a1.89,1.89,0,0,0-1.89-1.89H746.13a1.89,1.89,0,1,0-.43,3.76h20.51a1.87,1.87,0,0,0,1.89-1.84v0Zm24,8.73a1.87,1.87,0,0,0-1.87-1.87H770.2a1.89,1.89,0,1,0-.42,3.76h20.5a1.88,1.88,0,0,0,1.87-1.91v0Zm0,8.75a1.89,1.89,0,0,0-1.89-1.89H770.2a1.89,1.89,0,0,0,0,3.78h20.08a1.88,1.88,0,0,0,1.87-1.91v0Zm0,8.75a1.89,1.89,0,0,0-1.89-1.89H770.2a1.89,1.89,0,0,0,0,3.78h20.08a1.88,1.88,0,0,0,1.87-1.91v0Zm-15.21-61.23a2.2,2.2,0,1,0-2.2,2.19h0A2.19,2.19,0,0,0,776.94,296.48Zm6.55,0a2.2,2.2,0,1,0,0,.45A1.69,1.69,0,0,0,783.49,296.48Zm6.58,0a2.2,2.2,0,1,0-2.2,2.19h0A2.2,2.2,0,0,0,790.07,296.48Zm6.55,0a2.2,2.2,0,1,0-2.2,2.19h0a2.17,2.17,0,0,0,2.2-2.15v0Zm6.55,0a2.2,2.2,0,1,0,0,.45A1.7,1.7,0,0,0,803.17,296.48Zm6.58,0a2.2,2.2,0,1,0-2.2,2.19h0a2.19,2.19,0,0,0,2.2-2.19ZM776.94,314a2.2,2.2,0,1,0-4.37-.46,1.77,1.77,0,0,0,0,.46,2.2,2.2,0,0,0,4.37,0Zm6.55,0a2.2,2.2,0,1,0-2.22,2.17h.05a2.2,2.2,0,0,0,2.18-2.22.17.17,0,0,0,0-.07Zm6.58,0a2.2,2.2,0,1,0-4.38-.46,3.53,3.53,0,0,0,0,.46,2.2,2.2,0,0,0,4.38,0Zm6.55,0a2.2,2.2,0,1,0-4.37-.46,1.77,1.77,0,0,0,0,.46,2.2,2.2,0,0,0,4.37,0Zm6.55,0a2.2,2.2,0,1,0-2.22,2.17h0a2.19,2.19,0,0,0,2.17-2.22V314Zm6.58,0a2.2,2.2,0,1,0-4.38-.46,3.53,3.53,0,0,0,0,.46,2.2,2.2,0,0,0,4.38,0Zm-10.39,25.07a2.2,2.2,0,1,0-2.19,2.2h0A2.2,2.2,0,0,0,799.36,339.05Zm6.56,0a2.2,2.2,0,1,0-2.2,2.2h0a2.21,2.21,0,0,0,2.2-2.2Zm6.55,0a2.2,2.2,0,1,0,0,.45A3.38,3.38,0,0,0,812.47,339.05Zm6.57,0a2.2,2.2,0,1,0-2.2,2.2h0a2.2,2.2,0,0,0,2.2-2.2Zm6.55,0a2.2,2.2,0,1,0,0,.45A1.69,1.69,0,0,0,825.59,339.05Zm6.56,0a2.2,2.2,0,1,0,0,.45A3.38,3.38,0,0,0,832.15,339.05Zm-32.79,18a2.2,2.2,0,1,0-2.22,2.18h0a2.19,2.19,0,0,0,2.2-2.2v0Zm6.56,0a2.2,2.2,0,1,0-2.23,2.18h0a2.2,2.2,0,0,0,2.2-2.2v0Zm6.55,0a2.2,2.2,0,1,0-2.23,2.18h0a2.18,2.18,0,0,0,2.18-2.18v0Zm6.57,0a2.2,2.2,0,1,0-2.22,2.18h0a2.19,2.19,0,0,0,2.2-2.2v0Zm6.55,0a2.2,2.2,0,1,0-2.22,2.18h0a2.17,2.17,0,0,0,2.17-2.18v0Zm6.56,0a2.2,2.2,0,1,0-2.23,2.18H830a2.18,2.18,0,0,0,2.18-2.18v0Z"/><path class="cls-2" d="M362.4,67.55h-7.66a1.89,1.89,0,1,1,0-3.78h7.66a1.89,1.89,0,1,1,0,3.78Zm1.9,6.86a1.9,1.9,0,0,0-1.9-1.89h-7.66a1.89,1.89,0,1,0,0,3.78h7.66a1.89,1.89,0,0,0,1.9-1.89Zm0,8.75a1.9,1.9,0,0,0-1.9-1.89h-7.66a1.9,1.9,0,0,0,0,3.79h7.66a1.9,1.9,0,0,0,1.9-1.9Zm0,8.75A1.9,1.9,0,0,0,362.4,90h-7.66a1.87,1.87,0,0,0-1.87,1.87v0a1.87,1.87,0,0,0,1.87,1.87h7.66a1.87,1.87,0,0,0,1.9-1.84Zm0,8.73a1.87,1.87,0,0,0-1.87-1.87h-7.69a1.89,1.89,0,0,0,0,3.76h7.66a1.89,1.89,0,0,0,1.9-1.89Zm0,8.75a1.87,1.87,0,0,0-1.87-1.87h-7.69a1.88,1.88,0,0,0,0,3.76h7.68a1.89,1.89,0,0,0,1.9-1.89Zm0,8.75a1.9,1.9,0,0,0-1.9-1.89h-7.66a1.9,1.9,0,0,0,0,3.79h7.66a1.9,1.9,0,0,0,1.9-1.9Zm0,8.75a1.9,1.9,0,0,0-1.9-1.89h-7.66a1.9,1.9,0,0,0,0,3.79h7.66a1.9,1.9,0,0,0,1.9-1.9Zm28.64-61.23a1.89,1.89,0,0,0-1.89-1.89H370.94a1.89,1.89,0,1,0,0,3.78h20.11a1.89,1.89,0,0,0,1.89-1.89Zm0,8.75a1.89,1.89,0,0,0-1.89-1.89H370.94a1.89,1.89,0,1,0,0,3.78h20.11a1.89,1.89,0,0,0,1.89-1.89Zm0,8.75a1.89,1.89,0,0,0-1.89-1.89H370.94a1.9,1.9,0,0,0,0,3.79h20.11a1.9,1.9,0,0,0,1.89-1.9Zm0,8.75A1.89,1.89,0,0,0,391.05,90H370.94a1.89,1.89,0,0,0-1.89,1.89h0a1.87,1.87,0,0,0,1.87,1.87h20.13a1.86,1.86,0,0,0,1.89-1.84v0Zm0,8.73a1.87,1.87,0,0,0-1.87-1.87H370.94a1.89,1.89,0,1,0-.42,3.76,1.48,1.48,0,0,0,.42,0h20.11a1.89,1.89,0,0,0,1.89-1.89ZM417,109.39a1.87,1.87,0,0,0-1.87-1.87H395a1.88,1.88,0,0,0-1.9,1.85v0a1.89,1.89,0,0,0,1.9,1.89h20.1a1.89,1.89,0,0,0,1.89-1.89Zm0,8.75a1.89,1.89,0,0,0-1.89-1.89H395a1.9,1.9,0,1,0,0,3.79h20.1a1.9,1.9,0,0,0,1.89-1.9Zm0,8.75A1.89,1.89,0,0,0,415.1,125H395a1.9,1.9,0,1,0,0,3.79h20.1a1.9,1.9,0,0,0,1.89-1.9ZM401.76,65.66a2.2,2.2,0,1,0,0,.46A1.77,1.77,0,0,0,401.76,65.66Zm6.58,0a2.2,2.2,0,1,0-2.2,2.2h0a2.2,2.2,0,0,0,2.2-2.2Zm6.55,0a2.2,2.2,0,1,0,0,.46A3.53,3.53,0,0,0,414.89,65.66Zm6.57,0a2.2,2.2,0,1,0-2.2,2.2h0a2.19,2.19,0,0,0,2.2-2.2Zm6.55,0a2.2,2.2,0,1,0-2.2,2.2h0a2.17,2.17,0,0,0,2.2-2.15v0Zm6.55,0a2.2,2.2,0,1,0,0,.46A1.77,1.77,0,0,0,434.56,65.66Zm-32.8,17.5a2.2,2.2,0,1,0-2.22,2.18h0a2.2,2.2,0,0,0,2.18-2.18Zm6.58,0a2.2,2.2,0,0,0-4.38-.45,1.69,1.69,0,0,0,0,.45,2.2,2.2,0,0,0,4.38,0Zm6.55,0a2.2,2.2,0,1,0-2.23,2.18h0a2.2,2.2,0,0,0,2.18-2.18Zm6.57,0a2.2,2.2,0,1,0-4.37-.45,1.7,1.7,0,0,0,0,.45,2.2,2.2,0,0,0,4.37,0Zm6.55,0a2.2,2.2,0,1,0-4.37-.45,1.69,1.69,0,0,0,0,.45,2.2,2.2,0,0,0,4.37,0Zm6.55,0a2.2,2.2,0,1,0-2.22,2.18h.05a2.19,2.19,0,0,0,2.17-2.18ZM424.18,108.3a2.2,2.2,0,1,0,0,.46A1.77,1.77,0,0,0,424.18,108.3Zm6.58,0a2.2,2.2,0,1,0-2.2,2.2h0a2.2,2.2,0,0,0,2.2-2.2Zm6.55,0a2.2,2.2,0,1,0-2.2,2.2h0a2.2,2.2,0,0,0,2.2-2.2Zm6.55,0a2.2,2.2,0,1,0,0,.46A1.77,1.77,0,0,0,443.86,108.3Zm6.57,0a2.2,2.2,0,1,0-2.19,2.2h0a2.19,2.19,0,0,0,2.19-2.2Zm6.56,0a2.2,2.2,0,1,0,0,.46A3.53,3.53,0,0,0,457,108.3Zm-32.81,18a2.2,2.2,0,1,0-2.22,2.18H422a2.2,2.2,0,0,0,2.17-2.18Zm6.58,0a2.2,2.2,0,0,0-4.38-.45,3.38,3.38,0,0,0,0,.45,2.2,2.2,0,0,0,4.38,0Zm6.55,0a2.2,2.2,0,0,0-4.38-.45,3.38,3.38,0,0,0,0,.45,2.2,2.2,0,0,0,4.38,0Zm6.55,0a2.2,2.2,0,1,0-2.22,2.18h0a2.2,2.2,0,0,0,2.13-2.18Zm6.58,0a2.2,2.2,0,0,0-4.38-.45,1.7,1.7,0,0,0,0,.45,2.2,2.2,0,0,0,4.38,0Zm6.55,0a2.2,2.2,0,1,0-2.23,2.18h.05a2.21,2.21,0,0,0,2.18-2.18Z"/><path class="cls-2" d="M362.4,137.54h-7.66a1.88,1.88,0,0,1,0-3.76h7.68a1.89,1.89,0,0,1,1.9,1.89h0a1.87,1.87,0,0,1-1.87,1.87Zm1.9,6.86a1.87,1.87,0,0,0-1.87-1.87h-7.69a1.89,1.89,0,0,0,0,3.76h7.66a1.9,1.9,0,0,0,1.9-1.89Zm0,8.75a1.87,1.87,0,0,0-1.87-1.87h-7.69a1.88,1.88,0,0,0,0,3.76h7.68a1.9,1.9,0,0,0,1.9-1.89Zm0,8.75a1.89,1.89,0,0,0-1.9-1.89h-7.66a1.89,1.89,0,0,0,0,3.78h7.66a1.9,1.9,0,0,0,1.9-1.89Zm0,8.75a1.89,1.89,0,0,0-1.9-1.89h-7.66a1.89,1.89,0,0,0,0,3.78h7.66a1.9,1.9,0,0,0,1.9-1.89Zm0,8.75a1.9,1.9,0,0,0-1.9-1.89h-7.66a1.89,1.89,0,0,0,0,3.78h7.66a1.89,1.89,0,0,0,1.9-1.89Zm0,8.75a1.9,1.9,0,0,0-1.9-1.89h-7.66a1.89,1.89,0,0,0,0,3.78h7.66a1.89,1.89,0,0,0,1.9-1.89Zm0,8.75a1.9,1.9,0,0,0-1.9-1.89h-7.66a1.89,1.89,0,0,0,0,3.76h7.66a1.87,1.87,0,0,0,1.9-1.84v0Zm28.64-61.25a1.9,1.9,0,0,0-1.89-1.9H370.94a1.9,1.9,0,0,0-1.89,1.9h0a1.87,1.87,0,0,0,1.87,1.86h20.13a1.86,1.86,0,0,0,1.89-1.84Zm0,8.72a1.87,1.87,0,0,0-1.87-1.87H370.94a1.9,1.9,0,0,0-.42,3.77h20.53a1.9,1.9,0,0,0,1.89-1.87Zm0,8.75a1.87,1.87,0,0,0-1.87-1.86H370.94a1.86,1.86,0,0,0-1.89,1.84v0a1.9,1.9,0,0,0,1.89,1.9h20.11a1.9,1.9,0,0,0,1.89-1.87Zm0,8.76a1.9,1.9,0,0,0-1.89-1.9H370.94a1.9,1.9,0,0,0,0,3.79h20.11a1.9,1.9,0,0,0,1.89-1.87Zm0,8.75a1.9,1.9,0,0,0-1.89-1.9H370.94a1.9,1.9,0,0,0,0,3.79h20.11a1.89,1.89,0,0,0,1.89-1.87ZM417,179.38a1.9,1.9,0,0,0-1.89-1.9H395a1.9,1.9,0,1,0,0,3.79h20.1A1.88,1.88,0,0,0,417,179.4Zm0,8.75a1.89,1.89,0,0,0-1.89-1.89H395a1.89,1.89,0,1,0,0,3.78h20.1a1.88,1.88,0,0,0,1.89-1.87Zm0,8.75A1.89,1.89,0,0,0,415.1,195H395a1.89,1.89,0,1,0-.43,3.76H415.1A1.87,1.87,0,0,0,417,196.9h0Zm-15.23-61.23a2.2,2.2,0,1,0-2.22,2.17h0A2.2,2.2,0,0,0,401.76,135.65Zm6.58,0a2.2,2.2,0,1,0-4.38-.46,1.77,1.77,0,0,0,0,.46,2.2,2.2,0,0,0,4.38,0Zm6.55,0a2.2,2.2,0,1,0-2.23,2.17h0A2.2,2.2,0,0,0,414.89,135.65Zm6.57,0a2.2,2.2,0,1,0-4.37-.46,1.77,1.77,0,0,0,0,.46,2.2,2.2,0,0,0,4.37,0Zm6.55,0a2.2,2.2,0,1,0-4.37-.46,1.77,1.77,0,0,0,0,.46,2.2,2.2,0,0,0,4.37,0Zm6.55,0a2.2,2.2,0,1,0-2.22,2.17h.05a2.19,2.19,0,0,0,2.17-2.17Zm-32.8,17.47a2.2,2.2,0,1,0,0,.46A1.77,1.77,0,0,0,401.76,153.12Zm6.58,0a2.2,2.2,0,1,0-2.2,2.2h0a2.21,2.21,0,0,0,2.2-2.17Zm6.55,0a2.2,2.2,0,1,0,0,.46A3.53,3.53,0,0,0,414.89,153.12Zm6.57,0a2.2,2.2,0,1,0-2.2,2.2h0a2.19,2.19,0,0,0,2.2-2.17Zm6.55,0a2.2,2.2,0,1,0-2.2,2.2h0a2.16,2.16,0,0,0,2.2-2.15v0Zm6.55,0a2.2,2.2,0,1,0,0,.46A1.77,1.77,0,0,0,434.56,153.12Zm-10.38,25.1a2.2,2.2,0,1,0-2.22,2.17H422A2.19,2.19,0,0,0,424.18,178.22Zm6.58,0a2.2,2.2,0,1,0-4.38-.46,3.53,3.53,0,0,0,0,.46,2.2,2.2,0,0,0,4.38,0Zm6.55,0a2.2,2.2,0,1,0-4.38-.46,3.53,3.53,0,0,0,0,.46,2.2,2.2,0,0,0,4.38,0Zm6.55,0a2.2,2.2,0,1,0-2.22,2.17h0a2.19,2.19,0,0,0,2.13-2.17Zm6.57,0a2.2,2.2,0,1,0-4.37-.46,1.77,1.77,0,0,0,0,.46,2.2,2.2,0,0,0,4.37,0Zm6.56,0a2.2,2.2,0,1,0-2.23,2.17h.05A2.2,2.2,0,0,0,457,178.22Zm-32.81,18a2.2,2.2,0,1,0,0,.46A1.77,1.77,0,0,0,424.18,196.24Zm6.58,0a2.2,2.2,0,1,0-2.2,2.2h0a2.2,2.2,0,0,0,2.2-2.1Zm6.55,0a2.2,2.2,0,1,0-2.2,2.2h0a2.2,2.2,0,0,0,2.2-2.1Zm6.55,0a2.2,2.2,0,1,0,0,.46A1.77,1.77,0,0,0,443.86,196.24Zm6.57,0a2.2,2.2,0,1,0-2.19,2.2h0a2.2,2.2,0,0,0,2.19-2.1Zm6.56,0a2.2,2.2,0,1,0,0,.46A3.53,3.53,0,0,0,457,196.24Z"/><path class="cls-2" d="M362.4,209.23h-7.66a1.89,1.89,0,0,1,0-3.77h7.68a1.9,1.9,0,0,1,1.9,1.9h0a1.87,1.87,0,0,1-1.87,1.87Zm1.9,6.85a1.87,1.87,0,0,0-1.87-1.86h-7.69a1.89,1.89,0,0,0,0,3.76h7.66a1.9,1.9,0,0,0,1.9-1.9v0Zm0,8.76a1.9,1.9,0,0,0-1.9-1.9h-7.66a1.9,1.9,0,0,0,0,3.79h7.66a1.9,1.9,0,0,0,1.9-1.89Zm0,8.75a1.9,1.9,0,0,0-1.9-1.9h-7.66a1.9,1.9,0,0,0,0,3.79h7.66a1.9,1.9,0,0,0,1.9-1.89Zm0,8.75a1.89,1.89,0,0,0-1.9-1.89h-7.66a1.89,1.89,0,1,0,0,3.78h7.66a1.9,1.9,0,0,0,1.9-1.89Zm0,8.75a1.89,1.89,0,0,0-1.9-1.89h-7.66a1.89,1.89,0,1,0,0,3.78h7.66a1.9,1.9,0,0,0,1.9-1.89Zm0,8.75a1.89,1.89,0,0,0-1.9-1.89h-7.66a1.89,1.89,0,1,0,0,3.78h7.66a1.9,1.9,0,0,0,1.9-1.89Zm0,8.75a1.9,1.9,0,0,0-1.9-1.89h-7.66a1.89,1.89,0,0,0,0,3.76h7.66a1.88,1.88,0,0,0,1.9-1.85v0Zm28.64-61.23a1.9,1.9,0,0,0-1.89-1.9H370.94a1.9,1.9,0,0,0-1.89,1.9h0a1.87,1.87,0,0,0,1.87,1.87h20.13a1.87,1.87,0,0,0,1.89-1.85v0Zm0,8.72a1.87,1.87,0,0,0-1.87-1.86H370.94a1.89,1.89,0,1,0-.42,3.76,2.94,2.94,0,0,0,.42,0h20.11a1.9,1.9,0,0,0,1.89-1.9v0Zm0,8.76a1.9,1.9,0,0,0-1.89-1.9H370.94a1.9,1.9,0,0,0,0,3.79h20.11a1.89,1.89,0,0,0,1.89-1.89Zm0,8.75a1.9,1.9,0,0,0-1.89-1.9H370.94a1.9,1.9,0,0,0,0,3.79h20.11a1.89,1.89,0,0,0,1.89-1.89Zm0,8.75a1.89,1.89,0,0,0-1.89-1.89H370.94a1.89,1.89,0,1,0,0,3.78h20.11a1.89,1.89,0,0,0,1.89-1.89ZM417,251.09a1.89,1.89,0,0,0-1.89-1.89H395a1.89,1.89,0,1,0,0,3.78h20.1a1.89,1.89,0,0,0,1.89-1.89Zm0,8.75A1.89,1.89,0,0,0,415.1,258H395a1.89,1.89,0,1,0,0,3.78h20.1a1.89,1.89,0,0,0,1.89-1.89Zm0,8.75a1.89,1.89,0,0,0-1.89-1.89H395a1.89,1.89,0,1,0-.43,3.76,3.09,3.09,0,0,0,.43,0h20.1a1.87,1.87,0,0,0,1.89-1.85v0Zm-15.23-61.23a2.2,2.2,0,1,0-2.22,2.17h0a2.2,2.2,0,0,0,2.18-2.17Zm6.58,0a2.2,2.2,0,1,0-4.38-.46,1.77,1.77,0,0,0,0,.46,2.2,2.2,0,0,0,4.38,0Zm6.55,0a2.2,2.2,0,1,0-2.23,2.17h0a2.2,2.2,0,0,0,2.18-2.17Zm6.57,0a2.2,2.2,0,1,0-4.37-.46,1.77,1.77,0,0,0,0,.46,2.2,2.2,0,0,0,4.37,0Zm6.55,0a2.2,2.2,0,1,0-4.37-.46,1.77,1.77,0,0,0,0,.46,2.2,2.2,0,0,0,4.37,0Zm6.55,0a2.2,2.2,0,1,0-2.22,2.17h.05a2.19,2.19,0,0,0,2.17-2.17Zm-32.8,17.48a2.2,2.2,0,1,0,0,.45A1.69,1.69,0,0,0,401.76,224.84Zm6.58,0a2.2,2.2,0,1,0-2.2,2.19h0a2.2,2.2,0,0,0,2.2-2.19Zm6.55,0a2.2,2.2,0,1,0,0,.45A3.38,3.38,0,0,0,414.89,224.84Zm6.57,0a2.2,2.2,0,1,0-2.2,2.19h0a2.19,2.19,0,0,0,2.2-2.19Zm6.55,0a2.2,2.2,0,1,0-2.2,2.19h0a2.16,2.16,0,0,0,2.2-2.15v0Zm6.55,0a2.2,2.2,0,1,0,0,.45A1.69,1.69,0,0,0,434.56,224.84ZM424.18,250a2.2,2.2,0,1,0-2.22,2.18H422a2.2,2.2,0,0,0,2.17-2.18Zm6.58,0a2.2,2.2,0,1,0-4.38-.46,3.53,3.53,0,0,0,0,.46,2.2,2.2,0,0,0,4.38,0Zm6.55,0a2.2,2.2,0,1,0-4.38-.46,3.53,3.53,0,0,0,0,.46,2.2,2.2,0,0,0,4.38,0Zm6.55,0a2.2,2.2,0,1,0-2.22,2.18h0a2.2,2.2,0,0,0,2.13-2.18Zm6.57,0a2.2,2.2,0,1,0-4.37-.46,1.77,1.77,0,0,0,0,.46,2.2,2.2,0,0,0,4.37,0Zm6.56,0a2.2,2.2,0,1,0-2.23,2.18h.05A2.21,2.21,0,0,0,457,250Zm-32.81,18.09a2.2,2.2,0,1,0,0,.46A1.77,1.77,0,0,0,424.18,268.09Zm6.58,0a2.2,2.2,0,1,0-2.2,2.2h0A2.2,2.2,0,0,0,430.76,268.09Zm6.55,0a2.2,2.2,0,1,0-2.2,2.2h0A2.2,2.2,0,0,0,437.31,268.09Zm6.55,0a2.2,2.2,0,1,0,0,.46A1.77,1.77,0,0,0,443.86,268.09Zm6.57,0a2.2,2.2,0,1,0-2.19,2.2h0A2.19,2.19,0,0,0,450.43,268.09Zm6.56,0a2.2,2.2,0,1,0,0,.46A3.53,3.53,0,0,0,457,268.09Z"/><path class="cls-2" d="M479.93,67.55h-7.74a1.89,1.89,0,1,1,0-3.78h7.67a1.89,1.89,0,0,1,0,3.78Zm1.87,6.86A1.87,1.87,0,0,0,480,72.52h-7.76a1.89,1.89,0,1,0,0,3.78h7.67a1.87,1.87,0,0,0,1.94-1.79Zm0,8.75A1.87,1.87,0,0,0,480,81.27h-7.76a1.9,1.9,0,0,0,0,3.79h7.67a1.88,1.88,0,0,0,1.94-1.8Zm0,8.75A1.88,1.88,0,0,0,480,90h-7.76a1.89,1.89,0,0,0-1.89,1.89h0a1.87,1.87,0,0,0,1.87,1.87h7.69A1.87,1.87,0,0,0,481.8,92Zm0,8.73a1.87,1.87,0,0,0-1.87-1.87h-7.74a1.89,1.89,0,1,0-.42,3.76,1.48,1.48,0,0,0,.42,0h7.67a1.87,1.87,0,0,0,1.94-1.79Zm0,8.75a1.87,1.87,0,0,0-1.87-1.87h-7.74a1.88,1.88,0,0,0-1.89,1.85v0a1.89,1.89,0,0,0,1.89,1.89h7.67a1.87,1.87,0,0,0,1.94-1.79Zm0,8.75a1.87,1.87,0,0,0-1.85-1.89h-7.76a1.9,1.9,0,0,0,0,3.79h7.67a1.88,1.88,0,0,0,1.94-1.8v-.1Zm0,8.75A1.88,1.88,0,0,0,480,125h-7.76a1.9,1.9,0,0,0,0,3.79h7.67a1.87,1.87,0,0,0,1.94-1.8v-.1Zm28.64-61.23a1.89,1.89,0,0,0-1.89-1.89H488.47a1.89,1.89,0,1,0,0,3.78h20.08a1.89,1.89,0,0,0,1.89-1.89Zm0,8.75a1.89,1.89,0,0,0-1.89-1.89H488.47a1.89,1.89,0,1,0,0,3.78h20.08a1.89,1.89,0,0,0,1.89-1.89Zm0,8.75a1.89,1.89,0,0,0-1.89-1.89H488.47a1.9,1.9,0,1,0,0,3.79h20.08a1.9,1.9,0,0,0,1.89-1.9Zm0,8.75A1.89,1.89,0,0,0,508.55,90H488.47a1.9,1.9,0,0,0-1.9,1.89h0a1.87,1.87,0,0,0,1.87,1.87h20.11a1.86,1.86,0,0,0,1.89-1.84v0Zm0,8.73a1.87,1.87,0,0,0-1.87-1.87h-20.1a1.89,1.89,0,1,0-.43,3.76,1.55,1.55,0,0,0,.43,0h20.08a1.89,1.89,0,0,0,1.89-1.89Zm24.05,8.75a1.87,1.87,0,0,0-1.87-1.87h-20.1a1.87,1.87,0,0,0-1.89,1.85v0a1.88,1.88,0,0,0,1.89,1.89H532.6a1.88,1.88,0,0,0,1.89-1.89Zm0,8.75a1.89,1.89,0,0,0-1.89-1.89H512.52a1.9,1.9,0,0,0,0,3.79H532.6a1.9,1.9,0,0,0,1.89-1.9Zm0,8.75A1.89,1.89,0,0,0,532.6,125H512.52a1.9,1.9,0,0,0,0,3.79H532.6a1.9,1.9,0,0,0,1.89-1.9ZM519.28,65.66a2.2,2.2,0,1,0-2.2,2.2h0a2.19,2.19,0,0,0,2.2-2.2Zm6.56,0a2.2,2.2,0,1,0,0,.46A3.53,3.53,0,0,0,525.84,65.66Zm6.57,0a2.2,2.2,0,1,0-2.2,2.2h0a2.19,2.19,0,0,0,2.2-2.2Zm6.55,0a2.2,2.2,0,1,0,0,.46A1.77,1.77,0,0,0,539,65.66Zm6.55,0a2.2,2.2,0,1,0,0,.46A1.77,1.77,0,0,0,545.51,65.66Zm6.58,0a2.2,2.2,0,1,0-2.2,2.2h0a2.2,2.2,0,0,0,2.2-2.2Zm-32.81,17.5a2.2,2.2,0,1,0-4.37-.45,1.69,1.69,0,0,0,0,.45,2.2,2.2,0,0,0,4.37,0Zm6.56,0a2.2,2.2,0,1,0-2.23,2.18h0a2.2,2.2,0,0,0,2.18-2.18Zm6.57,0a2.2,2.2,0,1,0-4.37-.45,1.69,1.69,0,0,0,0,.45,2.2,2.2,0,0,0,4.37,0Zm6.55,0a2.2,2.2,0,1,0-2.22,2.18h0A2.2,2.2,0,0,0,539,83.16Zm6.55,0a2.2,2.2,0,1,0-2.22,2.18h.05a2.2,2.2,0,0,0,2.17-2.18Zm6.58,0a2.2,2.2,0,0,0-4.38-.45,3.38,3.38,0,0,0,0,.45,2.2,2.2,0,0,0,4.38,0ZM541.71,108.3a2.2,2.2,0,1,0-2.2,2.2h0a2.2,2.2,0,0,0,2.2-2.2Zm6.55,0a2.2,2.2,0,1,0,0,.46A3.53,3.53,0,0,0,548.26,108.3Zm6.55,0a2.2,2.2,0,1,0,0,.46A3.53,3.53,0,0,0,554.81,108.3Zm6.57,0a2.2,2.2,0,1,0-2.2,2.2h0a2.19,2.19,0,0,0,2.2-2.2Zm6.56,0a2.2,2.2,0,1,0,0,.46A3.53,3.53,0,0,0,567.94,108.3Zm6.55,0a2.18,2.18,0,1,0-2.18,2.2,2.18,2.18,0,0,0,2.18-2.2v0Zm-32.78,18a2.2,2.2,0,0,0-4.38-.45,1.69,1.69,0,0,0,0,.45,2.2,2.2,0,0,0,4.38,0Zm6.55,0a2.2,2.2,0,1,0-2.23,2.18h.05a2.21,2.21,0,0,0,2.18-2.18Zm6.55,0a2.2,2.2,0,1,0-2.22,2.18h0a2.2,2.2,0,0,0,2.18-2.18Zm6.57,0a2.2,2.2,0,0,0-4.37-.45,1.7,1.7,0,0,0,0,.45,2.2,2.2,0,0,0,4.37,0Zm6.55,0a2.2,2.2,0,1,0-2.22,2.18h0a2.21,2.21,0,0,0,2.18-2.18Zm6.56,0a2.18,2.18,0,1,0-2.18,2.18,2.21,2.21,0,0,0,2.18-2.18Z"/><path class="cls-2" d="M479.93,139.24h-7.74a1.89,1.89,0,1,1,0-3.78h7.67a1.89,1.89,0,0,1,0,3.78Zm1.87,6.86a1.87,1.87,0,0,0-1.85-1.89h-7.76a1.89,1.89,0,1,0,0,3.78h7.67a1.87,1.87,0,0,0,1.94-1.79Zm0,8.75A1.87,1.87,0,0,0,480,153h-7.76a1.89,1.89,0,1,0,0,3.78h7.67A1.87,1.87,0,0,0,481.8,155Zm0,8.75a1.87,1.87,0,0,0-1.85-1.89h-7.76a1.89,1.89,0,0,0-.42,3.76,1.48,1.48,0,0,0,.42,0h7.67a1.87,1.87,0,0,0,1.94-1.8v-.07Zm0,8.73a1.87,1.87,0,0,0-1.87-1.87h-7.74a1.89,1.89,0,0,0-.42,3.76,1.48,1.48,0,0,0,.42,0h7.67a1.87,1.87,0,0,0,1.94-1.79Zm0,8.75a1.87,1.87,0,0,0-1.87-1.87h-7.74a1.87,1.87,0,0,0-1.89,1.85v0a1.89,1.89,0,0,0,1.89,1.89h7.67a1.87,1.87,0,0,0,1.94-1.79v-.1Zm0,8.75a1.87,1.87,0,0,0-1.85-1.89h-7.76a1.89,1.89,0,1,0,0,3.78h7.67a1.87,1.87,0,0,0,1.94-1.79v-.1Zm0,8.75a1.87,1.87,0,0,0-1.85-1.89h-7.76a1.89,1.89,0,1,0,0,3.78h7.67a1.87,1.87,0,0,0,1.94-1.79v-.1Zm28.64-61.23a1.89,1.89,0,0,0-1.89-1.89H488.47a1.89,1.89,0,1,0,0,3.78h20.08a1.89,1.89,0,0,0,1.89-1.89Zm0,8.75a1.89,1.89,0,0,0-1.89-1.89H488.47a1.89,1.89,0,1,0,0,3.78h20.08a1.89,1.89,0,0,0,1.89-1.89Zm0,8.75a1.89,1.89,0,0,0-1.89-1.89H488.47a1.89,1.89,0,1,0,0,3.78h20.08a1.89,1.89,0,0,0,1.89-1.89Zm0,8.75a1.89,1.89,0,0,0-1.89-1.89H488.47a1.89,1.89,0,1,0-.43,3.76,1.55,1.55,0,0,0,.43,0h20.08a1.87,1.87,0,0,0,1.89-1.84v0Zm0,8.73a1.87,1.87,0,0,0-1.87-1.87h-20.1a1.89,1.89,0,1,0-.43,3.76,1.55,1.55,0,0,0,.43,0h20.08a1.89,1.89,0,0,0,1.89-1.89Zm24.05,8.75a1.87,1.87,0,0,0-1.87-1.87h-20.1a1.87,1.87,0,0,0-1.89,1.85v0a1.89,1.89,0,0,0,1.89,1.89H532.6a1.89,1.89,0,0,0,1.89-1.89Zm0,8.75a1.89,1.89,0,0,0-1.89-1.89H512.52a1.89,1.89,0,1,0,0,3.78H532.6a1.89,1.89,0,0,0,1.89-1.89Zm0,8.75a1.89,1.89,0,0,0-1.89-1.89H512.52a1.89,1.89,0,1,0,0,3.78H532.6a1.89,1.89,0,0,0,1.89-1.89Zm-15.21-61.23a2.2,2.2,0,1,0-2.2,2.2h0a2.2,2.2,0,0,0,2.2-2.2Zm6.56,0a2.2,2.2,0,1,0,0,.45A3.38,3.38,0,0,0,525.84,137.35Zm6.57,0a2.2,2.2,0,1,0-2.2,2.2h0a2.2,2.2,0,0,0,2.2-2.2Zm6.55,0a2.2,2.2,0,1,0,0,.45A1.7,1.7,0,0,0,539,137.35Zm6.55,0a2.2,2.2,0,1,0,0,.45A1.7,1.7,0,0,0,545.51,137.35Zm6.58,0a2.2,2.2,0,1,0-2.2,2.2h0a2.21,2.21,0,0,0,2.2-2.2Zm-32.81,17.5a2.2,2.2,0,1,0-4.37-.45,1.7,1.7,0,0,0,0,.45,2.2,2.2,0,0,0,4.37,0Zm6.56,0a2.2,2.2,0,1,0-2.23,2.18h0a2.21,2.21,0,0,0,2.18-2.18Zm6.57,0a2.2,2.2,0,1,0-4.37-.45,1.7,1.7,0,0,0,0,.45,2.2,2.2,0,0,0,4.37,0Zm6.55,0a2.2,2.2,0,1,0-2.22,2.18h0a2.2,2.2,0,0,0,2.17-2.18Zm6.55,0a2.2,2.2,0,0,0-4.4,0,2.22,2.22,0,0,0,2.18,2.23h.05a2.2,2.2,0,0,0,2.17-2.18Zm6.58,0a2.2,2.2,0,1,0-4.38-.45,3.38,3.38,0,0,0,0,.45,2.2,2.2,0,0,0,4.38,0ZM541.71,180a2.2,2.2,0,1,0-2.2,2.2h0a2.2,2.2,0,0,0,2.2-2.2Zm6.55,0a2.2,2.2,0,1,0,0,.46A3.53,3.53,0,0,0,548.26,180Zm6.55,0a2.2,2.2,0,1,0,0,.46A3.53,3.53,0,0,0,554.81,180Zm6.57,0a2.2,2.2,0,1,0-2.2,2.2h0a2.19,2.19,0,0,0,2.2-2.2Zm6.56,0a2.2,2.2,0,1,0,0,.46A3.53,3.53,0,0,0,567.94,180Zm6.55,0a2.18,2.18,0,1,0-2.18,2.2,2.18,2.18,0,0,0,2.18-2.2v0Zm-32.78,18a2.2,2.2,0,1,0-4.38-.46,1.77,1.77,0,0,0,0,.46,2.2,2.2,0,0,0,4.38,0Zm6.55,0a2.2,2.2,0,1,0-2.23,2.17h.05a2.2,2.2,0,0,0,2.18-2.17Zm6.55,0a2.2,2.2,0,1,0-2.22,2.17h0a2.2,2.2,0,0,0,2.18-2.17Zm6.57,0a2.2,2.2,0,1,0-4.37-.46,1.77,1.77,0,0,0,0,.46,2.2,2.2,0,0,0,4.37,0Zm6.55,0a2.2,2.2,0,1,0-2.22,2.17h0a2.2,2.2,0,0,0,2.18-2.17Zm6.56,0a2.18,2.18,0,1,0-2.18,2.17,2.19,2.19,0,0,0,2.18-2.17Z"/><path class="cls-2" d="M103.66,226.56H96a1.89,1.89,0,0,1,0-3.78h7.67a1.89,1.89,0,1,1,0,3.78Zm1.89,6.86a1.89,1.89,0,0,0-1.89-1.89H96a1.89,1.89,0,0,0,0,3.78h7.67a1.9,1.9,0,0,0,1.94-1.84v-.05Zm0,8.75a1.89,1.89,0,0,0-1.89-1.89H96a1.89,1.89,0,0,0,0,3.78h7.67a1.89,1.89,0,0,0,1.94-1.84v-.14Zm0,8.75a1.89,1.89,0,0,0-1.89-1.89H96a1.89,1.89,0,0,0,0,3.78h7.67A1.89,1.89,0,0,0,105.6,251v-.05Zm0,8.75a1.89,1.89,0,0,0-1.89-1.89H96a1.89,1.89,0,1,0-.42,3.76,1.48,1.48,0,0,0,.42,0h7.67a1.87,1.87,0,0,0,1.94-1.79v-.08Zm0,8.73a1.87,1.87,0,0,0-1.87-1.87H96a1.89,1.89,0,1,0-.42,3.76,1.48,1.48,0,0,0,.42,0h7.67a1.9,1.9,0,0,0,1.94-1.84v-.05Zm0,8.75a1.89,1.89,0,0,0-1.89-1.89H96A1.89,1.89,0,1,0,96,279h7.67a1.9,1.9,0,0,0,1.94-1.84v-.05Zm0,8.75a1.89,1.89,0,0,0-1.89-1.89H96a1.9,1.9,0,0,0,0,3.79h7.67A1.9,1.9,0,0,0,105.6,286v-.05Zm28.62-61.23a1.89,1.89,0,0,0-1.89-1.89H112.2a1.89,1.89,0,1,0,0,3.78h20.08a1.89,1.89,0,0,0,1.89-1.89Zm0,8.75a1.89,1.89,0,0,0-1.89-1.89H112.2a1.89,1.89,0,1,0,0,3.78h20.08a1.89,1.89,0,0,0,1.89-1.89Zm0,8.75a1.89,1.89,0,0,0-1.89-1.89H112.2a1.89,1.89,0,1,0,0,3.78h20.08a1.88,1.88,0,0,0,1.89-1.89v0Zm0,8.75a1.89,1.89,0,0,0-1.89-1.89H112.2a1.89,1.89,0,1,0,0,3.78h20.08a1.89,1.89,0,0,0,1.89-1.89Zm0,8.75a1.89,1.89,0,0,0-1.89-1.89H112.2a1.89,1.89,0,1,0-.43,3.76,1.55,1.55,0,0,0,.43,0h20.08a1.87,1.87,0,0,0,1.89-1.84v0Zm24.05,8.73a1.87,1.87,0,0,0-1.87-1.87h-20a1.89,1.89,0,1,0-.42,3.76,1.48,1.48,0,0,0,.42,0h20.08a1.86,1.86,0,0,0,1.8-1.89Zm0,8.75a1.89,1.89,0,0,0-1.89-1.89h-20a1.89,1.89,0,1,0,0,3.78h20.08a1.89,1.89,0,0,0,1.8-1.89Zm0,8.75a1.89,1.89,0,0,0-1.89-1.89h-20a1.9,1.9,0,0,0,0,3.79h20.08a1.91,1.91,0,0,0,1.8-1.9ZM143,224.67a2.2,2.2,0,1,0,0,.46A1.77,1.77,0,0,0,143,224.67Zm6.55,0a2.2,2.2,0,1,0,0,.46A1.77,1.77,0,0,0,149.56,224.67Zm6.58,0a2.2,2.2,0,1,0-2.2,2.2h0a2.2,2.2,0,0,0,2.2-2.2Zm6.55,0a2.2,2.2,0,1,0,0,.46A1.77,1.77,0,0,0,162.69,224.67Zm6.58,0a2.2,2.2,0,1,0-2.2,2.2h0a2.21,2.21,0,0,0,2.2-2.2Zm6.55,0a2.2,2.2,0,1,0-2.2,2.2h0a2.18,2.18,0,0,0,2.2-2.15v-.05ZM143,242.08a2.2,2.2,0,1,0-2.22,2.17h.05A2.19,2.19,0,0,0,143,242.08Zm6.55,0a2.2,2.2,0,1,0-2.22,2.17h0A2.19,2.19,0,0,0,149.56,242.08Zm6.58,0a2.2,2.2,0,1,0-4.38-.46,3.53,3.53,0,0,0,0,.46,2.2,2.2,0,0,0,4.38,0Zm6.55,0a2.2,2.2,0,1,0-2.22,2.17h.05A2.19,2.19,0,0,0,162.69,242.08Zm6.58,0a2.2,2.2,0,1,0-4.38-.46,3.53,3.53,0,0,0,0,.46,2.2,2.2,0,0,0,4.38,0Zm6.55,0a2.2,2.2,0,1,0-4.38-.46,3.53,3.53,0,0,0,0,.46,2.2,2.2,0,0,0,4.38,0Zm-10.39,25.14a2.2,2.2,0,1,0-2.19,2.2h0a2.2,2.2,0,0,0,2.19-2.11Zm6.56,0a2.2,2.2,0,1,0,0,.45A3.38,3.38,0,0,0,172,267.22Zm6.57,0a2.2,2.2,0,1,0-2.2,2.2h0a2.2,2.2,0,0,0,2.2-2.11Zm6.55,0a2.2,2.2,0,1,0-2.2,2.2h0a2.2,2.2,0,0,0,2.2-2.11Zm6.55,0a2.2,2.2,0,1,0,0,.45A1.69,1.69,0,0,0,191.66,267.22Zm6.58,0a2.2,2.2,0,1,0-2.2,2.2h0a2.2,2.2,0,0,0,2.2-2.11Zm-32.81,18.14a2.2,2.2,0,1,0-2.22,2.18h0A2.2,2.2,0,0,0,165.43,285.36Zm6.56,0a2.2,2.2,0,1,0-2.23,2.18h.05A2.19,2.19,0,0,0,172,285.36Zm6.57,0a2.2,2.2,0,1,0-2.22,2.18h0A2.2,2.2,0,0,0,178.56,285.36Zm6.55,0a2.2,2.2,0,0,0-4.4-.05,2.22,2.22,0,0,0,2.18,2.23h0A2.2,2.2,0,0,0,185.11,285.36Zm6.55,0a2.2,2.2,0,1,0-2.22,2.18h.05a2.18,2.18,0,0,0,2.17-2.18Zm6.58,0a2.2,2.2,0,1,0-2.22,2.18h0A2.2,2.2,0,0,0,198.24,285.36Z"/><path class="cls-2" d="M103.66,296.48H96a1.9,1.9,0,0,1,0-3.79h7.67a1.9,1.9,0,0,1,0,3.79Zm1.89,6.85a1.89,1.89,0,0,0-1.89-1.89H96a1.89,1.89,0,0,0-.42,3.76,1.48,1.48,0,0,0,.42,0h7.67a1.87,1.87,0,0,0,1.94-1.77Zm0,8.73a1.87,1.87,0,0,0-1.87-1.87H96a1.89,1.89,0,0,0-.42,3.76,1.48,1.48,0,0,0,.42,0h7.67a1.89,1.89,0,0,0,1.94-1.79Zm0,8.75a1.89,1.89,0,0,0-1.89-1.89H96a1.89,1.89,0,0,0,0,3.78h7.67a1.89,1.89,0,0,0,1.94-1.79Zm0,8.75a1.89,1.89,0,0,0-1.89-1.89H96a1.9,1.9,0,0,0,0,3.79h7.67a1.9,1.9,0,0,0,1.94-1.85v0Zm0,8.75a1.89,1.89,0,0,0-1.89-1.89H96a1.9,1.9,0,0,0,0,3.79h7.67a1.9,1.9,0,0,0,1.94-1.8Zm0,8.76a1.9,1.9,0,0,0-1.89-1.9H96A1.9,1.9,0,0,0,96,349h7.67a1.9,1.9,0,0,0,1.94-1.8Zm0,8.75a1.9,1.9,0,0,0-1.89-1.9H96a1.9,1.9,0,0,0-1.89,1.9A1.87,1.87,0,0,0,96,357.69h7.69a1.88,1.88,0,0,0,1.94-1.78Zm28.62-61.24a1.89,1.89,0,0,0-1.89-1.89H112.2a1.9,1.9,0,1,0,0,3.79h20.08a1.9,1.9,0,0,0,1.89-1.8Zm0,8.75a1.89,1.89,0,0,0-1.89-1.89H112.2a1.89,1.89,0,1,0-.43,3.76,1.55,1.55,0,0,0,.43,0h20.08a1.86,1.86,0,0,0,1.89-1.77Zm0,8.73a1.87,1.87,0,0,0-1.87-1.87H112.2a1.89,1.89,0,1,0-.43,3.76,1.55,1.55,0,0,0,.43,0h20.08a1.89,1.89,0,0,0,1.89-1.79Zm0,8.75a1.89,1.89,0,0,0-1.89-1.89H112.2a1.89,1.89,0,1,0,0,3.78h20.08a1.88,1.88,0,0,0,1.89-1.79Zm0,8.75a1.89,1.89,0,0,0-1.89-1.89H112.2a1.9,1.9,0,1,0,0,3.79h20.08a1.9,1.9,0,0,0,1.89-1.87Zm24.05,8.75a1.89,1.89,0,0,0-1.89-1.89h-20a1.9,1.9,0,0,0,0,3.79h20.08a1.9,1.9,0,0,0,1.8-1.8Zm0,8.76a1.9,1.9,0,0,0-1.89-1.9h-20a1.9,1.9,0,0,0,0,3.79h20.08a1.9,1.9,0,0,0,1.8-1.8Zm0,8.75a1.9,1.9,0,0,0-1.89-1.9h-20a1.9,1.9,0,0,0-1.89,1.9,1.87,1.87,0,0,0,1.87,1.87h20.1a1.88,1.88,0,0,0,1.8-1.78ZM143,294.58a2.2,2.2,0,1,0-2.22,2.18h.05a2.19,2.19,0,0,0,2.17-2.08Zm6.55,0a2.2,2.2,0,1,0-2.22,2.18h0a2.19,2.19,0,0,0,2.17-2.08Zm6.58,0a2.2,2.2,0,0,0-4.38-.45,3.38,3.38,0,0,0,0,.45,2.2,2.2,0,0,0,4.38,0Zm6.55,0a2.2,2.2,0,1,0-2.22,2.18h.05a2.19,2.19,0,0,0,2.17-2.08Zm6.58,0a2.2,2.2,0,0,0-4.38-.45,3.38,3.38,0,0,0,0,.45,2.2,2.2,0,0,0,4.38,0Zm6.55,0a2.2,2.2,0,0,0-4.38-.45,3.38,3.38,0,0,0,0,.45,2.2,2.2,0,0,0,4.38,0ZM143,312.06a2.2,2.2,0,1,0-2.2,2.2h0a2.17,2.17,0,0,0,2.17-2.1Zm6.55,0a2.2,2.2,0,1,0,0,.46A1.77,1.77,0,0,0,149.56,312.06Zm6.58,0a2.2,2.2,0,1,0-2.2,2.2h0a2.2,2.2,0,0,0,2.2-2.1Zm6.55,0a2.2,2.2,0,1,0,0,.46A1.77,1.77,0,0,0,162.69,312.06Zm6.58,0a2.2,2.2,0,1,0-2.2,2.2h0a2.2,2.2,0,0,0,2.2-2.1Zm6.55,0a2.2,2.2,0,1,0-2.2,2.2h0a2.18,2.18,0,0,0,2.2-2.1Zm-10.39,25.17a2.2,2.2,0,1,0-4.37-.46,1.77,1.77,0,0,0,0,.46,2.2,2.2,0,0,0,4.37,0Zm6.56,0a2.2,2.2,0,1,0-2.23,2.17h.05a2.21,2.21,0,0,0,2.18-2.08Zm6.57,0a2.2,2.2,0,1,0-4.37-.46,1.77,1.77,0,0,0,0,.46,2.2,2.2,0,0,0,4.37,0Zm6.55,0a2.2,2.2,0,1,0-4.37-.46,1.77,1.77,0,0,0,0,.46,2.2,2.2,0,0,0,4.37,0Zm6.55,0a2.2,2.2,0,1,0-2.22,2.17h.05a2.19,2.19,0,0,0,2.17-2.08Zm6.58,0a2.2,2.2,0,1,0-4.38-.46,3.53,3.53,0,0,0,0,.46,2.2,2.2,0,0,0,4.38,0Zm-32.81,18.14a2.2,2.2,0,1,0-4.37-.46,1.77,1.77,0,0,0,0,.46,2.2,2.2,0,0,0,4.37,0Zm6.56,0a2.2,2.2,0,1,0-4.4-.05,2.19,2.19,0,0,0,2.17,2.22h.05a2.18,2.18,0,0,0,2.18-2.17Zm6.57,0a2.2,2.2,0,1,0-4.37-.46,1.77,1.77,0,0,0,0,.46,2.2,2.2,0,0,0,4.37,0Zm6.55,0a2.2,2.2,0,1,0-4.37-.46,1.77,1.77,0,0,0,0,.46,2.2,2.2,0,0,0,4.37,0Zm6.55,0a2.2,2.2,0,1,0-2.22,2.17h.05a2.17,2.17,0,0,0,2.17-2.17Zm6.58,0a2.2,2.2,0,1,0-4.38-.46,3.53,3.53,0,0,0,0,.46,2.2,2.2,0,0,0,4.38,0Z"/><path class="cls-2" d="M103.66,368.26H96a1.9,1.9,0,0,1,0-3.79h7.67a1.9,1.9,0,0,1,0,3.79Zm1.89,6.86a1.9,1.9,0,0,0-1.89-1.9H96a1.89,1.89,0,1,0-.42,3.76,1.48,1.48,0,0,0,.42,0h7.67a1.87,1.87,0,0,0,1.94-1.79v-.07Zm0,8.72a1.87,1.87,0,0,0-1.87-1.86H96a1.89,1.89,0,1,0-.42,3.76h8.09a1.9,1.9,0,0,0,1.94-1.85v-.05Zm0,8.75a1.89,1.89,0,0,0-1.89-1.89H96a1.9,1.9,0,0,0,0,3.79h7.67a1.9,1.9,0,0,0,1.94-1.85v-.05Zm0,8.76a1.9,1.9,0,0,0-1.89-1.9H96a1.9,1.9,0,0,0,0,3.79h7.67a1.9,1.9,0,0,0,1.94-1.85v0Zm0,8.75a1.9,1.9,0,0,0-1.89-1.9H96A1.9,1.9,0,0,0,96,412h7.67a1.9,1.9,0,0,0,1.94-1.84V410Zm0,8.75a1.89,1.89,0,0,0-1.89-1.89H96a1.89,1.89,0,1,0,0,3.78h7.67a1.9,1.9,0,0,0,1.94-1.84v0Zm0,8.75a1.89,1.89,0,0,0-1.89-1.89H96a1.88,1.88,0,1,0,0,3.76h7.69a1.87,1.87,0,0,0,1.94-1.8v-.07Zm28.62-61.23a1.9,1.9,0,0,0-1.89-1.9H112.2a1.9,1.9,0,1,0,0,3.79h20.08a1.89,1.89,0,0,0,1.89-1.89Zm0,8.75a1.9,1.9,0,0,0-1.89-1.9H112.2a1.9,1.9,0,0,0-.43,3.77h20.51a1.88,1.88,0,0,0,1.89-1.85v0Zm0,8.72A1.87,1.87,0,0,0,132.3,382H112.2a1.89,1.89,0,1,0-.43,3.76h20.51a1.9,1.9,0,0,0,1.89-1.9Zm0,8.76a1.9,1.9,0,0,0-1.89-1.9H112.2a1.9,1.9,0,1,0,0,3.79h20.08a1.89,1.89,0,0,0,1.89-1.89h0Zm0,8.75a1.9,1.9,0,0,0-1.89-1.9H112.2a1.9,1.9,0,1,0,0,3.79h20.08a1.89,1.89,0,0,0,1.89-1.89Zm24.05,8.75a1.89,1.89,0,0,0-1.89-1.89h-20a1.89,1.89,0,0,0,0,3.78h20.08a1.89,1.89,0,0,0,1.8-2h0Zm0,8.75a1.89,1.89,0,0,0-1.89-1.89h-20a1.89,1.89,0,0,0,0,3.78h20.08a1.89,1.89,0,0,0,1.8-1.89Zm0,8.75a1.89,1.89,0,0,0-1.89-1.89h-20a1.88,1.88,0,1,0,0,3.76h20.1a1.87,1.87,0,0,0,1.8-1.87ZM143,366.37a2.2,2.2,0,1,0-2.22,2.17h.05a2.19,2.19,0,0,0,2.17-2.17Zm6.55,0a2.2,2.2,0,1,0-2.22,2.17h0a2.19,2.19,0,0,0,2.17-2.17Zm6.58,0a2.2,2.2,0,1,0-4.38-.46,3.53,3.53,0,0,0,0,.46,2.2,2.2,0,0,0,4.38,0Zm6.55,0a2.2,2.2,0,1,0-2.22,2.17h.05a2.19,2.19,0,0,0,2.17-2.17Zm6.58,0a2.2,2.2,0,1,0-4.38-.46,3.53,3.53,0,0,0,0,.46,2.2,2.2,0,0,0,4.38,0Zm6.55,0a2.2,2.2,0,1,0-4.38-.46,3.53,3.53,0,0,0,0,.46,2.2,2.2,0,0,0,4.38,0ZM143,383.84a2.2,2.2,0,1,0,0,.46A1.77,1.77,0,0,0,143,383.84Zm6.55,0a2.2,2.2,0,1,0,0,.46A1.77,1.77,0,0,0,149.56,383.84Zm6.58,0a2.2,2.2,0,1,0-2.2,2.2h0a2.19,2.19,0,0,0,2.2-2.2Zm6.55,0a2.2,2.2,0,1,0,0,.46A1.77,1.77,0,0,0,162.69,383.84Zm6.58,0a2.2,2.2,0,1,0-2.2,2.2h0a2.2,2.2,0,0,0,2.2-2.2Zm6.55,0a2.2,2.2,0,1,0-2.2,2.2h0a2.18,2.18,0,0,0,2.2-2.15v-.05ZM165.43,409a2.2,2.2,0,1,0-4.37-.46,1.77,1.77,0,0,0,0,.46,2.2,2.2,0,0,0,4.37,0Zm6.56,0a2.2,2.2,0,1,0-2.23,2.18h.05A2.21,2.21,0,0,0,172,409Zm6.57,0a2.2,2.2,0,1,0-4.37-.46,1.77,1.77,0,0,0,0,.46,2.2,2.2,0,0,0,4.37,0Zm6.55,0a2.2,2.2,0,1,0-4.37-.46,1.77,1.77,0,0,0,0,.46,2.2,2.2,0,0,0,4.37,0Zm6.55,0a2.2,2.2,0,1,0-2.22,2.18h.05a2.2,2.2,0,0,0,2.17-2.18Zm6.58,0a2.2,2.2,0,1,0-4.38-.46,3.53,3.53,0,0,0,0,.46,2.2,2.2,0,0,0,4.38,0Zm-32.81,18.05a2.2,2.2,0,1,0-4.37-.46,1.77,1.77,0,0,0,0,.46,2.2,2.2,0,0,0,4.37,0Zm6.56,0a2.2,2.2,0,1,0-2.23,2.17h.05a2.18,2.18,0,0,0,2.18-2.17Zm6.57,0a2.2,2.2,0,1,0-4.37-.46,1.77,1.77,0,0,0,0,.46,2.2,2.2,0,0,0,4.37,0Zm6.55,0a2.2,2.2,0,1,0-4.37-.46,1.77,1.77,0,0,0,0,.46,2.2,2.2,0,0,0,4.37,0Zm6.55,0a2.2,2.2,0,1,0-2.22,2.17h.05a2.17,2.17,0,0,0,2.17-2.17Zm6.58,0a2.2,2.2,0,1,0-4.38-.46,3.53,3.53,0,0,0,0,.46,2.2,2.2,0,0,0,4.38,0Z"/><path class="cls-2" d="M221.16,226.56h-7.64a1.89,1.89,0,0,1,0-3.78h7.64a1.89,1.89,0,1,1,0,3.78Zm1.89,6.86a1.89,1.89,0,0,0-1.89-1.89h-7.64a1.89,1.89,0,0,0,0,3.78h7.64a1.89,1.89,0,0,0,1.89-1.89Zm0,8.75a1.89,1.89,0,0,0-1.89-1.89h-7.64a1.89,1.89,0,0,0,0,3.78h7.64a1.88,1.88,0,0,0,1.89-1.89v0Zm0,8.75a1.89,1.89,0,0,0-1.89-1.89h-7.64a1.89,1.89,0,0,0,0,3.78h7.64a1.89,1.89,0,0,0,1.89-1.89Zm0,8.75a1.89,1.89,0,0,0-1.89-1.89h-7.64a1.89,1.89,0,1,0-.42,3.76,1.48,1.48,0,0,0,.42,0h7.64a1.86,1.86,0,0,0,1.89-1.84v0Zm0,8.73a1.87,1.87,0,0,0-1.87-1.87h-7.66a1.89,1.89,0,1,0-.42,3.76,1.48,1.48,0,0,0,.42,0h7.64a1.89,1.89,0,0,0,1.89-1.89Zm0,8.75a1.89,1.89,0,0,0-1.89-1.89h-7.64a1.89,1.89,0,1,0,0,3.78h7.64a1.89,1.89,0,0,0,1.89-1.89Zm0,8.75a1.89,1.89,0,0,0-1.89-1.89h-7.64a1.9,1.9,0,0,0,0,3.79h7.64a1.9,1.9,0,0,0,1.89-1.9Zm28.64-61.23a1.89,1.89,0,0,0-1.89-1.89H229.7a1.89,1.89,0,1,0,0,3.78h20.17a1.89,1.89,0,0,0,1.82-1.89Zm0,8.75a1.89,1.89,0,0,0-1.89-1.89H229.7a1.89,1.89,0,1,0,0,3.78h20.17a1.89,1.89,0,0,0,1.82-1.89Zm0,8.75a1.89,1.89,0,0,0-1.89-1.89H229.7a1.89,1.89,0,1,0,0,3.78h20.17a1.88,1.88,0,0,0,1.82-2v.07Zm0,8.75A1.89,1.89,0,0,0,249.8,249H229.7a1.89,1.89,0,1,0,0,3.78h20.17a1.88,1.88,0,0,0,1.82-1.89Zm0,8.75a1.89,1.89,0,0,0-1.89-1.89H229.7a1.89,1.89,0,0,0,0,3.76h20.17a1.86,1.86,0,0,0,1.82-1.87Zm24.06,8.73a1.87,1.87,0,0,0-1.87-1.87H253.75a1.89,1.89,0,0,0,0,3.76h20.1a1.89,1.89,0,0,0,1.9-1.89Zm0,8.75a1.9,1.9,0,0,0-1.9-1.89h-20.1a1.89,1.89,0,1,0,0,3.78h20.1a1.89,1.89,0,0,0,1.9-1.89Zm0,8.75a1.9,1.9,0,0,0-1.9-1.89h-20.1a1.9,1.9,0,0,0,0,3.79h20.1a1.9,1.9,0,0,0,1.9-1.9Zm-15.24-61.23a2.18,2.18,0,1,0-2.17,2.2,2.16,2.16,0,0,0,2.17-2.2v0Zm6.58,0a2.2,2.2,0,1,0-2.2,2.2h0a2.21,2.21,0,0,0,2.2-2.2Zm6.55,0a2.21,2.21,0,1,0,0,.45A1.7,1.7,0,0,0,273.64,224.67Zm6.58,0a2.2,2.2,0,1,0-2.2,2.2h0a2.21,2.21,0,0,0,2.2-2.2Zm6.55,0a2.21,2.21,0,1,0,0,.45A3.38,3.38,0,0,0,286.77,224.67Zm6.55,0a2.21,2.21,0,1,0,0,.45A3.38,3.38,0,0,0,293.32,224.67Zm-32.81,17.41a2.18,2.18,0,1,0-2.17,2.17h0A2.19,2.19,0,0,0,260.51,242.08Zm6.58,0a2.2,2.2,0,1,0-4.38-.46,3.53,3.53,0,0,0,0,.46,2.2,2.2,0,0,0,4.38,0Zm6.55,0a2.2,2.2,0,1,0-2.22,2.17h0A2.2,2.2,0,0,0,273.64,242.08Zm6.58,0a2.2,2.2,0,0,0-4.38-.46,1.77,1.77,0,0,0,0,.46,2.2,2.2,0,0,0,4.38,0Zm6.55,0a2.2,2.2,0,1,0-2.23,2.17h0A2.2,2.2,0,0,0,286.77,242.08Zm6.55,0a2.2,2.2,0,1,0-2.22,2.17h0a2.2,2.2,0,0,0,2.18-2.17ZM283,267.31a2.2,2.2,0,1,0,0,.46A1.77,1.77,0,0,0,283,267.31Zm6.58,0a2.2,2.2,0,1,0-2.2,2.2h0a2.2,2.2,0,0,0,2.15-2.2Zm6.55,0a2.2,2.2,0,1,0,0,.46A3.53,3.53,0,0,0,296.11,267.31Zm6.55,0a2.2,2.2,0,1,0,0,.46A1.77,1.77,0,0,0,302.66,267.31Zm6.58,0a2.2,2.2,0,1,0-2.2,2.2h0a2.2,2.2,0,0,0,2.15-2.2Zm6.55,0a2.2,2.2,0,1,0,0,.46A3.53,3.53,0,0,0,315.79,267.31ZM283,285.36a2.2,2.2,0,0,0-4.4-.05,2.21,2.21,0,0,0,2.18,2.23h.05A2.18,2.18,0,0,0,283,285.36Zm6.58,0a2.2,2.2,0,1,0-2.23,2.18h0a2.2,2.2,0,0,0,2.15-2.18Zm6.55,0a2.2,2.2,0,1,0-2.22,2.18h0a2.18,2.18,0,0,0,2.13-2.18Zm6.55,0a2.2,2.2,0,1,0-2.22,2.18h0a2.18,2.18,0,0,0,2.13-2.18Zm6.58,0a2.2,2.2,0,1,0-2.23,2.18h0a2.21,2.21,0,0,0,2.15-2.18Zm6.55,0a2.2,2.2,0,1,0-2.23,2.18h.05a2.19,2.19,0,0,0,2.13-2.18Z"/><path class="cls-2" d="M221.16,298.25h-7.64a1.89,1.89,0,0,1,0-3.78h7.64a1.89,1.89,0,1,1,0,3.78Zm1.89,6.86a1.89,1.89,0,0,0-1.89-1.89h-7.64a1.89,1.89,0,0,0,0,3.78h7.64a1.89,1.89,0,0,0,1.89-1.89Zm0,8.75a1.89,1.89,0,0,0-1.89-1.89h-7.64a1.89,1.89,0,0,0,0,3.78h7.64a1.89,1.89,0,0,0,1.89-1.89Zm0,8.75a1.89,1.89,0,0,0-1.89-1.89h-7.64a1.89,1.89,0,0,0,0,3.78h7.64a1.89,1.89,0,0,0,1.89-1.89Zm0,8.75a1.89,1.89,0,0,0-1.89-1.89h-7.64a1.89,1.89,0,1,0-.42,3.76,1.48,1.48,0,0,0,.42,0h7.64a1.87,1.87,0,0,0,1.89-1.84v0Zm0,8.73a1.87,1.87,0,0,0-1.87-1.87h-7.66a1.89,1.89,0,1,0-.42,3.76,1.48,1.48,0,0,0,.42,0h7.64a1.89,1.89,0,0,0,1.89-1.89Zm0,8.75a1.89,1.89,0,0,0-1.89-1.89h-7.64a1.89,1.89,0,1,0,0,3.78h7.64a1.89,1.89,0,0,0,1.89-1.89Zm0,8.75a1.89,1.89,0,0,0-1.89-1.89h-7.64a1.89,1.89,0,1,0,0,3.78h7.64a1.89,1.89,0,0,0,1.89-1.89Zm28.64-61.11a1.9,1.9,0,0,0-1.89-1.9H229.7a1.9,1.9,0,1,0,0,3.79h20.17A1.89,1.89,0,0,0,251.69,296.48Zm0,8.75a1.9,1.9,0,0,0-1.89-1.9H229.7a1.9,1.9,0,1,0,0,3.79h20.17a1.9,1.9,0,0,0,1.82-2v.07Zm0,8.75a1.89,1.89,0,0,0-1.89-1.89H229.7a1.89,1.89,0,1,0,0,3.78h20.17a1.89,1.89,0,0,0,1.82-2V314Zm0,8.75a1.89,1.89,0,0,0-1.89-1.89H229.7a1.89,1.89,0,1,0,0,3.78h20.17a1.89,1.89,0,0,0,1.82-2v.07Zm0,8.75a1.89,1.89,0,0,0-1.89-1.89H229.7a1.89,1.89,0,0,0,0,3.76h20.17a1.88,1.88,0,0,0,1.83-1.91.22.22,0,0,1,0-.08Zm24.06,8.73a1.87,1.87,0,0,0-1.87-1.87H253.75a1.89,1.89,0,0,0,0,3.76h20.1a1.89,1.89,0,0,0,1.9-1.89v0Zm0,8.75a1.89,1.89,0,0,0-1.9-1.89h-20.1a1.89,1.89,0,1,0,0,3.78h20.1a1.89,1.89,0,0,0,1.9-1.89v0Zm0,8.75a1.89,1.89,0,0,0-1.9-1.89h-20.1a1.89,1.89,0,1,0,0,3.78h20.1a1.89,1.89,0,0,0,1.9-1.89v0Zm-15.24-61.23a2.18,2.18,0,1,0-2.17,2.19,2.17,2.17,0,0,0,2.17-2.19Zm6.58,0a2.2,2.2,0,1,0-2.2,2.19h0A2.2,2.2,0,0,0,267.09,296.48Zm6.55,0a2.2,2.2,0,1,0,0,.45A1.69,1.69,0,0,0,273.64,296.48Zm6.58,0a2.2,2.2,0,1,0-2.2,2.19h0A2.2,2.2,0,0,0,280.22,296.48Zm6.55,0a2.2,2.2,0,1,0,0,.45A3.38,3.38,0,0,0,286.77,296.48Zm6.55,0a2.2,2.2,0,1,0,0,.45A3.38,3.38,0,0,0,293.32,296.48ZM260.51,314a2.18,2.18,0,1,0-2.17,2.17h0a2.2,2.2,0,0,0,2.18-2.22s0-.05,0-.07Zm6.58,0a2.2,2.2,0,1,0-4.38-.46,3.53,3.53,0,0,0,0,.46,2.2,2.2,0,0,0,4.38,0Zm6.55,0a2.2,2.2,0,1,0-2.22,2.17h0a2.19,2.19,0,0,0,2.18-2.22V314Zm6.58,0a2.2,2.2,0,0,0-4.38-.46,1.77,1.77,0,0,0,0,.46,2.2,2.2,0,0,0,4.38,0Zm6.55,0a2.2,2.2,0,1,0-2.23,2.17h0a2.19,2.19,0,0,0,2.18-2.22V314Zm6.55,0a2.2,2.2,0,1,0-2.22,2.17h0a2.19,2.19,0,0,0,2.18-2.22V314ZM283,339.05a2.2,2.2,0,1,0,0,.45A1.69,1.69,0,0,0,283,339.05Zm6.58,0a2.2,2.2,0,1,0-2.2,2.2h0a2.21,2.21,0,0,0,2.15-2.2Zm6.55,0a2.2,2.2,0,1,0,0,.45A3.38,3.38,0,0,0,296.11,339.05Zm6.55,0a2.2,2.2,0,1,0,0,.45A1.69,1.69,0,0,0,302.66,339.05Zm6.58,0a2.2,2.2,0,1,0-2.2,2.2h0a2.21,2.21,0,0,0,2.15-2.2Zm6.55,0a2.2,2.2,0,1,0,0,.45A3.38,3.38,0,0,0,315.79,339.05Zm-32.81,18a2.2,2.2,0,1,0-2.22,2.17h.05a2.17,2.17,0,0,0,2.17-2.17Zm6.58,0a2.2,2.2,0,1,0-2.23,2.17h0a2.19,2.19,0,0,0,2.15-2.17Zm6.55,0a2.2,2.2,0,1,0-2.22,2.17h0a2.17,2.17,0,0,0,2.13-2.17Zm6.55,0a2.2,2.2,0,1,0-2.22,2.17h0a2.17,2.17,0,0,0,2.13-2.17Zm6.58,0a2.2,2.2,0,1,0-4.4-.05,2.19,2.19,0,0,0,2.17,2.22h0a2.2,2.2,0,0,0,2.15-2.17Zm6.55,0a2.2,2.2,0,1,0-2.23,2.17h.05a2.17,2.17,0,0,0,2.13-2.17Z"/></g><g id="freepik--Chair--inject-93"><path class="cls-4" d="M102.05,706.31S85.49,481.62,72.48,426s50.86-67.41,143.1-74.5,134.81-1.19,154.91,11.82,29,166.58,42.58,221.14,23.65,125.36,23.65,125.36Z"/></g><g id="freepik--Plants--inject-93"><path class="cls-5" d="M917.48,520.1c-12.65,15.82-18.92,24.64-21.52,28.64a303.75,303.75,0,0,1,14.45-51.06,151,151,0,0,0,8.8-39.93l-1.19.64-1.08-2.1c.42-.24,43.56-23.13,55.77-44.73l2,1.19c-11,19.48-45.08,39.23-54.39,44.37,8.84-.86,36.47-5,52.9-25.36,19.75-24.38,16.28-54.61,16.28-54.61s-37.23,25.57-52.32,45.32a140.44,140.44,0,0,0-17.6,29.35,205.34,205.34,0,0,0-3.66-48c12.41-9.77,58.08-47.3,63.1-75.45,5.82-32.52-2.37-88.31-2.37-88.31a286.25,286.25,0,0,1-16.27,33.7c-10.45,18.59-43,47.66-48.82,79a136.74,136.74,0,0,0-2.36,23.8,467.25,467.25,0,0,0-18.78-51.45,97.62,97.62,0,0,1-4.73-13.83h0l-1-.62c.22-.35,21.17-35.69,21.17-45.83h2.37c0,9.46-16,37.6-20.42,45.17,7.31-4.4,19.23-13.41,23.66-27.41,6.67-20.79-3.2-39.52-3.2-39.52s-17.66,26-22.49,42.57a98,98,0,0,0-4,23.3c-3.39-8.61-8.57-20.3-14.53-28.22-10.45-13.95-17.43-34.86-17.43-34.86S837,267.9,846.34,291.15c7.64,19.09,29.37,26.42,36.89,28.39.83,2.53,1.75,5,2.77,7.35a398.53,398.53,0,0,1,23.79,71.52c-5.41-7.21-15.63-19.91-25.3-27-14-10.31-26.8-28.38-26.8-28.38s-5.82,24.84,9.81,44.4c12.78,16,35.48,16.74,43.43,16.55,5.37,28.15,6,57.52-3.12,85.9-.59-5.51-3.91-20.5-22.16-37.27-23-21.29-69.14-88.93-69.14-88.93s3.67,80,25.76,106.24c20.24,24.1,58.46,22.68,64.76,22.28-.43,1.25-.86,2.51-1.33,3.76-14.54,39.1-17.62,66.51-18,81h-27.2V703.63h75.54V577H892.79a178.8,178.8,0,0,1,2.55-24.65l-.78.22-.64-2.37c.48-.12,47.8-13.46,80.89-47.49l1.7,1.63C949.81,531.85,914,546,900.26,550.68c13.67-1.68,47-6.72,62.54-16.74,19.77-12.78,37.2-51.14,37.2-51.14S936.07,496.85,917.48,520.1Zm-36-205.77a59.38,59.38,0,0,1-30.32-40.58l2.36-.48a56.75,56.75,0,0,0,29,38.91ZM915,404.59l-.49.68-.9-.38c-1.33-.52-32.24-13.24-44.82-31.62l2-1.35c11,16.11,37.63,28.17,42.86,30.42,4-6.15,29.11-45.13,37.84-69.63l2.22.8c-9.55,26.82-38.36,70.58-38.67,71Zm-11,86.73c-.35-.12-37.2-14-53.61-45.84l2.1-1.06c16,31,52,44.55,52.34,44.7Z"/></g><g id="freepik--Character--inject-93"><path class="cls-6" d="M388.21,384.46s-67.43,14.31-123.63,46-100.11,57.21-100.11,69.44S142,706.26,142,706.26H652.84S602.77,599,594.61,553s-17.38-75.69-43.94-105.23S446.44,380.39,388.21,384.46Z"/><g class="cls-7"><path class="cls-2" d="M190.15,571.66c7.57-5.39,22.71,35.67,27,26S190.15,539.33,188,522s18.35-19.46,42.15-35.66,45.38-29.19,45.38-7.57,9.72,61.49,17.29,45.38,23.77-36.73,24.84-8.65,0,56.19,3.26,56.19,32.4-30.25,40-45.38-8.66-54-8.66-71.31,15.14-41.06,15.14-41.06l1-24.48c-24.19,6.62-66.44,20-103.76,41C208.39,462,164.47,487.65,164.47,499.88S142,706.26,142,706.26h28C175.13,658.18,184.81,575.56,190.15,571.66Z"/><path class="cls-8" d="M190.15,571.66c7.57-5.39,22.71,35.67,27,26S190.15,539.33,188,522s18.35-19.46,42.15-35.66,45.38-29.19,45.38-7.57,9.72,61.49,17.29,45.38,23.77-36.73,24.84-8.65,0,56.19,3.26,56.19,32.4-30.25,40-45.38-8.66-54-8.66-71.31,15.14-41.06,15.14-41.06l1-24.48c-24.19,6.62-66.44,20-103.76,41C208.39,462,164.47,487.65,164.47,499.88S142,706.26,142,706.26h28C175.13,658.18,184.81,575.56,190.15,571.66Z"/><path class="cls-4" d="M515.78,432.16s35.48,17.34,48.89,34.7a105,105,0,0,0-46.52-42.57Z"/></g><path class="cls-9" d="M388.21,384.46s-67.43,14.31-123.63,46-100.11,57.21-100.11,69.44S142,706.26,142,706.26H652.84S602.77,599,594.61,553s-17.38-75.69-43.94-105.23S446.44,380.39,388.21,384.46Z"/><path class="cls-6" d="M365.76,391.63a67.31,67.31,0,0,0-31.69,53.12c-2,36.77,0,74.59-2,95s-16.35,36.81-5.11,35.77,36.78-41.89,46-41.89,12.25,19.42,16.34,25.54,18.45,8.71,18.45,8.71,13.22-15.85,13.22-21-4.09-22.49,7.09-20.43,35.74,40.87,36.78,28.59-11.26-30.75-11.26-60.26S439.34,430.44,418.81,409,386.67,390,365.76,391.63Z"/><g class="cls-10"><path class="cls-2" d="M368.27,391.41l-2.53.22a67.29,67.29,0,0,0-31.69,53.12c-2,36.77,0,74.59-2,95-1.32,13.15-7.68,24.6-9.08,30.75,7.5-5.51,31.24-30.86,38-44.3,7.57-15.11-8.66-54-8.66-71.31s15.14-41.06,15.14-41.06Z"/><path class="cls-8" d="M368.27,391.41l-2.53.22a67.29,67.29,0,0,0-31.69,53.12c-2,36.77,0,74.59-2,95-1.32,13.15-7.68,24.6-9.08,30.75,7.5-5.51,31.24-30.86,38-44.3,7.57-15.11-8.66-54-8.66-71.31s15.14-41.06,15.14-41.06Z"/></g><path class="cls-9" d="M365.76,391.63a67.31,67.31,0,0,0-31.69,53.12c-2,36.77,0,74.59-2,95s-16.35,36.81-5.11,35.77,36.78-41.89,46-41.89,12.25,19.42,16.34,25.54,18.45,8.71,18.45,8.71,13.22-15.85,13.22-21-4.09-22.49,7.09-20.43,35.74,40.87,36.78,28.59-11.26-30.75-11.26-60.26S439.34,430.44,418.81,409,386.67,390,365.76,391.63Z"/><path class="cls-6" d="M374.25,391.89A157.79,157.79,0,0,0,362,451c0,32.31,16.7,65.73,23.39,81.32S407.67,568,407.67,568s-1.13-41.2,8.9-61.26,18.92-34.53,18.92-34.53-12.25-12.25-30.09-40.09S374.25,391.89,374.25,391.89Z"/><g class="cls-11"><path class="cls-2" d="M427.75,485.45l-4.18-27.53c-4.9-6.34-11.07-14.9-18.14-26-17.81-27.86-31.18-40.2-31.18-40.2A157.79,157.79,0,0,0,362,450.82a133.72,133.72,0,0,0,6.13,37.4l59.13-1.89Z"/><path class="cls-8" d="M427.75,485.45l-4.18-27.53c-4.9-6.34-11.07-14.9-18.14-26-17.81-27.86-31.18-40.2-31.18-40.2A157.79,157.79,0,0,0,362,450.82a133.72,133.72,0,0,0,6.13,37.4l59.13-1.89Z"/><path class="cls-4" d="M405.43,432c-17.81-27.86-31.18-40.21-31.18-40.21A157.84,157.84,0,0,0,362,450.92a116.26,116.26,0,0,0,1.89,19.87l49.86,1.53L425.93,461A350.19,350.19,0,0,1,405.43,432Z"/></g><path class="cls-9" d="M374.25,391.89A157.79,157.79,0,0,0,362,451c0,32.31,16.7,65.73,23.39,81.32S407.67,568,407.67,568s-1.13-41.2,8.9-61.26,18.92-34.53,18.92-34.53-12.25-12.25-30.09-40.09S374.25,391.89,374.25,391.89Z"/><path class="cls-9" d="M299.33,463.15s22.46-54.16,59.24-67.43"/><path class="cls-9" d="M202.26,508.08s30.75,50.08,34.74,93"/><path class="cls-9" d="M240.06,554.06s10.21,64.38,10.21,97a274.67,274.67,0,0,0,5.11,55.18"/><path class="cls-9" d="M249.26,636.82a323.34,323.34,0,0,0,8.18-76.63"/><path class="cls-9" d="M529.19,555.08s3.08,36.8,10.22,81.74,11.24,67.43,11.24,67.43"/><path class="cls-12" d="M362.55,642.24s-21.64,44.06-24.84,50.47-8,17.62-8,17.62h38.44s21.62-14.43,24-15.23,16,0,25.61-4S437,676.67,446.6,674.28s22.42-6.41,26.45-6.41,17.62,4,26.41,4,20-8.8,12.94-12.79-12.82-1.61-22.42-6.41-12.82-6.41-22.42-4.73-17.62-4-40.85-8.8S377,632.63,362.55,642.24Z"/><path class="cls-12" d="M429.62,617.64s12.61-10.74,23-5.56,5.56,38.53,8.16,51.87,5.56,20.36-1.11,21.12-9.28-4.45-14.46-16.3S429.62,617.64,429.62,617.64Z"/><path class="cls-12" d="M398.87,624.31s16.68-14.83,24.08-14.83,13.34,26.3,18.92,37.84,13.77,25.21,10.36,28.86-10.38,5.18-16.32-1.12S417,641,413.33,636.54A114.06,114.06,0,0,0,398.87,624.31Z"/><path class="cls-12" d="M381.82,629.49s1.11-5.18,17.05-5.18,29.64,22.23,39.27,27.41,6.67,7.4-.36,10.74-11.49-.36-25.57-8.14S381.82,629.49,381.82,629.49Z"/><path class="cls-12" d="M364.13,666.27l11.24-18.43a35.48,35.48,0,0,1,14.4,6.41c5.6,4.73,16,14.43,28.83,14.43s16.82-4,12-8S411.39,649.45,401,642.24,382.56,623,374.56,625.42,361,643,352.14,663.07"/><path class="cls-6" d="M543.36,313.41s-3.1,45.77-8,61.85-11.83,65.58-26.61,87.22S474.7,502.69,453,504s-50.71-37.14-67.43-61.88-18.55-49.48-24.13-73.6-6.79-52,1.87-73.63,52-48.25,88.46-45.15,82.26,22.28,91.55,36.5A24.85,24.85,0,0,1,543.36,313.41Z"/><g class="cls-13"><path class="cls-2" d="M363.4,294.84c-8.66,21.67-7.43,49.51-1.87,73.63s7.43,48.86,24.12,73.6,45.79,63.11,67.43,61.88a50.41,50.41,0,0,0,24.77-9l-11,1.06c-22.71,2.15-33.52-13-47.56-42.14s-5.4-46.46-10.81-51.87-5.4-44.3-5.4-44.3,4.33-17.29,6.49-23.65,24.85-15.14,24.85-15.14,0,16.2,15.57,15,26.58-18.26,26.58-18.26l-2.18-62.27a168.15,168.15,0,0,0-22.54-3.6C415.43,246.59,372,273.2,363.4,294.84Z"/><path class="cls-8" d="M363.4,294.84c-8.66,21.67-7.43,49.51-1.87,73.63s7.43,48.86,24.12,73.6,45.79,63.11,67.43,61.88a50.41,50.41,0,0,0,24.77-9l-11,1.06c-22.71,2.15-33.52-13-47.56-42.14s-5.4-46.46-10.81-51.87-5.4-44.3-5.4-44.3,4.33-17.29,6.49-23.65,24.85-15.14,24.85-15.14,0,16.2,15.57,15,26.58-18.26,26.58-18.26l-2.18-62.27a168.15,168.15,0,0,0-22.54-3.6C415.43,246.59,372,273.2,363.4,294.84Z"/></g><path class="cls-9" d="M543.36,313.41s-3.1,45.77-8,61.85-11.83,65.58-26.61,87.22S474.7,502.69,453,504s-50.71-37.14-67.43-61.88-18.55-49.48-24.13-73.6-6.79-52,1.87-73.63,52-48.25,88.46-45.15,82.26,22.28,91.55,36.5A24.85,24.85,0,0,1,543.36,313.41Z"/><path class="cls-9" d="M480.87,374.64s.62,31.55,16.7,39.6a3.76,3.76,0,0,1,2.25,4.82,3.86,3.86,0,0,1-.38.76c-1.87,4.33-16.08,6.79-26-.64"/><path class="cls-5" d="M494.54,347.85a3.55,3.55,0,0,1-2.24-6.29c.57-.48,14.19-11.45,35.85-3.86a3.55,3.55,0,1,1-2.36,6.69c-17.91-6.29-28.88,2.56-29,2.65A3.57,3.57,0,0,1,494.54,347.85Z"/><path class="cls-5" d="M457.27,343.52a3.52,3.52,0,0,1-3.07-1.75c-.38-.64-8.9-14.64-25.64-12.32a3.56,3.56,0,0,1-4-3,3.59,3.59,0,0,1,3-4c21.57-3,32.28,15,32.73,15.8a3.53,3.53,0,0,1-3.05,5.32Z"/><line class="cls-9" x1="467.82" y1="453.17" x2="477.82" y2="453.17"/><path class="cls-5" d="M377,223.16s-40.21,13-43.31,29.09,17.34,72.37,16.73,79.16-6.82,12.39,0,22.28,19.15,24.74,24.12,16.7-1.87-19.8,6.17-24.74,19.18-13,13-23.51-3.08-26,9.91-27.84,24.12-10.5,17.31-.62-26.58,34-16.08,35.88,52-26,52-26-14.19,28.38-6.81,30.29,65.58-36.49,65.58-36.49,27.84,36.49,33.4,34,1.87-22.87,1.87-22.87,4.33,27.22,13,28.38,20.41-13.62,16.7-22.89-10-22.23-10-22.23,12.37-3.1,17.32-8.68,4.33-6.18-6.2-8.05-18.54-13.6-28.38-24.12-26-24.74-26-24.74,18.54,8,8.66-1.23S473.47,194.61,445,194.61s-39,14.88-39,14.88,4.94-18.57-.64-16.09-11.82,17.32-11.82,17.32-13-3.72-19.78.63-8.68,8.66-3.1,8.66a32.34,32.34,0,0,1,9.28,1.23Z"/><g class="cls-14"><g class="cls-15"><path class="cls-6" d="M374.49,370.32c4.94-8.05-1.87-19.8,6.17-24.74s19.18-13,13-23.51-3.08-26,9.91-27.84c9.77-1.4,18.49-6.65,19.32-4.92,4.19-5.77,6-10.17,0-8.4-11.49,3.46-47.11,9.2-43.68,20.7s5.74,17.22-3.43,20.67-9.2,11.49-9.2,20.69c0,7.86-3.72,20.89-4.73,24.51C366.83,372.16,371.77,374.74,374.49,370.32Z"/><path class="cls-6" d="M550.79,308.47l.8,11.51s.17.69.38,1.83a78.23,78.23,0,0,0-1.09-12.7c.74,4.09,5,26.67,12.89,27.81,8.66,1.23,20.41-13.62,16.7-22.9-.8-2-1.73-4.16-2.65-6.33-2.86,4.47-6.79,8.84-11.28,8.84C557.34,316.53,550.79,308.47,550.79,308.47Z"/><path class="cls-6" d="M538.56,324.41c-7.62-17.13-16-39.33-20.29-45.79-6.89-10.34-31,27.58-51.7,40.21-8.45,5.15-14.53,7.4-18.38,7.45-.76,4-.5,7.09,1.75,7.54,7.42,1.87,65.58-36.49,65.58-36.49A339.53,339.53,0,0,0,538.56,324.41Z"/><path class="cls-6" d="M402.35,322.8c-1.13,3.57-.71,6.13,2.37,6.69,7.94,1.4,33.49-14.19,45.55-21.8,6.83-8.4,15.3-13.58,16.22-21,1.14-9.2-42.57,27.58-57.45,34.48A12.72,12.72,0,0,1,402.35,322.8Z"/></g></g><path class="cls-9" d="M377,223.16s-40.21,13-43.31,29.09,17.34,72.37,16.73,79.16-6.82,12.39,0,22.28,19.15,24.74,24.12,16.7-1.87-19.8,6.17-24.74,19.18-13,13-23.51-3.08-26,9.91-27.84,24.12-10.5,17.31-.62-26.58,34-16.08,35.88,52-26,52-26-14.19,28.38-6.81,30.29,65.58-36.49,65.58-36.49,27.84,36.49,33.4,34,1.87-22.87,1.87-22.87,4.33,27.22,13,28.38,20.41-13.62,16.7-22.89-10-22.23-10-22.23,12.37-3.1,17.32-8.68,4.33-6.18-6.2-8.05-18.54-13.6-28.38-24.12-26-24.74-26-24.74,18.54,8,8.66-1.23S473.47,194.61,445,194.61s-39,14.88-39,14.88,4.94-18.57-.64-16.09-11.82,17.32-11.82,17.32-13-3.72-19.78.63-8.68,8.66-3.1,8.66a32.34,32.34,0,0,1,9.28,1.23Z"/><path class="cls-5" d="M468.39,350.21s-9-9.72-33.35-9-41.7,4.87-46.55,7.66-2.08,6.24-.71,11.12,4.87,27.76,10.43,36.8,20.15,16.67,29.87,16.67,15.28-2.08,25.71-9.72,17.36-35.48,18.07-37.51,0-6.24,6.93-4.16,7.64,32.64,9.75,38.9,16,14.57,27.08,14.57S537.16,410,546.2,394a50.6,50.6,0,0,0,6.24-31.29s9.72-7.64,2.08-10.43-33.91-10.08-50.7-4.85C483.67,353.69,473.23,352.29,468.39,350.21Z"/><path class="cls-5" d="M392,349.53l-46.57,6.24v5.56l45.86-2.77S387.05,351.61,392,349.53Z"/><path class="cls-2" d="M515.59,408.75c-13.62,0-20.57-7.24-22.09-19.8-1.82-15-3.43-25.52-8.16-30.56a107.23,107.23,0,0,0,20.49-4.49,41.84,41.84,0,0,1,12-1.51,114.41,114.41,0,0,1,30.44,5l-3.2,2.55.71,4a44.5,44.5,0,0,1-5.48,26.73C531.13,406.88,521.86,408.75,515.59,408.75Zm-87.51-2.08c-7.09,0-19.65-6.22-24.1-13.46-3.57-5.77-6.55-20.39-8.16-28.22-.63-3.17-1.11-5.46-1.51-6.9s-.73-2.25-1.11-3.29l-.21-.59c5.46-2.37,20.93-5.63,42.24-6.25h2.36c18.66,0,25.85,6.82,26,6.89l1,1.06,1.32.57c.91.37,1.83.69,2.77,1a11.81,11.81,0,0,0-3,6.31v.45c0,.12-.22.69-.45,1.54-6.91,24.39-12.89,30.87-15.16,32.52C440,405.44,435.75,406.67,428.08,406.67Z"/><path class="cls-5" d="M411.72,359.27h-3.57a.9.9,0,0,1-.88-.88.87.87,0,0,1,.88-.87h3.57a.87.87,0,0,1,.87.87A.89.89,0,0,1,411.72,359.27Zm.87,3.19a.87.87,0,0,0-.87-.87h-3.57a.87.87,0,0,0-.88.87.9.9,0,0,0,.88.88h3.57a.89.89,0,0,0,.87-.88Zm0,4.07a.88.88,0,0,0-.87-.87h-3.57a.89.89,0,0,0-.88.87.88.88,0,0,0,.88.88h3.57a.88.88,0,0,0,.87-.88Zm0,4.07a.9.9,0,0,0-.87-.88h-3.57a.91.91,0,0,0-.88.88.87.87,0,0,0,.88.87h3.57a.87.87,0,0,0,.87-.87Zm0,4.07a.89.89,0,0,0-.87-.88h-3.57a.9.9,0,0,0-.88.88.87.87,0,0,0,.88.87h3.57a.87.87,0,0,0,.87-.87Zm0,4.07a.89.89,0,0,0-.87-.88h-3.57a.9.9,0,0,0-.88.88.87.87,0,0,0,.88.87h3.57a.87.87,0,0,0,.87-.87Zm0,4.06a.89.89,0,0,0-.87-.87h-3.57a.9.9,0,0,0-.75,1,.91.91,0,0,0,.75.74h3.57a.9.9,0,0,0,.87-.9Zm0,4.07a.88.88,0,0,0-.87-.87h-3.57a.9.9,0,0,0-.75,1,.91.91,0,0,0,.75.74h3.57a.9.9,0,0,0,.87-.9Zm13.32-28.38a.86.86,0,0,0-.83-.88h-9.39a.85.85,0,0,0-.87.83v.05a.87.87,0,0,0,.87.87H425a.86.86,0,0,0,.88-.87v0Zm0,4.07a.86.86,0,0,0-.83-.88h-9.39a.85.85,0,0,0-.87.83v.05a.87.87,0,0,0,.87.87H425a.86.86,0,0,0,.88-.87v0Zm0,4.07a.87.87,0,0,0-.88-.88h-9.34a.87.87,0,0,0-.87.88.83.83,0,0,0,.82.87H425a.86.86,0,0,0,.89-.82.76.76,0,0,0,0-.15Zm0,4.06a.87.87,0,0,0-.88-.87h-9.34a.87.87,0,0,0-.87.87.84.84,0,0,0,.82.88H425a.86.86,0,0,0,.89-.82.76.76,0,0,0,0-.15Zm0,4.07a.87.87,0,0,0-.88-.87h-9.34a.87.87,0,0,0-.87.87.85.85,0,0,0,.82.88H425a.87.87,0,0,0,.89-.82.76.76,0,0,0,0-.15Zm11.21,4.07a.9.9,0,0,0-.9-.88h-9.34a.92.92,0,0,0-.88.88.87.87,0,0,0,.88.87h9.34a.86.86,0,0,0,.9-.84.48.48,0,0,0,0-.12Zm0,4.07a.9.9,0,0,0-.9-.88h-9.34a.9.9,0,0,0,0,1.78h9.34a.9.9,0,0,0,.9-.9v0Zm0,4.07a.9.9,0,0,0-.9-.88h-9.34a.9.9,0,0,0,0,1.77h9.34a.88.88,0,0,0,.9-.89v0ZM430,358.58a1,1,0,0,0-1-1,1,1,0,1,0,0,2h0a1,1,0,0,0,1-1,.75.75,0,0,0,0-.21Zm3.05,0a1,1,0,0,0-1-1,1,1,0,1,0,0,2h0a1,1,0,0,0,1-1,.75.75,0,0,0,0-.21Zm3.06,0a1,1,0,1,0-1,1,1,1,0,0,0,1-1,1.48,1.48,0,0,0,0-.21Zm3.07,0a1,1,0,1,0-1.06,1h0a1,1,0,0,0,1-1,1.09,1.09,0,0,0,0-.18Zm3.05,0a1,1,0,1,0-1,1h0a1,1,0,0,0,1-1,1.49,1.49,0,0,0,0-.21Zm3.05,0a1,1,0,0,0-1-1,1,1,0,1,0,0,2h0a1,1,0,0,0,1-1,.75.75,0,0,0,0-.21ZM430,366.72a1,1,0,1,0-1,1,1,1,0,0,0,1-1,.75.75,0,0,0,0-.21Zm3.05,0a1,1,0,1,0-1,1,1,1,0,0,0,1-1,.75.75,0,0,0,0-.21Zm3.06,0a1,1,0,1,0-1,1,1,1,0,0,0,1-1,1.48,1.48,0,0,0,0-.21Zm3.07,0a1,1,0,1,0-1.06,1h0a1,1,0,0,0,1-1,1.09,1.09,0,0,0,0-.18Zm3.05,0a1,1,0,1,0-2,0,1,1,0,0,0,1,1,1,1,0,0,0,1-1,1.49,1.49,0,0,0,0-.21Zm3.05,0a1,1,0,1,0-1,1h0a1,1,0,0,0,1-1,.75.75,0,0,0,0-.21Zm-4.73,11.71a1,1,0,1,0-1,1h0a1,1,0,0,0,.91-1.11s0-.06,0-.09Zm3.05,0a1,1,0,0,0-1-1,1,1,0,1,0,.91.92s0-.06,0-.09Zm3.05,0a1,1,0,0,0-1-1,1,1,0,0,0-1,1,1,1,0,0,0,1,1h0a1,1,0,0,0,.91-1.11s0-.06,0-.09Zm3.06,0a1,1,0,0,0-2,0,1,1,0,0,0,1,1h0a1,1,0,0,0,.91-1.11s0-.06,0-.09Zm3.07,0a1,1,0,1,0-2.08-.05,1,1,0,0,0,1,1.06h0a1,1,0,0,0,.92-1.11s0-.06,0-.09Zm3.05,0a1,1,0,1,0-1,1h0a1,1,0,0,0,.81-1.19h0Zm-15.28,8.39a1,1,0,1,0-1,1A1,1,0,0,0,440.57,386.82Zm3.05,0a1,1,0,0,0-2,0,1,1,0,0,0,1,1,1,1,0,0,0,.91-1.11s0-.06,0-.1Zm3.05,0a1,1,0,0,0-2,0,1,1,0,0,0,1,1,1,1,0,0,0,.91-1.11s0-.06,0-.1Zm3.06,0a1,1,0,0,0-2,0,1,1,0,0,0,1,1,1,1,0,0,0,.91-1.11s0-.06,0-.1Zm3.07,0a1.06,1.06,0,0,0-1.19-.87,1,1,0,0,0-.87.87,1,1,0,0,0,2.06,0Zm3.05,0a1,1,0,1,0-1,1,1,1,0,0,0,.81-1.21Z"/><path class="cls-5" d="M498.71,359.27h-3.55a.9.9,0,0,1-.9-.88.87.87,0,0,1,.88-.87h3.57a.85.85,0,0,1,.87.83v0A.87.87,0,0,1,498.71,359.27Zm.87,3.19a.83.83,0,0,0-.82-.87h-3.6a.87.87,0,0,0-.9.85v0a.9.9,0,0,0,.9.88h3.55A.87.87,0,0,0,499.58,362.46Zm0,4.07a.87.87,0,0,0-.87-.87h-3.55a.88.88,0,1,0,0,1.75h3.57a.85.85,0,0,0,.87-.83Zm0,4.07a.88.88,0,0,0-.87-.88h-3.55a.9.9,0,0,0-.9.88.87.87,0,0,0,.88.87h3.57a.83.83,0,0,0,.87-.82Zm0,4.07a.87.87,0,0,0-.87-.88h-3.55a.9.9,0,0,0-.9.88.87.87,0,0,0,.88.87h3.57a.83.83,0,0,0,.87-.82Zm0,4.07a.87.87,0,0,0-.87-.88h-3.55a.9.9,0,0,0-.9.88.87.87,0,0,0,.88.87h3.57a.85.85,0,0,0,.87-.83Zm0,4.06a.87.87,0,0,0-.87-.87h-3.55a.9.9,0,1,0-.29,1.77.71.71,0,0,0,.29,0h3.55a.87.87,0,0,0,.87-.87Zm0,4.07a.87.87,0,0,0-.87-.87h-3.55a.9.9,0,0,0-.29,1.77.71.71,0,0,0,.29,0h3.55a.87.87,0,0,0,.87-.87Zm13.34-28.38a.88.88,0,0,0-.87-.88h-9.49a.88.88,0,0,0,0,1.75H512a.88.88,0,0,0,.9-.89v0Zm0,4.07a.87.87,0,0,0-.87-.88h-9.49a.87.87,0,0,0-.87.88.88.88,0,0,0,.87.87H512a.89.89,0,0,0,.9-.89v0Zm0,4.07a.9.9,0,0,0-.9-.88h-9.46a.89.89,0,0,0-.87.88.87.87,0,0,0,.87.87H512a.88.88,0,0,0,.91-.85.49.49,0,0,0,0-.12Zm0,4.06a.9.9,0,0,0-.9-.87h-9.46a.89.89,0,0,0-.87.87.87.87,0,0,0,.87.88H512a.88.88,0,0,0,.91-.85.49.49,0,0,0,0-.12Zm0,4.07a.89.89,0,0,0-.9-.87h-9.46a.88.88,0,0,0-.87.87.87.87,0,0,0,.87.88H512a.89.89,0,0,0,.91-.85.49.49,0,0,0,0-.12Zm11.19,4.07a.91.91,0,0,0-.88-.88h-9.46a.91.91,0,0,0-.87.88.87.87,0,0,0,.87.87h9.46a.87.87,0,0,0,1-.74.55.55,0,0,0,0-.22Zm0,4.07a.91.91,0,0,0-.88-.88h-9.46a.9.9,0,0,0,0,1.78h9.46a.91.91,0,0,0,1-.8v-.2Zm0,4.07a.9.9,0,0,0-.88-.88h-9.46a.9.9,0,0,0,0,1.77h9.46a.9.9,0,0,0,1-.79v-.2ZM517,358.58a.72.72,0,1,0,.13.15,1,1,0,0,0,0-.34Zm3.08,0a1,1,0,1,0-1,1,1,1,0,0,0,1-1,1.49,1.49,0,0,0,0-.21Zm3,0a1,1,0,1,0-1,1h0a1,1,0,0,0,1-1,1.49,1.49,0,0,0,0-.21Zm3.05,0a1,1,0,1,0-1,1h0a1,1,0,0,0,1-1,1.49,1.49,0,0,0,0-.21Zm3,0a1,1,0,1,0-2,0,1,1,0,0,0,2,0,1.49,1.49,0,0,0,0-.21Zm3,0a1,1,0,1,0-1,1h0a1,1,0,0,0,1-1,.75.75,0,0,0,0-.21Zm-15.16,7.95a1,1,0,0,0-1-1,1,1,0,0,0,0,2A1,1,0,0,0,517.13,366.53Zm3.08,0a1,1,0,1,1-.12,0Zm3,0a1,1,0,1,1-.12,0Zm3,0a1,1,0,1,0-1,1h0a1,1,0,0,0,.9-1Zm3.05,0a1,1,0,1,0-1,1,1,1,0,0,0,.9-1Zm3,0a1,1,0,1,0-1,1h0a1,1,0,0,0,.9-1Zm-4.85,11.71a1,1,0,1,0-2,0,1,1,0,0,0,1,1,1,1,0,0,0,.89-1Zm3.08,0a1,1,0,1,0-2.08-.05,1,1,0,0,0,1,1.07h0a1,1,0,0,0,.92-1Zm3.05,0a1,1,0,1,0-1,1h0a1,1,0,0,0,1-1Zm3,0a1,1,0,1,1-.12,0Zm3,0a1,1,0,1,0-1,1h0a1,1,0,0,0,.9-1Zm3.05,0a1,1,0,1,0-1,1h0a1,1,0,0,0,.9-1Zm-15.28,8.39a1,1,0,0,0-2,0,1,1,0,0,0,1,1,1,1,0,0,0,.89-1Zm3.08,0a1.06,1.06,0,0,0-1.19-.87,1,1,0,0,0-.87.87,1.05,1.05,0,0,0,1.18.88A1,1,0,0,0,530.64,386.63Zm3.05,0a1,1,0,1,0-1,1,1,1,0,0,0,1-1Zm3,0a1,1,0,1,0-1,1,1,1,0,0,0,.9-1Zm3,0a1,1,0,1,0-1,1,1,1,0,0,0,.9-1Zm3.05,0a1,1,0,1,0-1,1A1,1,0,0,0,542.84,386.63Z"/><path class="cls-6" d="M377,383.3s-14.83-34.63-27.84-34.63-12.37,29.07-4.33,44.54,25.38,21.64,30.32,12.37"/><g class="cls-16"><path class="cls-2" d="M377,383.3s-14.83-34.63-27.84-34.63-12.37,29.07-4.33,44.54,25.38,21.64,30.32,12.37"/><path class="cls-8" d="M377,383.3s-14.83-34.63-27.84-34.63-12.37,29.07-4.33,44.54,25.38,21.64,30.32,12.37"/></g><path class="cls-9" d="M377,383.3s-14.83-34.63-27.84-34.63-12.37,29.07-4.33,44.54,25.38,21.64,30.32,12.37"/><path class="cls-9" d="M344.81,369.79s-1.89-15.06,5.27-12.41,15.45,26.37,15.45,26.37-6-6.41-5.28-.38a6.85,6.85,0,0,0,6,6.39"/></g><g id="freepik--Device--inject-93"><polygon class="cls-4" points="873.11 490.73 579.9 490.73 529.83 692 823.06 692 873.11 490.73"/><rect class="cls-4" x="382.72" y="692" width="437.27" height="14.31"/><rect class="cls-17" x="529.83" y="692" width="293.23" height="14.31"/><polygon class="cls-17" points="876.37 490.73 583.14 490.73 533.07 692 826.3 692 876.37 490.73"/><ellipse class="cls-5" cx="703.06" cy="595.19" rx="41.82" ry="41.41"/><path class="cls-6" d="M669.07,601.58a3.52,3.52,0,0,1-1.89-2.06,4.07,4.07,0,0,1,0-3,4.18,4.18,0,0,1,2.36-2.36l17.72-7.1c.59-.26,1.2,0,1.87.78a4.09,4.09,0,0,1,1,2.37,2.24,2.24,0,0,1-1.2,2.06L674.08,598l14.9,6a2.11,2.11,0,0,1,.93,1.94,4.09,4.09,0,0,1-.86,2.37c-.56.75-1.13,1-1.72.78Z"/><path class="cls-6" d="M696.72,611.49a2,2,0,0,1-.76-1.63,13.25,13.25,0,0,1,.57-2.51L706.37,579c.61-2.13,1.49-3.19,2.62-3.19a2.55,2.55,0,0,1,1.71.61,2.38,2.38,0,0,1,.68,1.77,8,8,0,0,1-.54,2.37l-10.29,30a2.09,2.09,0,0,1-2.15,1.6A2.55,2.55,0,0,1,696.72,611.49Z"/><path class="cls-6" d="M716,608.41a4.12,4.12,0,0,1-.85-2.36,2.1,2.1,0,0,1,.92-1.94l14.9-6-14.85-5.78A2.21,2.21,0,0,1,715,590.3a4,4,0,0,1,1-2.37c.66-.78,1.28-1,1.87-.78l17.71,7.1a4.39,4.39,0,0,1,2.08,1.7,3.84,3.84,0,0,1,.69,2.22,4.6,4.6,0,0,1-.61,2.11,3.29,3.29,0,0,1-1.57,1.42l-18.37,7.64A1.81,1.81,0,0,1,716,608.41Z"/></g><g id="freepik--Desk--inject-93"><rect class="cls-12" x="36.23" y="703.14" width="949.2" height="14.19"/></g></g></g></svg>