<svg xmlns="http://www.w3.org/2000/svg" xmlns:xlink="http://www.w3.org/1999/xlink" viewBox="0 0 1001 783.83"><defs><style>.cls-1,.cls-10,.cls-11,.cls-15,.cls-5,.cls-9{fill:none;}.cls-2,.cls-8{fill:#50d890;}.cls-12,.cls-3,.cls-6{fill:#fff;}.cls-3{opacity:0.7;}.cls-14,.cls-3{isolation:isolate;}.cls-4,.cls-7{fill:#263238;}.cls-5,.cls-6,.cls-7,.cls-8,.cls-9{stroke:#263238;}.cls-11,.cls-5{stroke-miterlimit:10;}.cls-10,.cls-15,.cls-6,.cls-7,.cls-8,.cls-9{stroke-linecap:round;stroke-linejoin:round;}.cls-10{stroke:#fff;stroke-width:0.5px;}.cls-11{stroke:#50d890;}.cls-13{clip-path:url(#clip-path);}.cls-14{opacity:0.4;}.cls-15{stroke:#707070;}.cls-16{clip-path:url(#clip-path-2);}.cls-17{clip-path:url(#clip-path-3);}.cls-18{clip-path:url(#clip-path-4);}</style><clipPath id="clip-path"><path class="cls-1" d="M416.67,282.74s1,17.82-2,26.11-6.9,13.8-6.9,17.82,6.41,8.88,6.41,16.74S399.93,389.22,396,396.6s-2.54,9.85-7.38,10.33-17.23-5.4-17.23-5.4-7.4,1-8.37,3.92-3.46,13.31-3.46,13.31l-71.89-32a72.06,72.06,0,0,0,14.79-25.12c4.42-14.27-2.55-36.44-2.55-36.44s-6.9-51.68,24.61-66.47,77.31-5.42,84.72,2S416.67,282.74,416.67,282.74Z"/></clipPath><clipPath id="clip-path-2"><path class="cls-1" d="M272.89,396.5l-1.81,1.24c-6.92,4.76-32.47,22.47-51.86,37.67-22.65,17.81-24.12,50.71-25.12,76.34s-17.51,185-21.45,204.7,31.3,24.74,65.27,29.68,77.8-.49,99-10.34S363,726.43,363,715.59s.48-35.45.48-37.41,15.27-122.61,14.28-158.06,2-54.66-6.39-72.4-29.54-31.5-57.61-40.87S272.89,396.5,272.89,396.5Z"/></clipPath><clipPath id="clip-path-3"><path class="cls-1" d="M277.8,379.75l-13.18,22.17s39.88,9.36,60.57,17.81,48.35,30.54,48.35,30.54-4.43-25.12-8.38-31.51-44.81-28-61.55-34.48S277.8,379.75,277.8,379.75Z"/></clipPath><clipPath id="clip-path-4"><path class="cls-1" d="M332,497.91s-13.79,18.73-18.22,33.51,1,35.93,2.54,40.87,80.24,160,88.61,175.29,17.82,16.23,24.64,13.79,86.17-59.09,89.07-62,16.26-14.28,16.26-14.28,2.54-15.78-8.37-24.12S510.24,657,510.24,657l-68.93,18.71S402.42,541.75,398,516.15s2.55-24.12-11.32-37.92a193.55,193.55,0,0,0-30.54-24.17"/></clipPath></defs><g id="Layer_2" data-name="Layer 2"><g id="Layer_1-2" data-name="Layer 1"><g id="freepik--background-simple--inject-56"><path class="cls-2" d="M89.79,506.33s36.49,146.76,180.43,217.15S585.77,762,725.53,739.74,954.24,615,944.74,492.89,822.59,360.08,736.5,238.41,646,71.12,507.47,15.87,190.82,54.68,122.11,219.61,89.79,506.33,89.79,506.33Z"/><path class="cls-3" d="M89.79,506.33s36.49,146.76,180.43,217.15S585.77,762,725.53,739.74,954.24,615,944.74,492.89,822.59,360.08,736.5,238.41,646,71.12,507.47,15.87,190.82,54.68,122.11,219.61,89.79,506.33,89.79,506.33Z"/></g><g id="freepik--Plants--inject-56"><path class="cls-4" d="M925.86,649.68c-9.21,11.53-13.72,17.94-15.65,20.84a219.65,219.65,0,0,1,10.51-37.15,108.85,108.85,0,0,0,6.39-29l-.84.46-.82-1.53c.33-.15,31.71-16.82,40.59-32.52l1.48.84c-8,14.2-32.78,28.55-39.57,32.29,6.44-.61,26.54-3.69,38.5-18.45,14.35-17.81,11.83-39.72,11.83-39.72s-27,18.57-38,32.95A102.89,102.89,0,0,0,927.52,600a148.4,148.4,0,0,0-2.68-34.94c9.06-7,42.14-34.4,45.83-54.84C974.9,486.56,969,446,969,446a210.39,210.39,0,0,1-11.83,24.53C949.5,484,925.86,505.16,921.64,528a98.36,98.36,0,0,0-1.68,17.3,340.89,340.89,0,0,0-13.64-37.43,65.35,65.35,0,0,1-3.39-10.18h0l-.74-.44c.16-.25,15.27-25.95,15.27-33.33h1.73c0,6.89-11.63,27.35-14.83,32.85,5.32-3.18,14-9.75,17.23-19.92a40.72,40.72,0,0,0-2.32-28.76s-12.85,18.88-16.36,31A72.75,72.75,0,0,0,900,496a93.9,93.9,0,0,0-10.56-20.54A106.15,106.15,0,0,1,876.67,450s-9.29,16.09-2.54,33.09C879.7,497,895.5,502.31,901,503.78c.61,1.84,1.28,3.64,2,5.35a288.16,288.16,0,0,1,17.33,52,103.7,103.7,0,0,0-18.42-19.65,105.22,105.22,0,0,1-19.49-20.61s-4.25,18.07,7.12,32.29c9.32,11.63,25.86,12.19,31.61,12,3.92,20.48,4.35,41.86-2.27,62.5-.43-4-2.85-14.92-16.13-27.13-16.75-15.4-50.31-64.69-50.31-64.69s2.7,58.17,18.75,77.31c14.74,17.51,42.55,16.49,47.11,16.21-.31.89-.61,1.81-.94,2.72-10.59,28.43-12.73,48.36-13.08,58.94h-20v92.15h55V691.16H907.89a134.85,134.85,0,0,1,1.86-17.94l-.58.18-.46-1.68c.36,0,34.79-9.8,58.86-34.56l1.22,1.22c-19.42,20-45.45,30.26-55.45,33.67,9.93-1.22,34.2-4.89,45.5-12.17,14.35-9.31,27-37.2,27-37.2S939.4,632.83,925.86,649.68ZM899.7,499.94a43.06,43.06,0,0,1-22-29.52l1.68-.33a41.32,41.32,0,0,0,21.07,28.27ZM924,565.6l-.38.58-.64-.25c-1-.38-23.46-9.65-32.62-23l1.42-1c8,11.71,27.38,20.49,31.18,22.14,2.92-4.48,21.19-32.83,27.56-50.67l1.62.59c-6.94,19.54-27.91,51.35-28.14,51.71Zm-7.94,63.16c-.28,0-27.08-10.18-39-33.34l1.52-.79c11.63,22.58,37.82,32.42,38.18,32.53Z"/></g><g id="freepik--Table--inject-56"><rect class="cls-5" x="379.26" y="333.87" width="396.43" height="449.44"/><rect class="cls-5" x="379.26" y="372.01" width="362.79" height="411.29"/><polygon class="cls-4" points="742.08 372.01 775.72 333.87 775.72 783.31 742.08 783.31 742.08 372.01"/><rect class="cls-6" x="759.33" y="700.52" width="16.39" height="82.81"/><polygon class="cls-7" points="846.9 783.31 846.9 643.14 775.72 700.52 775.72 783.31 846.9 783.31"/><rect class="cls-6" x="202.12" y="700.52" width="16.39" height="82.81"/><polygon class="cls-7" points="289.69 783.31 289.69 643.14 218.51 700.52 218.51 783.31 289.69 783.31"/><polygon class="cls-6" points="795.47 715.16 139.01 715.16 138.75 709.81 899.27 629.96 899.27 635.35 795.47 715.16"/><polygon class="cls-6" points="795.47 709.76 139.01 709.76 304.62 629.96 899.27 629.96 795.47 709.76"/><polygon class="cls-8" points="757.22 696.27 687.69 696.27 727.82 664.18 801.04 664.18 757.22 696.27"/><polygon class="cls-7" points="795.47 715.16 795.47 709.76 899.27 629.96 899.27 635.35 795.47 715.16"/><path class="cls-9" d="M709,633.67H828.75s17.81-1.65,14.43,7.23-18.86,9.41-53.24,10.53-43.26,22.17-43.26,22.17"/><path class="cls-4" d="M755.77,666.52s-11.3-2-19.29,2c-5.09,2.54-9.5,11.32-12.14,17.53a4.61,4.61,0,0,0,2.43,6.05,4.7,4.7,0,0,0,1.82.37h15.14a4.61,4.61,0,0,0,3.43-1.53l15.27-17.1S761.85,667.19,755.77,666.52Z"/><path class="cls-10" d="M746.35,687.85a17.16,17.16,0,0,1,9.42-16.62"/><polygon class="cls-6" points="665.86 700.8 421.63 700.8 481.03 653.39 725.25 653.39 665.86 700.8"/><polygon class="cls-9" points="725.25 656.37 725.25 653.39 665.86 700.8 665.86 703.75 725.25 656.37"/><rect class="cls-6" x="421.63" y="700.8" width="244.22" height="2.98"/><polygon class="cls-9" points="501.26 680.32 493.42 686.65 509.53 686.65 517.39 680.32 501.26 680.32"/><polygon class="cls-9" points="517.39 680.32 509.53 686.65 525.66 686.65 533.5 680.32 517.39 680.32"/><polygon class="cls-9" points="485.13 680.32 477.29 686.65 493.42 686.65 501.26 680.32 485.13 680.32"/><polygon class="cls-9" points="509.1 673.98 492.99 673.98 485.13 680.32 501.26 680.32 509.1 673.98"/><polygon class="cls-9" points="525.23 673.98 533.1 667.64 516.96 667.64 509.1 673.98 525.23 673.98"/><polygon class="cls-9" points="516.96 667.64 500.83 667.64 492.99 673.98 509.1 673.98 516.96 667.64"/><polygon class="cls-9" points="533.5 680.32 525.66 686.65 541.8 686.65 549.64 680.32 533.5 680.32"/><polygon class="cls-9" points="614.15 680.32 606.28 686.65 622.42 686.65 630.28 680.32 614.15 680.32"/><polygon class="cls-9" points="541.37 673.98 549.21 667.64 533.1 667.64 525.23 673.98 541.37 673.98"/><polygon class="cls-9" points="549.64 680.32 541.8 686.65 557.91 686.65 565.77 680.32 549.64 680.32"/><polygon class="cls-9" points="638.55 686.65 654.66 686.65 662.52 680.32 646.39 680.32 638.55 686.65"/><polygon class="cls-9" points="646.39 680.32 662.52 680.32 670.36 673.98 654.25 673.98 646.39 680.32"/><polygon class="cls-9" points="630.28 680.32 622.42 686.65 638.55 686.65 646.39 680.32 630.28 680.32"/><polygon class="cls-9" points="598.01 680.32 590.18 686.65 606.28 686.65 614.15 680.32 598.01 680.32"/><polygon class="cls-9" points="565.77 680.32 557.91 686.65 574.04 686.65 581.9 680.32 565.77 680.32"/><polygon class="cls-9" points="581.9 680.32 574.04 686.65 590.18 686.65 598.01 680.32 581.9 680.32"/><polygon class="cls-9" points="605.88 673.98 613.72 667.64 597.58 667.64 589.74 673.98 605.88 673.98"/><polygon class="cls-9" points="621.99 673.98 614.15 680.32 630.28 680.32 638.12 673.98 621.99 673.98"/><polygon class="cls-9" points="589.74 673.98 581.9 680.32 598.01 680.32 605.88 673.98 589.74 673.98"/><polygon class="cls-9" points="557.48 673.98 549.64 680.32 565.77 680.32 573.61 673.98 557.48 673.98"/><polygon class="cls-9" points="605.88 673.98 598.01 680.32 614.15 680.32 621.99 673.98 605.88 673.98"/><polygon class="cls-9" points="557.48 673.98 565.34 667.64 549.21 667.64 541.37 673.98 557.48 673.98"/><polygon class="cls-9" points="509.1 673.98 501.26 680.32 517.39 680.32 525.23 673.98 509.1 673.98"/><polygon class="cls-9" points="541.37 673.98 533.5 680.32 549.64 680.32 557.48 673.98 541.37 673.98"/><polygon class="cls-9" points="525.23 673.98 517.39 680.32 533.5 680.32 541.37 673.98 525.23 673.98"/><polygon class="cls-9" points="573.61 673.98 565.77 680.32 581.9 680.32 589.74 673.98 573.61 673.98"/><polygon class="cls-9" points="589.74 673.98 597.58 667.64 581.47 667.64 573.61 673.98 589.74 673.98"/><polygon class="cls-9" points="654.25 673.98 670.36 673.98 678.23 667.64 662.09 667.64 654.25 673.98"/><polygon class="cls-9" points="573.61 673.98 581.47 667.64 565.34 667.64 557.48 673.98 573.61 673.98"/><polygon class="cls-9" points="638.12 673.98 645.96 667.64 629.85 667.64 621.99 673.98 638.12 673.98"/><polygon class="cls-9" points="654.25 673.98 662.09 667.64 645.96 667.64 638.12 673.98 654.25 673.98"/><polygon class="cls-9" points="630.28 680.32 646.39 680.32 654.25 673.98 638.12 673.98 630.28 680.32"/><polygon class="cls-9" points="621.99 673.98 629.85 667.64 613.72 667.64 605.88 673.98 621.99 673.98"/><polygon class="cls-9" points="574.04 686.65 566.2 692.99 582.31 692.99 590.18 686.65 574.04 686.65"/><polygon class="cls-9" points="590.18 686.65 582.31 692.99 598.45 692.99 606.28 686.65 590.18 686.65"/><polygon class="cls-9" points="557.91 686.65 550.07 692.99 566.2 692.99 574.04 686.65 557.91 686.65"/><polygon class="cls-9" points="606.28 686.65 598.45 692.99 614.58 692.99 622.42 686.65 606.28 686.65"/><polygon class="cls-9" points="541.8 686.65 533.94 692.99 550.07 692.99 557.91 686.65 541.8 686.65"/><polygon class="cls-9" points="525.66 686.65 517.83 692.99 533.94 692.99 541.8 686.65 525.66 686.65"/><polygon class="cls-9" points="622.42 686.65 614.58 692.99 630.69 692.99 638.55 686.65 622.42 686.65"/><polygon class="cls-9" points="493.42 686.65 485.56 692.99 501.69 692.99 509.53 686.65 493.42 686.65"/><polygon class="cls-9" points="509.53 686.65 501.69 692.99 517.83 692.99 525.66 686.65 509.53 686.65"/><polygon class="cls-9" points="662.52 680.32 678.66 680.32 686.5 673.98 670.36 673.98 662.52 680.32"/><polygon class="cls-9" points="686.06 661.31 678.23 667.64 694.34 667.64 702.2 661.31 686.06 661.31"/><polygon class="cls-9" points="670.36 673.98 686.5 673.98 694.34 667.64 678.23 667.64 670.36 673.98"/><polygon class="cls-9" points="477.29 686.65 469.45 692.99 485.56 692.99 493.42 686.65 477.29 686.65"/><polygon class="cls-9" points="638.55 686.65 630.69 692.99 646.82 692.99 654.66 686.65 638.55 686.65"/><polygon class="cls-9" points="646.82 692.99 662.96 692.99 670.79 686.65 654.66 686.65 646.82 692.99"/><polygon class="cls-9" points="654.66 686.65 670.79 686.65 678.66 680.32 662.52 680.32 654.66 686.65"/><polygon class="cls-9" points="492.99 673.98 476.86 673.98 469.02 680.32 485.13 680.32 492.99 673.98"/><polygon class="cls-9" points="597.58 667.64 605.45 661.31 589.31 661.31 581.47 667.64 597.58 667.64"/><polygon class="cls-9" points="613.72 667.64 621.55 661.31 605.45 661.31 597.58 667.64 613.72 667.64"/><polygon class="cls-9" points="581.47 667.64 589.31 661.31 573.18 661.31 565.34 667.64 581.47 667.64"/><polygon class="cls-9" points="629.85 667.64 637.69 661.31 621.55 661.31 613.72 667.64 629.85 667.64"/><polygon class="cls-9" points="662.09 667.64 669.93 661.31 653.82 661.31 645.96 667.64 662.09 667.64"/><polygon class="cls-9" points="645.96 667.64 653.82 661.31 637.69 661.31 629.85 667.64 645.96 667.64"/><polygon class="cls-9" points="565.34 667.64 573.18 661.31 557.07 661.31 549.21 667.64 565.34 667.64"/><polygon class="cls-9" points="485.13 680.32 469.02 680.32 461.15 686.65 477.29 686.65 485.13 680.32"/><polygon class="cls-9" points="500.83 667.64 484.69 667.64 476.86 673.98 492.99 673.98 500.83 667.64"/><polygon class="cls-9" points="678.23 667.64 686.06 661.31 669.93 661.31 662.09 667.64 678.23 667.64"/><polygon class="cls-9" points="461.15 686.65 453.32 692.99 469.45 692.99 477.29 686.65 461.15 686.65"/><polygon class="cls-9" points="508.69 661.31 492.56 661.31 484.69 667.64 500.83 667.64 508.69 661.31"/><polygon class="cls-9" points="533.1 667.64 540.93 661.31 524.8 661.31 516.96 667.64 533.1 667.64"/><polygon class="cls-9" points="516.96 667.64 524.8 661.31 508.69 661.31 500.83 667.64 516.96 667.64"/><polygon class="cls-9" points="549.21 667.64 557.07 661.31 540.93 661.31 533.1 667.64 549.21 667.64"/></g><g id="freepik--device-3--inject-56"><path class="cls-7" d="M733.93,647.13H649.75a1.32,1.32,0,0,1-.59-2.54l17.31-8.35a1.42,1.42,0,0,1,.58,0h77.72a1.35,1.35,0,0,1,1.31,1.39,1.33,1.33,0,0,1-.49,1L734.75,647A1.37,1.37,0,0,1,733.93,647.13Z"/><rect class="cls-6" x="693.75" y="583.69" width="15.47" height="58.96"/><rect class="cls-7" x="691.33" y="583.69" width="20.31" height="42.8"/><rect class="cls-6" x="577.04" y="387.54" width="256.21" height="200.4"/><rect class="cls-7" x="590.74" y="398.25" width="228.8" height="178.98"/><path class="cls-2" d="M612.52,410.47h-5.9a1.45,1.45,0,0,1-1.46-1.45h0a1.48,1.48,0,0,1,1.46-1.45h5.9A1.47,1.47,0,0,1,614,409a1.45,1.45,0,0,1-1.45,1.45Zm1.45,5.29a1.45,1.45,0,0,0-1.45-1.45h-5.9a1.45,1.45,0,0,0,0,2.9h5.9a1.45,1.45,0,0,0,1.45-1.35Zm0,6.74a1.45,1.45,0,0,0-1.45-1.45h-5.9a1.45,1.45,0,0,0-1.46,1.45h0a1.48,1.48,0,0,0,1.46,1.45h5.9a1.47,1.47,0,0,0,1.45-1.34Zm0,6.75a1.45,1.45,0,0,0-1.45-1.45h-5.9a1.45,1.45,0,0,0-1.46,1.45h0a1.49,1.49,0,0,0,1.46,1.45h5.9a1.48,1.48,0,0,0,1.45-1.35Zm0,6.74a1.47,1.47,0,0,0-1.45-1.47h-5.9a1.47,1.47,0,0,0,0,2.92h5.9a1.47,1.47,0,0,0,1.45-1.35Zm0,6.72a1.47,1.47,0,0,0-1.45-1.45h-5.9a1.48,1.48,0,0,0,0,2.93h5.9a1.48,1.48,0,0,0,1.45-1.38Zm0,6.74a1.48,1.48,0,0,0-1.45-1.45h-5.9a1.49,1.49,0,0,0-1.46,1.45,1.45,1.45,0,0,0,1.46,1.45h5.9a1.44,1.44,0,0,0,1.45-1.35Zm0,6.75a1.47,1.47,0,0,0-1.45-1.45h-5.9a1.48,1.48,0,0,0-1.46,1.45,1.45,1.45,0,0,0,1.46,1.45h5.9a1.46,1.46,0,0,0,1.45-1.38Zm22.19-47.08a1.46,1.46,0,0,0-1.45-1.45h-15.6a1.48,1.48,0,0,0-1.48,1.45,1.45,1.45,0,0,0,1.45,1.45h15.5a1.45,1.45,0,0,0,1.57-1.32A.57.57,0,0,0,636.16,409.12Zm0,6.74a1.45,1.45,0,0,0-1.45-1.45h-15.6a1.45,1.45,0,0,0,0,2.9h15.47a1.45,1.45,0,0,0,1.57-1.32A.53.53,0,0,0,636.16,415.86Zm0,6.75a1.45,1.45,0,0,0-1.45-1.46h-15.6a1.47,1.47,0,0,0-1.48,1.43v0a1.48,1.48,0,0,0,1.48,1.45h15.47a1.49,1.49,0,0,0,1.58-1.37v-.08Zm0,6.74a1.45,1.45,0,0,0-1.45-1.45h-15.6a1.45,1.45,0,0,0-1.48,1.42v0a1.48,1.48,0,0,0,1.48,1.45h15.47a1.48,1.48,0,0,0,1.58-1.37v-.08Zm0,6.74a1.47,1.47,0,0,0-1.45-1.47h-15.6a1.47,1.47,0,1,0-.39,2.92,1.27,1.27,0,0,0,.39,0h15.47a1.47,1.47,0,0,0,1.58-1.37v-.08Zm18.53,6.72a1.45,1.45,0,0,0-1.45-1.45H637.76a1.48,1.48,0,0,0,0,2.93h15.48a1.45,1.45,0,0,0,1.32-1.48Zm0,6.74a1.45,1.45,0,0,0-1.45-1.45H637.76a1.45,1.45,0,0,0-1.45,1.45h0a1.44,1.44,0,0,0,1.4,1.46h15.53a1.44,1.44,0,0,0,1.32-1.46Zm0,6.75a1.45,1.45,0,0,0-1.45-1.45H637.76a1.45,1.45,0,0,0-1.45,1.45h0a1.43,1.43,0,0,0,1.4,1.45h15.53a1.43,1.43,0,0,0,1.32-1.48ZM643,409.12a1.71,1.71,0,1,0-1.73,1.68h0a1.71,1.71,0,0,0,1.55-1.68Zm5.09,0a1.59,1.59,0,1,1-.18,0Zm5.09,0a1.68,1.68,0,1,0-1.68,1.68A1.68,1.68,0,0,0,653.16,409.12Zm5.09,0a1.71,1.71,0,1,0-1.48,1.48A1.71,1.71,0,0,0,658.25,409.12Zm5.09,0a1.55,1.55,0,1,1-.28,0Zm5.09,0a1.68,1.68,0,1,0-1.68,1.68A1.68,1.68,0,0,0,668.43,409.12Zm-25.27,13.49a1.71,1.71,0,1,0-1.49,1.48A1.71,1.71,0,0,0,643.16,422.61Zm5.09,0a1.68,1.68,0,1,0-1.68,1.67A1.68,1.68,0,0,0,648.25,422.61Zm5.09,0a1.5,1.5,0,1,1-.38,0Zm5.09,0a1.71,1.71,0,1,0-1.73,1.67h0a1.67,1.67,0,0,0,1.3-1.67Zm5.09,0a1.68,1.68,0,1,0-1.68,1.67A1.68,1.68,0,0,0,663.52,422.61Zm5.09,0a1.68,1.68,0,1,0-1.68,1.67,1.67,1.67,0,0,0,1.19-1.67Zm-8,19.36a1.68,1.68,0,1,0-1.68,1.68A1.68,1.68,0,0,0,660.59,442Zm5.09,0a1.68,1.68,0,0,0-3.36,0,1.69,1.69,0,0,0,1.68,1.66,1.71,1.71,0,0,0,1.17-1.71Zm5.09,0a1.71,1.71,0,1,0-1.7,1.71h0a1.72,1.72,0,0,0,1.15-1.71Zm5.09,0a1.68,1.68,0,1,0-1.68,1.68A1.68,1.68,0,0,0,675.86,442Zm5.09,0a1.68,1.68,0,1,0-1.68,1.71,1.72,1.72,0,0,0,1.07-1.71Zm5.09,0a1.43,1.43,0,1,1-.64,0Zm-25.3,13.92a1.4,1.4,0,1,1-.63,0Zm5.09,0a1.68,1.68,0,1,0-1.68,1.68,1.68,1.68,0,0,0,1.68-1.68Zm5.09,0a1.71,1.71,0,1,0-1.73,1.68h0a1.72,1.72,0,0,0,1-1.68Zm5.09,0a1.36,1.36,0,1,1-.74,0Zm5.09,0a1.68,1.68,0,1,0-1.68,1.68,1.68,1.68,0,0,0,1.68-1.68Zm5.09,0a1.71,1.71,0,1,0-1.73,1.68h0a1.69,1.69,0,0,0,.91-1.68Z"/><path class="cls-2" d="M612.52,464.52h-5.9a1.48,1.48,0,0,1,0-2.93h5.9a1.48,1.48,0,0,1,0,2.93Zm1.45,5.27a1.47,1.47,0,0,0-1.45-1.45h-5.9a1.47,1.47,0,0,0,0,2.92h5.9A1.47,1.47,0,0,0,614,469.79Zm0,6.74a1.47,1.47,0,0,0-1.45-1.45h-5.9a1.48,1.48,0,0,0-1.46,1.45,1.45,1.45,0,0,0,1.46,1.45h5.9a1.45,1.45,0,0,0,1.45-1.35Zm0,6.74a1.48,1.48,0,0,0-1.45-1.45h-5.9a1.49,1.49,0,0,0-1.46,1.45,1.45,1.45,0,0,0,1.46,1.45h5.9a1.45,1.45,0,0,0,1.45-1.45Zm0,6.75a1.45,1.45,0,0,0-1.45-1.45h-5.9a1.45,1.45,0,1,0,0,2.9h5.9A1.45,1.45,0,0,0,614,490Zm0,6.74a1.45,1.45,0,0,0-1.45-1.45h-5.9a1.45,1.45,0,1,0,0,2.9h5.9a1.45,1.45,0,0,0,1.45-1.45Zm0,6.74a1.45,1.45,0,0,0-1.45-1.45h-5.9a1.45,1.45,0,0,0-1.46,1.45h0a1.5,1.5,0,0,0,1.46,1.46h5.9A1.49,1.49,0,0,0,614,503.5Zm0,6.75a1.48,1.48,0,0,0-1.45-1.48h-5.9a1.48,1.48,0,0,0,0,2.93h5.9a1.48,1.48,0,0,0,1.45-1.45Zm22.19-47.18a1.48,1.48,0,0,0-1.45-1.48h-15.6a1.48,1.48,0,0,0-.39,2.93,1.27,1.27,0,0,0,.39,0h15.47a1.49,1.49,0,0,0,1.58-1.37Zm0,6.72a1.46,1.46,0,0,0-1.45-1.45h-15.6a1.47,1.47,0,1,0-.39,2.92,1.27,1.27,0,0,0,.39,0h15.47a1.48,1.48,0,0,0,1.58-1.37v-.1Zm0,6.74a1.46,1.46,0,0,0-1.45-1.45h-15.6a1.48,1.48,0,0,0-1.48,1.45,1.45,1.45,0,0,0,1.45,1.45h15.5a1.46,1.46,0,0,0,1.58-1.31v-.14Zm0,6.74a1.48,1.48,0,0,0-1.45-1.45h-15.6a1.48,1.48,0,0,0-1.48,1.45,1.45,1.45,0,0,0,1.45,1.45h15.5a1.45,1.45,0,0,0,1.57-1.31.66.66,0,0,0,0-.14Zm0,6.75a1.45,1.45,0,0,0-1.45-1.45h-15.6a1.45,1.45,0,0,0,0,2.9h15.47a1.45,1.45,0,0,0,1.57-1.32A.57.57,0,0,0,636.16,490Zm18.53,6.74a1.43,1.43,0,0,0-1.4-1.45H637.76a1.45,1.45,0,0,0,0,2.9h15.48a1.43,1.43,0,0,0,1.32-1.45Zm0,6.74a1.44,1.44,0,0,0-1.4-1.45H637.76a1.44,1.44,0,0,0-1.45,1.4v.05a1.45,1.45,0,0,0,1.45,1.46h15.48a1.46,1.46,0,0,0,1.32-1.46Zm0,6.75a1.47,1.47,0,0,0-1.43-1.48h-15.5a1.48,1.48,0,0,0,0,2.93h15.48a1.46,1.46,0,0,0,1.32-1.45ZM643,463.07a1.71,1.71,0,1,0-1.73,1.68h0a1.71,1.71,0,0,0,1.55-1.68Zm5.09,0a1.59,1.59,0,1,1-.18,0Zm5.09,0a1.68,1.68,0,1,0-1.68,1.68A1.68,1.68,0,0,0,653.16,463.07Zm5.09,0a1.71,1.71,0,1,0-1.73,1.68h0a1.7,1.7,0,0,0,1.48-1.68Zm5.09,0a1.55,1.55,0,1,1-.28,0Zm5.09,0a1.68,1.68,0,1,0-1.68,1.68A1.68,1.68,0,0,0,668.43,463.07Zm-25.58,13.56a1.71,1.71,0,0,0-3.41,0,1.72,1.72,0,0,0,1.71,1.71h0A1.71,1.71,0,0,0,642.85,476.63Zm5.09,0a1.68,1.68,0,1,0-1.68,1.68A1.68,1.68,0,0,0,647.94,476.63Zm5.09,0a1.66,1.66,0,0,0-1.7-1.65,1.68,1.68,0,0,0,0,3.36,1.72,1.72,0,0,0,1.61-1.71Zm5.09,0a1.71,1.71,0,0,0-3.41,0,1.66,1.66,0,1,0,3.31,0Zm5.09,0a1.68,1.68,0,1,0-1.68,1.68A1.68,1.68,0,0,0,663.21,476.63Zm5.09,0a1.68,1.68,0,0,0-3.36.05,1.69,1.69,0,0,0,1.68,1.66,1.71,1.71,0,0,0,1.5-1.71Zm-8,19.39a1.68,1.68,0,1,0-1.68,1.68A1.69,1.69,0,0,0,660.29,496Zm5.08,0a1.22,1.22,0,1,1-.2-.1Zm5.09,0a1.7,1.7,0,1,0-1.48,1.49A1.7,1.7,0,0,0,670.46,496Zm5.09,0a1.68,1.68,0,1,0-1.68,1.68A1.68,1.68,0,0,0,675.55,496Zm5.09,0a1.26,1.26,0,1,1-.3-.1Zm5.09,0A1.71,1.71,0,1,0,684,497.7h0a1.67,1.67,0,0,0,1.37-1.78Zm-25.62,13.69a1.68,1.68,0,1,0-1.68,1.68,1.65,1.65,0,0,0,1.68-1.62Zm5.09,0a1.68,1.68,0,1,0-1.68,1.68,1.69,1.69,0,0,0,1.68-1.68Zm5.09,0a1.71,1.71,0,1,0-3.41,0,1.69,1.69,0,0,0,1.68,1.73h.05a1.68,1.68,0,0,0,1.63-1.68Zm5.09,0a1.68,1.68,0,1,0-1.68,1.68,1.64,1.64,0,0,0,1.57-1.68Zm5.09,0a1.62,1.62,0,1,1-.13,0Zm5.09,0a1.71,1.71,0,1,0-3.41,0,1.69,1.69,0,0,0,1.67,1.73h0a1.67,1.67,0,0,0,1.55-1.68Z"/><path class="cls-2" d="M612.52,519.74h-5.9a1.45,1.45,0,0,1-1.46-1.45h0a1.48,1.48,0,0,1,1.46-1.45h5.9a1.47,1.47,0,0,1,1.45,1.45,1.45,1.45,0,0,1-1.45,1.45ZM614,525a1.45,1.45,0,0,0-1.45-1.45h-5.9a1.45,1.45,0,1,0,0,2.9h5.9A1.44,1.44,0,0,0,614,525v0Zm0,6.75a1.45,1.45,0,0,0-1.45-1.45h-5.9a1.45,1.45,0,0,0-1.46,1.45h0a1.49,1.49,0,0,0,1.46,1.45h5.9a1.48,1.48,0,0,0,1.45-1.45Zm0,6.74a1.45,1.45,0,0,0-1.45-1.45h-5.9a1.45,1.45,0,0,0-1.46,1.45h0a1.48,1.48,0,0,0,1.46,1.45h5.9a1.47,1.47,0,0,0,1.45-1.45Zm0,6.74a1.47,1.47,0,0,0-1.45-1.47h-5.9a1.48,1.48,0,0,0,0,2.93h5.9a1.48,1.48,0,0,0,1.45-1.38Zm0,6.75a1.48,1.48,0,0,0-1.45-1.48h-5.9a1.48,1.48,0,0,0,0,2.93h5.9A1.48,1.48,0,0,0,614,552Zm0,6.72a1.47,1.47,0,0,0-1.45-1.45h-5.9a1.47,1.47,0,0,0,0,2.92h5.9a1.47,1.47,0,0,0,1.45-1.47Zm0,6.74a1.48,1.48,0,0,0-1.45-1.45h-5.9a1.49,1.49,0,0,0-1.46,1.45,1.45,1.45,0,0,0,1.46,1.45h5.9a1.45,1.45,0,0,0,1.45-1.45Zm22.19-47.18a1.46,1.46,0,0,0-1.45-1.45h-15.6a1.48,1.48,0,0,0-1.48,1.45,1.45,1.45,0,0,0,1.45,1.45h15.5a1.45,1.45,0,0,0,1.57-1.32A.57.57,0,0,0,636.16,518.29Zm0,6.74a1.45,1.45,0,0,0-1.45-1.45h-15.6a1.45,1.45,0,1,0,0,2.9h15.47a1.44,1.44,0,0,0,1.58-1.31V525Zm0,6.75a1.45,1.45,0,0,0-1.45-1.45h-15.6a1.45,1.45,0,0,0-1.48,1.42v0a1.48,1.48,0,0,0,1.48,1.45h15.47a1.49,1.49,0,0,0,1.58-1.37v-.08Zm0,6.74a1.45,1.45,0,0,0-1.45-1.45h-15.6a1.46,1.46,0,0,0-1.48,1.43v0a1.48,1.48,0,0,0,1.48,1.45h15.47a1.48,1.48,0,0,0,1.58-1.37v-.08Zm0,6.74a1.47,1.47,0,0,0-1.45-1.47h-15.6a1.48,1.48,0,1,0-.39,2.93h15.86a1.49,1.49,0,0,0,1.58-1.37h0ZM654.69,552a1.47,1.47,0,0,0-1.43-1.48h-15.5a1.48,1.48,0,0,0,0,2.93h15.48a1.46,1.46,0,0,0,1.32-1.45Zm0,6.72a1.45,1.45,0,0,0-1.45-1.45H637.76a1.47,1.47,0,0,0,0,2.92h15.48a1.44,1.44,0,0,0,1.32-1.47Zm0,6.74a1.45,1.45,0,0,0-1.45-1.45H637.76a1.45,1.45,0,0,0-1.45,1.45h0a1.43,1.43,0,0,0,1.4,1.45h15.53a1.43,1.43,0,0,0,1.32-1.45ZM643,518.29a1.71,1.71,0,1,0-1.73,1.68h0a1.7,1.7,0,0,0,1.55-1.68Zm5.09,0a1.59,1.59,0,1,1-.18,0Zm5.09,0a1.68,1.68,0,1,0-1.68,1.68,1.68,1.68,0,0,0,1.68-1.68Zm5.09,0a1.71,1.71,0,1,0-1.48,1.48A1.71,1.71,0,0,0,658.25,518.29Zm5.09,0a1.55,1.55,0,1,1-.28,0Zm5.09,0a1.68,1.68,0,1,0-1.68,1.68,1.68,1.68,0,0,0,1.68-1.68Zm-25.27,13.49a1.71,1.71,0,1,0-1.49,1.48A1.71,1.71,0,0,0,643.16,531.78Zm5.09,0a1.68,1.68,0,1,0-1.68,1.68A1.68,1.68,0,0,0,648.25,531.78Zm5.09,0a1.68,1.68,0,1,0-1.68,1.68,1.69,1.69,0,0,0,1.3-1.68Zm5.09,0a1.71,1.71,0,1,0-1.73,1.68h0a1.68,1.68,0,0,0,1.3-1.68Zm5.09,0a1.68,1.68,0,1,0-1.68,1.68A1.68,1.68,0,0,0,663.52,531.78Zm5.09,0a1.46,1.46,0,1,1-.49,0Zm-8,19.36a1.68,1.68,0,1,0-1.68,1.68,1.68,1.68,0,0,0,1.68-1.68Zm5.09,0a1.68,1.68,0,1,0-1.68,1.71,1.71,1.71,0,0,0,1.17-1.71Zm5.09,0a1.71,1.71,0,1,0-1.7,1.71h0a1.72,1.72,0,0,0,1.15-1.71Zm5.09,0a1.68,1.68,0,1,0-1.68,1.68,1.68,1.68,0,0,0,1.68-1.68Zm5.09,0a1.68,1.68,0,1,0-1.68,1.71,1.72,1.72,0,0,0,1.07-1.71Zm5.09,0a1.43,1.43,0,1,1-.64,0Zm-25.3,13.92a1.4,1.4,0,1,1-.63,0Zm5.09,0a1.68,1.68,0,1,0-1.68,1.68A1.68,1.68,0,0,0,665.83,565.06Zm5.09,0a1.71,1.71,0,1,0-1.73,1.68h0a1.71,1.71,0,0,0,1-1.68Zm5.09,0a1.68,1.68,0,1,0-1.68,1.68,1.66,1.66,0,0,0,.94-1.68Zm5.09,0a1.68,1.68,0,1,0-1.68,1.68A1.68,1.68,0,0,0,681.1,565.06Zm5.09,0a1.71,1.71,0,1,0-1.73,1.68h0a1.69,1.69,0,0,0,.91-1.68Z"/><path class="cls-2" d="M703.06,410.47h-5.82a1.44,1.44,0,0,1-1.45-1.45h0a1.46,1.46,0,0,1,1.45-1.45h5.9a1.45,1.45,0,0,1,1.45,1.45h0a1.43,1.43,0,0,1-1.4,1.45Zm1.45,5.29a1.42,1.42,0,0,0-1.4-1.45h-5.87a1.45,1.45,0,1,0,0,2.9h5.91a1.42,1.42,0,0,0,1.37-1.35Zm0,6.74a1.43,1.43,0,0,0-1.4-1.45h-5.87a1.44,1.44,0,0,0-1.45,1.45h0a1.46,1.46,0,0,0,1.45,1.45h5.9a1.44,1.44,0,0,0,1.37-1.34Zm0,6.75a1.42,1.42,0,0,0-1.4-1.45h-5.87a1.44,1.44,0,0,0-1.45,1.45h0a1.48,1.48,0,0,0,1.45,1.45h5.9a1.45,1.45,0,0,0,1.37-1.35Zm0,6.74a1.44,1.44,0,0,0-1.42-1.47h-5.85a1.47,1.47,0,0,0,0,2.92h5.9a1.45,1.45,0,0,0,1.37-1.35Zm0,6.72a1.45,1.45,0,0,0-1.45-1.45h-5.82a1.48,1.48,0,0,0,0,2.93h5.9a1.45,1.45,0,0,0,1.37-1.38Zm0,6.74a1.45,1.45,0,0,0-1.45-1.45h-5.82a1.48,1.48,0,0,0-1.45,1.45,1.44,1.44,0,0,0,1.45,1.45h5.9a1.42,1.42,0,0,0,1.37-1.35Zm0,6.75a1.45,1.45,0,0,0-1.45-1.45h-5.82a1.46,1.46,0,0,0-1.45,1.45,1.44,1.44,0,0,0,1.45,1.45h5.9a1.42,1.42,0,0,0,1.37-1.38ZM726.58,409a1.45,1.45,0,0,0-1.45-1.45H709.65a1.47,1.47,0,0,0-1.47,1.45,1.45,1.45,0,0,0,1.45,1.45h15.6a1.43,1.43,0,0,0,1.35-1.35Zm0,6.74a1.42,1.42,0,0,0-1.4-1.45H709.65a1.45,1.45,0,1,0,0,2.9h15.58a1.43,1.43,0,0,0,1.35-1.35Zm0,6.74a1.43,1.43,0,0,0-1.4-1.45H709.65a1.45,1.45,0,0,0-1.47,1.43v0a1.47,1.47,0,0,0,1.47,1.45h15.58a1.45,1.45,0,0,0,1.35-1.34Zm0,6.75a1.42,1.42,0,0,0-1.4-1.45H709.65a1.44,1.44,0,0,0-1.47,1.42v0a1.47,1.47,0,0,0,1.47,1.45h15.58a1.46,1.46,0,0,0,1.35-1.35Zm0,6.74a1.45,1.45,0,0,0-1.43-1.47h-15.5a1.47,1.47,0,1,0-.38,2.92,1.21,1.21,0,0,0,.38,0h15.58a1.45,1.45,0,0,0,1.35-1.35Zm18.55,6.72a1.47,1.47,0,0,0-1.48-1.45H728.18a1.48,1.48,0,0,0,0,2.93h15.47a1.48,1.48,0,0,0,1.48-1.38Zm0,6.74a1.48,1.48,0,0,0-1.48-1.45H728.18a1.45,1.45,0,0,0-1.45,1.45h0a1.42,1.42,0,0,0,1.4,1.45h15.52a1.44,1.44,0,0,0,1.48-1.35Zm0,6.75a1.47,1.47,0,0,0-1.48-1.45H728.18a1.45,1.45,0,0,0-1.45,1.45h0a1.43,1.43,0,0,0,1.4,1.45h15.52a1.46,1.46,0,0,0,1.48-1.38ZM733.4,409a1.71,1.71,0,1,0-1.73,1.68h.05a1.72,1.72,0,0,0,1.68-1.58Zm5.09,0A1.71,1.71,0,1,0,737,410.5,1.71,1.71,0,0,0,738.49,409Zm5.09,0a10.18,10.18,0,1,0-.08.1Zm5.09,0a1.71,1.71,0,1,0-1.73,1.68h0a1.71,1.71,0,0,0,1.57-1.58Zm5.09,0a4.88,4.88,0,1,1-.16.1Zm5.09,0a1.68,1.68,0,1,0-1.68,1.68A1.68,1.68,0,0,0,758.85,409ZM733.58,422.5a1.71,1.71,0,1,0-1.49,1.49A1.71,1.71,0,0,0,733.58,422.5Zm5.09,0a1.71,1.71,0,1,0-3.41-.05,1.69,1.69,0,0,0,1.68,1.73h0a1.66,1.66,0,0,0,1.5-1.57Zm5.08,0a1.68,1.68,0,1,0-1.67,1.68,1.65,1.65,0,0,0,1.42-1.57Zm5.09,0a1.7,1.7,0,1,0-1.48,1.49A1.7,1.7,0,0,0,748.84,422.5Zm5.09,0a1.68,1.68,0,1,0-1.68,1.68,1.68,1.68,0,0,0,1.68-1.68Zm5.09,0a2.22,2.22,0,1,1-.35.11ZM750.68,442a1.71,1.71,0,1,0-1.71,1.71,1.71,1.71,0,0,0,1.71-1.71Zm5.09,0a1.68,1.68,0,1,0-1.68,1.71,1.68,1.68,0,0,0,1.68-1.71Zm5.09,0a1.71,1.71,0,1,0-1.71,1.71h0A1.72,1.72,0,0,0,760.86,442Zm5.09,0a1.71,1.71,0,1,0-1.71,1.71A1.71,1.71,0,0,0,766,442Zm5.09,0a1.6,1.6,0,1,1-.16,0Zm5.08,0a1.71,1.71,0,0,0-3.41,0,1.72,1.72,0,0,0,1.71,1.71h0A1.72,1.72,0,0,0,776,442Zm-25.44,13.92a1.71,1.71,0,1,0-3.41-.05,1.69,1.69,0,0,0,1.68,1.73h0A1.72,1.72,0,0,0,750.68,455.89Zm5.09,0a1.68,1.68,0,1,0-1.68,1.68,1.68,1.68,0,0,0,1.68-1.68Zm5.09,0a1.71,1.71,0,0,0-3.41-.05,1.69,1.69,0,0,0,1.68,1.73h0A1.71,1.71,0,0,0,760.86,455.89Zm5.09,0a1.71,1.71,0,0,0-3.41-.05,1.69,1.69,0,0,0,1.68,1.73h0A1.72,1.72,0,0,0,766,455.89Zm5.09,0a1.6,1.6,0,1,1-.16,0Zm5.08,0a1.7,1.7,0,1,0-1.73,1.68h.06a1.71,1.71,0,0,0,1.5-1.68Z"/><path class="cls-2" d="M703.06,465.82h-5.82a1.48,1.48,0,0,1-1.45-1.45,1.44,1.44,0,0,1,1.45-1.45h5.9a1.41,1.41,0,0,1,1.45,1.39v.06a1.45,1.45,0,0,1-1.45,1.45Zm1.45,5.29a1.45,1.45,0,0,0-1.42-1.48h-5.85a1.48,1.48,0,0,0,0,2.93h5.9a1.45,1.45,0,0,0,1.37-1.45Zm0,6.72a1.45,1.45,0,0,0-1.45-1.45h-5.82A1.47,1.47,0,0,0,696,478a1.45,1.45,0,0,0,1.27,1.27h5.9a1.44,1.44,0,0,0,1.37-1.47Zm0,6.74a1.45,1.45,0,0,0-1.45-1.45h-5.82a1.47,1.47,0,0,0-1.45,1.45,1.44,1.44,0,0,0,1.45,1.45h5.9a1.42,1.42,0,0,0,1.37-1.45Zm0,6.75a1.45,1.45,0,0,0-1.45-1.46h-5.82a1.48,1.48,0,0,0-1.45,1.46,1.44,1.44,0,0,0,1.45,1.45h5.9a1.42,1.42,0,0,0,1.37-1.45Zm0,6.74a1.42,1.42,0,0,0-1.4-1.45h-5.87a1.45,1.45,0,0,0,0,2.9h5.9a1.42,1.42,0,0,0,1.37-1.45Zm0,6.74a1.43,1.43,0,0,0-1.4-1.45h-5.87a1.45,1.45,0,0,0,0,2.9h5.9a1.41,1.41,0,0,0,1.37-1.45Zm0,6.75a1.42,1.42,0,0,0-1.4-1.45h-5.87a1.44,1.44,0,0,0-1.45,1.45h0a1.48,1.48,0,0,0,1.45,1.45h5.9a1.45,1.45,0,0,0,1.37-1.45Zm22.07-47.18a1.44,1.44,0,0,0-1.4-1.46H709.65a1.45,1.45,0,0,0-1.47,1.43v0a1.47,1.47,0,0,0,1.47,1.45h15.58a1.46,1.46,0,0,0,1.35-1.45Zm0,6.74a1.47,1.47,0,0,0-1.43-1.48h-15.5a1.48,1.48,0,0,0-.38,2.93,1.21,1.21,0,0,0,.38,0h15.58a1.45,1.45,0,0,0,1.35-1.45Zm0,6.72a1.45,1.45,0,0,0-1.45-1.45H709.65a1.47,1.47,0,0,0-.38,2.92,1.21,1.21,0,0,0,.38,0h15.58a1.45,1.45,0,0,0,1.35-1.47Zm0,6.74a1.45,1.45,0,0,0-1.45-1.45H709.65a1.47,1.47,0,0,0-1.47,1.45,1.45,1.45,0,0,0,1.45,1.45h15.6a1.42,1.42,0,0,0,1.35-1.45Zm0,6.75a1.45,1.45,0,0,0-1.45-1.46H709.65a1.48,1.48,0,0,0-1.47,1.46,1.45,1.45,0,0,0,1.45,1.45h15.6a1.44,1.44,0,0,0,1.35-1.45Zm18.55,6.74a1.45,1.45,0,0,0-1.45-1.45h-15.5a1.45,1.45,0,1,0,0,2.9h15.47a1.46,1.46,0,0,0,1.48-1.43v0Zm0,6.74a1.45,1.45,0,0,0-1.45-1.45h-15.5a1.45,1.45,0,1,0,0,2.9h15.47a1.45,1.45,0,0,0,1.48-1.42v0Zm0,6.75a1.45,1.45,0,0,0-1.45-1.45h-15.5a1.41,1.41,0,0,0-1.45,1.39v.06a1.45,1.45,0,0,0,1.45,1.45h15.47a1.48,1.48,0,0,0,1.48-1.45ZM733.4,464.37a1.71,1.71,0,1,0-1.49,1.48A1.71,1.71,0,0,0,733.4,464.37Zm5.09,0a1.71,1.71,0,1,0-1.73,1.67h0a1.68,1.68,0,0,0,1.68-1.68Zm5.09,0a1.68,1.68,0,1,0-1.68,1.68,1.66,1.66,0,0,0,1.6-1.68Zm5.09,0a1.71,1.71,0,1,0-1.49,1.48A1.71,1.71,0,0,0,748.67,464.37Zm5.09,0a1.68,1.68,0,1,0-1.68,1.68A1.68,1.68,0,0,0,753.76,464.37Zm5.09,0a1.59,1.59,0,1,1-.18,0Zm-25.27,13.46a1.71,1.71,0,1,0-3.41,0,1.7,1.7,0,0,0,1.7,1.7h0a1.7,1.7,0,0,0,1.5-1.7Zm5.09,0a1.71,1.71,0,1,0-3.41,0,1.6,1.6,0,1,0,3.2,0Zm5.08,0a1.55,1.55,0,1,1-.25,0Zm5.09,0a1.71,1.71,0,1,0-1.7,1.7h0a1.69,1.69,0,0,0,1.4-1.7Zm5.09,0a1.68,1.68,0,1,0-1.68,1.68A1.68,1.68,0,0,0,753.93,477.83Zm5.09,0a1.68,1.68,0,1,0-1.68,1.7,1.71,1.71,0,0,0,1.33-1.7Zm-8.34,19.39A1.71,1.71,0,1,0,749,498.9h0a1.69,1.69,0,0,0,1.71-1.66Zm5.09,0a1.68,1.68,0,1,0-1.68,1.68,1.67,1.67,0,0,0,1.68-1.63Zm5.09,0a1.71,1.71,0,1,0-1.73,1.68h0a1.68,1.68,0,0,0,1.68-1.68Zm5.09,0a1.71,1.71,0,1,0-1.73,1.68h0a1.69,1.69,0,0,0,1.71-1.66Zm5.09,0a1.68,1.68,0,1,0-1.68,1.68,1.65,1.65,0,0,0,1.52-1.68Zm5.08,0a1.7,1.7,0,1,0-1.73,1.68h.06a1.69,1.69,0,0,0,1.5-1.68Zm-25.44,13.89a1.71,1.71,0,1,0-1.49,1.49A1.71,1.71,0,0,0,750.68,511.11Zm5.09,0a1.68,1.68,0,1,0-1.68,1.68,1.69,1.69,0,0,0,1.68-1.68Zm5.09,0a1.71,1.71,0,0,0-3.41-.05,1.69,1.69,0,0,0,1.68,1.73h0A1.7,1.7,0,0,0,760.86,511.11Zm5.09,0a1.71,1.71,0,1,0-1.49,1.49A1.71,1.71,0,0,0,766,511.11Zm5.09,0a1.6,1.6,0,1,1-.16,0Zm5.08,0a1.7,1.7,0,1,0-1.73,1.68h.06a1.71,1.71,0,0,0,1.5-1.68Z"/></g><g id="freepik--device-2--inject-56"><path class="cls-7" d="M606.31,355H522.15a1.32,1.32,0,0,1-1.4-1.24,1.3,1.3,0,0,1,.82-1.3l17.3-8.33a1.12,1.12,0,0,1,.56-.15h77.75a1.32,1.32,0,0,1,.79,2.39l-10.85,8.35A1.3,1.3,0,0,1,606.31,355Z"/><rect class="cls-6" x="566.15" y="291.45" width="15.47" height="58.96"/><rect class="cls-7" x="563.74" y="291.45" width="20.33" height="42.8"/><rect class="cls-6" x="449.45" y="95.29" width="256.21" height="200.4"/><rect class="cls-7" x="463.14" y="106.03" width="228.8" height="178.98"/><rect class="cls-11" x="481.03" y="126.03" width="93.24" height="41.43"/><path class="cls-11" d="M493.17,196.22H514.9a67.23,67.23,0,0,1,28.38,6.31l10.17,4.76a39.81,39.81,0,0,0,36.12-1.2l2.92-1.57a66.74,66.74,0,0,1,32.24-8.3h25.68"/><path class="cls-11" d="M493.17,211.41H514.9a66.9,66.9,0,0,1,28.38,6.31l10.17,4.74a39.93,39.93,0,0,0,36.12-1.17l2.92-1.61a67,67,0,0,1,32.24-8.27h25.68"/><path class="cls-11" d="M493.17,260.17H514.9a67.08,67.08,0,0,0,28.38-6.31l10.17-4.76a39.9,39.9,0,0,1,36.12,1.17l2.92,1.6a66.74,66.74,0,0,0,32.24,8.3h25.68"/><path class="cls-11" d="M493.17,245.05H514.9a67.08,67.08,0,0,0,28.38-6.31L553.45,234a39.84,39.84,0,0,1,36.12,1.2l2.92,1.58a66.76,66.76,0,0,0,32.19,8.29h25.68"/><rect class="cls-2" x="652.93" y="186.12" width="14.58" height="14.58"/><rect class="cls-2" x="652.93" y="204.08" width="14.58" height="14.58"/><rect class="cls-2" x="652.93" y="234.93" width="14.58" height="14.58"/><rect class="cls-2" x="652.93" y="252.87" width="14.58" height="14.58"/><rect class="cls-2" x="475.71" y="186.12" width="14.58" height="14.58"/><rect class="cls-2" x="475.71" y="204.08" width="14.58" height="14.58"/><rect class="cls-2" x="475.71" y="234.93" width="14.58" height="14.58"/><rect class="cls-2" x="475.71" y="252.87" width="14.58" height="14.58"/><path class="cls-2" d="M594.93,125.45h-5.87A1.47,1.47,0,0,1,587.6,124a1.45,1.45,0,0,1,1.45-1.45h5.88a1.45,1.45,0,1,1,0,2.9Zm1.46,5.29a1.44,1.44,0,0,0-1.4-1.45h-5.93a1.46,1.46,0,0,0-1.48,1.43v0a1.47,1.47,0,0,0,1.48,1.45h5.87a1.44,1.44,0,0,0,1.47-1.43,1.55,1.55,0,0,0,0-.22Zm0,6.75A1.45,1.45,0,0,0,595,136h-5.9a1.48,1.48,0,0,0-.39,2.93h6.26a1.45,1.45,0,0,0,1.46-1.45v0Zm0,6.71a1.45,1.45,0,0,0-1.46-1.45h-5.87a1.48,1.48,0,0,0-.39,2.93,1.28,1.28,0,0,0,.39,0h5.87a1.44,1.44,0,0,0,1.46-1.44v0Zm0,6.75a1.45,1.45,0,0,0-1.46-1.45h-5.87a1.48,1.48,0,0,0-1.66,1.27,1.46,1.46,0,0,0,1.27,1.65,1.28,1.28,0,0,0,.39,0h5.87a1.44,1.44,0,0,0,1.46-1.44v0Zm0,6.74a1.45,1.45,0,0,0-1.46-1.45h-5.87a1.48,1.48,0,0,0-1.48,1.45,1.45,1.45,0,0,0,1.45,1.45h5.9a1.42,1.42,0,0,0,1.46-1.39v-.06Zm0,6.75a1.46,1.46,0,0,0-1.46-1.46h-5.87a1.48,1.48,0,0,0-1.48,1.46,1.45,1.45,0,0,0,1.45,1.45h5.9a1.44,1.44,0,0,0,1.46-1.4v-.05Zm0,6.74a1.43,1.43,0,0,0-1.4-1.45h-5.93a1.47,1.47,0,0,0-1.46,1.45,1.45,1.45,0,0,0,1.45,1.45h5.88a1.42,1.42,0,0,0,1.46-1.39v-.06Zm22-47.31a1.43,1.43,0,0,0-1.4-1.45H601.42a1.45,1.45,0,1,0,0,2.9H616.9a1.43,1.43,0,0,0,1.45-1.4Zm0,6.74a1.44,1.44,0,0,0-1.4-1.45H601.42a1.44,1.44,0,0,0-1.45,1.4v.05a1.45,1.45,0,0,0,1.45,1.46H616.9a1.45,1.45,0,0,0,1.45-1.45v0Zm0,6.75a1.47,1.47,0,0,0-1.43-1.48h-15.5a1.48,1.48,0,0,0,0,2.93H616.9A1.45,1.45,0,0,0,618.35,137.36Zm0,6.72a1.45,1.45,0,0,0-1.45-1.45H601.42a1.47,1.47,0,0,0,0,2.92H616.9a1.45,1.45,0,0,0,1.45-1.45v0Zm0,6.74a1.45,1.45,0,0,0-1.45-1.45H601.42a1.48,1.48,0,0,0,0,2.93H616.9a1.45,1.45,0,0,0,1.45-1.4Zm18.55,6.74a1.49,1.49,0,0,0-1.45-1.45H620a1.48,1.48,0,0,0-1.45,1.45A1.44,1.44,0,0,0,620,159h15.5a1.45,1.45,0,0,0,1.55-1.34v-.11Zm0,6.75a1.48,1.48,0,0,0-1.45-1.45H620a1.45,1.45,0,0,0,0,2.9h15.5a1.46,1.46,0,0,0,1.55-1.35v-.1Zm0,6.74a1.45,1.45,0,0,0-1.45-1.45H620a1.45,1.45,0,0,0,0,2.9h15.5a1.45,1.45,0,0,0,1.55-1.34v-.11Zm-11.73-47.18a1.68,1.68,0,1,0-1.68,1.68,1.65,1.65,0,0,0,1.77-1.52.86.86,0,0,0,0-.16Zm5.09,0a1.71,1.71,0,1,0-1.49,1.49A1.71,1.71,0,0,0,630.26,123.87Zm5.09,0a1.68,1.68,0,1,0-1.68,1.68A1.68,1.68,0,0,0,635.35,123.87Zm5.09,0a1.68,1.68,0,1,0-1.68,1.68,1.68,1.68,0,0,0,1.68-1.68Zm5.09,0a1.71,1.71,0,1,0-1.49,1.49A1.71,1.71,0,0,0,645.53,123.87Zm5.09,0a1.68,1.68,0,1,0-1.68,1.68A1.68,1.68,0,0,0,650.62,123.87Zm-25.27,13.49a1.64,1.64,0,1,1-.08,0Zm5.08,0A1.7,1.7,0,1,0,628.7,139h.06a1.71,1.71,0,0,0,1.57-1.68Zm5.09,0a1.61,1.61,0,1,1-.15,0Zm5.09,0a1.68,1.68,0,1,0-1.68,1.68A1.68,1.68,0,0,0,640.61,137.36Zm5.09,0a1.71,1.71,0,0,0-3.41-.05A1.71,1.71,0,0,0,644,139h0a1.7,1.7,0,0,0,1.48-1.68Zm5.09,0a1.56,1.56,0,1,1-.25,0Zm-8,19.36a1.71,1.71,0,1,0-1.73,1.68h0a1.7,1.7,0,0,0,1.43-1.68Zm5.09,0a1.7,1.7,0,1,0-1.48,1.49A1.7,1.7,0,0,0,647.89,156.72Zm5.09,0a1.52,1.52,0,1,1-.33,0Zm5.09,0a1.71,1.71,0,1,0-1.73,1.68h0a1.71,1.71,0,0,0,1.33-1.68Zm5.09,0a1.68,1.68,0,1,0-1.68,1.68,1.67,1.67,0,0,0,1.27-1.68Zm5.09,0a1.68,1.68,0,1,0-1.68,1.68A1.68,1.68,0,0,0,668.25,156.72ZM643,170.62a1.71,1.71,0,1,0-1.7,1.7h0a1.7,1.7,0,0,0,1.25-1.7Zm5.09,0a1.71,1.71,0,1,0-1.7,1.7,1.69,1.69,0,0,0,1.24-1.7Zm5.09,0a1.45,1.45,0,1,1-.51,0Zm5.09,0a1.71,1.71,0,1,0-1.71,1.7h0a1.7,1.7,0,0,0,1.15-1.7Zm5.09,0a1.68,1.68,0,1,0-1.68,1.68A1.68,1.68,0,0,0,663.34,170.62Zm5.09,0a1.68,1.68,0,1,0-1.68,1.7,1.7,1.7,0,0,0,1.07-1.7Z"/></g><g id="freepik--device-1--inject-56"><path class="cls-7" d="M433.9,647.13H349.72a1.32,1.32,0,0,1-.56-2.54l17.28-8.35a1.88,1.88,0,0,1,.58,0h77.72a1.33,1.33,0,0,1,1.36,1.29,1.3,1.3,0,0,1-.55,1.1L434.71,647A1.34,1.34,0,0,1,433.9,647.13Z"/><rect class="cls-6" x="393.74" y="583.69" width="15.47" height="58.96"/><rect class="cls-7" x="391.33" y="583.69" width="20.33" height="42.8"/><rect class="cls-6" x="277.01" y="387.54" width="256.21" height="200.4"/><rect class="cls-7" x="290.73" y="398.25" width="228.8" height="178.98"/><path class="cls-2" d="M341.5,410.47h-5.91a1.45,1.45,0,0,1-1.45-1.45h0a1.48,1.48,0,0,1,1.45-1.45h5.91A1.45,1.45,0,0,1,343,409h0a1.43,1.43,0,0,1-1.4,1.45Zm1.45,5.29a1.42,1.42,0,0,0-1.4-1.45h-6a1.45,1.45,0,0,0,0,2.9h5.91a1.42,1.42,0,0,0,1.45-1.35Zm0,6.74a1.43,1.43,0,0,0-1.4-1.45h-6a1.45,1.45,0,0,0-1.45,1.45h0a1.48,1.48,0,0,0,1.45,1.45h5.91a1.44,1.44,0,0,0,1.45-1.34Zm0,6.75a1.42,1.42,0,0,0-1.4-1.45h-6a1.45,1.45,0,0,0-1.45,1.45h0a1.49,1.49,0,0,0,1.45,1.45h5.91a1.46,1.46,0,0,0,1.45-1.35Zm0,6.74a1.45,1.45,0,0,0-1.43-1.47h-5.93a1.47,1.47,0,0,0,0,2.92h5.91a1.46,1.46,0,0,0,1.45-1.35Zm0,6.72a1.45,1.45,0,0,0-1.45-1.45h-5.91a1.48,1.48,0,0,0,0,2.93h5.91a1.46,1.46,0,0,0,1.45-1.38Zm0,6.74A1.45,1.45,0,0,0,341.5,448h-5.91a1.49,1.49,0,0,0-1.45,1.45,1.45,1.45,0,0,0,1.45,1.45h5.91a1.42,1.42,0,0,0,1.45-1.35Zm0,6.75a1.45,1.45,0,0,0-1.45-1.45h-5.91a1.48,1.48,0,0,0-1.45,1.45,1.45,1.45,0,0,0,1.45,1.45h5.91a1.43,1.43,0,0,0,1.45-1.38ZM365,409a1.45,1.45,0,0,0-1.45-1.45H348.09a1.45,1.45,0,0,0-1.45,1.45h0a1.43,1.43,0,0,0,1.4,1.45h15.52a1.42,1.42,0,0,0,1.45-1.35Zm0,6.74a1.42,1.42,0,0,0-1.4-1.45H348.09a1.45,1.45,0,0,0,0,2.9h15.47a1.42,1.42,0,0,0,1.45-1.35Zm0,6.74a1.43,1.43,0,0,0-1.4-1.45H348.09a1.43,1.43,0,0,0-1.45,1.4v.05a1.45,1.45,0,0,0,1.45,1.45h15.47a1.44,1.44,0,0,0,1.45-1.34Zm0,6.75a1.42,1.42,0,0,0-1.4-1.45H348.09a1.42,1.42,0,0,0-1.45,1.4v.05a1.45,1.45,0,0,0,1.45,1.45h15.47a1.45,1.45,0,0,0,1.45-1.35Zm0,6.74a1.44,1.44,0,0,0-1.42-1.47h-15.5a1.46,1.46,0,0,0-1.27,1.65,1.49,1.49,0,0,0,1.27,1.27h15.47a1.45,1.45,0,0,0,1.45-1.35Zm18.55,6.72a1.46,1.46,0,0,0-1.45-1.45H366.62a1.48,1.48,0,0,0,0,2.93h15.49a1.48,1.48,0,0,0,1.45-1.38Zm0,6.74a1.48,1.48,0,0,0-1.45-1.45H366.62a1.49,1.49,0,0,0-1.46,1.45,1.45,1.45,0,0,0,1.45,1.45h15.5a1.43,1.43,0,0,0,1.45-1.35Zm0,6.75a1.46,1.46,0,0,0-1.45-1.45H366.62a1.48,1.48,0,0,0-1.46,1.45,1.45,1.45,0,0,0,1.45,1.45h15.5a1.45,1.45,0,0,0,1.45-1.38ZM371.83,409a1.68,1.68,0,1,0-1.68,1.68A1.68,1.68,0,0,0,371.83,409Zm5.09,0a1.7,1.7,0,1,0-1.48,1.48A1.7,1.7,0,0,0,376.92,409Zm5.09,0a10.18,10.18,0,1,0-.08.1Zm5.09,0a1.68,1.68,0,1,0-1.68,1.68A1.68,1.68,0,0,0,387.1,409Zm5.09,0a1.7,1.7,0,1,0-1.48,1.48A1.71,1.71,0,0,0,392.19,409Zm5.09,0a4,4,0,1,1-.18.1ZM372,422.5a1.68,1.68,0,1,0-1.68,1.68,1.66,1.66,0,0,0,1.5-1.57Zm5.09,0a1.71,1.71,0,1,0-1.73,1.68h0a1.68,1.68,0,0,0,1.51-1.57Zm5.09,0a1.68,1.68,0,1,0-1.68,1.68,1.68,1.68,0,0,0,1.68-1.68Zm5.09,0a2.63,2.63,0,1,1-.28.11Zm5.09,0a1.71,1.71,0,1,0-1.73,1.68h0a1.66,1.66,0,0,0,1.4-1.57Zm5.09,0a1.68,1.68,0,1,0-1.68,1.68,1.64,1.64,0,0,0,1.32-1.57Zm-8,19.37a1.71,1.71,0,1,0-3.41,0,1.7,1.7,0,0,0,1.7,1.7h0a1.71,1.71,0,0,0,1.32-1.6Zm5.09,0a1.68,1.68,0,1,0-1.68,1.68,1.68,1.68,0,0,0,1.68-1.68Zm5.09,0a1.88,1.88,0,1,1-.44.1Zm5.09,0a1.71,1.71,0,1,0-3.41,0,1.49,1.49,0,1,0,2.95.1Zm5.09,0a1.68,1.68,0,1,0-1.68,1.68,1.68,1.68,0,0,0,1.68-1.68Zm5.09,0a1.72,1.72,0,1,1-.54.1Zm-25.27,13.92a1.71,1.71,0,1,0-1.73,1.68H388a1.7,1.7,0,0,0,1.14-1.58Zm5.09,0a1.68,1.68,0,1,0-1.68,1.68,1.7,1.7,0,0,0,1.09-1.58Zm5.08,0a1.68,1.68,0,1,0-1.67,1.68A1.68,1.68,0,0,0,399.82,455.79Zm5.09,0a1.69,1.69,0,0,0-1.68-1.73,1.71,1.71,0,1,0-.05,3.41h0a1.71,1.71,0,0,0,1.07-1.58Zm5.09,0a1.68,1.68,0,1,0-1.68,1.68,1.7,1.7,0,0,0,1-1.58Zm5.09,0a1.68,1.68,0,1,0-1.68,1.68A1.68,1.68,0,0,0,415.09,455.79Z"/><path class="cls-2" d="M341.5,464.52h-5.91a1.48,1.48,0,0,1,0-2.93h5.91a1.48,1.48,0,0,1,0,2.93Zm1.45,5.27a1.44,1.44,0,0,0-1.45-1.45h-5.91a1.47,1.47,0,0,0,0,2.92h5.91a1.45,1.45,0,0,0,1.45-1.45v0Zm0,6.74a1.45,1.45,0,0,0-1.45-1.45h-5.91a1.48,1.48,0,0,0-1.45,1.45,1.45,1.45,0,0,0,1.45,1.45h5.91a1.42,1.42,0,0,0,1.45-1.35Zm0,6.74a1.45,1.45,0,0,0-1.45-1.45h-5.91a1.49,1.49,0,0,0-1.45,1.45,1.45,1.45,0,0,0,1.45,1.45h5.91a1.43,1.43,0,0,0,1.45-1.4v-.05Zm0,6.75a1.42,1.42,0,0,0-1.4-1.45h-6a1.45,1.45,0,1,0,0,2.9h5.91a1.43,1.43,0,0,0,1.45-1.4V490Zm0,6.74a1.42,1.42,0,0,0-1.4-1.45h-6a1.45,1.45,0,0,0,0,2.9h5.91a1.43,1.43,0,0,0,1.45-1.4v-.05Zm0,6.74a1.43,1.43,0,0,0-1.4-1.45h-6a1.45,1.45,0,0,0-1.45,1.45h0a1.49,1.49,0,0,0,1.45,1.46h5.91A1.45,1.45,0,0,0,343,503.5Zm0,6.75a1.47,1.47,0,0,0-1.43-1.48h-5.93a1.48,1.48,0,0,0,0,2.93h5.91a1.45,1.45,0,0,0,1.45-1.45ZM365,463.07a1.45,1.45,0,0,0-1.42-1.48h-15.5a1.48,1.48,0,0,0,0,2.93h15.47a1.45,1.45,0,0,0,1.45-1.45Zm0,6.72a1.44,1.44,0,0,0-1.45-1.45H348.09a1.46,1.46,0,0,0-1.27,1.65,1.49,1.49,0,0,0,1.27,1.27h15.47a1.45,1.45,0,0,0,1.45-1.45v0Zm0,6.74a1.45,1.45,0,0,0-1.45-1.45H348.09a1.45,1.45,0,0,0-1.45,1.45h0A1.42,1.42,0,0,0,348,478h15.52a1.42,1.42,0,0,0,1.45-1.35Zm0,6.74a1.45,1.45,0,0,0-1.45-1.45H348.09a1.45,1.45,0,0,0-1.45,1.45h0a1.42,1.42,0,0,0,1.4,1.45h15.52a1.42,1.42,0,0,0,1.45-1.4v-.05Zm0,6.75a1.42,1.42,0,0,0-1.4-1.45H348.09a1.45,1.45,0,1,0,0,2.9h15.47a1.42,1.42,0,0,0,1.45-1.4V490Zm18.55,6.74a1.45,1.45,0,0,0-1.45-1.45H366.62a1.45,1.45,0,1,0,0,2.9h15.49a1.45,1.45,0,0,0,1.45-1.45Zm0,6.74a1.45,1.45,0,0,0-1.45-1.45H366.62a1.45,1.45,0,0,0-1.46,1.45h0a1.5,1.5,0,0,0,1.46,1.46h15.49a1.48,1.48,0,0,0,1.45-1.46Zm0,6.75a1.48,1.48,0,0,0-1.45-1.48H366.62a1.48,1.48,0,0,0,0,2.93h15.49a1.47,1.47,0,0,0,1.45-1.45Zm-11.73-47.18a1.68,1.68,0,1,0-1.68,1.68,1.68,1.68,0,0,0,1.68-1.68Zm5.09,0a1.71,1.71,0,1,0-1.73,1.68h0a1.72,1.72,0,0,0,1.68-1.68Zm5.09,0a1.64,1.64,0,1,1-.08,0Zm5.09,0a1.68,1.68,0,1,0-1.68,1.68,1.68,1.68,0,0,0,1.68-1.68Zm5.09,0a1.71,1.71,0,1,0-1.73,1.68h0a1.71,1.71,0,0,0,1.57-1.68Zm5.09,0a1.59,1.59,0,1,1-.18,0Zm-25.45,13.56a1.68,1.68,0,0,0-3.36.05,1.69,1.69,0,0,0,1.68,1.66A1.72,1.72,0,0,0,371.83,476.63Zm5.09,0a1.71,1.71,0,1,0-1.7,1.71,1.72,1.72,0,0,0,1.68-1.71Zm5.09,0a1.68,1.68,0,1,0-1.68,1.68A1.68,1.68,0,0,0,382,476.63Zm5.09,0a1.68,1.68,0,0,0-3.36.05,1.69,1.69,0,0,0,1.68,1.66,1.71,1.71,0,0,0,1.58-1.71Zm5.09,0a1.64,1.64,0,1,1-.13,0Zm5.09,0a1.68,1.68,0,0,0-3.36.05,1.59,1.59,0,1,0,3.18-.05Zm-8,19.39a1.71,1.71,0,1,0-1.49,1.49A1.71,1.71,0,0,0,389.29,496Zm5.09,0a1.68,1.68,0,1,0-1.68,1.68A1.68,1.68,0,0,0,394.38,496Zm5.09,0a1.68,1.68,0,1,0-1.68,1.68,1.66,1.66,0,0,0,1.42-1.78Zm5.09,0a1.71,1.71,0,1,0-1.73,1.68h0a1.68,1.68,0,0,0,1.43-1.78Zm5.09,0A1.68,1.68,0,1,0,408,497.7,1.68,1.68,0,0,0,409.65,496Zm5.09,0a1.27,1.27,0,1,1-.36-.1Zm-25.63,13.69a1.71,1.71,0,1,0-1.73,1.68h.05a1.68,1.68,0,0,0,1.68-1.68Zm5.09,0a1.68,1.68,0,1,0-1.68,1.68,1.65,1.65,0,0,0,1.63-1.68h.05Zm5.09,0a1.64,1.64,0,1,1-.08,0Zm5.09,0a1.71,1.71,0,1,0-1.73,1.68h0a1.68,1.68,0,0,0,1.61-1.68Zm5.09,0a1.68,1.68,0,1,0-1.68,1.68,1.66,1.66,0,0,0,1.53-1.68Zm5.09,0a1.68,1.68,0,1,0-1.68,1.68,1.67,1.67,0,0,0,1.5-1.68Z"/><path class="cls-2" d="M341.5,519.74h-5.91a1.45,1.45,0,0,1-1.45-1.45h0a1.48,1.48,0,0,1,1.45-1.45h5.91a1.45,1.45,0,0,1,1.45,1.45h0a1.42,1.42,0,0,1-1.4,1.45ZM343,525a1.43,1.43,0,0,0-1.4-1.45h-6a1.45,1.45,0,1,0,0,2.9h5.91a1.43,1.43,0,0,0,1.45-1.39V525Zm0,6.75a1.42,1.42,0,0,0-1.4-1.45h-6a1.45,1.45,0,0,0-1.45,1.45h0a1.49,1.49,0,0,0,1.45,1.45h5.91a1.45,1.45,0,0,0,1.45-1.45Zm0,6.74a1.42,1.42,0,0,0-1.4-1.45h-6a1.45,1.45,0,0,0-1.45,1.45h0a1.48,1.48,0,0,0,1.45,1.45h5.91a1.45,1.45,0,0,0,1.45-1.45Zm0,6.74a1.45,1.45,0,0,0-1.43-1.47h-5.93a1.48,1.48,0,0,0,0,2.93h5.91a1.46,1.46,0,0,0,1.45-1.38Zm0,6.75a1.47,1.47,0,0,0-1.43-1.48h-5.93a1.48,1.48,0,0,0,0,2.93h5.91A1.45,1.45,0,0,0,343,552Zm0,6.72a1.45,1.45,0,0,0-1.45-1.45h-5.91a1.47,1.47,0,0,0,0,2.92h5.91a1.45,1.45,0,0,0,1.45-1.45v0Zm0,6.74A1.45,1.45,0,0,0,341.5,564h-5.91a1.48,1.48,0,0,0-1.45,1.45,1.45,1.45,0,0,0,1.45,1.45h5.91a1.43,1.43,0,0,0,1.45-1.4v0ZM365,518.29a1.45,1.45,0,0,0-1.45-1.45H348.09a1.45,1.45,0,0,0-1.45,1.45h0a1.42,1.42,0,0,0,1.4,1.45h15.52a1.42,1.42,0,0,0,1.45-1.4v-.05Zm0,6.74a1.43,1.43,0,0,0-1.4-1.45H348.09a1.45,1.45,0,1,0,0,2.9h15.47a1.41,1.41,0,0,0,1.45-1.39V525Zm0,6.75a1.42,1.42,0,0,0-1.4-1.45H348.09a1.42,1.42,0,0,0-1.45,1.4v0a1.45,1.45,0,0,0,1.45,1.45h15.47a1.45,1.45,0,0,0,1.45-1.45Zm0,6.74a1.42,1.42,0,0,0-1.4-1.45H348.09a1.42,1.42,0,0,0-1.45,1.4v0a1.45,1.45,0,0,0,1.45,1.45h15.47a1.45,1.45,0,0,0,1.45-1.45Zm0,6.74a1.44,1.44,0,0,0-1.42-1.47h-15.5a1.48,1.48,0,0,0,0,2.93h15.47a1.46,1.46,0,0,0,1.45-1.38ZM383.56,552a1.48,1.48,0,0,0-1.45-1.48H366.62a1.48,1.48,0,0,0,0,2.93h15.49a1.47,1.47,0,0,0,1.45-1.45Zm0,6.72a1.46,1.46,0,0,0-1.45-1.45H366.62a1.47,1.47,0,0,0,0,2.92h15.49a1.47,1.47,0,0,0,1.45-1.47Zm0,6.74a1.47,1.47,0,0,0-1.45-1.45H366.62a1.49,1.49,0,0,0-1.46,1.45,1.45,1.45,0,0,0,1.45,1.45h15.5a1.45,1.45,0,0,0,1.45-1.45Zm-11.73-47.18a1.68,1.68,0,1,0-1.68,1.68A1.68,1.68,0,0,0,371.83,518.29Zm5.09,0a1.7,1.7,0,1,0-1.48,1.48A1.7,1.7,0,0,0,376.92,518.29Zm5.09,0a1.64,1.64,0,1,1-.08,0Zm5.09,0a1.68,1.68,0,1,0-1.68,1.68A1.68,1.68,0,0,0,387.1,518.29Zm5.09,0a1.7,1.7,0,0,0-1.9-1.48,1.51,1.51,0,1,0,.42,3A1.7,1.7,0,0,0,392.19,518.29Zm5.09,0a1.59,1.59,0,1,1-.18,0ZM372,531.78a1.59,1.59,0,1,1-.18,0Zm5.09,0a1.71,1.71,0,1,0-1.73,1.68h0a1.69,1.69,0,0,0,1.51-1.68Zm5.09,0a1.68,1.68,0,1,0-1.68,1.68A1.68,1.68,0,0,0,382.19,531.78Zm5.09,0a1.55,1.55,0,1,1-.28,0Zm5.09,0a1.71,1.71,0,1,0-1.73,1.68h0a1.68,1.68,0,0,0,1.4-1.68Zm5.09,0a1.68,1.68,0,1,0-1.68,1.68,1.65,1.65,0,0,0,1.32-1.68Zm-8,19.36a1.71,1.71,0,1,0-1.71,1.71h0a1.71,1.71,0,0,0,1.32-1.71Zm5.09,0a1.68,1.68,0,1,0-1.68,1.68A1.68,1.68,0,0,0,394.56,551.14Zm5.09,0a1.69,1.69,0,0,0-1.71-1.65,1.68,1.68,0,0,0,0,3.36,1.7,1.7,0,0,0,1.24-1.71Zm5.09,0a1.5,1.5,0,1,1-.46,0Zm5.09,0a1.68,1.68,0,1,0-1.68,1.68A1.69,1.69,0,0,0,409.83,551.14Zm5.09,0a1.69,1.69,0,0,0-1.71-1.65,1.68,1.68,0,0,0,0,3.36,1.71,1.71,0,0,0,1.14-1.71Zm-25.27,13.92a1.71,1.71,0,1,0-3.41,0,1.69,1.69,0,0,0,1.68,1.73H388a1.7,1.7,0,0,0,1.14-1.68Zm5.09,0a1.68,1.68,0,1,0-1.68,1.68,1.67,1.67,0,0,0,1.09-1.68Zm5.08,0a1.68,1.68,0,1,0-3.35,0h0a1.68,1.68,0,1,0,3.35,0Zm5.09,0a1.71,1.71,0,1,0-1.73,1.68h0a1.71,1.71,0,0,0,1.07-1.68Zm5.09,0a1.38,1.38,0,1,1-.68,0Zm5.09,0a1.68,1.68,0,1,0-3.36,0h0a1.68,1.68,0,0,0,3.36,0Z"/><path class="cls-2" d="M432,410.47h-5.88a1.45,1.45,0,0,1-1.47-1.43v0a1.47,1.47,0,0,1,1.47-1.45H432a1.45,1.45,0,0,1,1.45,1.45h0a1.43,1.43,0,0,1-1.4,1.45Zm1.45,5.29a1.42,1.42,0,0,0-1.4-1.45h-5.93a1.45,1.45,0,0,0,0,2.9H432a1.42,1.42,0,0,0,1.45-1.35Zm0,6.74a1.43,1.43,0,0,0-1.4-1.45h-5.93a1.45,1.45,0,0,0-1.47,1.43v0a1.47,1.47,0,0,0,1.47,1.45H432a1.44,1.44,0,0,0,1.45-1.34Zm0,6.75a1.42,1.42,0,0,0-1.4-1.45h-5.93a1.44,1.44,0,0,0-1.47,1.42v0a1.47,1.47,0,0,0,1.47,1.45H432a1.45,1.45,0,0,0,1.45-1.35Zm0,6.74a1.44,1.44,0,0,0-1.42-1.47h-5.91a1.47,1.47,0,0,0-.38,2.92,1.21,1.21,0,0,0,.38,0H432a1.45,1.45,0,0,0,1.45-1.35Zm0,6.72a1.45,1.45,0,0,0-1.45-1.45h-5.88a1.48,1.48,0,0,0-.38,2.93H432a1.46,1.46,0,0,0,1.45-1.38Zm0,6.74A1.45,1.45,0,0,0,432,448h-5.88a1.47,1.47,0,0,0-1.47,1.45,1.45,1.45,0,0,0,1.45,1.45H432a1.42,1.42,0,0,0,1.45-1.35Zm0,6.75a1.45,1.45,0,0,0-1.45-1.45h-5.88a1.47,1.47,0,0,0-1.47,1.45,1.45,1.45,0,0,0,1.45,1.45H432a1.43,1.43,0,0,0,1.45-1.38Zm22-47.08a1.45,1.45,0,0,0-1.45-1.45H438.56a1.45,1.45,0,0,0-1.45,1.45h0a1.43,1.43,0,0,0,1.4,1.45H454a1.42,1.42,0,0,0,1.45-1.4Zm0,6.74a1.43,1.43,0,0,0-1.4-1.45H438.56a1.45,1.45,0,0,0,0,2.9H454a1.42,1.42,0,0,0,1.45-1.4Zm0,6.75a1.44,1.44,0,0,0-1.4-1.46H438.56a1.43,1.43,0,0,0-1.45,1.4v.06a1.45,1.45,0,0,0,1.45,1.45H454a1.45,1.45,0,0,0,1.45-1.45Zm0,6.74a1.42,1.42,0,0,0-1.4-1.45H438.56a1.42,1.42,0,0,0-1.45,1.4v.05a1.45,1.45,0,0,0,1.45,1.45H454a1.45,1.45,0,0,0,1.45-1.45Zm0,6.74a1.44,1.44,0,0,0-1.43-1.47H438.56a1.47,1.47,0,0,0-1.27,1.65,1.45,1.45,0,0,0,1.27,1.27H454a1.45,1.45,0,0,0,1.45-1.45ZM474,442.81a1.47,1.47,0,0,0-1.45-1.45h-15.5a1.48,1.48,0,0,0,0,2.93h15.5a1.48,1.48,0,0,0,1.53-1.43v-.05Zm0,6.74a1.48,1.48,0,0,0-1.45-1.45h-15.5a1.49,1.49,0,0,0-1.45,1.45,1.45,1.45,0,0,0,1.45,1.46h15.5a1.47,1.47,0,0,0,1.53-1.38v-.08Zm0,6.75a1.46,1.46,0,0,0-1.45-1.45h-15.5a1.48,1.48,0,0,0-1.45,1.45,1.45,1.45,0,0,0,1.45,1.45h15.5a1.46,1.46,0,0,0,1.53-1.37v-.11ZM462.3,409.12a1.68,1.68,0,1,0-1.68,1.68A1.68,1.68,0,0,0,462.3,409.12Zm5.09,0a1.71,1.71,0,1,0-1.73,1.68h0a1.71,1.71,0,0,0,1.73-1.68h-.05Zm5.09,0a1.68,1.68,0,1,0-1.68,1.68,1.68,1.68,0,0,0,1.68-1.68Zm5.09,0a1.68,1.68,0,1,0-1.68,1.68A1.68,1.68,0,0,0,477.57,409.12Zm5.09,0a1.71,1.71,0,1,0-1.49,1.48A1.71,1.71,0,0,0,482.66,409.12Zm5.09,0a1.63,1.63,0,1,1-.1,0Zm-25.27,13.49a1.63,1.63,0,1,1-.1,0Zm5.09,0a1.71,1.71,0,1,0-1.49,1.48A1.71,1.71,0,0,0,467.57,422.61Zm5.09,0a1.68,1.68,0,1,0-1.68,1.67A1.68,1.68,0,0,0,472.66,422.61Zm5.09,0a1.58,1.58,0,1,1-.21,0Zm5.09,0a1.71,1.71,0,1,0-1.73,1.67h0a1.68,1.68,0,0,0,1.48-1.67Zm5.09,0a1.68,1.68,0,1,0-1.68,1.67A1.68,1.68,0,0,0,487.93,422.61Zm-8,19.36a1.71,1.71,0,0,0-1.71-1.7,1.71,1.71,0,0,0,0,3.41h0a1.71,1.71,0,0,0,1.4-1.71Zm5.08,0a1.68,1.68,0,1,0-1.67,1.68A1.68,1.68,0,0,0,485,442Zm5.09,0a1.68,1.68,0,1,0-1.68,1.71,1.71,1.71,0,0,0,1.33-1.71Zm5.09,0a1.71,1.71,0,0,0-3.41,0,1.72,1.72,0,0,0,1.71,1.71h0a1.71,1.71,0,0,0,1.3-1.71Zm5.09,0a1.68,1.68,0,1,0-1.68,1.68A1.68,1.68,0,0,0,500.29,442Zm5.09,0a1.68,1.68,0,0,0-3.36,0,1.69,1.69,0,0,0,1.68,1.66,1.72,1.72,0,0,0,1.23-1.71Zm-25.27,13.92a1.71,1.71,0,1,0-1.73,1.68h.05a1.72,1.72,0,0,0,1.23-1.68Zm5.09,0a1.45,1.45,0,1,1-.51,0Zm5.09,0a1.68,1.68,0,1,0-1.68,1.68,1.68,1.68,0,0,0,1.68-1.68Zm5.09,0a1.71,1.71,0,1,0-1.73,1.68h.05a1.69,1.69,0,0,0,1.12-1.68Zm5.09,0a1.41,1.41,0,1,1-.61,0Zm5.09,0a1.68,1.68,0,1,0-1.68,1.68,1.68,1.68,0,0,0,1.68-1.68Z"/><path class="cls-2" d="M432,465.82h-5.88a1.47,1.47,0,0,1-1.47-1.45,1.45,1.45,0,0,1,1.45-1.46H432a1.41,1.41,0,0,1,1.45,1.39v.06a1.45,1.45,0,0,1-1.45,1.45Zm1.45,5.29a1.45,1.45,0,0,0-1.42-1.48h-5.91a1.48,1.48,0,0,0-.38,2.93,1.21,1.21,0,0,0,.38,0H432a1.45,1.45,0,0,0,1.45-1.45Zm0,6.72a1.45,1.45,0,0,0-1.45-1.45h-5.88a1.47,1.47,0,1,0-.38,2.92,1.21,1.21,0,0,0,.38,0H432a1.45,1.45,0,0,0,1.45-1.45Zm0,6.74a1.45,1.45,0,0,0-1.45-1.45h-5.88a1.47,1.47,0,0,0-1.47,1.45,1.45,1.45,0,0,0,1.45,1.45H432a1.42,1.42,0,0,0,1.45-1.4Zm0,6.75a1.45,1.45,0,0,0-1.45-1.46h-5.88a1.48,1.48,0,0,0-1.47,1.46,1.45,1.45,0,0,0,1.45,1.45H432a1.43,1.43,0,0,0,1.45-1.4Zm0,6.74a1.42,1.42,0,0,0-1.4-1.45h-5.93a1.45,1.45,0,0,0,0,2.9H432a1.42,1.42,0,0,0,1.45-1.4v-.05Zm0,6.74a1.43,1.43,0,0,0-1.4-1.45h-5.93a1.45,1.45,0,0,0,0,2.9H432a1.42,1.42,0,0,0,1.45-1.4v-.05Zm0,6.75a1.42,1.42,0,0,0-1.4-1.45h-5.93a1.44,1.44,0,0,0-1.47,1.42v0a1.47,1.47,0,0,0,1.47,1.45H432a1.45,1.45,0,0,0,1.45-1.45Zm22-47.18a1.42,1.42,0,0,0-1.4-1.45H438.56a1.41,1.41,0,0,0-1.45,1.39v.06a1.45,1.45,0,0,0,1.45,1.45H454a1.45,1.45,0,0,0,1.45-1.45Zm0,6.74a1.46,1.46,0,0,0-1.43-1.48H438.56a1.48,1.48,0,0,0,0,2.93H454a1.45,1.45,0,0,0,1.45-1.45Zm0,6.72a1.45,1.45,0,0,0-1.45-1.45H438.56a1.47,1.47,0,0,0-1.27,1.65,1.45,1.45,0,0,0,1.27,1.27H454a1.45,1.45,0,0,0,1.45-1.45Zm0,6.74a1.45,1.45,0,0,0-1.45-1.45H438.56a1.45,1.45,0,0,0-1.45,1.45h0a1.42,1.42,0,0,0,1.4,1.45H454a1.42,1.42,0,0,0,1.45-1.4Zm0,6.75a1.45,1.45,0,0,0-1.45-1.46H438.56a1.45,1.45,0,0,0-1.45,1.46h0a1.43,1.43,0,0,0,1.4,1.45H454a1.43,1.43,0,0,0,1.45-1.4ZM474,498.06a1.45,1.45,0,0,0-1.45-1.45h-15.5a1.45,1.45,0,0,0,0,2.9h15.5a1.46,1.46,0,0,0,1.53-1.37v-.08Zm0,6.74a1.45,1.45,0,0,0-1.45-1.45h-15.5a1.45,1.45,0,0,0,0,2.9h15.5a1.45,1.45,0,0,0,1.53-1.37v-.08Zm0,6.75a1.45,1.45,0,0,0-1.45-1.45h-15.5a1.45,1.45,0,0,0-1.45,1.45h0a1.49,1.49,0,0,0,1.45,1.45h15.5a1.48,1.48,0,0,0,1.53-1.43v0ZM462.3,464.37a1.19,1.19,0,1,0,.07.07.17.17,0,0,0,0-.07Zm5.09,0a1.71,1.71,0,1,0-1.49,1.48A1.71,1.71,0,0,0,467.39,464.37Zm5.09,0a1.68,1.68,0,1,0-1.68,1.68,1.68,1.68,0,0,0,1.68-1.68Zm5.09,0a1.68,1.68,0,1,0-1.68,1.68,1.68,1.68,0,0,0,1.68-1.68Zm5.09,0a1.71,1.71,0,1,0-1.73,1.67h0a1.69,1.69,0,0,0,1.66-1.68Zm5.09,0a1.68,1.68,0,1,0-1.68,1.68,1.68,1.68,0,0,0,1.68-1.68Zm-25.27,13.46a1.68,1.68,0,1,0-3.36.05,1.67,1.67,0,0,0,1.68,1.65,1.7,1.7,0,0,0,1.58-1.7Zm5.09,0a1.71,1.71,0,1,0-3.41,0,1.7,1.7,0,0,0,1.7,1.7h0a1.71,1.71,0,0,0,1.55-1.7Zm5.09,0a1.68,1.68,0,1,0-1.68,1.68A1.68,1.68,0,0,0,472.66,477.83Zm5.09,0a1.68,1.68,0,1,0-3.36.05,1.67,1.67,0,0,0,1.68,1.65,1.69,1.69,0,0,0,1.47-1.7Zm5.09,0a1.71,1.71,0,1,0-3.41,0,1.59,1.59,0,1,0,3.18,0Zm5.09,0a1.68,1.68,0,1,0-1.68,1.68A1.68,1.68,0,0,0,487.93,477.83Zm-8,19.39a1.71,1.71,0,1,0-1.74,1.68h.06a1.69,1.69,0,0,0,1.4-1.68Zm5.08,0a1.68,1.68,0,1,0-1.67,1.68,1.64,1.64,0,0,0,1.34-1.68Zm5.09,0a1.52,1.52,0,1,1-.35,0Zm5.09,0a1.71,1.71,0,1,0-3.41-.05,1.71,1.71,0,0,0,1.68,1.73h0a1.68,1.68,0,0,0,1.3-1.68Zm5.09,0a1.68,1.68,0,1,0-1.68,1.68,1.65,1.65,0,0,0,1.25-1.68Zm5.09,0a1.68,1.68,0,1,0-1.68,1.68,1.7,1.7,0,0,0,1.23-1.68Zm-25.27,13.89a1.71,1.71,0,1,0-1.73,1.68h.05a1.71,1.71,0,0,0,1.23-1.68Zm5.09,0a1.45,1.45,0,1,1-.51,0Zm5.09,0a1.68,1.68,0,1,0-1.68,1.68A1.68,1.68,0,0,0,490.29,511.11Zm5.09,0a1.71,1.71,0,1,0-1.73,1.68h.05a1.69,1.69,0,0,0,1.12-1.68Zm5.09,0a1.68,1.68,0,1,0-1.68,1.68,1.66,1.66,0,0,0,1.07-1.68Zm5.09,0a1.68,1.68,0,1,0-1.68,1.68A1.68,1.68,0,0,0,505.56,511.11Z"/></g><g id="freepik--Character--inject-56"><path class="cls-9" d="M424,332.44c-.74,9.62-5.32,17.1-10.18,16.72s-8.25-8.47-7.51-18.09,5.32-17.13,10.18-16.75S424.76,322.8,424,332.44Z"/><path class="cls-12" d="M416.67,282.74s1,17.82-2,26.11-6.9,13.8-6.9,17.82,6.41,8.88,6.41,16.74S399.93,389.22,396,396.6s-2.54,9.85-7.38,10.33-17.23-5.4-17.23-5.4-7.4,1-8.37,3.92-3.46,13.31-3.46,13.31l-71.89-32a72.06,72.06,0,0,0,14.79-25.12c4.42-14.27-2.55-36.44-2.55-36.44s-6.9-51.68,24.61-66.47,77.31-5.42,84.72,2S416.67,282.74,416.67,282.74Z"/><g class="cls-13"><path class="cls-14" d="M370.71,364.48c.89-22.9-5.29-52.14-5.29-52.14s.86-7.08-12.39-29.16a291.88,291.88,0,0,0-17.82-28.48,74.39,74.39,0,0,0-10.53,3.92c-31.51,14.78-24.61,66.47-24.61,66.47s6.89,22.16,2.54,36.44a72,72,0,0,1-14.78,25.12l41.61,18.73,33.31-4.56s1.73.77,4.22,1.78a24.69,24.69,0,0,1,4.4-1s12.3,5.9,17.23,5.39C391.86,402.83,369.82,387.56,370.71,364.48Z"/><path class="cls-14" d="M376.9,288.49l17.66-.89s-10.59,11.48,1.78,11.48,20.36-3.08,20.36-9.72,6.18-16.77-17.66-16.77S369.82,282.31,376.9,288.49Z"/></g><path class="cls-9" d="M416.67,282.74s1,17.82-2,26.11-6.9,13.8-6.9,17.82,6.41,8.88,6.41,16.74S399.93,389.22,396,396.6s-2.54,9.85-7.38,10.33-17.23-5.4-17.23-5.4-7.4,1-8.37,3.92-3.46,13.31-3.46,13.31l-71.89-32a72.06,72.06,0,0,0,14.79-25.12c4.42-14.27-2.55-36.44-2.55-36.44s-6.9-51.68,24.61-66.47,77.31-5.42,84.72,2S416.67,282.74,416.67,282.74Z"/><path class="cls-7" d="M357.1,328.55s11.81,3.44,13.28,0-2.95-4.43,2.55-6.41,18.22-9.85,18.22-17.82-14.79-21.17-7.41-23.15,30.06-1,30.06-1S398,287.58,405.91,291s27.07-1,34.45-11.8-2.95-28-17.22-37.44-42.83-17.23-70.9-16.23-48.76,10.84-54.67,27.07S301,326,301.52,341.25s9.85,19.69,20.69,19.69,20.18-9.36,22.65-17.81,3.43-16.74,4.91-18.7S357.1,328.55,357.1,328.55Z"/><path class="cls-15" d="M324.35,326.49a37.65,37.65,0,0,1-6,5.34"/><path class="cls-15" d="M437.46,262.87s-3.28,4.94-16.44,8.22S380,260.4,349.54,274.37c-20.69,9.52-15.47,24-18.35,38.17"/><path class="cls-15" d="M380,287.43S369.26,289.05,361,303s-7.38,35.32-32,41.91"/><line class="cls-9" x1="352.64" y1="320.18" x2="423.06" y2="327.56"/><path class="cls-6" d="M362.49,335.93s1-17.23-5.39-25.6-11.84-2.55-14.79,14.28-2.95,25.6,3.44,28a18.1,18.1,0,0,0,12.72-.49"/><path class="cls-7" d="M542,783.31c-5.93-5.83-21.58-19.65-41.25-24.36-25.19-6-135.59-18.57-135.59-18.57l-5.42-22.22s-15.6-4.81-19.18-4.81-19.8,5.42-55.81,13.21-100.47-11.3-100.47-11.3a49,49,0,0,0-17.53,37.41c0,15.27,1.42,28,3.18,30.53Z"/><path class="cls-2" d="M272.89,396.5l-1.81,1.24c-6.92,4.76-32.47,22.47-51.86,37.67-22.65,17.81-24.12,50.71-25.12,76.34s-17.51,185-21.45,204.7,31.3,24.74,65.27,29.68,77.8-.49,99-10.34S363,726.43,363,715.59s.48-35.45.48-37.41,15.27-122.61,14.28-158.06,2-54.66-6.39-72.4-29.54-31.5-57.61-40.87S272.89,396.5,272.89,396.5Z"/><g class="cls-16"><path class="cls-14" d="M355.27,467.93c-8.33-16.75-35.15-47.28-35.15-47.28s20.36-6-49-22.91h0c-6.92,4.76-32.47,22.47-51.86,37.67-22.65,17.81-24.13,50.71-25.12,76.34s-17.51,185-21.45,204.7S204,741.19,238,746.13a192,192,0,0,0,27.1,1.83l99-81.26.64.84c2.67-22.7,9.06-76.9,11.8-115.28C369.36,519,361,479.58,355.27,467.93Z"/><path class="cls-9" d="M239.43,498.75s4.5,43.72,25.62,71.61"/><path class="cls-9" d="M302.79,571.86s4.53,10.56,27.15,28"/><path class="cls-9" d="M284.65,603.52s24.1,8.29,47.46,3.76"/><path class="cls-9" d="M277.09,747.47s49.75-25.62,69.34-50.51"/></g><path class="cls-9" d="M272.89,396.5l-1.81,1.24c-6.92,4.76-32.47,22.47-51.86,37.67-22.65,17.81-24.12,50.71-25.12,76.34s-17.51,185-21.45,204.7,31.3,24.74,65.27,29.68,77.8-.49,99-10.34S363,726.43,363,715.59s.48-35.45.48-37.41,15.27-122.61,14.28-158.06,2-54.66-6.39-72.4-29.54-31.5-57.61-40.87S272.89,396.5,272.89,396.5Z"/><path class="cls-2" d="M277.8,379.75l-13.18,22.17s39.88,9.36,60.57,17.81,48.35,30.54,48.35,30.54-4.43-25.12-8.38-31.51-44.81-28-61.55-34.48S277.8,379.75,277.8,379.75Z"/><g class="cls-17"><path class="cls-14" d="M339.28,426.73a5.29,5.29,0,0,0,3.67-4.12c1.42-11.74-18.43-28.43-19.44-29.3-7.79-3.86-15-7.2-20.11-9.13-16.72-6.39-25.6-4.43-25.6-4.43l-13.18,22.17s39.88,9.36,60.57,17.81A119.93,119.93,0,0,1,339.28,426.73Z"/></g><path class="cls-9" d="M277.8,379.75l-13.18,22.17s39.88,9.36,60.57,17.81,48.35,30.54,48.35,30.54-4.43-25.12-8.38-31.51-44.81-28-61.55-34.48S277.8,379.75,277.8,379.75Z"/><path class="cls-6" d="M514.65,658.46s12.72-10.84,18.7-21.68,9.85-13.77,14.3-12.73a39.33,39.33,0,0,0,7.87,1s15.75-9.36,20.68-10.33S591,625.53,591,625.53s16.75,12.72,14.79,15.78-4.94,1.47-6.9,1.47-6.41-3.46-8.85-2.54-13.31,7.86-13.31,7.86,12.72,0,16.26,1.48,16.24,12.72,13.79,14.3-2.54,2-5.42,1.47a44.94,44.94,0,0,1-9.85-4.93L578.16,663s7.89,8.37,10.36,10.33,11.81,4.94,7.87,7.38-6.9,1.51-11.81-2-15.75-8.85-17.82-8.85-7.38,6.89-16.23,9.85a86.42,86.42,0,0,1-22.17,2.95l-2.54,2.54-14.76-17.81-2.95-2.54Z"/><path class="cls-9" d="M591,625.45s-4.42-2.54-7.38-1-21.65,12.3-21.65,12.3"/><line class="cls-9" x1="555.52" y1="624.97" x2="546.66" y2="630.87"/><path class="cls-6" d="M426,666.32s32.5-.48,37.43-3.43,16.75-11.33,17.23-14.79-2.54-5.39-7.38-3.44-17.81,6.9-19.69,6.9a70.07,70.07,0,0,1-10.34-2.95s14.28-12.72,20.18-16.26a16.19,16.19,0,0,1,15.76,0c3.46,2,8.85-4.43,4.43-7.87a24.38,24.38,0,0,0-15.76-5.42,22,22,0,0,0-6.89,1.48s-5.42-8.86-9.34-7.89a16.86,16.86,0,0,0-6.9,4,9,9,0,0,0-8.88.48c-4.43,3-8.86,3.94-13.77,7.89s-19.21,13.28-21.17,16.74S426,666.32,426,666.32Z"/><line class="cls-9" x1="460.98" y1="620.54" x2="447.18" y2="628.4"/><line class="cls-9" x1="444.74" y1="616.6" x2="434.89" y2="623.49"/><path class="cls-2" d="M332,497.91s-13.79,18.73-18.22,33.51,1,35.93,2.54,40.87,80.24,160,88.61,175.29,17.82,16.23,24.64,13.79,86.17-59.09,89.07-62,16.26-14.28,16.26-14.28,2.54-15.78-8.37-24.12S510.24,657,510.24,657l-68.93,18.71S402.42,541.75,398,516.15s2.55-24.12-11.32-37.92a193.55,193.55,0,0,0-30.54-24.17"/><g class="cls-18"><path class="cls-14" d="M518.59,699.33c2.95-3,16.26-14.28,16.26-14.28a33.58,33.58,0,0,0-.63-11.48c-27.72,11-84.52,33.7-87.83,37-4.4,4.38-2.18-3.31-2.18-12.09S431,713.78,428.94,719.38s-7.2-15.62-8.81-24.15S392.7,620.54,385,589.8s-21.35-105.08-29.64-121.87a84.87,84.87,0,0,0-5.09-8.5l-20.79,37s-11.33,20.18-15.76,35,1,35.93,2.55,40.87c.79,2.67,24.51,49.88,47.31,94.79l.51-.4s41.73,105.66,62.24,95.4C446.42,749.33,516,701.9,518.59,699.33Z"/></g><path class="cls-9" d="M332,497.91s-13.79,18.73-18.22,33.51,1,35.93,2.54,40.87,80.24,160,88.61,175.29,17.82,16.23,24.64,13.79,86.17-59.09,89.07-62,16.26-14.28,16.26-14.28,2.54-15.78-8.37-24.12S510.24,657,510.24,657l-68.93,18.71S402.42,541.75,398,516.15s2.55-24.12-11.32-37.92a193.55,193.55,0,0,0-30.54-24.17"/><path class="cls-9" d="M500.85,661.41s22.37,2.82,23.64,32.5"/></g><g id="freepik--Chair--inject-56"><path class="cls-6" d="M260.83,783.31h11.42c-17.5-32.65-114-213-117.31-221.15-3.59-9-9-9-10.79-12.72s.61-19.19,0-29.39-33.59-105-42.6-120.6-22.9-13.82-22.9-13.82L75,395.25l57,155.41Z"/><path class="cls-7" d="M37.39,560.38c23.7,54.71,91,207.89,96.55,222.93H260.8C245.92,756.51,157.41,596.47,138.65,546c-20.36-55.19-52.22-153.6-60-160.32s-46.8-6.59-62.4-1.78S0,390.44.65,400.64,13.8,505.85,37.39,560.38Z"/><line class="cls-9" x1="82.82" y1="783.31" x2="1000.5" y2="783.31"/></g></g></g></svg>