<svg xmlns="http://www.w3.org/2000/svg" viewBox="0 0 1010 1010">
    <defs>
        <style>
            .cls-1 {
                fill: none;
                stroke: #effffb;
                stroke-opacity: 25%;
                stroke-linecap: round;
                stroke-linejoin: bevel;
                stroke-width: 10px;
                filter: blur(3px) saturate(5) brightness(50);
                stroke-dasharray: 80% 5% 10% 5%;
                animation: run 10s 0ms infinite normal forwards linear;
            }

            @keyframes run {
                0% {
                    stroke-dashoffset: 0%;
                }

                100% {
                    stroke-dashoffset: 100%;

                }
            }
        </style>
    </defs>
    <g id="Layer_2" data-name="Layer 2">
        <g id="Layer_1-2" data-name="Layer 1">
            <path class="cls-1"
                d="M1003.14,374.37c-2.18-10.84-4.19-16-15-23.59-8.45-5.93-18.28-8-27.32-5.43s-18.06,7.49-22.54,17.34c-1.4,3.07-3.83,5.68-5.6,8.23H877l-55.36,75.21h-149V406.78h81.1L810,337.53V275.75c15.14-9.73,19-13.55,22.44-20.35,5.31-10.47,3.9-20.83-.84-30.89C824.82,210,804,200.35,790.43,206c-7.95,3.33-15.66,7.29-20.7,15.62-7.47,12.34-7.1,24.25-.13,38.12,5,5.49,11.48,12.25,20.23,15.4v54.05l-46.51,57.51c-23.62,0-46.52,0-69.43,0a1.82,1.82,0,0,1-.86-.3,4.16,4.16,0,0,1-.68-.61,138,138,0,0,0-1.69-18.26c-2.18-13.32-18.21-27.26-31.52-26.74-9.49.38-19,.07-28.53.07V175.74l86-86.11c2,.56,4.68,1.78,7.4,2,5.29.34,10.62.19,15.93,0a11.59,11.59,0,0,0,4.43-1.27c10.73-5,19-12.17,22.54-24.21,1.19-4,.93-7.69,1-11.49.15-11.27-10.66-27.5-21.14-30.62-14.8-4.42-30.89-4.19-41.74,10.26-6.88,9.17-12,19.23-6.85,31.43,1.43,3.4,1.71,7.28,2.46,10.64l-92.33,92.4V340.69H535.68l-2.55-2.55V224.85c8-1.49,13-8,18.74-13.59,2.55-2.49,3.89-5.53,5-8.9a37.56,37.56,0,0,0,0-24.31c-3.84-11.7-12.86-18.34-23.4-22.21-5.56-2-12.6-1.09-18.75-.11-4.36.71-8.73,3.21-12.42,5.86-5.48,3.94-10.44,8.95-11.95,15.75-1.28,5.75-6.13,11.48-1.34,17.83.48.64,0,2,.08,2.94,1.28,11.89,11.26,22.2,23.43,25.67V340.57H453.22V177.84l-77.71-57.38V74.31c15.44-4.6,23.68-15.57,25.71-30.63,2.14-15.88-6.42-27-16.72-33.88-13.3-6.26-24.48-6.61-38,.2-9.25,7-18.87,17.51-16.62,33.56C332,58.62,340,69.66,355.55,74.23v56.3c2.47,2.46,4.36,4.87,6.73,6.64,6.81,5.09,13.82,9.89,20.72,14.86,9,6.44,17.94,12.86,26.82,19.42,7.39,5.47,14.64,11.13,21,16V340.53h-39.4V254.84l-68.83-55.7H261.49c-3.74-5.65-6.14-11.52-10.4-15.3-10.42-9.27-22.47-13.41-36.63-8.49-13.94,4.84-21.86,15.17-23.89,28.82-2.07,13.91,3.14,25.76,15.46,34.25,4.41,3,9.3,3.53,13.63,5.66,6.46,3.19,11.86-.38,17.63-1.08,2.85-.34,5.54-2.59,8.13-4.25a33.83,33.83,0,0,0,6.51-5.11c2.16-2.32,3.82-5.1,6.06-8.19v-3.2l2.9-2.9h53.65l56.52,45.91v75.35c-15.77,2.92-27.27,10.33-31.93,26H178.21L90.74,279.05c4.13-20.46,5.26-36.35-23.12-49.8-4.43,0-9.08.25-13.69-.08-4.4-.32-7.89,1.34-11.58,3.43C32.77,238,29.9,240.81,24.9,251c-.55,1.11-1.15,2.2-2,3.82v18.8c2,3.61,3.85,6.84,5.62,10.11,3.89,7.22,8.3,10.86,16.24,13.31,5.47,1.68,11.91,1.94,15.44,2.12,5.78.3,10.79-2,15.91-3.7L169.57,389H337.66c0,17.56,0,34.78,0,52a1.71,1.71,0,0,1-.3.86,1.77,1.77,0,0,1-.31.36H224.53c-7.9-22-22.56-24.84-40.8-23.54-11.35.81-25.94,13.77-27,25.59-.65,6.86-1.21,13.94,1.29,21.22,4.08,11.87,12.34,18.36,25.36,22.94,2.43,0,7.07-.19,11.68,0,9.41.46,16.06-5.36,22.37-10.71,3.74-3.16,5.41-8.77,7.71-12.78H337.34v59.34H178.21c-9.21,12.7-18.42,25.6-27.83,38.33s-19,25.33-28,37.26H75.44C66.55,581.27,52.25,573,31.76,576.65a21.62,21.62,0,0,0-4.08,1.75c-4.41,3-9.78,4.53-13.22,9.08a65.81,65.81,0,0,0-9.11,19.17c-1.13,4.22.77,8,1.43,12,2.27,13.83,11.68,21.25,23,26.93,3.23,1.63,7.7,2.9,10.88,1.94,3.47-1,7.26-.52,10.1-1.92,3-1.51,6.39-2,9.47-3.74,8.15-4.51,11.2-12.32,15.6-20h56.4c19-25.82,37.93-51.55,57-77.43h148V584H256.9l-57.1,70.45v62.72c-2.46.94-4.53,1.57-6.47,2.49-10.89,5.2-16.4,15-18.75,25.82-2.88,13.28,5,33.38,23.18,38.66,12.07,3.5,17.91,3.52,28.44-1.71,6.69-3.31,10.52-9.54,14.58-12.84,4.84-11.62,7.1-21.48,2.21-32.39-4.78-10.65-12.92-16.49-22.74-20.37v-54.3l45.5-56.22h71.91c0,10.55.3,20.81-.09,31-.32,8.31,2.63,15.74,7,22s10.14,12.62,18.92,13V832.47L277,919c-3.23-2-7.67-2.15-12.19-2s-9.27,0-13.28,0l-7,4c-7.18,4.11-13.48,9.78-16.2,17.29-4,11-4.14,22.28,3.62,32.54,4.14,5.48,8.42,11.11,14.76,13.45,13.05,4.83,31,4.51,41.2-8.56,7.66-9.78,13.05-20.06,7.92-33-1.12-2.82-1.54-5.92-2.31-9l92.33-92.4V674.09h52.64l2.51,2.51V782.72C424.22,793,420.19,798.46,418,803.92a37,37,0,0,0,.41,29.53c4.43,10.21,13,15.37,23,19.77,2.75,0,6.09-.22,9.39,0,7.63.64,14.16-1.77,20.48-5.95,10.82-7.15,15.16-17.81,15.52-29.85A31.48,31.48,0,0,0,481,799.1c-4.78-6.9-11.05-12.25-19.62-14.38V674.21h59.47V830.83l77.54,57.09v46.32c-8,3.73-15.39,7.1-19.9,15.44-4.27,7.9-6.56,15.78-5.7,24.55.75,7.63,5.05,13.27,18.85,26.16,4.63,1.22,9.27,1.56,13,3.61,5,2.79,8.61-1.1,12.81-1.58,3.67-.42,8-1,11-4.47,2.8-3.2,6.38-5.57,9.12-9,2.89-3.59,4-7.59,5.64-11.68,3-7.57,1.39-14.81-1.2-21.65-4.12-10.88-12.29-18-23.78-21.29V876.62L543.12,821.4V674h36.57c3.58,1.8,3,4.94,3,7.87v72l68.83,55.63h61.83c9.11,22.26,26.59,27.91,40.63,25.47,7.76-1.35,15.47-4.9,21.06-11.61A37.93,37.93,0,0,0,783.65,804c2.19-16.52-7-31-22.36-38-3.87-1.78-8.56-2.3-12.89-2.37a34.08,34.08,0,0,0-13,2,33.43,33.43,0,0,0-11.57,7.91c-4.13,4.48-8.13,9.34-9.74,15.58H659.47l-56.56-45.83V673.84h43.35c23-9.94,28-28,25.89-49.64H830.39l88.4,88.46c-.42,3.65-1.13,8-1.38,12.43-.25,4.59,0,9.22,0,13.17,11.21,23.07,32.52,30.86,50.8,21.11s24.53-27.89,15.69-47.37c-7-15.45-23.24-27.36-49.81-16L842,603.84H672.73V548.46H783.27c18.55,36.84,55.29,32.5,70.34.67,0-3.83-.1-7.81,0-11.78.31-9.84-2.86-18.1-10.5-24.58-10.19-8.64-21.3-13.47-34.69-8.38-11.4,4.33-20.56,11.05-23.38,23.57H672.33c0-19.54,0-38.76,0-58a1.68,1.68,0,0,1,.34-.85,6.16,6.16,0,0,1,.74-.68H831.1c19-25.84,38.14-51.83,56.92-77.37h46.49c1.09,2.14,2.25,3.69,2.71,5.42,1.32,5,4.82,8.29,8.4,11.45,3.9,3.41,14.27,7.79,19.29,8.69,2.49.44,9.85-.39,14.1-2a46.18,46.18,0,0,0,16.4-11.05c5.4-5.51,6.46-12.64,9.08-19.23C1006,380.61,1003.81,377.69,1003.14,374.37ZM785.88,246.18v-12c11.58-13.13,18.2-10.81,27.29-.64.68,2.4,1.26,4.47,1.72,6.06-.52,2.91-1,5.61-1.65,9.39-2.24,1.63-5.3,3.88-8.29,6.07C791.64,255.2,791.64,255.2,785.88,246.18ZM698.26,50.88C709,40,709,40,723.79,46.32c1.32,3.85,2.42,7,3.66,10.61-2.36,5.07-2,12.69-10.06,14.71h-10.3L698.26,62ZM351.89,47.09V34.45c5.38-8.55,5.38-8.55,19.5-8.55l8.1,8.12V46.74C368.86,59.18,361.88,58.38,351.89,47.09Zm-115,172.39c-4.74,4.75-10,3.63-15.58,3.82l-8.89-6.2V203.61c2.63-2.65,5.12-5.15,8-8.1l6.1-1.95c4.77.94,9.59,3.69,13.54,9.13C239.71,207.93,241.37,214.13,236.85,219.48ZM68.69,274.19c-3.1,2.95-6.48,4.93-10.92,4.93s-7.81-2-10.92-4.94c-4.22-4-4.43-9-3.7-15.51l9.11-9.09c10.91-1.54,16.64,2.66,20.35,11.07C73.12,265.21,72.91,270.18,68.69,274.19ZM201.35,464.4c-4,4.09-9,4.46-14.21,4-10-6.2-10.93-7.94-10.51-20.29l9-9c10.57-1.75,16.69,2.26,20.54,11.31A16.35,16.35,0,0,1,201.35,464.4Zm-145,148.51c-1.44,3.23-1.39,7.28-5.15,10-4.75,3.4-9.65,2.9-15.33,3.13l-9.32-9.33c.42-3.23.2-7.29,1.55-10.72,3.78-9.55,11.17-11.93,20.37-7.2,1.09.55,2.16,1.13,3.66,1.92C53,604.67,58.47,608.29,56.39,612.91ZM224.13,744.63c-.36,7.84,2.3,17.09-11.42,21a16.81,16.81,0,0,1-16.44-7.34c-.49-2.41,1.13-5.71-1.54-7.44.71-2.19,1.38-4.24,2.36-7.27C207.23,732.18,213.82,733.05,224.13,744.63ZM275.9,957.87c-10.95,12.79-18.85,11.36-27.74-.29a30,30,0,0,0-.55-4c-.15-.55-.88-.95-1.34-1.41,3.12-5.35,2.55-13.31,10.65-15.17h10c2.45,3.49,8,4,9,8.94Zm346.39,3.79v11c-3.08,11-11,10.42-16.72,10.15-12.85-3.73-10.87-12.78-10.91-21C605.9,949.15,612.5,950.71,622.29,961.66Zm111.8-168.1,8.11-8.12H755l7,7.09v13.86l-7.08,7H741l-6.95-7.08ZM509,196.23V184.57c5-6,10.44-10.79,19.35-8.87l8.36,6.16c1.74,9.12.93,9,.36,14.1-.67,5.95-6.18,5.94-8.9,9.06C519.59,207,514.07,202.23,509,196.23ZM465.15,812.48v11.71c-5,5.93-10.53,10.77-19.47,8.76-13.46-6.15-13.45-23.08,0-29.22C454.62,801.71,460.11,806.56,465.15,812.48Zm185-168.06c-2.67,7.82-8.33,9.57-15.78,9.55-88.59-.16-177.18-.1-266.67-.1l-8.12-8.12V370.1c5.19-7.42,12.49-9.36,21-9.35q124.42.17,248.85-.11c5,0,9.25,2.47,14.08,2.25l6.61,6.62Zm290.69,72.33,11.29-4.59,10.73,4c6.15,14.64,6.15,14.64-4.42,25.21H947.31l-9.79-9.85C937.23,724,937.23,724,940.83,716.75ZM804,533.12l8.65-8.66h12.56l8.44,10v8.43L828.3,550a41.18,41.18,0,0,1-4.42,2.19,50.38,50.38,0,0,1-5.52,1.5c-3.54-2.53-9.63-1.82-12.51-6.56C803.22,542.79,803.57,537.9,804,533.12ZM974,394.71H961.6c-1.59-1.76-3.72-3.85-5.54-6.18-3.86-4.93-4.1-10.91.07-15.48,3.13-3.44,7.18-6,10.39-8.66,7.58,2,14.06,3.57,16.41,13.2C983.27,388.9,983.19,389.08,974,394.71Z" />
        </g>
    </g>
</svg>