<svg xmlns="http://www.w3.org/2000/svg" viewBox="0 0 1405 887.55">
    <defs>
        <style>
            .cls-1 {
                fill: none;
                stroke: #50d890;
                stroke-width: 5px;
                stroke-linecap: round;
                stroke-linejoin: bevel;
                stroke-dasharray: 20;
                animation: linecrawl 50s 0ms linear infinite forwards;
            }

            .cls-2 {
                fill: #50d890;
                stroke: #effffb;
                stroke-width: 10px;
                stroke-miterlimit: 10;
                stroke-dasharray: 50% 10%;
                animation: linecrawl 20s 0ms linear infinite forwards;
            }

            .cls-3 {
                fill: #effffb;
            }

            @keyframes linecrawl {
                0% {
                    stroke-dashoffset: 0%
                }

                100% {
                    stroke-dashoffset: 100%;
                }
            }
        </style>
    </defs>
    <g id="Layer_2" data-name="Layer 2">
        <g id="Layer_3" data-name="Layer 3">
            <polyline class="cls-1" points="1155.94 114.14 892.45 149.06 755.41 447.48 1243.77 459.12" />
            <polyline class="cls-1" points="970.76 713.09 755.41 447.48 414.67 737.43 281.86 532.13" />
            <line class="cls-1" x1="414.67" y1="737.43" x2="81.86" y2="810.44" />
            <polyline class="cls-1" points="755.41 447.48 540.07 188.22 400.38 55.94" />
            <line class="cls-1" x1="540.07" y1="188.22" x2="131.07" y2="193.51" />
        </g>
        <g id="Layer_2-2" data-name="Layer 2">
            <circle class="cls-2" cx="755.42" cy="447.48" r="158.73" />
            <path class="cls-3"
                d="M671.77,409.81c1.21,0,2.45.09,3.74.18a30,30,0,0,1,3.85.56l-.22,2.37c-1.06-.05-2.24-.09-3.52-.13s-2.52-.05-3.7-.05c-.92,0-1.7,0-2.36.09a4.15,4.15,0,0,0-1.61.44,2,2,0,0,0-.9,1.15,6.8,6.8,0,0,0-.28,2.2,4.39,4.39,0,0,0,.76,2.95,4.74,4.74,0,0,0,2.46,1.24l5.19,1.3a6.19,6.19,0,0,1,4.05,2.46,8.87,8.87,0,0,1,1.09,4.72,10.5,10.5,0,0,1-.5,3.59,4.23,4.23,0,0,1-1.53,2.1,6.62,6.62,0,0,1-2.67,1,23.92,23.92,0,0,1-3.85.27c-.84,0-1.93,0-3.28-.11a36.91,36.91,0,0,1-4.65-.59l.22-2.41,3.52.13c.89,0,1.66.06,2.3.06h2A12.52,12.52,0,0,0,675,433a2.35,2.35,0,0,0,1.59-1.18,5.86,5.86,0,0,0,.47-2.63,6.09,6.09,0,0,0-.34-2.3,2.47,2.47,0,0,0-1.05-1.24,6.87,6.87,0,0,0-1.83-.69l-5.3-1.33a6.23,6.23,0,0,1-3.91-2.44,8.52,8.52,0,0,1-1.13-4.67A10.59,10.59,0,0,1,664,413a4.12,4.12,0,0,1,1.52-2,6.11,6.11,0,0,1,2.57-.91A26.52,26.52,0,0,1,671.77,409.81Z" />
            <path class="cls-3"
                d="M694.58,409.77a14.46,14.46,0,0,1,4.72.67,6.42,6.42,0,0,1,3.12,2.2,10.33,10.33,0,0,1,1.7,4.1,37,37,0,0,1,0,12.59,10.28,10.28,0,0,1-1.7,4.09,6.36,6.36,0,0,1-3.12,2.2,17,17,0,0,1-9.44,0,6.43,6.43,0,0,1-3.13-2.2,10,10,0,0,1-1.72-4.09,37,37,0,0,1,0-12.59,10.06,10.06,0,0,1,1.72-4.1,6.5,6.5,0,0,1,3.13-2.2A14.51,14.51,0,0,1,694.58,409.77Zm0,2.93a7.19,7.19,0,0,0-4,1,5.29,5.29,0,0,0-2.07,3.21,31.36,31.36,0,0,0,0,12.31,5.29,5.29,0,0,0,2.07,3.22,8.65,8.65,0,0,0,8,0,5.3,5.3,0,0,0,2.08-3.22,31.36,31.36,0,0,0,0-12.31,5.3,5.3,0,0,0-2.08-3.21A7.17,7.17,0,0,0,694.58,412.7Z" />
            <path class="cls-3"
                d="M715,410.22c1.18,0,2.38,0,3.59,0l3.59.05c1.19,0,2.32.09,3.41.19l-.19,2.51h-9.59a2.67,2.67,0,0,0-1.89.58,2.54,2.54,0,0,0-.59,1.87v20.37H710.1v-21a4.35,4.35,0,0,1,1.33-3.39A5.18,5.18,0,0,1,715,410.22Zm-4.3,11.15H724V424h-13.3Z" />
            <path class="cls-3" d="M747.55,410.25v2.89H727.8v-2.89Zm-8.26,0v25.56H736V410.25Z" />
            <path class="cls-3"
                d="M782.4,410.25l-5.19,24.6a1.28,1.28,0,0,1-1.29,1h-3.71a1.26,1.26,0,0,1-.83-.28,1.09,1.09,0,0,1-.43-.72l-4-19.22c-.1-.5-.2-1-.29-1.47l-.3-1.42h-.78c-.1.47-.19.95-.28,1.44s-.17,1-.27,1.45l-4,19.22a1.3,1.3,0,0,1-1.29,1H756a1.31,1.31,0,0,1-.84-.28,1.1,1.1,0,0,1-.42-.68l-5.19-24.6H753l4,19.93c.1.47.18,1,.26,1.5s.16,1.08.25,1.65h.86c.1-.57.19-1.11.29-1.63s.2-1,.3-1.52l4-18.85a1.26,1.26,0,0,1,1.26-1.08h3.56a1.16,1.16,0,0,1,.81.3,1.52,1.52,0,0,1,.45.78l4,18.85c.12.54.23,1.07.31,1.59s.16,1,.21,1.56h.92c.08-.52.15-1.05.23-1.58s.16-1,.26-1.53l4-20Z" />
            <path class="cls-3"
                d="M796,410.25a1.29,1.29,0,0,1,.78.24,1.17,1.17,0,0,1,.44.65l8.23,24.67H802l-6.63-21c-.1-.35-.21-.7-.32-1.06l-.31-1h-1q-.15.48-.3,1c-.1.36-.21.71-.33,1.06l-6.63,21H783.1l8.22-24.67a1.19,1.19,0,0,1,.45-.65,1.28,1.28,0,0,1,.77-.24ZM800.69,425v2.82h-13V425Z" />
            <path class="cls-3"
                d="M817.8,409.92a14.57,14.57,0,0,1,4.78.65,4.62,4.62,0,0,1,2.65,2.24,9.77,9.77,0,0,1,.83,4.48,10.69,10.69,0,0,1-.48,3.46,4.33,4.33,0,0,1-1.5,2.15,5.59,5.59,0,0,1-2.72,1v.19a3.33,3.33,0,0,1,1.24.61,5.35,5.35,0,0,1,1.13,1.22,5.61,5.61,0,0,1,.78,1.84l2.48,8.07h-3.48l-2.26-8a4.1,4.1,0,0,0-1.3-2.06,3.45,3.45,0,0,0-2.11-.61c-1.51,0-2.81,0-3.92,0s-2,0-2.78-.05-1.34,0-1.78,0l.11-2.7h8.26a9.2,9.2,0,0,0,3-.45,2.74,2.74,0,0,0,1.58-1.46,7.25,7.25,0,0,0,.48-2.94,7,7,0,0,0-.48-2.91,2.75,2.75,0,0,0-1.58-1.43,8.85,8.85,0,0,0-3-.4c-2,0-3.77,0-5.24,0s-2.46,0-3,0l-.52-2.56c.94-.09,1.81-.17,2.63-.22s1.71-.08,2.68-.09Zm-5.59.33v25.56H809V410.25Z" />
            <path class="cls-3"
                d="M836.58,410.22h3.73c1.24,0,2.48,0,3.7,0s2.4.09,3.54.17L847.4,413H837.14a2.23,2.23,0,0,0-1.69.58,2.73,2.73,0,0,0-.53,1.87v15.18a2.79,2.79,0,0,0,.53,1.89,2.16,2.16,0,0,0,1.69.6H847.4l.15,2.51q-1.71.12-3.54.15c-1.22,0-2.46.05-3.7.06l-3.73,0a5.06,5.06,0,0,1-3.57-1.21,4.25,4.25,0,0,1-1.35-3.24V414.66A4.25,4.25,0,0,1,833,411.4,5.14,5.14,0,0,1,836.58,410.22ZM832.32,421H846v2.63H832.32Z" />
            <path class="cls-3"
                d="M640.92,454.37a14.28,14.28,0,0,1,4.64.66,6.45,6.45,0,0,1,3.08,2.19,10,10,0,0,1,1.7,4,36.15,36.15,0,0,1,0,12.45,10,10,0,0,1-1.7,4,6.43,6.43,0,0,1-3.08,2.18,14,14,0,0,1-4.64.67c-1.76,0-3.38,0-4.87-.09s-2.91-.15-4.25-.25l1.41-2.66,3.47.09c1.27,0,2.68.06,4.24.06a7,7,0,0,0,3.88-.95,5.25,5.25,0,0,0,2.06-3.18,31.11,31.11,0,0,0,0-12.26,5.35,5.35,0,0,0-2.06-3.21,6.9,6.9,0,0,0-3.88-1c-1.54,0-2.91,0-4.13,0l-3.58.07-1.41-2.59c1.34-.1,2.75-.18,4.25-.24S639.16,454.37,640.92,454.37Zm-5.86.33v25.55H631.8V454.7Z" />
            <path class="cls-3"
                d="M661.1,454.66h3.72c1.25,0,2.48,0,3.71.06s2.4.09,3.53.16l-.14,2.56H661.66A2.23,2.23,0,0,0,660,458a2.7,2.7,0,0,0-.54,1.87v15.19A2.77,2.77,0,0,0,660,477a2.19,2.19,0,0,0,1.69.59h10.26l.14,2.52c-1.13.07-2.31.12-3.53.15l-3.71,0-3.72,0a5.07,5.07,0,0,1-3.57-1.2,4.3,4.3,0,0,1-1.36-3.24V459.11a4.28,4.28,0,0,1,1.36-3.26A5.11,5.11,0,0,1,661.1,454.66Zm-4.26,10.78h13.63v2.63H656.84Z" />
            <path class="cls-3"
                d="M695.84,454.7l-7.74,24.63a1.67,1.67,0,0,1-.48.65,1.19,1.19,0,0,1-.78.27h-3.29a1.25,1.25,0,0,1-.82-.27,1.33,1.33,0,0,1-.44-.65l-7.75-24.63h3.38L684,475l.39,1.39c.14.45.25.92.35,1.39h1c.13-.47.25-.94.37-1.41s.26-.94.41-1.41l6-20.22Z" />
            <path class="cls-3"
                d="M704.4,454.66h3.72c1.25,0,2.48,0,3.7.06s2.4.09,3.54.16l-.15,2.56H705a2.22,2.22,0,0,0-1.68.57,2.7,2.7,0,0,0-.54,1.87v15.19a2.77,2.77,0,0,0,.54,1.89,2.18,2.18,0,0,0,1.68.59h10.26l.15,2.52q-1.71.1-3.54.15l-3.7,0-3.72,0a5.11,5.11,0,0,1-3.58-1.2,4.32,4.32,0,0,1-1.35-3.24V459.11a4.31,4.31,0,0,1,1.35-3.26A5.16,5.16,0,0,1,704.4,454.66Zm-4.26,10.78h13.63v2.63H700.14Z" />
            <path class="cls-3"
                d="M723.58,454.7v20.37a2.5,2.5,0,0,0,.61,1.85,2.58,2.58,0,0,0,1.87.59h9.23l.14,2.52c-1.6.13-3.24.2-4.9.22s-3.33,0-5,0a4.48,4.48,0,0,1-5.18-4.81V454.7Z" />
            <path class="cls-3"
                d="M748,454.22a14.8,14.8,0,0,1,4.72.66,6.46,6.46,0,0,1,3.11,2.21,10,10,0,0,1,1.7,4.09,37,37,0,0,1,0,12.59,10,10,0,0,1-1.7,4.1,6.51,6.51,0,0,1-3.11,2.2,17,17,0,0,1-9.45,0,6.61,6.61,0,0,1-3.13-2.2,10.06,10.06,0,0,1-1.72-4.1,37.65,37.65,0,0,1,0-12.59,10,10,0,0,1,1.72-4.09,6.56,6.56,0,0,1,3.13-2.21A14.82,14.82,0,0,1,748,454.22Zm0,2.92a7.14,7.14,0,0,0-4,1,5.34,5.34,0,0,0-2.07,3.2,31.36,31.36,0,0,0,0,12.31,5.36,5.36,0,0,0,2.07,3.23,8.75,8.75,0,0,0,8,0,5.36,5.36,0,0,0,2.07-3.23,31.36,31.36,0,0,0,0-12.31,5.34,5.34,0,0,0-2.07-3.2A7.1,7.1,0,0,0,748,457.14Z" />
            <path class="cls-3"
                d="M772.4,454.37a13.69,13.69,0,0,1,4.87.7,4.56,4.56,0,0,1,2.57,2.42,12.19,12.19,0,0,1,.78,4.88,12.49,12.49,0,0,1-.76,4.88,4.39,4.39,0,0,1-2.48,2.43,12.68,12.68,0,0,1-4.61.69c-1,0-2,0-3-.08s-1.83-.12-2.62-.2-1.46-.18-2-.28a10.29,10.29,0,0,1-1.17-.26l.11-2h8.26a8.74,8.74,0,0,0,2.94-.46,2.7,2.7,0,0,0,1.56-1.56,11.19,11.19,0,0,0,0-6.35,2.78,2.78,0,0,0-1.56-1.56,8.09,8.09,0,0,0-2.94-.44c-2,0-3.77,0-5.24,0s-2.46.06-3,.11l-.52-2.63c.94-.1,1.81-.17,2.63-.22s1.7-.08,2.67-.1Zm-5.52.33v25.55h-3.26V454.7Z" />
            <path class="cls-3"
                d="M809.62,454.7a1.19,1.19,0,0,1,1.33,1.37L812,480.25h-3.26l-.93-22.85h-.78l-5.7,18.85a1.35,1.35,0,0,1-1.41,1.12H797a1.44,1.44,0,0,1-1.49-1.12l-5.7-18.85h-.74l-.89,22.85H785l1-24.18a1.26,1.26,0,0,1,1.37-1.37H791a1.36,1.36,0,0,1,1.37,1.11l4.77,15.59a15.76,15.76,0,0,1,.5,1.71c.14.56.29,1.14.47,1.74h.66c.18-.6.34-1.18.49-1.74s.3-1.16.48-1.78l4.78-15.52a1.33,1.33,0,0,1,1.4-1.11Z" />
            <path class="cls-3"
                d="M822.66,454.66h3.72c1.25,0,2.48,0,3.7.06s2.4.09,3.54.16l-.15,2.56H823.21a2.2,2.2,0,0,0-1.68.57,2.7,2.7,0,0,0-.54,1.87v15.19a2.77,2.77,0,0,0,.54,1.89,2.17,2.17,0,0,0,1.68.59h10.26l.15,2.52q-1.71.1-3.54.15l-3.7,0-3.72,0a5.11,5.11,0,0,1-3.58-1.2,4.29,4.29,0,0,1-1.35-3.24V459.11a4.27,4.27,0,0,1,1.35-3.26A5.16,5.16,0,0,1,822.66,454.66Zm-4.26,10.78H832v2.63H818.4Z" />
            <path class="cls-3"
                d="M858.36,454.7V479a1.13,1.13,0,0,1-1.26,1.29h-3.18A1.42,1.42,0,0,1,853,480a2,2,0,0,1-.56-.78l-8.63-18.11c-.22-.5-.48-1.05-.78-1.67a12.19,12.19,0,0,1-.66-1.7h-.6c.05.54.09,1.09.12,1.66s0,1.14,0,1.71v19.14h-3.26V456a1.15,1.15,0,0,1,1.3-1.29h3.07a1.43,1.43,0,0,1,.89.26,1.83,1.83,0,0,1,.56.78l8.37,17.66c.27.52.56,1.11.87,1.76s.6,1.3.87,1.95h.63c0-.67,0-1.32-.07-2s0-1.28,0-1.92V454.7Z" />
            <path class="cls-3" d="M882.21,454.7v2.89H862.47V454.7Zm-8.26,0v25.55h-3.26V454.7Z" />
            <circle class="cls-2" cx="281.87" cy="531.6" r="79.37" />
            <path class="cls-3"
                d="M273.84,524.1V532a8.4,8.4,0,0,1-.44,3,3,3,0,0,1-1.45,1.64,6,6,0,0,1-2.68.51,6.29,6.29,0,0,1-2.76-.51A3,3,0,0,1,265,535a7.91,7.91,0,0,1-.47-3V524.1h1.63V532a6.71,6.71,0,0,0,.29,2.18,2,2,0,0,0,1,1.15,3.92,3.92,0,0,0,1.78.34,3.85,3.85,0,0,0,1.77-.34,2,2,0,0,0,1-1.15,6.41,6.41,0,0,0,.3-2.18V524.1Z" />
            <path class="cls-3"
                d="M289,524.1a.6.6,0,0,1,.67.69l.54,12.09h-1.63l-.47-11.42h-.38l-2.86,9.42a.67.67,0,0,1-.7.56h-1.46a.71.71,0,0,1-.74-.56l-2.86-9.42h-.37l-.44,11.42h-1.63l.5-12.09a.63.63,0,0,1,.69-.69h1.85a.68.68,0,0,1,.68.56l2.39,7.8a8.29,8.29,0,0,1,.25.85c.07.28.15.57.23.87h.34l.24-.87c.07-.29.15-.58.24-.89l2.39-7.76a.66.66,0,0,1,.7-.56Z" />
            <path class="cls-3"
                d="M294.78,524.1v10.19a1.27,1.27,0,0,0,.31.93,1.31,1.31,0,0,0,.93.29h4.62l.07,1.26c-.8.06-1.62.1-2.45.11l-2.49,0a2.25,2.25,0,0,1-2.6-2.41V524.1Z" />
            <circle class="cls-2" cx="1243.77" cy="458.59" r="158.73" />
            <path class="cls-3"
                d="M1188.25,443.25a14.29,14.29,0,0,1,4.65.67,6.42,6.42,0,0,1,3.07,2.19,9.92,9.92,0,0,1,1.71,4,36.82,36.82,0,0,1,0,12.45,9.92,9.92,0,0,1-1.71,4,6.36,6.36,0,0,1-3.07,2.19,14.29,14.29,0,0,1-4.65.67c-1.75,0-3.37,0-4.87-.1s-2.91-.14-4.24-.24l1.41-2.66,3.46.09c1.27,0,2.69.05,4.24.05a7,7,0,0,0,3.89-.94,5.29,5.29,0,0,0,2.06-3.19,31.06,31.06,0,0,0,0-12.25,5.37,5.37,0,0,0-2.06-3.21,6.93,6.93,0,0,0-3.89-1c-1.53,0-2.91,0-4.13,0l-3.57.07-1.41-2.59c1.33-.1,2.75-.18,4.24-.24S1186.5,443.25,1188.25,443.25Zm-5.85.34v25.55h-3.26V443.59Z" />
            <path class="cls-3"
                d="M1212.88,443.11a14.76,14.76,0,0,1,4.72.66,6.37,6.37,0,0,1,3.11,2.21,10.08,10.08,0,0,1,1.71,4.09,37.65,37.65,0,0,1,0,12.59,10.08,10.08,0,0,1-1.71,4.09,6.37,6.37,0,0,1-3.11,2.21,17.21,17.21,0,0,1-9.44,0,6.51,6.51,0,0,1-3.13-2.21,9.82,9.82,0,0,1-1.72-4.09,37,37,0,0,1,0-12.59A9.82,9.82,0,0,1,1205,446a6.51,6.51,0,0,1,3.13-2.21A14.76,14.76,0,0,1,1212.88,443.11Zm0,2.92a7.17,7.17,0,0,0-4,1,5.33,5.33,0,0,0-2.08,3.21,31.36,31.36,0,0,0,0,12.31,5.35,5.35,0,0,0,2.08,3.23,8.73,8.73,0,0,0,8,0,5.35,5.35,0,0,0,2.08-3.23,31.36,31.36,0,0,0,0-12.31,5.33,5.33,0,0,0-2.08-3.21A7.17,7.17,0,0,0,1212.88,446Z" />
            <path class="cls-3"
                d="M1237.55,443.14c1.08,0,2,0,2.79.08a21,21,0,0,1,2.15.24c.66.11,1.33.25,2,.42l-.33,2.48-2.06-.18c-.63-.05-1.3-.09-2-.11s-1.57,0-2.55,0a7,7,0,0,0-3.93,1,5.37,5.37,0,0,0-2,3.23,31.26,31.26,0,0,0,0,12.29,5.37,5.37,0,0,0,2,3.23,7,7,0,0,0,3.93,1c1.58,0,2.91,0,4-.09s2.13-.17,3.17-.32l.33,2.45a22.12,22.12,0,0,1-3.28.64,34.82,34.82,0,0,1-4.2.21,11.67,11.67,0,0,1-5.87-1.28,7.3,7.3,0,0,1-3.19-4.17,31.33,31.33,0,0,1,0-15.55,7.3,7.3,0,0,1,3.19-4.17A11.67,11.67,0,0,1,1237.55,443.14Z" />
            <path class="cls-3"
                d="M1252.81,443.59v8a20.23,20.23,0,0,1-.11,2.11c-.08.66-.19,1.36-.34,2.07.13.69.23,1.39.32,2.08a17.35,17.35,0,0,1,.13,2v9.29h-3.23V443.59Zm3.77,10.92v2.63h-4.92v-2.63ZM1267,443.59l-7.45,10.59a7.77,7.77,0,0,1-.64.83c-.21.24-.47.5-.76.8v.07c.32.3.61.6.89.89a7.77,7.77,0,0,1,.7.89l7.78,11.48h-3.67l-9.07-13.37,8.66-12.18Z" />
            <path class="cls-3"
                d="M1275.92,443.55h3.72c1.25,0,2.48,0,3.7.06s2.41.09,3.54.16l-.15,2.56h-10.26a2.22,2.22,0,0,0-1.68.57,2.7,2.7,0,0,0-.54,1.87V464a2.77,2.77,0,0,0,.54,1.89,2.18,2.18,0,0,0,1.68.59h10.26l.15,2.52q-1.7.1-3.54.15l-3.7.05-3.72,0a5.11,5.11,0,0,1-3.58-1.2,4.36,4.36,0,0,1-1.35-3.24V448a4.3,4.3,0,0,1,1.35-3.25A5.16,5.16,0,0,1,1275.92,443.55Zm-4.26,10.78h13.63V457h-13.63Z" />
            <path class="cls-3"
                d="M1300.77,443.25a14.57,14.57,0,0,1,4.78.65,4.62,4.62,0,0,1,2.65,2.24,9.91,9.91,0,0,1,.83,4.48,10.75,10.75,0,0,1-.48,3.47,4.42,4.42,0,0,1-1.5,2.15,5.84,5.84,0,0,1-2.72,1v.18a3.33,3.33,0,0,1,1.24.61,5.33,5.33,0,0,1,1.9,3.06l2.49,8.07h-3.49l-2.26-8a4.08,4.08,0,0,0-1.29-2.05,3.43,3.43,0,0,0-2.11-.61l-3.93,0c-1.11,0-2,0-2.78-.06l-1.77,0,.11-2.7h8.26a9.24,9.24,0,0,0,3-.44,2.68,2.68,0,0,0,1.57-1.47,7.25,7.25,0,0,0,.48-2.94,7,7,0,0,0-.48-2.91,2.69,2.69,0,0,0-1.57-1.42,8.57,8.57,0,0,0-3-.41c-2,0-3.78,0-5.24,0l-3,0-.51-2.55c.93-.1,1.81-.18,2.62-.22s1.71-.09,2.69-.1Zm-5.59.34v25.55H1292V443.59Z" />
            <circle class="cls-2" cx="891.39" cy="149.59" r="79.37" />
            <path class="cls-3"
                d="M865.47,131l-3.87,12.31a.78.78,0,0,1-.24.33.6.6,0,0,1-.39.14h-1.65a.64.64,0,0,1-.41-.14.67.67,0,0,1-.22-.33L854.82,131h1.69l3,10.13c.07.23.13.47.2.69a5.49,5.49,0,0,1,.17.7h.5c.07-.24.13-.47.19-.71s.13-.46.2-.7l3-10.11Z" />
            <path class="cls-3"
                d="M869.75,131h1.86c.62,0,1.24,0,1.85,0l1.77.08-.08,1.28H870a1.11,1.11,0,0,0-.84.29,1.32,1.32,0,0,0-.27.93v7.59a1.38,1.38,0,0,0,.27,1,1.08,1.08,0,0,0,.84.3h5.13l.08,1.25c-.57,0-1.16.07-1.77.08l-1.85,0h-1.86a2.51,2.51,0,0,1-1.79-.61,2.13,2.13,0,0,1-.68-1.62v-8.37a2.14,2.14,0,0,1,.68-1.63A2.59,2.59,0,0,1,869.75,131Zm-2.13,5.39h6.81v1.31h-6.81Z" />
            <path class="cls-3"
                d="M882.17,130.81a7.12,7.12,0,0,1,2.39.33,2.29,2.29,0,0,1,1.33,1.12,5,5,0,0,1,.41,2.24,5.34,5.34,0,0,1-.24,1.73,2.17,2.17,0,0,1-.75,1.07,2.75,2.75,0,0,1-1.36.49v.1a1.69,1.69,0,0,1,.62.3,3.06,3.06,0,0,1,.57.61,2.74,2.74,0,0,1,.38.92l1.25,4H885l-1.12-4a2.13,2.13,0,0,0-.65-1,1.75,1.75,0,0,0-1.06-.31h-2l-1.39,0-.89,0L878,137h4.13a4.75,4.75,0,0,0,1.49-.23,1.34,1.34,0,0,0,.78-.73,3.62,3.62,0,0,0,.24-1.47,3.49,3.49,0,0,0-.24-1.45,1.38,1.38,0,0,0-.78-.72,4.57,4.57,0,0,0-1.49-.2l-2.62,0-1.5,0-.25-1.28c.46,0,.9-.09,1.31-.11s.85,0,1.34-.05Zm-2.79.17v12.78h-1.61V131Z" />
            <path class="cls-3"
                d="M892.77,130.76c.6,0,1.22,0,1.87.09a14.11,14.11,0,0,1,1.92.28l-.11,1.18-1.76-.06-1.85,0c-.46,0-.85,0-1.18.05a2,2,0,0,0-.8.22,1.06,1.06,0,0,0-.46.57,3.63,3.63,0,0,0-.13,1.1,2.24,2.24,0,0,0,.37,1.48,2.53,2.53,0,0,0,1.24.62l2.59.65a3.07,3.07,0,0,1,2,1.23,4.46,4.46,0,0,1,.54,2.36,5.2,5.2,0,0,1-.25,1.79,2,2,0,0,1-.77,1.05,3.22,3.22,0,0,1-1.33.5,11.8,11.8,0,0,1-1.92.14c-.42,0-1,0-1.64-.06a17.56,17.56,0,0,1-2.33-.29l.11-1.21,1.76.07,1.15,0h1a6.31,6.31,0,0,0,1.55-.15,1.19,1.19,0,0,0,.79-.59,2.89,2.89,0,0,0,.23-1.32,3.2,3.2,0,0,0-.16-1.15,1.24,1.24,0,0,0-.53-.62,3.48,3.48,0,0,0-.92-.34l-2.64-.67a3.11,3.11,0,0,1-2-1.22,4.3,4.3,0,0,1-.56-2.33,5.2,5.2,0,0,1,.25-1.79,2,2,0,0,1,.76-1,2.94,2.94,0,0,1,1.28-.45A12.56,12.56,0,0,1,892.77,130.76Z" />
            <path class="cls-3" d="M901.23,131v12.78H899.6V131Z" />
            <path class="cls-3"
                d="M909,130.74a7.34,7.34,0,0,1,2.36.33,3.21,3.21,0,0,1,1.56,1.1,5.16,5.16,0,0,1,.85,2.05,18.51,18.51,0,0,1,0,6.3,5,5,0,0,1-.85,2,3.15,3.15,0,0,1-1.56,1.1A7.05,7.05,0,0,1,909,144a7.13,7.13,0,0,1-2.36-.34,3.15,3.15,0,0,1-1.56-1.1,4.91,4.91,0,0,1-.86-2,18.51,18.51,0,0,1,0-6.3,5,5,0,0,1,.86-2.05,3.21,3.21,0,0,1,1.56-1.1A7.42,7.42,0,0,1,909,130.74Zm0,1.46a3.59,3.59,0,0,0-2,.48,2.68,2.68,0,0,0-1,1.61,15.41,15.41,0,0,0,0,6.15,2.65,2.65,0,0,0,1,1.61,4.29,4.29,0,0,0,4,0,2.61,2.61,0,0,0,1-1.61,15.41,15.41,0,0,0,0-6.15,2.64,2.64,0,0,0-1-1.61A3.57,3.57,0,0,0,909,132.2Z" />
            <path class="cls-3"
                d="M926.65,131v12.13a.57.57,0,0,1-.63.65h-1.59a.74.74,0,0,1-.44-.13,1,1,0,0,1-.28-.39l-4.32-9.06-.39-.83a7.31,7.31,0,0,1-.33-.85h-.29c0,.27,0,.55,0,.83s0,.57,0,.85v9.58h-1.63V131.63a.58.58,0,0,1,.65-.65H919a.69.69,0,0,1,.45.13,1.09,1.09,0,0,1,.28.39l4.18,8.83c.14.26.28.55.44.88s.3.65.43,1h.32c0-.33,0-.66,0-1s0-.64,0-1V131Z" />
            <path class="cls-3"
                d="M857.81,153c.54,0,1,0,1.4,0a8.12,8.12,0,0,1,1.07.12,9.56,9.56,0,0,1,1,.21l-.16,1.24-1-.09c-.32,0-.65-.05-1-.06l-1.28,0a3.41,3.41,0,0,0-2,.49,2.65,2.65,0,0,0-1,1.61,15.36,15.36,0,0,0,0,6.14,2.67,2.67,0,0,0,1,1.62,3.49,3.49,0,0,0,2,.48c.79,0,1.45,0,2,0s1.07-.08,1.59-.16l.16,1.23a12.51,12.51,0,0,1-1.64.32,17.54,17.54,0,0,1-2.1.1,5.76,5.76,0,0,1-2.93-.64,3.62,3.62,0,0,1-1.6-2.08,15.69,15.69,0,0,1,0-7.78,3.62,3.62,0,0,1,1.6-2.08A5.76,5.76,0,0,1,857.81,153Z" />
            <path class="cls-3"
                d="M868.2,153a7.38,7.38,0,0,1,2.36.33,3.23,3.23,0,0,1,1.56,1.11,5,5,0,0,1,.85,2,18.51,18.51,0,0,1,0,6.3,5.16,5.16,0,0,1-.85,2,3.28,3.28,0,0,1-1.56,1.1,8.6,8.6,0,0,1-4.72,0,3.36,3.36,0,0,1-1.57-1.1,5.16,5.16,0,0,1-.86-2,18.51,18.51,0,0,1,0-6.3,5,5,0,0,1,.86-2,3.3,3.3,0,0,1,1.57-1.11A7.38,7.38,0,0,1,868.2,153Zm0,1.46a3.51,3.51,0,0,0-2,.49,2.66,2.66,0,0,0-1,1.6,15.91,15.91,0,0,0,0,6.15,2.68,2.68,0,0,0,1,1.62,4.37,4.37,0,0,0,4,0,2.68,2.68,0,0,0,1-1.62,15.91,15.91,0,0,0,0-6.15,2.66,2.66,0,0,0-1-1.6A3.51,3.51,0,0,0,868.2,154.42Z" />
            <path class="cls-3"
                d="M885.83,153.2v12.13a.57.57,0,0,1-.63.65h-1.59a.69.69,0,0,1-.45-.13,1,1,0,0,1-.27-.39l-4.32-9.05q-.17-.37-.39-.84a4.9,4.9,0,0,1-.33-.85h-.3c0,.27.05.55.06.83s0,.57,0,.86V166H876V153.85a.57.57,0,0,1,.64-.65h1.54a.75.75,0,0,1,.45.13,1,1,0,0,1,.27.39l4.19,8.83c.14.26.28.56.43.88s.3.65.44,1h.31l0-1c0-.32,0-.64,0-1V153.2Z" />
            <path class="cls-3" d="M897.76,153.2v1.45h-9.87V153.2Zm-4.13,0V166H892V153.2Z" />
            <path class="cls-3"
                d="M904.22,153a7.19,7.19,0,0,1,2.39.32,2.34,2.34,0,0,1,1.32,1.12,4.88,4.88,0,0,1,.42,2.24,5.34,5.34,0,0,1-.24,1.73,2.25,2.25,0,0,1-.75,1.08A3,3,0,0,1,906,160v.09a1.77,1.77,0,0,1,.62.3,2.62,2.62,0,0,1,.56.62,2.81,2.81,0,0,1,.39.91l1.24,4h-1.74l-1.13-4a2.11,2.11,0,0,0-.65-1,1.72,1.72,0,0,0-1-.3h-2l-1.38,0-.89,0,0-1.35h4.13a4.74,4.74,0,0,0,1.49-.22,1.36,1.36,0,0,0,.79-.73,3.71,3.71,0,0,0,.24-1.48,3.49,3.49,0,0,0-.24-1.45,1.32,1.32,0,0,0-.79-.71,4.25,4.25,0,0,0-1.49-.21l-2.62,0-1.49,0-.26-1.28c.47,0,.91-.08,1.32-.11l1.34-.05Zm-2.8.16V166h-1.61V153.2Z" />
            <path class="cls-3"
                d="M915.83,153a7.38,7.38,0,0,1,2.36.33,3.23,3.23,0,0,1,1.56,1.11,5,5,0,0,1,.85,2,18.51,18.51,0,0,1,0,6.3,5.16,5.16,0,0,1-.85,2,3.28,3.28,0,0,1-1.56,1.1,8.6,8.6,0,0,1-4.72,0,3.36,3.36,0,0,1-1.57-1.1,5.16,5.16,0,0,1-.86-2,18.51,18.51,0,0,1,0-6.3,5,5,0,0,1,.86-2,3.3,3.3,0,0,1,1.57-1.11A7.38,7.38,0,0,1,915.83,153Zm0,1.46a3.51,3.51,0,0,0-2,.49,2.66,2.66,0,0,0-1,1.6,15.91,15.91,0,0,0,0,6.15,2.68,2.68,0,0,0,1,1.62,4.37,4.37,0,0,0,4,0,2.68,2.68,0,0,0,1-1.62,15.91,15.91,0,0,0,0-6.15,2.66,2.66,0,0,0-1-1.6A3.51,3.51,0,0,0,915.83,154.42Z" />
            <path class="cls-3"
                d="M925.2,153.2v10.19a1.19,1.19,0,0,0,.31.92,1.27,1.27,0,0,0,.93.3h4.61l.08,1.26c-.81.06-1.62.1-2.46.11l-2.49,0a2.52,2.52,0,0,1-2-.69,2.55,2.55,0,0,1-.59-1.72V153.2Z" />
            <circle class="cls-2" cx="1155.95" cy="113.61" r="79.37" />
            <path class="cls-3"
                d="M1149,105.87c.43,0,.85,0,1.26,0a11.41,11.41,0,0,1,1.19.12,9.92,9.92,0,0,1,1.11.23l-.17,1.22-1.16-.09-1.12,0h-1a6.78,6.78,0,0,0-1.75.19,2.07,2.07,0,0,0-1.13.75,3.67,3.67,0,0,0-.63,1.59,16.32,16.32,0,0,0-.19,2.71,14.09,14.09,0,0,0,.26,3,2.86,2.86,0,0,0,.87,1.62,2.52,2.52,0,0,0,1.63.5,3.79,3.79,0,0,0,1.29-.21,4.78,4.78,0,0,0,1.09-.53c.34-.21.67-.44,1-.67l.22,1a5.39,5.39,0,0,1-.91.81,5.73,5.73,0,0,1-1.37.73,5,5,0,0,1-1.75.29,3.66,3.66,0,0,1-2.33-.71,4.05,4.05,0,0,1-1.3-2.19,14,14,0,0,1-.41-3.76,12.32,12.32,0,0,1,.51-4,3.43,3.43,0,0,1,1.68-2A7,7,0,0,1,1149,105.87Zm3.89,5.63v7.39h-1.18l-.26-1.89-.15-.37V111.5Z" />
            <path class="cls-3" d="M1157.4,106.11v12.78h-1.63V106.11Z" />
            <path class="cls-3" d="M1169.33,106.11v1.45h-9.87v-1.45Zm-4.13,0v12.78h-1.63V106.11Z" />
            <circle class="cls-2" cx="540.07" cy="187.69" r="79.37" />
            <path class="cls-3"
                d="M514.83,180q.64,0,1.26,0c.41,0,.8.07,1.18.12s.76.14,1.11.23l-.16,1.23-1.16-.1c-.39,0-.76,0-1.12,0h-1a6.78,6.78,0,0,0-1.75.19,2.13,2.13,0,0,0-1.14.75,3.79,3.79,0,0,0-.62,1.6,15.18,15.18,0,0,0-.19,2.7,13.47,13.47,0,0,0,.26,3,2.8,2.8,0,0,0,.87,1.62,2.5,2.5,0,0,0,1.63.5,4,4,0,0,0,1.28-.2,5.88,5.88,0,0,0,1.1-.53c.34-.22.67-.44,1-.68l.22,1a5.55,5.55,0,0,1-.92.82,6,6,0,0,1-1.36.72,4.85,4.85,0,0,1-1.76.3,3.59,3.59,0,0,1-2.32-.72,4,4,0,0,1-1.31-2.18,14.58,14.58,0,0,1-.4-3.77,12.58,12.58,0,0,1,.5-4,3.43,3.43,0,0,1,1.69-2A7,7,0,0,1,514.83,180Zm3.89,5.63V193h-1.19l-.26-1.88-.14-.37v-5.13Z" />
            <path class="cls-3" d="M523.22,180.19V193h-1.63V180.19Z" />
            <path class="cls-3" d="M535.14,180.19v1.44h-9.87v-1.44Zm-4.13,0V193h-1.63V180.19Z" />
            <path class="cls-3"
                d="M538.83,180.19V193H537.2V180.19Zm6.09,5.24v1.4h-6.24v-1.4Zm1.43-5.24V193h-1.63V180.19Z" />
            <path class="cls-3"
                d="M558.77,180.19v7.89a8.26,8.26,0,0,1-.44,3,3,3,0,0,1-1.45,1.64,5.92,5.92,0,0,1-2.68.51,6.29,6.29,0,0,1-2.76-.51,3.06,3.06,0,0,1-1.5-1.64,8,8,0,0,1-.46-3v-7.89h1.63v7.89a6.72,6.72,0,0,0,.28,2.17,2,2,0,0,0,1,1.15,3.86,3.86,0,0,0,1.78.34,3.77,3.77,0,0,0,1.76-.34,2,2,0,0,0,1-1.15,6.69,6.69,0,0,0,.29-2.17v-7.89Z" />
            <path class="cls-3"
                d="M566.05,180a8.43,8.43,0,0,1,2.5.29,2.19,2.19,0,0,1,1.34,1,4.14,4.14,0,0,1,.42,2,3.58,3.58,0,0,1-.51,2.09,2.15,2.15,0,0,1-1.66.84v.07a2.48,2.48,0,0,1,2,1,4.36,4.36,0,0,1,.57,2.41,4.23,4.23,0,0,1-.41,2,2.24,2.24,0,0,1-1.3,1,8.05,8.05,0,0,1-2.36.28h-1.88c-.53,0-1,0-1.46,0l-1.39-.1.26-1.29,1.55,0h2.66a5.74,5.74,0,0,0,1.6-.17,1.33,1.33,0,0,0,.83-.66,3,3,0,0,0,.25-1.39,3.69,3.69,0,0,0-.26-1.54,1.45,1.45,0,0,0-.87-.75,5.44,5.44,0,0,0-1.67-.25h-4.11v-1.24h4.1a5.2,5.2,0,0,0,1.47-.19,1.32,1.32,0,0,0,.79-.65,2.93,2.93,0,0,0,.24-1.32,2.84,2.84,0,0,0-.26-1.34,1.42,1.42,0,0,0-.86-.63,6.55,6.55,0,0,0-1.64-.16h-2.9c-.37,0-.67,0-.92,0l-.26-1.29c.43-.05.85-.09,1.23-.11s.82,0,1.28,0Zm-2.55.15V193h-1.6V180.19Z" />
            <circle class="cls-2" cx="81.87" cy="805.68" r="79.37" />
            <path class="cls-3"
                d="M70.37,797.94a7.44,7.44,0,0,1,2.37.33,3.25,3.25,0,0,1,1.55,1.11,5,5,0,0,1,.85,2,18.51,18.51,0,0,1,0,6.3,5,5,0,0,1-.85,2,3.25,3.25,0,0,1-1.55,1.11,8.64,8.64,0,0,1-4.73,0,3.28,3.28,0,0,1-1.56-1.11,4.91,4.91,0,0,1-.86-2,18.51,18.51,0,0,1,0-6.3,4.91,4.91,0,0,1,.86-2A3.28,3.28,0,0,1,68,798.27,7.42,7.42,0,0,1,70.37,797.94Zm0,1.46a3.62,3.62,0,0,0-2,.48,2.71,2.71,0,0,0-1,1.61,15.41,15.41,0,0,0,0,6.15,2.65,2.65,0,0,0,1,1.61,4.31,4.31,0,0,0,4,0,2.65,2.65,0,0,0,1-1.61,15.41,15.41,0,0,0,0-6.15,2.71,2.71,0,0,0-1-1.61A3.63,3.63,0,0,0,70.37,799.4Z" />
            <path class="cls-3"
                d="M82.75,797.94a7.42,7.42,0,0,1,2.36.33,3.25,3.25,0,0,1,1.55,1.11,5,5,0,0,1,.85,2,18.51,18.51,0,0,1,0,6.3,5,5,0,0,1-.85,2,3.25,3.25,0,0,1-1.55,1.11,8.64,8.64,0,0,1-4.73,0,3.28,3.28,0,0,1-1.56-1.11,4.91,4.91,0,0,1-.86-2,18.51,18.51,0,0,1,0-6.3,4.91,4.91,0,0,1,.86-2,3.28,3.28,0,0,1,1.56-1.11A7.44,7.44,0,0,1,82.75,797.94Zm0,1.46a3.63,3.63,0,0,0-2,.48,2.71,2.71,0,0,0-1,1.61,15.41,15.41,0,0,0,0,6.15,2.65,2.65,0,0,0,1,1.61,4.31,4.31,0,0,0,4,0,2.65,2.65,0,0,0,1-1.61,15.41,15.41,0,0,0,0-6.15,2.71,2.71,0,0,0-1-1.61A3.62,3.62,0,0,0,82.75,799.4Z" />
            <path class="cls-3"
                d="M94.93,798a6.75,6.75,0,0,1,2.44.36,2.24,2.24,0,0,1,1.28,1.21A6,6,0,0,1,99,802a6.38,6.38,0,0,1-.38,2.45,2.17,2.17,0,0,1-1.24,1.21,6.31,6.31,0,0,1-2.3.34q-.78,0-1.5,0l-1.3-.1c-.4,0-.73-.09-1-.14s-.47-.1-.58-.13l0-1h4.13a4.61,4.61,0,0,0,1.47-.23,1.36,1.36,0,0,0,.78-.78,4.24,4.24,0,0,0,.23-1.59,4.17,4.17,0,0,0-.23-1.59,1.36,1.36,0,0,0-.78-.78,4.14,4.14,0,0,0-1.47-.22l-2.62,0c-.73,0-1.23,0-1.49.06l-.26-1.32c.47,0,.91-.09,1.32-.11l1.33-.05Zm-2.76.17V811H90.54V798.18Z" />
            <circle class="cls-2" cx="414.14" cy="745.36" r="132.28" />
            <path class="cls-3"
                d="M306.74,718.46c.86,0,1.75.06,2.67.13a20.26,20.26,0,0,1,2.75.4l-.16,1.69c-.76,0-1.6-.07-2.51-.09s-1.8,0-2.65,0q-1,0-1.68.06a3,3,0,0,0-1.15.32,1.47,1.47,0,0,0-.65.82,5,5,0,0,0-.2,1.57,3.16,3.16,0,0,0,.55,2.11,3.38,3.38,0,0,0,1.76.88l3.7.93a4.43,4.43,0,0,1,2.9,1.76,6.34,6.34,0,0,1,.78,3.37,7.59,7.59,0,0,1-.36,2.57,3,3,0,0,1-1.1,1.49,4.69,4.69,0,0,1-1.9.72,16.92,16.92,0,0,1-2.75.2c-.6,0-1.38,0-2.35-.08a28.6,28.6,0,0,1-3.32-.43l.16-1.72,2.52.1c.63,0,1.18,0,1.64,0h1.43A8.51,8.51,0,0,0,309,735a1.68,1.68,0,0,0,1.14-.84,4.22,4.22,0,0,0,.33-1.88,4.44,4.44,0,0,0-.24-1.64,1.78,1.78,0,0,0-.75-.89,4.93,4.93,0,0,0-1.31-.49l-3.78-.95a4.38,4.38,0,0,1-2.79-1.75,6,6,0,0,1-.81-3.33,7.42,7.42,0,0,1,.36-2.55,3,3,0,0,1,1.08-1.46,4.4,4.4,0,0,1,1.84-.64A18.36,18.36,0,0,1,306.74,718.46Z" />
            <path class="cls-3"
                d="M323,718.43a10.46,10.46,0,0,1,3.38.48,4.58,4.58,0,0,1,2.22,1.57,7.27,7.27,0,0,1,1.21,2.92,26.16,26.16,0,0,1,0,9,7.21,7.21,0,0,1-1.21,2.92,4.66,4.66,0,0,1-2.22,1.58,12.35,12.35,0,0,1-6.75,0,4.72,4.72,0,0,1-2.24-1.58,7.21,7.21,0,0,1-1.23-2.92,26.83,26.83,0,0,1,0-9,7.28,7.28,0,0,1,1.23-2.92,4.63,4.63,0,0,1,2.24-1.57A10.4,10.4,0,0,1,323,718.43Zm0,2.09a5.08,5.08,0,0,0-2.84.69,3.77,3.77,0,0,0-1.48,2.29,22.17,22.17,0,0,0,0,8.79,3.8,3.8,0,0,0,1.48,2.31,5.16,5.16,0,0,0,2.84.68,5.22,5.22,0,0,0,2.85-.68,3.84,3.84,0,0,0,1.48-2.31,22.68,22.68,0,0,0,0-8.79,3.82,3.82,0,0,0-1.48-2.29A5.14,5.14,0,0,0,323,720.52Z" />
            <path class="cls-3"
                d="M337.64,718.75h2.56l2.57,0c.84,0,1.66.06,2.43.13l-.13,1.8h-6.85a1.9,1.9,0,0,0-1.35.41,1.82,1.82,0,0,0-.43,1.34V737h-2.32V722a3.07,3.07,0,0,1,.95-2.42A3.65,3.65,0,0,1,337.64,718.75Zm-3.07,8h9.49v1.88h-9.49Z" />
            <path class="cls-3" d="M360.86,718.77v2.07h-14.1v-2.07Zm-5.9,0V737h-2.33V718.77Z" />
            <path class="cls-3"
                d="M385.76,718.77l-3.71,17.57a.94.94,0,0,1-.31.49,1,1,0,0,1-.61.2h-2.65a.92.92,0,0,1-.59-.2.8.8,0,0,1-.31-.52l-2.85-13.73c-.08-.35-.15-.7-.22-1l-.21-1h-.55c-.07.34-.14.68-.2,1s-.13.7-.2,1l-2.83,13.73a.87.87,0,0,1-.33.52,1,1,0,0,1-.6.2h-2.67a.92.92,0,0,1-.59-.2.79.79,0,0,1-.31-.49l-3.7-17.57h2.46L367.64,733c.07.33.13.69.18,1.07s.12.77.19,1.18h.6c.07-.41.14-.8.22-1.17s.14-.73.21-1.08l2.83-13.47a.82.82,0,0,1,.3-.55.92.92,0,0,1,.6-.22h2.54a.85.85,0,0,1,.58.22,1,1,0,0,1,.32.55L379,733c.09.39.16.76.22,1.13s.11.75.15,1.12h.66c.05-.37.1-.75.16-1.13s.11-.74.18-1.1l2.89-14.26Z" />
            <path class="cls-3"
                d="M395.44,718.77a.91.91,0,0,1,.56.18.83.83,0,0,1,.31.46L402.19,737h-2.41l-4.74-15c-.07-.24-.14-.49-.22-.75l-.23-.73h-.74c-.07.23-.14.48-.21.73s-.15.51-.24.75l-4.73,15h-2.41l5.87-17.62a.84.84,0,0,1,.32-.46.89.89,0,0,1,.56-.18Zm3.39,10.53v2h-9.26v-2Z" />
            <path class="cls-3"
                d="M411.05,718.54a10.31,10.31,0,0,1,3.41.46,3.28,3.28,0,0,1,1.89,1.6,7,7,0,0,1,.6,3.2,7.56,7.56,0,0,1-.35,2.47,3.07,3.07,0,0,1-1.07,1.54,4.12,4.12,0,0,1-1.94.7v.13a2.35,2.35,0,0,1,.88.44,3.59,3.59,0,0,1,.81.87,4,4,0,0,1,.56,1.31l1.77,5.77h-2.49l-1.61-5.72a2.93,2.93,0,0,0-.93-1.46,2.4,2.4,0,0,0-1.51-.44h-2.8l-2,0-1.27,0,.08-1.93H411a6.64,6.64,0,0,0,2.13-.32,1.91,1.91,0,0,0,1.12-1,5.24,5.24,0,0,0,.34-2.11,4.94,4.94,0,0,0-.34-2.07,1.91,1.91,0,0,0-1.12-1,6.21,6.21,0,0,0-2.13-.29l-3.75,0-2.13,0-.37-1.83c.67-.07,1.3-.12,1.88-.15s1.22-.06,1.92-.07Zm-4,.23V737h-2.3V718.77Z" />
            <path class="cls-3"
                d="M424.46,718.75h2.66c.89,0,1.77,0,2.65,0s1.71.06,2.52.12l-.1,1.82h-7.33a1.61,1.61,0,0,0-1.21.41,2,2,0,0,0-.38,1.34v10.84a2,2,0,0,0,.38,1.35,1.54,1.54,0,0,0,1.21.43h7.33l.1,1.8c-.81.05-1.65.08-2.52.1l-2.65,0h-2.66a3.62,3.62,0,0,1-2.55-.85,3.09,3.09,0,0,1-1-2.32v-12a3,3,0,0,1,1-2.32A3.62,3.62,0,0,1,424.46,718.75Zm-3,7.7h9.73v1.87h-9.73Z" />
            <path class="cls-3"
                d="M448.32,718.54a10.33,10.33,0,0,1,3.32.47,4.68,4.68,0,0,1,2.2,1.56,7.33,7.33,0,0,1,1.22,2.89,26.19,26.19,0,0,1,0,8.89,7.22,7.22,0,0,1-1.22,2.88,4.68,4.68,0,0,1-2.2,1.56,10,10,0,0,1-3.32.48c-1.25,0-2.41,0-3.48-.07s-2.07-.1-3-.17l1-1.91,2.47.07c.91,0,1.92,0,3,0a4.93,4.93,0,0,0,2.78-.68,3.7,3.7,0,0,0,1.47-2.27,22,22,0,0,0,0-8.76,3.84,3.84,0,0,0-1.47-2.29,5,5,0,0,0-2.78-.68l-2.95,0-2.55.06-1-1.86c.95-.07,2-.12,3-.17S447.07,718.54,448.32,718.54Zm-4.18.23V737h-2.32V718.77Z" />
            <path class="cls-3"
                d="M462.74,718.75h2.66c.89,0,1.77,0,2.65,0s1.71.06,2.52.12l-.1,1.82h-7.33a1.61,1.61,0,0,0-1.21.41,2,2,0,0,0-.38,1.34v10.84a2,2,0,0,0,.38,1.35,1.54,1.54,0,0,0,1.21.43h7.33l.1,1.8c-.81.05-1.65.08-2.52.1l-2.65,0h-2.66a3.64,3.64,0,0,1-2.55-.85,3.09,3.09,0,0,1-1-2.32v-12a3,3,0,0,1,1-2.32A3.64,3.64,0,0,1,462.74,718.75Zm-3,7.7h9.73v1.87H459.7Z" />
            <path class="cls-3"
                d="M479.27,718.46c.87,0,1.76.06,2.68.13a20.26,20.26,0,0,1,2.75.4l-.16,1.69c-.76,0-1.6-.07-2.51-.09s-1.8,0-2.65,0q-1,0-1.68.06a3,3,0,0,0-1.15.32,1.43,1.43,0,0,0-.65.82,5,5,0,0,0-.2,1.57,3.11,3.11,0,0,0,.55,2.11,3.38,3.38,0,0,0,1.76.88l3.7.93a4.43,4.43,0,0,1,2.9,1.76,6.34,6.34,0,0,1,.78,3.37,7.59,7.59,0,0,1-.36,2.57,3,3,0,0,1-1.1,1.49,4.69,4.69,0,0,1-1.9.72,17,17,0,0,1-2.76.2c-.59,0-1.37,0-2.34-.08a28.6,28.6,0,0,1-3.32-.43l.16-1.72,2.52.1c.63,0,1.18,0,1.64,0h1.42a8.54,8.54,0,0,0,2.21-.22,1.68,1.68,0,0,0,1.14-.84,4.22,4.22,0,0,0,.33-1.88,4.44,4.44,0,0,0-.24-1.64,1.83,1.83,0,0,0-.75-.89,4.93,4.93,0,0,0-1.31-.49l-3.78-.95a4.38,4.38,0,0,1-2.79-1.75,6,6,0,0,1-.81-3.33,7.42,7.42,0,0,1,.36-2.55,2.92,2.92,0,0,1,1.08-1.46,4.4,4.4,0,0,1,1.84-.64A18.31,18.31,0,0,1,479.27,718.46Z" />
            <path class="cls-3" d="M491.37,718.77V737H489V718.77Z" />
            <path class="cls-3"
                d="M502.93,718.43c.61,0,1.21,0,1.79.05s1.15.1,1.7.18A12.12,12.12,0,0,1,508,719l-.24,1.74-1.66-.13c-.55,0-1.09-.06-1.6-.07h-1.45a9.42,9.42,0,0,0-2.5.28,3,3,0,0,0-1.63,1.07,5.52,5.52,0,0,0-.89,2.27,22.42,22.42,0,0,0-.27,3.87,19.68,19.68,0,0,0,.37,4.3,4.06,4.06,0,0,0,1.24,2.31,3.55,3.55,0,0,0,2.33.72,5.42,5.42,0,0,0,1.84-.3,7.47,7.47,0,0,0,1.56-.75c.48-.31.95-.63,1.41-1l.32,1.43a7.87,7.87,0,0,1-1.31,1.17,8.27,8.27,0,0,1-1.94,1,7.08,7.08,0,0,1-2.52.42,5.2,5.2,0,0,1-3.32-1,5.83,5.83,0,0,1-1.86-3.12,20.53,20.53,0,0,1-.58-5.38,17.79,17.79,0,0,1,.72-5.68,4.92,4.92,0,0,1,2.41-2.89A10,10,0,0,1,502.93,718.43Zm5.55,8V737h-1.69l-.37-2.7-.21-.53v-7.33Z" />
            <path class="cls-3"
                d="M526.63,718.77V736.1a.81.81,0,0,1-.9.93h-2.28a1,1,0,0,1-.63-.19,1.33,1.33,0,0,1-.4-.55l-6.16-12.94-.56-1.19a7.34,7.34,0,0,1-.47-1.22h-.43c0,.39.07.79.08,1.19s0,.82,0,1.22V737h-2.33V719.7a.82.82,0,0,1,.93-.93h2.19a1,1,0,0,1,.64.19,1.3,1.3,0,0,1,.39.55l6,12.62c.2.38.4.79.63,1.26s.42.93.62,1.39h.45c0-.48,0-.94-.06-1.4s0-.92,0-1.38V718.77Z" />
            <path class="cls-3"
                d="M319.63,750.26c.57,0,1.21,0,1.93,0a18.85,18.85,0,0,1,2.28.22l-.27,1.72c-.17,0-.42,0-.74,0l-1.06,0h-2.22a12.2,12.2,0,0,0-2.64.23,2.11,2.11,0,0,0-1.4.88,3.78,3.78,0,0,0-.43,2,4.48,4.48,0,0,0,.33,1.92,1.84,1.84,0,0,0,1.11.94,7,7,0,0,0,2.11.26H329l0,1.77H318.52a6.84,6.84,0,0,0-2.29.32,2.11,2.11,0,0,0-1.23,1.09,5.18,5.18,0,0,0-.37,2.16,4.93,4.93,0,0,0,.32,2,1.87,1.87,0,0,0,1.07,1,6,6,0,0,0,2.05.29,8.8,8.8,0,0,0,3.33-.61,6.71,6.71,0,0,0,2.44-1.8l.37,1.43a8.33,8.33,0,0,1-1.8,1.77,6.19,6.19,0,0,1-2.13.94,11.73,11.73,0,0,1-2.74.28,8.51,8.51,0,0,1-3.08-.46,3.16,3.16,0,0,1-1.72-1.53,6.45,6.45,0,0,1-.54-2.91,6.28,6.28,0,0,1,.78-3.34,3.4,3.4,0,0,1,2.79-1.44v-.11a2.94,2.94,0,0,1-2.35-1.23,5.57,5.57,0,0,1-.69-3,6.84,6.84,0,0,1,.39-2.54,2.79,2.79,0,0,1,1.25-1.41,6,6,0,0,1,2.14-.63A27.7,27.7,0,0,1,319.63,750.26Zm6.06,4.78v10.27a1.78,1.78,0,0,0,.4,1.32,1.73,1.73,0,0,0,1.29.4h2l.27,1.64a8.56,8.56,0,0,1-.93.18,9.58,9.58,0,0,1-1,.12c-.34,0-.62,0-.85,0a3.33,3.33,0,0,1-2.41-.79,3,3,0,0,1-.82-2.22v-6.8l.24-4.16Z" />
            <path class="cls-3"
                d="M345.56,750.52a.92.92,0,0,1,.55.17.82.82,0,0,1,.32.47l5.87,17.61h-2.4l-4.74-15c-.07-.25-.14-.5-.22-.75l-.23-.73H344c-.07.23-.14.47-.21.73s-.15.5-.24.75l-4.73,15h-2.41l5.87-17.61a.82.82,0,0,1,.32-.47.94.94,0,0,1,.55-.17Zm3.38,10.53v2h-9.25v-2Z" />
            <path class="cls-3"
                d="M361.17,750.28a10.32,10.32,0,0,1,3.41.47,3.27,3.27,0,0,1,1.89,1.6,6.93,6.93,0,0,1,.6,3.2,7.56,7.56,0,0,1-.35,2.47,3.09,3.09,0,0,1-1.07,1.53,4,4,0,0,1-1.94.71v.13a2.32,2.32,0,0,1,.88.43,4.07,4.07,0,0,1,.81.88A3.81,3.81,0,0,1,366,763l1.78,5.76h-2.49l-1.61-5.71a2.92,2.92,0,0,0-.93-1.47,2.46,2.46,0,0,0-1.51-.43l-2.8,0-2,0-1.27,0,.08-1.94h5.9a6.58,6.58,0,0,0,2.13-.31,2,2,0,0,0,1.13-1.05,5.16,5.16,0,0,0,.34-2.1,5,5,0,0,0-.34-2.08,2,2,0,0,0-1.13-1,6.38,6.38,0,0,0-2.13-.29c-1.44,0-2.69,0-3.74,0l-2.13,0-.37-1.83c.67-.07,1.3-.12,1.88-.16s1.22-.06,1.92-.06Zm-4,.24v18.25h-2.3V750.52Z" />
            <path class="cls-3"
                d="M377.7,750.2c.78,0,1.44,0,2,.06a13.24,13.24,0,0,1,1.53.17q.7.12,1.44.3l-.23,1.78-1.47-.14-1.44-.08-1.83,0a5,5,0,0,0-2.8.68,3.83,3.83,0,0,0-1.47,2.31,22.12,22.12,0,0,0,0,8.78,3.8,3.8,0,0,0,1.47,2.3,5,5,0,0,0,2.8.69c1.13,0,2.08,0,2.84-.07s1.53-.12,2.27-.22l.23,1.74a14.69,14.69,0,0,1-2.34.47,27.45,27.45,0,0,1-3,.14,8.32,8.32,0,0,1-4.19-.91,5.22,5.22,0,0,1-2.28-3,22.39,22.39,0,0,1,0-11.11,5.19,5.19,0,0,1,2.28-3A8.31,8.31,0,0,1,377.7,750.2Z" />
            <path class="cls-3" d="M388.63,750.52v18.25H386.3V750.52Zm8.7,7.49v2h-8.91v-2Zm2-7.49v18.25H397V750.52Z" />
            <path class="cls-3" d="M406.3,750.52v18.25H404V750.52Z" />
            <path class="cls-3" d="M423.34,750.52v2.06H409.23v-2.06Zm-5.9,0v18.25h-2.33V750.52Z" />
            <path class="cls-3"
                d="M429.63,750.49h2.66c.89,0,1.77,0,2.65,0s1.71.07,2.52.12l-.1,1.83H430a1.57,1.57,0,0,0-1.2.41,1.89,1.89,0,0,0-.39,1.33v10.85a1.94,1.94,0,0,0,.39,1.35,1.53,1.53,0,0,0,1.2.42h7.33l.1,1.8c-.81.06-1.65.09-2.52.11l-2.65,0h-2.66a3.66,3.66,0,0,1-2.55-.86,3,3,0,0,1-1-2.31v-12a3.06,3.06,0,0,1,1-2.33A3.7,3.7,0,0,1,429.63,750.49Zm-3,7.7h9.74v1.88h-9.74Z" />
            <path class="cls-3"
                d="M447.41,750.2c.78,0,1.44,0,2,.06a13.49,13.49,0,0,1,1.53.17q.71.12,1.44.3l-.23,1.78-1.47-.14-1.45-.08-1.82,0a5,5,0,0,0-2.8.68,3.83,3.83,0,0,0-1.47,2.31,22.12,22.12,0,0,0,0,8.78,3.8,3.8,0,0,0,1.47,2.3,5,5,0,0,0,2.8.69c1.13,0,2.08,0,2.84-.07s1.52-.12,2.27-.22l.23,1.74a14.92,14.92,0,0,1-2.34.47,27.45,27.45,0,0,1-3,.14,8.29,8.29,0,0,1-4.19-.91,5.22,5.22,0,0,1-2.28-3,22.39,22.39,0,0,1,0-11.11,5.19,5.19,0,0,1,2.28-3A8.29,8.29,0,0,1,447.41,750.2Z" />
            <path class="cls-3" d="M468.44,750.52v2.06h-14.1v-2.06Zm-5.9,0v18.25h-2.33V750.52Z" />
            <path class="cls-3"
                d="M484.53,750.52v11.27a11.94,11.94,0,0,1-.64,4.26,4.23,4.23,0,0,1-2.06,2.34,8.44,8.44,0,0,1-3.84.73,8.94,8.94,0,0,1-3.94-.73,4.28,4.28,0,0,1-2.14-2.34,11.47,11.47,0,0,1-.66-4.26V750.52h2.32v11.27a9.62,9.62,0,0,0,.41,3.11,2.83,2.83,0,0,0,1.37,1.64,5.52,5.52,0,0,0,2.54.49,5.43,5.43,0,0,0,2.52-.49,2.85,2.85,0,0,0,1.36-1.64,9,9,0,0,0,.43-3.11V750.52Z" />
            <path class="cls-3"
                d="M495.29,750.28a10.39,10.39,0,0,1,3.42.47,3.27,3.27,0,0,1,1.89,1.6,7.07,7.07,0,0,1,.59,3.2,7.59,7.59,0,0,1-.34,2.47,3.15,3.15,0,0,1-1.07,1.53,4.1,4.1,0,0,1-1.95.71v.13a2.36,2.36,0,0,1,.89.43,4.07,4.07,0,0,1,.81.88,4,4,0,0,1,.55,1.31l1.77,5.76h-2.48l-1.62-5.71a3,3,0,0,0-.92-1.47,2.46,2.46,0,0,0-1.51-.43l-2.8,0-2,0-1.27,0,.08-1.94h5.9a6.58,6.58,0,0,0,2.13-.31,1.93,1.93,0,0,0,1.12-1.05,5.14,5.14,0,0,0,.35-2.1,5,5,0,0,0-.35-2.08,2,2,0,0,0-1.12-1,6.38,6.38,0,0,0-2.13-.29c-1.45,0-2.69,0-3.74,0l-2.13,0-.37-1.83c.67-.07,1.29-.12,1.87-.16s1.23-.06,1.92-.06Zm-4,.24v18.25H489V750.52Z" />
            <path class="cls-3"
                d="M508.71,750.49h2.65c.89,0,1.78,0,2.65,0s1.71.07,2.53.12l-.11,1.83H509.1a1.58,1.58,0,0,0-1.2.41,1.89,1.89,0,0,0-.39,1.33v10.85a1.94,1.94,0,0,0,.39,1.35,1.55,1.55,0,0,0,1.2.42h7.33l.11,1.8c-.82.06-1.66.09-2.53.11l-2.65,0h-2.65a3.67,3.67,0,0,1-2.56-.86,3,3,0,0,1-1-2.31v-12a3.05,3.05,0,0,1,1-2.33A3.71,3.71,0,0,1,508.71,750.49Zm-3,7.7h9.74v1.88h-9.74Z" />
            <circle class="cls-2" cx="970.76" cy="712.56" r="105.82" />
            <path class="cls-3"
                d="M941,702.56v13.58a1.64,1.64,0,0,0,.41,1.23,1.71,1.71,0,0,0,1.25.4h6.15l.1,1.68c-1.07.08-2.17.13-3.28.15l-3.32,0a3.34,3.34,0,0,1-2.66-.91,3.38,3.38,0,0,1-.79-2.3V702.56Z" />
            <path class="cls-3" d="M953.75,702.56v17h-2.17v-17Z" />
            <path class="cls-3"
                d="M971.16,702.56v16.17a.76.76,0,0,1-.84.87h-2.13a.92.92,0,0,1-.59-.18,1.24,1.24,0,0,1-.37-.52l-5.75-12.07c-.15-.33-.32-.7-.52-1.11a7,7,0,0,1-.45-1.14h-.39c0,.36.06.73.07,1.11s0,.76,0,1.14V719.6h-2.17V703.42a.76.76,0,0,1,.86-.86H961a1,1,0,0,1,.59.17,1.31,1.31,0,0,1,.37.52L967.5,715c.18.34.38.73.58,1.17s.4.87.58,1.3h.42c0-.45,0-.88-.05-1.31s0-.86,0-1.29V702.56Z" />
            <path class="cls-3"
                d="M987.72,702.56v10.52a10.93,10.93,0,0,1-.59,4,4,4,0,0,1-1.92,2.19,8,8,0,0,1-3.58.68,8.42,8.42,0,0,1-3.68-.68,4,4,0,0,1-2-2.19,10.66,10.66,0,0,1-.62-4V702.56h2.17v10.52a9,9,0,0,0,.38,2.9,2.66,2.66,0,0,0,1.28,1.53,5.25,5.25,0,0,0,2.37.46,5.16,5.16,0,0,0,2.35-.46,2.73,2.73,0,0,0,1.28-1.53,8.74,8.74,0,0,0,.39-2.9V702.56Z" />
            <path class="cls-3"
                d="M993,702.56l4.37,8.22-4.66,8.82h-2.37l4.79-8.82-4.47-8.22Zm5.56,7.36v1.68H996v-1.68Zm5.31-7.36-4.5,8.22,4.82,8.82h-2.37l-4.67-8.82,4.37-8.22Z" />
            <circle class="cls-2" cx="130.54" cy="192.98" r="79.37" />
            <path class="cls-3"
                d="M66.75,185.24q.65,0,1.26,0c.4,0,.8.07,1.18.12a9.93,9.93,0,0,1,1.11.24l-.16,1.22c-.39,0-.77-.07-1.16-.09s-.76,0-1.12,0h-1a6.78,6.78,0,0,0-1.75.19,2.09,2.09,0,0,0-1.14.75,3.85,3.85,0,0,0-.62,1.6,15.18,15.18,0,0,0-.19,2.7,13.47,13.47,0,0,0,.26,3,2.8,2.8,0,0,0,.87,1.62,2.5,2.5,0,0,0,1.63.5,4,4,0,0,0,1.28-.2,5.88,5.88,0,0,0,1.1-.53c.33-.22.66-.44,1-.68l.22,1a5.55,5.55,0,0,1-.92.82,6,6,0,0,1-1.36.72,4.85,4.85,0,0,1-1.76.3,3.59,3.59,0,0,1-2.32-.72,4,4,0,0,1-1.31-2.18,14.53,14.53,0,0,1-.41-3.77,12.25,12.25,0,0,1,.51-4,3.4,3.4,0,0,1,1.69-2A7,7,0,0,1,66.75,185.24Zm3.89,5.63v7.39H69.45l-.26-1.89L69,196v-5.13Z" />
            <path class="cls-3" d="M75.14,185.48v12.78H73.51V185.48Z" />
            <path class="cls-3" d="M87.06,185.48v1.44H77.19v-1.44Zm-4.13,0v12.78H81.3V185.48Z" />
            <path class="cls-3"
                d="M90.75,185.48v12.78H89.12V185.48Zm6.09,5.24v1.41H90.6v-1.41Zm1.43-5.24v12.78H96.64V185.48Z" />
            <path class="cls-3"
                d="M110.69,185.48v7.89a8.44,8.44,0,0,1-.44,3A3,3,0,0,1,108.8,198a5.92,5.92,0,0,1-2.68.51,6.29,6.29,0,0,1-2.76-.51,3.06,3.06,0,0,1-1.5-1.64,8,8,0,0,1-.46-3v-7.89H103v7.89a6.64,6.64,0,0,0,.29,2.17,2,2,0,0,0,1,1.15,4.78,4.78,0,0,0,3.54,0,2,2,0,0,0,1-1.15,6.64,6.64,0,0,0,.29-2.17v-7.89Z" />
            <path class="cls-3"
                d="M118,185.33a8.78,8.78,0,0,1,2.5.29,2.19,2.19,0,0,1,1.34,1,4.07,4.07,0,0,1,.42,2,3.64,3.64,0,0,1-.51,2.1,2.18,2.18,0,0,1-1.66.83v.07a2.48,2.48,0,0,1,2,1,4.38,4.38,0,0,1,.57,2.41,4.2,4.2,0,0,1-.41,2,2.19,2.19,0,0,1-1.31,1,8,8,0,0,1-2.36.28h-1.88c-.52,0-1,0-1.45,0l-1.39-.09.26-1.3,1.55,0h2.65a5.77,5.77,0,0,0,1.61-.17,1.36,1.36,0,0,0,.83-.66,3,3,0,0,0,.25-1.39,3.63,3.63,0,0,0-.26-1.53,1.43,1.43,0,0,0-.87-.76,5.19,5.19,0,0,0-1.67-.24h-4.11V191h4.09a5.22,5.22,0,0,0,1.48-.19,1.27,1.27,0,0,0,.78-.65,2.93,2.93,0,0,0,.24-1.32,2.85,2.85,0,0,0-.25-1.34,1.37,1.37,0,0,0-.87-.62,5.92,5.92,0,0,0-1.63-.17H115c-.37,0-.67,0-.92,0l-.26-1.29c.43,0,.84-.09,1.23-.1l1.28,0Zm-2.56.15v12.78h-1.59V185.48Z" />
            <path class="cls-3"
                d="M134,185.48a.65.65,0,0,1,.39.12.6.6,0,0,1,.22.32l4.11,12.34H137l-3.32-10.49c-.05-.17-.1-.34-.16-.52s-.11-.35-.15-.51h-.52l-.15.51c0,.18-.11.35-.17.52l-3.31,10.49h-1.69l4.11-12.34a.57.57,0,0,1,.23-.32.64.64,0,0,1,.38-.12Zm2.37,7.37v1.41h-6.48v-1.41Z" />
            <path class="cls-3"
                d="M145,185.26c.54,0,1,0,1.4,0s.74.07,1.07.12.66.13,1,.22l-.17,1.24-1-.1-1-.05-1.28,0a3.49,3.49,0,0,0-2,.48,2.63,2.63,0,0,0-1,1.61,15.41,15.41,0,0,0,0,6.15,2.63,2.63,0,0,0,1,1.61,3.49,3.49,0,0,0,2,.48c.79,0,1.45,0,2,0s1.06-.09,1.58-.16l.17,1.22a11.08,11.08,0,0,1-1.64.33,19.93,19.93,0,0,1-2.1.1,5.93,5.93,0,0,1-2.94-.64,3.68,3.68,0,0,1-1.59-2.08,15.69,15.69,0,0,1,0-7.78,3.67,3.67,0,0,1,1.59-2.09A5.94,5.94,0,0,1,145,185.26Z" />
            <path class="cls-3" d="M159.69,185.48v1.44h-9.87v-1.44Zm-4.13,0v12.78h-1.63V185.48Z" />
            <path class="cls-3" d="M163.38,185.48v12.78h-1.63V185.48Z" />
            <path class="cls-3"
                d="M171.17,185.24a7.34,7.34,0,0,1,2.36.33,3.21,3.21,0,0,1,1.56,1.1,5.09,5.09,0,0,1,.85,2.05,18.45,18.45,0,0,1,0,6.29,5,5,0,0,1-.85,2.05,3.21,3.21,0,0,1-1.56,1.1,7.05,7.05,0,0,1-2.36.34,7.13,7.13,0,0,1-2.36-.34,3.21,3.21,0,0,1-1.56-1.1,4.78,4.78,0,0,1-.86-2.05,18.45,18.45,0,0,1,0-6.29,4.83,4.83,0,0,1,.86-2.05,3.21,3.21,0,0,1,1.56-1.1A7.42,7.42,0,0,1,171.17,185.24Zm0,1.46a3.59,3.59,0,0,0-2,.48,2.64,2.64,0,0,0-1,1.6,15.46,15.46,0,0,0,0,6.16,2.63,2.63,0,0,0,1,1.61,4.37,4.37,0,0,0,4,0,2.64,2.64,0,0,0,1-1.61,15.46,15.46,0,0,0,0-6.16,2.65,2.65,0,0,0-1-1.6A3.57,3.57,0,0,0,171.17,186.7Z" />
            <path class="cls-3"
                d="M188.8,185.48v12.13a.57.57,0,0,1-.63.65h-1.59a.74.74,0,0,1-.44-.13.89.89,0,0,1-.28-.39l-4.32-9.06c-.11-.25-.24-.52-.39-.83a7.31,7.31,0,0,1-.33-.85h-.3c0,.27,0,.55.06.83s0,.57,0,.85v9.58H179V186.13a.57.57,0,0,1,.65-.65h1.53a.69.69,0,0,1,.45.13.94.94,0,0,1,.28.39l4.18,8.83c.14.26.28.55.44.88s.3.65.43,1h.32c0-.33,0-.66,0-1s0-.64,0-1v-9.26Z" />
            <path class="cls-3"
                d="M195.58,185.26c.61,0,1.23,0,1.87.09a14.48,14.48,0,0,1,1.93.28l-.11,1.18c-.54,0-1.12-.05-1.76-.06l-1.86,0c-.45,0-.84,0-1.17,0a2.16,2.16,0,0,0-.81.23,1,1,0,0,0-.45.57,3.54,3.54,0,0,0-.14,1.1,2.23,2.23,0,0,0,.38,1.48,2.44,2.44,0,0,0,1.23.62l2.59.64a3.09,3.09,0,0,1,2,1.24,4.36,4.36,0,0,1,.55,2.36,5.46,5.46,0,0,1-.25,1.79,2.1,2.1,0,0,1-.77,1.05,3.27,3.27,0,0,1-1.33.5,12,12,0,0,1-1.93.14c-.42,0-1,0-1.64-.06a17.43,17.43,0,0,1-2.32-.29l.11-1.21,1.76.07c.44,0,.82,0,1.15,0h1a6.29,6.29,0,0,0,1.54-.14,1.19,1.19,0,0,0,.8-.6,3,3,0,0,0,.23-1.31,3.17,3.17,0,0,0-.17-1.15,1.23,1.23,0,0,0-.52-.62,3.28,3.28,0,0,0-.92-.34l-2.65-.67A3.06,3.06,0,0,1,192,191a4.21,4.21,0,0,1-.57-2.33,5.46,5.46,0,0,1,.25-1.79,2.06,2.06,0,0,1,.76-1,3,3,0,0,1,1.29-.45A12.42,12.42,0,0,1,195.58,185.26Z" />
            <circle class="cls-2" cx="400.39" cy="55.41" r="52.91" />
            <path class="cls-3"
                d="M364.15,50.25l.84,0,.79.08a6.08,6.08,0,0,1,.74.16l-.11.81-.78-.06-.74,0h-.68a4.9,4.9,0,0,0-1.17.12,1.44,1.44,0,0,0-.76.5,2.6,2.6,0,0,0-.41,1.07,12.23,12.23,0,0,0,0,3.81,2,2,0,0,0,.58,1.08,1.69,1.69,0,0,0,1.09.33,2.63,2.63,0,0,0,.86-.14,3.27,3.27,0,0,0,.73-.35q.33-.21.66-.45l.14.67a3.41,3.41,0,0,1-.61.54,3.84,3.84,0,0,1-.9.48,3.36,3.36,0,0,1-1.18.2,2.41,2.41,0,0,1-1.55-.48,2.67,2.67,0,0,1-.87-1.45,9.74,9.74,0,0,1-.27-2.52,8,8,0,0,1,.34-2.64,2.34,2.34,0,0,1,1.12-1.36A4.77,4.77,0,0,1,364.15,50.25ZM366.74,54v4.93H366l-.17-1.26-.1-.25V54Z" />
            <path class="cls-3" d="M369.74,50.41v8.52h-1.09V50.41Z" />
            <path class="cls-3" d="M377.69,50.41v1h-6.58v-1Zm-2.75,0v8.52h-1.09V50.41Z" />
            <path class="cls-3"
                d="M380.15,50.41v8.52h-1.09V50.41Zm4.06,3.49v.94h-4.16V53.9Zm1-3.49v8.52h-1.09V50.41Z" />
            <path class="cls-3"
                d="M393.44,50.41v5.26a5.73,5.73,0,0,1-.29,2,2,2,0,0,1-1,1.09,3.91,3.91,0,0,1-1.79.34,4.17,4.17,0,0,1-1.84-.34,2.06,2.06,0,0,1-1-1.09,5.48,5.48,0,0,1-.3-2V50.41h1.08v5.26a4.67,4.67,0,0,0,.19,1.45,1.34,1.34,0,0,0,.64.77,2.64,2.64,0,0,0,1.18.22,2.59,2.59,0,0,0,1.18-.22,1.38,1.38,0,0,0,.64-.77,4.35,4.35,0,0,0,.2-1.45V50.41Z" />
            <path class="cls-3"
                d="M398.29,50.31a6.13,6.13,0,0,1,1.67.19,1.5,1.5,0,0,1,.9.68,2.78,2.78,0,0,1,.27,1.35,2.39,2.39,0,0,1-.34,1.4,1.39,1.39,0,0,1-1.1.55v.05a1.66,1.66,0,0,1,1.33.67,3,3,0,0,1,.37,1.61,2.78,2.78,0,0,1-.27,1.35,1.48,1.48,0,0,1-.87.68,5.55,5.55,0,0,1-1.57.19h-1.26q-.53,0-1,0l-.93-.06.17-.87,1,0h1.77a3.75,3.75,0,0,0,1.07-.12.86.86,0,0,0,.56-.43,2.13,2.13,0,0,0,.16-.93,2.32,2.32,0,0,0-.17-1,1,1,0,0,0-.58-.51,3.53,3.53,0,0,0-1.11-.16h-2.74V54.1h2.73a3.52,3.52,0,0,0,1-.13.84.84,0,0,0,.52-.43,1.92,1.92,0,0,0,.16-.88,1.78,1.78,0,0,0-.17-.89.87.87,0,0,0-.57-.42,4,4,0,0,0-1.09-.11h-1.94l-.61,0-.17-.86c.29,0,.56-.06.82-.07l.85,0Zm-1.7.1v8.52h-1.06V50.41Z" />
            <path class="cls-3"
                d="M408.86,50.3a4.74,4.74,0,0,1,1.63.23,1.54,1.54,0,0,1,.85.81A4,4,0,0,1,411.6,53a4.19,4.19,0,0,1-.25,1.63,1.45,1.45,0,0,1-.83.8,4,4,0,0,1-1.53.23l-1,0-.87-.07-.67-.09a3,3,0,0,1-.39-.09l0-.67h2.75a2.84,2.84,0,0,0,1-.15.89.89,0,0,0,.52-.52A2.92,2.92,0,0,0,410.5,53a3,3,0,0,0-.15-1.07.9.9,0,0,0-.52-.51,2.62,2.62,0,0,0-1-.15H407.1c-.49,0-.82,0-1,0l-.17-.88c.31,0,.6-.06.87-.07s.57,0,.89,0Zm-1.84.11v8.52h-1.08V50.41Z" />
            <path class="cls-3"
                d="M416.12,50.41a.45.45,0,0,1,.26.08.38.38,0,0,1,.15.22l2.74,8.22h-1.12l-2.21-7c0-.11-.07-.23-.11-.35s-.07-.23-.1-.34h-.35c0,.11-.07.22-.1.34a3.58,3.58,0,0,1-.11.35l-2.21,7h-1.12l2.74-8.22a.34.34,0,0,1,.15-.22.45.45,0,0,1,.26-.08Zm1.58,4.91v.94h-4.32v-.94Z" />
            <path class="cls-3"
                d="M423.67,50.25l.83,0,.79.08a5.85,5.85,0,0,1,.75.16l-.12.81-.77-.06-.74,0h-.68a4.9,4.9,0,0,0-1.17.12,1.44,1.44,0,0,0-.76.5,2.47,2.47,0,0,0-.41,1.07,12.23,12.23,0,0,0,0,3.81,2,2,0,0,0,.58,1.08,1.67,1.67,0,0,0,1.09.33A2.63,2.63,0,0,0,424,58a3.2,3.2,0,0,0,.72-.35,7.66,7.66,0,0,0,.66-.45l.15.67a3.8,3.8,0,0,1-.61.54,3.72,3.72,0,0,1-.91.48,3.26,3.26,0,0,1-1.17.2,2.41,2.41,0,0,1-1.55-.48,2.67,2.67,0,0,1-.87-1.45,9.74,9.74,0,0,1-.27-2.52,8,8,0,0,1,.34-2.64,2.34,2.34,0,0,1,1.12-1.36A4.77,4.77,0,0,1,423.67,50.25ZM426.26,54v4.93h-.79l-.18-1.26-.09-.25V54Z" />
            <path class="cls-3"
                d="M429.74,50.4H431c.42,0,.83,0,1.23,0l1.18,0-.05.85h-3.42a.73.73,0,0,0-.56.2.87.87,0,0,0-.18.62V57.2a.91.91,0,0,0,.18.63.73.73,0,0,0,.56.2h3.42l.05.84-1.18.05-1.23,0h-1.24a1.68,1.68,0,0,1-1.19-.4,1.45,1.45,0,0,1-.45-1.08V51.88a1.46,1.46,0,0,1,.45-1.09A1.72,1.72,0,0,1,429.74,50.4ZM428.32,54h4.54v.88h-4.54Z" />
            <path class="cls-3"
                d="M437.46,50.26l1.24.06a11.47,11.47,0,0,1,1.29.19l-.08.79-1.17,0c-.43,0-.84,0-1.24,0s-.56,0-.78,0a1.33,1.33,0,0,0-.54.15.62.62,0,0,0-.3.38,2.37,2.37,0,0,0-.09.73,1.49,1.49,0,0,0,.25,1,1.62,1.62,0,0,0,.82.41l1.73.43a2.06,2.06,0,0,1,1.35.82,2.91,2.91,0,0,1,.37,1.58,3.53,3.53,0,0,1-.17,1.19,1.38,1.38,0,0,1-.51.7,2.18,2.18,0,0,1-.89.33,6.85,6.85,0,0,1-1.28.1c-.28,0-.65,0-1.1,0a11.37,11.37,0,0,1-1.55-.2l.08-.8,1.17,0c.3,0,.55,0,.77,0h.66a4,4,0,0,0,1-.1.75.75,0,0,0,.53-.39,1.87,1.87,0,0,0,.16-.88,2.14,2.14,0,0,0-.11-.76.86.86,0,0,0-.35-.42,2.6,2.6,0,0,0-.62-.23l-1.76-.44a2.07,2.07,0,0,1-1.3-.82,2.72,2.72,0,0,1-.38-1.55,3.53,3.53,0,0,1,.17-1.19,1.37,1.37,0,0,1,.5-.68,2.13,2.13,0,0,1,.86-.3A8.79,8.79,0,0,1,437.46,50.26Z" />
        </g>
    </g>
</svg>