<svg xmlns="http://www.w3.org/2000/svg" viewBox="0 0 1428.14 824.4">
    <defs>
        <style>
            .cls-1 {
                fill: none;
                stroke: #50d890;
                stroke-linecap: round;
                stroke-linejoin: bevel;
                stroke-width: 5px;
                stroke-dasharray: 20;
                animation: linecrawl 50s 0ms linear infinite forwards;
            }

            .cls-2 {
                fill: #50d890;
                stroke-dasharray: 20;
                animation: linecrawl 50s 0ms linear infinite forwards;
            }

            .cls-3 {
                fill: #effffb;
                stroke-dasharray: 20;
                animation: linecrawl 50s 0ms linear infinite forwards;
            }

            @keyframes linecrawl {
                0% {
                    stroke-dashoffset: 0%
                }

                100% {
                    stroke-dashoffset: 100%;
                }
            }
        </style>
    </defs>
    <g id="Layer_2" data-name="Layer 2">
        <g id="Layer_3" data-name="Layer 3">
            <line class="cls-1" x1="808.57" y1="181.7" x2="648.57" y2="226.7" />
            <polyline class="cls-1"
                points="343.57 388.2 343.57 211.7 570.57 79.7 808.57 181.7 742.57 426.7 914.57 673.7 1265.57 706.7" />
            <polyline class="cls-1" points="198.57 60.7 343.57 211.7 53.57 234.7" />
            <polyline class="cls-1" points="1249.57 66.7 1172.57 244.7 808.57 181.7 903.57 59.7" />
            <polyline class="cls-1" points="1086.57 432.7 1172.57 244.7 1374.57 227.7" />
            <line class="cls-1" x1="1172.57" y1="244.7" x2="1342.57" y2="457.7" />
            <polyline class="cls-1" points="742.57 425.7 503.57 625.7 453.57 774.7" />
            <line class="cls-1" x1="503.57" y1="625.7" x2="345.57" y2="613.7" />
            <circle class="cls-2" cx="915" cy="674" r="97.5" />
            <path class="cls-3"
                d="M915,579a95,95,0,1,1-95,95,95.11,95.11,0,0,1,95-95m0-5a100,100,0,1,0,100,100A100,100,0,0,0,915,574Z" />
            <path class="cls-3" d="M875.69,660v23.92h-3.05V660Zm11.4,9.81v2.64H875.41v-2.64Zm2.67-9.81v23.92h-3V660Z" />
            <path class="cls-3" d="M912.09,660v2.7H893.61V660Zm-7.73,0v23.92h-3.05V660Z" />
            <path class="cls-3"
                d="M938.54,660a1.12,1.12,0,0,1,1.25,1.28l1,22.64h-3l-.86-21.39h-.73l-5.34,17.65a1.26,1.26,0,0,1-1.32,1h-2.74a1.32,1.32,0,0,1-1.38-1L920,662.49h-.7l-.83,21.39h-3l.94-22.64a1.17,1.17,0,0,1,1.28-1.28h3.47a1.27,1.27,0,0,1,1.28,1l4.47,14.6a15.94,15.94,0,0,1,.47,1.59c.13.53.27,1.07.43,1.63h.63c.16-.56.31-1.1.45-1.63s.29-1.09.45-1.66L933.79,661a1.26,1.26,0,0,1,1.32-1Z" />
            <path class="cls-3"
                d="M949.29,660V679a2.33,2.33,0,0,0,.57,1.73,2.42,2.42,0,0,0,1.75.56h8.63l.14,2.35q-2.25.18-4.59.21l-4.67,0a4.19,4.19,0,0,1-4.85-4.5V660Z" />
            <circle class="cls-2" cx="504" cy="626" r="62.5" />
            <path class="cls-3"
                d="M504,566a60,60,0,1,1-60,60,60.07,60.07,0,0,1,60-60m0-5a65,65,0,1,0,65,65,65,65,0,0,0-65-65Z" />
            <path class="cls-3"
                d="M492.42,616.61c.66,0,1.23,0,1.7,0a12.14,12.14,0,0,1,1.31.15c.39.06.8.15,1.23.26l-.21,1.51-1.25-.12q-.57,0-1.23-.06c-.43,0-1,0-1.55,0A4.27,4.27,0,0,0,490,619a3.24,3.24,0,0,0-1.25,2,19.09,19.09,0,0,0,0,7.48,3.24,3.24,0,0,0,1.25,2,4.27,4.27,0,0,0,2.39.59c1,0,1.77,0,2.42-.06s1.3-.1,1.93-.19l.2,1.49a13.21,13.21,0,0,1-2,.39,22.77,22.77,0,0,1-2.56.12,7.06,7.06,0,0,1-3.57-.77,4.44,4.44,0,0,1-1.94-2.54,18.94,18.94,0,0,1,0-9.46,4.44,4.44,0,0,1,1.94-2.54A7.06,7.06,0,0,1,492.42,616.61Z" />
            <path class="cls-3"
                d="M504.07,616.61c.73,0,1.49,0,2.27.11a17.06,17.06,0,0,1,2.35.34l-.14,1.44-2.14-.08-2.25,0c-.56,0-1,0-1.43.05a2.53,2.53,0,0,0-1,.27,1.23,1.23,0,0,0-.55.7,4,4,0,0,0-.17,1.34,2.66,2.66,0,0,0,.46,1.79,2.94,2.94,0,0,0,1.5.76l3.15.79a3.75,3.75,0,0,1,2.47,1.49,5.48,5.48,0,0,1,.66,2.88,6.53,6.53,0,0,1-.3,2.18,2.6,2.6,0,0,1-.94,1.28,4.12,4.12,0,0,1-1.62.61,14.48,14.48,0,0,1-2.34.16c-.51,0-1.18,0-2-.06a25,25,0,0,1-2.82-.36l.13-1.47,2.14.08,1.4,0h1.22a7.78,7.78,0,0,0,1.88-.18,1.44,1.44,0,0,0,1-.72,3.67,3.67,0,0,0,.28-1.6,3.9,3.9,0,0,0-.2-1.39,1.52,1.52,0,0,0-.65-.76,4.16,4.16,0,0,0-1.11-.42l-3.22-.81a3.79,3.79,0,0,1-2.38-1.48,5.17,5.17,0,0,1-.69-2.84,6.49,6.49,0,0,1,.3-2.18,2.54,2.54,0,0,1,.93-1.24,3.64,3.64,0,0,1,1.57-.55A16.25,16.25,0,0,1,504.07,616.61Z" />
            <path class="cls-3"
                d="M516.71,616.61c.74,0,1.49,0,2.28.11a17.14,17.14,0,0,1,2.34.34l-.14,1.44-2.14-.08-2.25,0c-.56,0-1,0-1.43.05a2.53,2.53,0,0,0-1,.27,1.23,1.23,0,0,0-.55.7,4,4,0,0,0-.17,1.34,2.66,2.66,0,0,0,.46,1.79,2.94,2.94,0,0,0,1.5.76l3.15.79a3.75,3.75,0,0,1,2.47,1.49,5.48,5.48,0,0,1,.66,2.88,6.53,6.53,0,0,1-.3,2.18,2.58,2.58,0,0,1-.93,1.28,4.24,4.24,0,0,1-1.63.61,14.48,14.48,0,0,1-2.34.16c-.51,0-1.18,0-2-.06a24.89,24.89,0,0,1-2.83-.36l.13-1.47,2.14.08,1.4,0h1.22a7.78,7.78,0,0,0,1.88-.18,1.44,1.44,0,0,0,1-.72,3.53,3.53,0,0,0,.28-1.6,3.9,3.9,0,0,0-.2-1.39,1.52,1.52,0,0,0-.65-.76,4.16,4.16,0,0,0-1.11-.42l-3.22-.81a3.79,3.79,0,0,1-2.38-1.48,5.17,5.17,0,0,1-.69-2.84,6.22,6.22,0,0,1,.31-2.18,2.47,2.47,0,0,1,.92-1.24,3.64,3.64,0,0,1,1.57-.55A16.25,16.25,0,0,1,516.71,616.61Z" />
            <circle class="cls-2" cx="809" cy="182" r="47.5" />
            <path class="cls-3"
                d="M809,137a45,45,0,1,1-45,45,45.05,45.05,0,0,1,45-45m0-5a50,50,0,1,0,50,50,50,50,0,0,0-50-50Z" />
            <path class="cls-3"
                d="M805.37,174.06v10.17a3.16,3.16,0,0,1-.64,2.15,2.34,2.34,0,0,1-1.86.73l-.57,0-.64-.08a3.75,3.75,0,0,1-.51-.13l.19-1.16h.93a1.27,1.27,0,0,0,1.46-1.42V174.06Z" />
            <path class="cls-3"
                d="M812.15,173.84c.6,0,1.23,0,1.88.09a14.39,14.39,0,0,1,1.94.28l-.11,1.19-1.77-.06-1.87,0c-.46,0-.86,0-1.19.05a2,2,0,0,0-.81.22,1,1,0,0,0-.45.58,3.33,3.33,0,0,0-.14,1.11,2.18,2.18,0,0,0,.38,1.48,2.41,2.41,0,0,0,1.24.63l2.61.65a3.14,3.14,0,0,1,2,1.24,4.59,4.59,0,0,1,.55,2.39,5.34,5.34,0,0,1-.26,1.81,2,2,0,0,1-.77,1.05,3.32,3.32,0,0,1-1.34.5,11.09,11.09,0,0,1-1.94.14c-.43,0-1,0-1.66,0a20,20,0,0,1-2.34-.3l.11-1.21,1.78.06,1.15,0h1a6.4,6.4,0,0,0,1.56-.15,1.17,1.17,0,0,0,.8-.6,2.88,2.88,0,0,0,.24-1.32,3.19,3.19,0,0,0-.17-1.16,1.31,1.31,0,0,0-.53-.63,3.56,3.56,0,0,0-.93-.34l-2.67-.67a3.19,3.19,0,0,1-2-1.23,4.29,4.29,0,0,1-.57-2.36,5.28,5.28,0,0,1,.26-1.8,2,2,0,0,1,.76-1,3,3,0,0,1,1.3-.46A12.62,12.62,0,0,1,812.15,173.84Z" />
            <circle class="cls-2" cx="1265.45" cy="706.68" r="91.46" />
            <path class="cls-3"
                d="M1265.46,617.72a89,89,0,1,1-89,89,89.06,89.06,0,0,1,89-89m0-5a94,94,0,1,0,94,94,94,94,0,0,0-94-94Z" />
            <path class="cls-3"
                d="M1240.33,693.2a12.45,12.45,0,0,1,4.08.58,5.72,5.72,0,0,1,2.71,1.92,9,9,0,0,1,1.5,3.55,32.12,32.12,0,0,1,0,11,8.87,8.87,0,0,1-1.5,3.55,5.72,5.72,0,0,1-2.71,1.92,12.43,12.43,0,0,1-4.08.59c-1.55,0-3,0-4.29-.08s-2.55-.13-3.73-.22l1.24-2.34,3,.08c1.11,0,2.36,0,3.73,0a6.23,6.23,0,0,0,3.42-.83,4.64,4.64,0,0,0,1.8-2.8,27.17,27.17,0,0,0,0-10.78,4.66,4.66,0,0,0-1.8-2.82,6.06,6.06,0,0,0-3.42-.85c-1.35,0-2.56,0-3.64,0l-3.14.07-1.24-2.28c1.18-.09,2.42-.16,3.73-.21S1238.78,693.2,1240.33,693.2Zm-5.15.29V716h-2.87V693.49Z" />
            <path class="cls-3"
                d="M1262,693.07a12.9,12.9,0,0,1,4.15.58,5.68,5.68,0,0,1,2.74,1.94,8.91,8.91,0,0,1,1.49,3.6,32.15,32.15,0,0,1,0,11.07,8.91,8.91,0,0,1-1.49,3.6,5.62,5.62,0,0,1-2.74,1.94,14.93,14.93,0,0,1-8.31,0,5.69,5.69,0,0,1-2.75-1.94,8.78,8.78,0,0,1-1.51-3.6,32.15,32.15,0,0,1,0-11.07,8.78,8.78,0,0,1,1.51-3.6,5.76,5.76,0,0,1,2.75-1.94A13,13,0,0,1,1262,693.07Zm0,2.57a6.23,6.23,0,0,0-3.5.85,4.65,4.65,0,0,0-1.83,2.81,27.42,27.42,0,0,0,0,10.83,4.7,4.7,0,0,0,1.83,2.84,7.63,7.63,0,0,0,7,0,4.69,4.69,0,0,0,1.82-2.84,27.42,27.42,0,0,0,0-10.83,4.64,4.64,0,0,0-1.82-2.81A6.27,6.27,0,0,0,1262,695.64Z" />
            <path class="cls-3"
                d="M1296.94,693.49c.78,0,1.17.4,1.17,1.21l.94,21.26h-2.86l-.82-20.09h-.68l-5,16.58a1.16,1.16,0,0,1-1.23,1h-2.58a1.24,1.24,0,0,1-1.3-1l-5-16.58h-.65l-.78,20.09h-2.87l.88-21.26c.05-.81.45-1.21,1.21-1.21h3.26a1.19,1.19,0,0,1,1.2,1l4.2,13.71a14.16,14.16,0,0,1,.44,1.5c.12.5.26,1,.41,1.53h.59q.22-.78.42-1.53c.13-.5.27-1,.42-1.57l4.2-13.64a1.19,1.19,0,0,1,1.24-1Z" />
            <circle class="cls-2" cx="344" cy="212" r="47.5" />
            <path class="cls-3"
                d="M344,167a45,45,0,1,1-45,45,45.05,45.05,0,0,1,45-45m0-5a50,50,0,1,0,50,50,50,50,0,0,0-50-50Z" />
            <path class="cls-3"
                d="M324.29,204.82a6.85,6.85,0,0,1,2.24.31,2.13,2.13,0,0,1,1.24,1.05,4.55,4.55,0,0,1,.39,2.09,5,5,0,0,1-.23,1.62,2,2,0,0,1-.7,1,2.66,2.66,0,0,1-1.27.46v.09a1.55,1.55,0,0,1,.58.28,2.93,2.93,0,0,1,.53.57,2.68,2.68,0,0,1,.36.86l1.16,3.78H327l-1.06-3.74a2,2,0,0,0-.6-1,1.63,1.63,0,0,0-1-.28h-1.84c-.52,0-1,0-1.3,0h-.83l.05-1.27h3.87a4.19,4.19,0,0,0,1.39-.21,1.24,1.24,0,0,0,.74-.68,3.41,3.41,0,0,0,.23-1.38,3.27,3.27,0,0,0-.23-1.36,1.29,1.29,0,0,0-.74-.67,4.26,4.26,0,0,0-1.39-.19l-2.45,0-1.4,0-.24-1.2c.44,0,.85-.08,1.23-.1s.8,0,1.25,0Zm-2.61.16v12h-1.51V205Z" />
            <path class="cls-3"
                d="M333.08,205h1.74c.59,0,1.16,0,1.74,0s1.12,0,1.65.08l-.07,1.19h-4.8a1,1,0,0,0-.79.27,1.25,1.25,0,0,0-.25.88v7.1a1.3,1.3,0,0,0,.25.89,1,1,0,0,0,.79.28h4.8l.07,1.17c-.53,0-1.08.06-1.65.07l-1.74,0h-1.74a2.37,2.37,0,0,1-1.67-.57,2,2,0,0,1-.63-1.51V207a2,2,0,0,1,.63-1.52A2.41,2.41,0,0,1,333.08,205Zm-2,5h6.38v1.23h-6.38Z" />
            <path class="cls-3"
                d="M345.27,205a.64.64,0,0,1,.36.11.62.62,0,0,1,.21.31l3.85,11.54h-1.58l-3.1-9.81-.15-.49-.15-.48h-.48c-.05.15-.1.31-.14.48s-.1.33-.16.49l-3.1,9.81h-1.58l3.85-11.54a.51.51,0,0,1,.21-.31.61.61,0,0,1,.36-.11Zm2.21,6.9v1.32h-6.06v-1.32Z" />
            <path class="cls-3"
                d="M355.54,204.77c.51,0,.95,0,1.31,0a9.46,9.46,0,0,1,1,.11c.3.05.62.12.94.2l-.15,1.16-1-.09-.95-.05-1.2,0a3.26,3.26,0,0,0-1.83.46,2.5,2.5,0,0,0-1,1.5,14.45,14.45,0,0,0,0,5.76,2.52,2.52,0,0,0,1,1.51,3.26,3.26,0,0,0,1.83.45c.74,0,1.37,0,1.87-.05s1-.07,1.48-.14l.16,1.14a9.75,9.75,0,0,1-1.54.3,15.37,15.37,0,0,1-2,.1,5.4,5.4,0,0,1-2.74-.6,3.38,3.38,0,0,1-1.49-2,14.63,14.63,0,0,1,0-7.28,3.38,3.38,0,0,1,1.49-1.95A5.4,5.4,0,0,1,355.54,204.77Z" />
            <path class="cls-3" d="M369.32,205v1.35h-9.23V205Zm-3.86,0v12h-1.53V205Z" />
            <circle class="cls-2" cx="1086" cy="431" r="62.5" />
            <path class="cls-3"
                d="M1086,371a60,60,0,1,1-60,60,60.07,60.07,0,0,1,60-60m0-5a65,65,0,1,0,65,65,65,65,0,0,0-65-65Z" />
            <path class="cls-3"
                d="M1045.07,421.85h2.26c.76,0,1.51,0,2.26,0s1.46.05,2.15.1l-.09,1.55h-6.24a1.36,1.36,0,0,0-1,.35,1.62,1.62,0,0,0-.33,1.14v9.24a1.68,1.68,0,0,0,.33,1.15,1.33,1.33,0,0,0,1,.36h6.24l.09,1.53c-.69.05-1.41.08-2.15.09s-1.5,0-2.26,0l-2.26,0a3.11,3.11,0,0,1-2.18-.74,2.63,2.63,0,0,1-.82-2V424.56a2.63,2.63,0,0,1,.82-2A3.15,3.15,0,0,1,1045.07,421.85Zm-2.59,6.56h8.29V430h-8.29Z" />
            <path class="cls-3"
                d="M1055.86,421.87l4,7.51-4.26,8h-2.16l4.37-8-4.08-7.51Zm5.07,6.72v1.53h-2.39v-1.53Zm4.85-6.72-4.11,7.51,4.4,8h-2.16l-4.26-8,4-7.51Z" />
            <path class="cls-3"
                d="M1073.93,421.67a8.49,8.49,0,0,1,3,.43,2.77,2.77,0,0,1,1.56,1.48,7.26,7.26,0,0,1,.48,3,7.54,7.54,0,0,1-.47,3A2.65,2.65,0,0,1,1077,431a7.64,7.64,0,0,1-2.8.42c-.63,0-1.24,0-1.82-.05s-1.1-.07-1.58-.12-.89-.11-1.23-.17a4.64,4.64,0,0,1-.71-.16l.07-1.22h5a5.28,5.28,0,0,0,1.79-.28,1.63,1.63,0,0,0,1-.94,6.83,6.83,0,0,0,0-3.87,1.63,1.63,0,0,0-1-.94,4.63,4.63,0,0,0-1.79-.28c-1.23,0-2.29,0-3.19,0s-1.5,0-1.81.06l-.32-1.6,1.6-.13c.5,0,1-.05,1.63-.06Zm-3.35.2v15.55h-2V421.87Z" />
            <path class="cls-3"
                d="M1087.25,421.67a8.68,8.68,0,0,1,2.91.4,2.8,2.8,0,0,1,1.61,1.36,6,6,0,0,1,.51,2.73,6.31,6.31,0,0,1-.3,2.1,2.64,2.64,0,0,1-.91,1.31,3.47,3.47,0,0,1-1.66.6v.11a2,2,0,0,1,.76.37,3.36,3.36,0,0,1,.69.75,3.32,3.32,0,0,1,.47,1.11l1.51,4.91h-2.12l-1.37-4.86a2.56,2.56,0,0,0-.79-1.26,2.14,2.14,0,0,0-1.29-.37h-2.39l-1.69,0-1.08,0,.07-1.64h5A5.42,5.42,0,0,0,1089,429a1.68,1.68,0,0,0,1-.89,4.54,4.54,0,0,0,.29-1.79,4.33,4.33,0,0,0-.29-1.77,1.71,1.71,0,0,0-1-.87,5.48,5.48,0,0,0-1.82-.25q-1.85,0-3.18,0l-1.82,0-.31-1.56c.57-.05,1.1-.1,1.6-.13s1-.05,1.63-.06Zm-3.4.2v15.55h-2V421.87Z" />
            <path class="cls-3"
                d="M1098.67,421.85h2.27c.76,0,1.51,0,2.25,0s1.46.05,2.15.1l-.09,1.55H1099a1.34,1.34,0,0,0-1,.35,1.62,1.62,0,0,0-.33,1.14v9.24a1.68,1.68,0,0,0,.33,1.15,1.3,1.3,0,0,0,1,.36h6.24l.09,1.53c-.69.05-1.4.08-2.15.09s-1.49,0-2.25,0l-2.27,0a3.09,3.09,0,0,1-2.17-.74,2.6,2.6,0,0,1-.82-2V424.56a2.59,2.59,0,0,1,.82-2A3.12,3.12,0,0,1,1098.67,421.85Zm-2.59,6.56h8.3V430h-8.3Z" />
            <path class="cls-3"
                d="M1112.76,421.6c.73,0,1.49.06,2.27.12a19,19,0,0,1,2.35.33l-.14,1.45-2.14-.08c-.78,0-1.53,0-2.25,0-.56,0-1,0-1.43.06a2.53,2.53,0,0,0-1,.27,1.25,1.25,0,0,0-.56.7,4.32,4.32,0,0,0-.16,1.34,2.66,2.66,0,0,0,.46,1.79,2.9,2.9,0,0,0,1.5.76l3.15.79a3.77,3.77,0,0,1,2.47,1.49,5.46,5.46,0,0,1,.66,2.88,6.53,6.53,0,0,1-.3,2.18,2.6,2.6,0,0,1-.94,1.28,4,4,0,0,1-1.62.6,13.34,13.34,0,0,1-2.34.17c-.51,0-1.18,0-2-.06a22.86,22.86,0,0,1-2.82-.37l.13-1.46,2.14.08,1.4,0h1.21a7.82,7.82,0,0,0,1.89-.18,1.46,1.46,0,0,0,1-.72,3.67,3.67,0,0,0,.28-1.6,3.75,3.75,0,0,0-.21-1.4,1.43,1.43,0,0,0-.64-.75,4.16,4.16,0,0,0-1.11-.42l-3.23-.81a3.76,3.76,0,0,1-2.37-1.49,5.12,5.12,0,0,1-.69-2.84,6.47,6.47,0,0,1,.3-2.17,2.48,2.48,0,0,1,.93-1.24,3.65,3.65,0,0,1,1.56-.55A16.25,16.25,0,0,1,1112.76,421.6Z" />
            <path class="cls-3"
                d="M1125.4,421.6c.73,0,1.49.06,2.27.12a18.71,18.71,0,0,1,2.35.33l-.14,1.45-2.14-.08c-.78,0-1.53,0-2.25,0-.56,0-1,0-1.43.06a2.53,2.53,0,0,0-1,.27,1.19,1.19,0,0,0-.55.7,4,4,0,0,0-.17,1.34,2.66,2.66,0,0,0,.46,1.79,2.94,2.94,0,0,0,1.5.76l3.15.79a3.75,3.75,0,0,1,2.47,1.49,5.46,5.46,0,0,1,.66,2.88,6.53,6.53,0,0,1-.3,2.18,2.64,2.64,0,0,1-.93,1.28,4.08,4.08,0,0,1-1.63.6,13.34,13.34,0,0,1-2.34.17c-.51,0-1.18,0-2-.06a23,23,0,0,1-2.83-.37l.13-1.46,2.14.08,1.4,0h1.22a7.78,7.78,0,0,0,1.88-.18,1.44,1.44,0,0,0,1-.72,3.67,3.67,0,0,0,.28-1.6,4,4,0,0,0-.2-1.4,1.5,1.5,0,0,0-.65-.75,4.16,4.16,0,0,0-1.11-.42l-3.22-.81a3.76,3.76,0,0,1-2.38-1.49,5.12,5.12,0,0,1-.69-2.84,6.2,6.2,0,0,1,.31-2.17,2.47,2.47,0,0,1,.92-1.24,3.64,3.64,0,0,1,1.57-.55A16.1,16.1,0,0,1,1125.4,421.6Z" />
            <circle class="cls-2" cx="1373.14" cy="227.16" r="52.5" />
            <path class="cls-3"
                d="M1373.14,177.16a50,50,0,1,1-50,50,50.06,50.06,0,0,1,50-50m0-5a55,55,0,1,0,55,55,55,55,0,0,0-55-55Z" />
            <path class="cls-3"
                d="M1345,219.44a.62.62,0,0,1,.69.7l.55,12.46h-1.68l-.48-11.77h-.4l-2.93,9.71a.69.69,0,0,1-.73.57h-1.5a.74.74,0,0,1-.77-.57l-2.93-9.71h-.38L1334,232.6h-1.68l.52-12.46a.64.64,0,0,1,.7-.7h1.91a.69.69,0,0,1,.7.57l2.46,8a8.89,8.89,0,0,1,.26.88c.07.29.15.59.24.89h.34c.09-.3.17-.6.25-.89s.16-.6.25-.92l2.46-8a.68.68,0,0,1,.72-.57Z" />
            <path class="cls-3"
                d="M1353,223.08a5.78,5.78,0,0,1,2.56.48,2.78,2.78,0,0,1,1.38,1.55,9.88,9.88,0,0,1,0,5.7,2.8,2.8,0,0,1-1.38,1.56,7.18,7.18,0,0,1-5.11,0,2.82,2.82,0,0,1-1.39-1.56,9.66,9.66,0,0,1,0-5.7,2.8,2.8,0,0,1,1.39-1.55A5.74,5.74,0,0,1,1353,223.08Zm0,1.37a3.39,3.39,0,0,0-1.6.32,1.83,1.83,0,0,0-.83,1.08,7.27,7.27,0,0,0-.24,2.11,7.39,7.39,0,0,0,.24,2.12,1.83,1.83,0,0,0,.83,1.08,3.4,3.4,0,0,0,1.6.31,3.45,3.45,0,0,0,1.6-.31,1.81,1.81,0,0,0,.84-1.08,7.39,7.39,0,0,0,.24-2.12,7.27,7.27,0,0,0-.24-2.11,1.81,1.81,0,0,0-.84-1.08A3.44,3.44,0,0,0,1353,224.45Z" />
            <path class="cls-3"
                d="M1361.3,223.31l.13,1.77.12.29v7.23h-1.62v-9.29Zm4.27-.23a2.24,2.24,0,0,1,2.52,2.56v7h-1.62v-6.51a1.94,1.94,0,0,0-.31-1.28,1.27,1.27,0,0,0-1-.36,3.85,3.85,0,0,0-1.71.42,21.42,21.42,0,0,0-2,1.15l-.08-1.17a10.81,10.81,0,0,1,2.15-1.3A5.32,5.32,0,0,1,1365.57,223.08Z" />
            <path class="cls-3"
                d="M1372.05,228.38l.94.14a1.42,1.42,0,0,0-.44.69,1,1,0,0,0,.07.75,1,1,0,0,0,.77.44l3.47.56a2.29,2.29,0,0,1,2.34,2.61,3,3,0,0,1-.41,1.71,2.28,2.28,0,0,1-1.38.9,10.19,10.19,0,0,1-2.63.27,12.67,12.67,0,0,1-2.12-.15,3.66,3.66,0,0,1-1.38-.47,1.9,1.9,0,0,1-.75-.87,3.45,3.45,0,0,1-.23-1.33,2.52,2.52,0,0,1,.18-1,2,2,0,0,1,.57-.74,5.67,5.67,0,0,1,1-.63l1.15-.63.74.27-.93.7a4.66,4.66,0,0,0-.64.57,1.8,1.8,0,0,0-.38.59,1.9,1.9,0,0,0-.13.75,1.72,1.72,0,0,0,.25,1,1.36,1.36,0,0,0,.88.47,9.85,9.85,0,0,0,1.75.12,8.84,8.84,0,0,0,1.75-.13,1.35,1.35,0,0,0,.86-.48,1.58,1.58,0,0,0,.25-1,1.67,1.67,0,0,0-.12-.72.8.8,0,0,0-.47-.38,4.63,4.63,0,0,0-1-.23l-3.34-.46a1.75,1.75,0,0,1-.94-.38,1.61,1.61,0,0,1-.49-.73,1.88,1.88,0,0,1-.07-.85,2.13,2.13,0,0,1,.28-.8A1.66,1.66,0,0,1,1372.05,228.38Zm2.64-5.3a7.1,7.1,0,0,1,2.35.31,2.19,2.19,0,0,1,1.24,1,3.37,3.37,0,0,1,.37,1.7,3.29,3.29,0,0,1-.37,1.66,2.22,2.22,0,0,1-1.25,1,9.14,9.14,0,0,1-4.72,0,2.21,2.21,0,0,1-1.24-1,3.25,3.25,0,0,1-.37-1.65,3.44,3.44,0,0,1,.37-1.71,2.18,2.18,0,0,1,1.25-1A7.23,7.23,0,0,1,1374.69,223.08Zm0,1.24a3.5,3.5,0,0,0-1.94.39,1.53,1.53,0,0,0-.54,1.33,1.51,1.51,0,0,0,.54,1.31,4.9,4.9,0,0,0,3.88,0,1.51,1.51,0,0,0,.54-1.31,1.53,1.53,0,0,0-.54-1.33A3.47,3.47,0,0,0,1374.67,224.32Zm5.07-1-.1.9-2.36.19-.67-1.09Z" />
            <path class="cls-3"
                d="M1385.5,223.08a5.78,5.78,0,0,1,2.56.48,2.78,2.78,0,0,1,1.38,1.55,9.88,9.88,0,0,1,0,5.7,2.8,2.8,0,0,1-1.38,1.56,7.18,7.18,0,0,1-5.11,0,2.82,2.82,0,0,1-1.39-1.56,9.66,9.66,0,0,1,0-5.7,2.8,2.8,0,0,1,1.39-1.55A5.74,5.74,0,0,1,1385.5,223.08Zm0,1.37a3.39,3.39,0,0,0-1.6.32,1.83,1.83,0,0,0-.83,1.08,7.27,7.27,0,0,0-.24,2.11,7.39,7.39,0,0,0,.24,2.12,1.83,1.83,0,0,0,.83,1.08,3.4,3.4,0,0,0,1.6.31,3.45,3.45,0,0,0,1.6-.31,1.81,1.81,0,0,0,.84-1.08,7.39,7.39,0,0,0,.24-2.12,7.27,7.27,0,0,0-.24-2.11,1.81,1.81,0,0,0-.84-1.08A3.44,3.44,0,0,0,1385.5,224.45Z" />
            <path class="cls-3"
                d="M1397.26,219.27a7.24,7.24,0,0,1,2.39.34,3.4,3.4,0,0,1,1.59,1.13,5.06,5.06,0,0,1,.87,2.07,15.37,15.37,0,0,1,.28,3.21,15.2,15.2,0,0,1-.28,3.2,5,5,0,0,1-.87,2.08,3.31,3.31,0,0,1-1.59,1.12,7.22,7.22,0,0,1-2.39.35c-.9,0-1.74,0-2.51-.05s-1.49-.07-2.18-.12l.72-1.38,1.79.05c.65,0,1.38,0,2.18,0a3.55,3.55,0,0,0,2-.49,2.68,2.68,0,0,0,1.06-1.64,16.21,16.21,0,0,0,0-6.31,2.73,2.73,0,0,0-1.06-1.65,3.55,3.55,0,0,0-2-.49c-.79,0-1.5,0-2.13,0l-1.84,0-.72-1.33c.69-.05,1.41-.09,2.18-.12S1396.36,219.27,1397.26,219.27Zm-3,.17V232.6h-1.68V219.44Z" />
            <path class="cls-3"
                d="M1409.5,219.29a9.22,9.22,0,0,1,2.57.29,2.35,2.35,0,0,1,1.39,1,4.33,4.33,0,0,1,.43,2.1,3.69,3.69,0,0,1-.53,2.15,2.19,2.19,0,0,1-1.7.86v.08a2.53,2.53,0,0,1,2,1,4.48,4.48,0,0,1,.59,2.48,4.27,4.27,0,0,1-.42,2.09,2.22,2.22,0,0,1-1.35,1,8,8,0,0,1-2.43.3h-1.93c-.54,0-1,0-1.5-.05l-1.43-.09.27-1.34,1.59,0,2.73,0a6,6,0,0,0,1.65-.18,1.36,1.36,0,0,0,.86-.68,3.2,3.2,0,0,0,.26-1.43,3.68,3.68,0,0,0-.27-1.58,1.5,1.5,0,0,0-.89-.78,5.17,5.17,0,0,0-1.72-.25h-4.23v-1.28h4.21a5.43,5.43,0,0,0,1.52-.2,1.33,1.33,0,0,0,.81-.67,3.11,3.11,0,0,0,.25-1.36,2.79,2.79,0,0,0-.27-1.37,1.36,1.36,0,0,0-.89-.65,6.31,6.31,0,0,0-1.69-.17h-3c-.37,0-.69,0-.94,0l-.27-1.33c.44-.05.87-.09,1.27-.11s.84,0,1.31,0Zm-2.63.15V232.6h-1.64V219.44Z" />
            <circle class="cls-2" cx="1248.9" cy="71.6" r="47.5" />
            <path class="cls-3"
                d="M1248.9,26.6a45,45,0,1,1-45,45,45,45,0,0,1,45-45m0-5a50,50,0,1,0,50,50,50,50,0,0,0-50-50Z" />
            <path class="cls-3"
                d="M1234.61,64.59a.56.56,0,0,1,.63.64l.5,11.32h-1.52l-.44-10.7h-.36l-2.67,8.82a.62.62,0,0,1-.66.52h-1.37a.65.65,0,0,1-.69-.52l-2.67-8.82H1225l-.41,10.7h-1.53l.47-11.32c0-.43.23-.64.64-.64h1.73a.62.62,0,0,1,.64.52l2.24,7.29a8,8,0,0,1,.23.8c.07.27.14.54.22.81h.31c.08-.27.16-.54.23-.81s.14-.54.22-.83l2.24-7.26a.62.62,0,0,1,.66-.52Z" />
            <path class="cls-3"
                d="M1238.9,68.1l2.23,6.3c.06.17.12.34.17.51a3,3,0,0,1,.14.51h.4l-.48,1.13h-.45a.57.57,0,0,1-.33-.11.51.51,0,0,1-.19-.28l-3.07-8.06Zm6.95,0L1242.47,77a8.44,8.44,0,0,1-.52,1.1,4.71,4.71,0,0,1-.76,1,3.34,3.34,0,0,1-1,.72,3.68,3.68,0,0,1-1.38.32l-.14-1a3.84,3.84,0,0,0,1.58-.89,4.12,4.12,0,0,0,.89-1.35l.41-1c.09-.23.19-.48.28-.76s.18-.52.26-.74l2.2-6.3Z" />
            <path class="cls-3"
                d="M1251,64.38c.57,0,1.15,0,1.75.08a15.93,15.93,0,0,1,1.8.26l-.1,1.11-1.65-.06-1.73,0c-.43,0-.8,0-1.1,0a1.85,1.85,0,0,0-.75.21,1,1,0,0,0-.43.54,3.11,3.11,0,0,0-.13,1,2,2,0,0,0,.36,1.37,2.22,2.22,0,0,0,1.15.59l2.43.6a2.91,2.91,0,0,1,1.89,1.15,4.18,4.18,0,0,1,.51,2.21,5,5,0,0,1-.23,1.69,2.08,2.08,0,0,1-.72,1,3,3,0,0,1-1.25.46,10.53,10.53,0,0,1-1.8.13c-.39,0-.9,0-1.53,0a16.92,16.92,0,0,1-2.18-.28l.11-1.12,1.64.06c.42,0,.78,0,1.08,0h.93a6.18,6.18,0,0,0,1.45-.13,1.15,1.15,0,0,0,.75-.56,2.83,2.83,0,0,0,.21-1.23,3.11,3.11,0,0,0-.15-1.08,1.23,1.23,0,0,0-.5-.58,3,3,0,0,0-.86-.32l-2.47-.62a2.91,2.91,0,0,1-1.83-1.14,4,4,0,0,1-.53-2.19,5.08,5.08,0,0,1,.23-1.67,1.89,1.89,0,0,1,.71-1,2.8,2.8,0,0,1,1.21-.43A12.32,12.32,0,0,1,1251,64.38Z" />
            <path class="cls-3"
                d="M1261.71,64.36a6.85,6.85,0,0,1,2.21.31,3,3,0,0,1,1.45,1,4.72,4.72,0,0,1,.8,1.92,17.47,17.47,0,0,1,0,5.89,4.72,4.72,0,0,1-.8,1.92,3,3,0,0,1-1.45,1,8.07,8.07,0,0,1-4.43,0,3.08,3.08,0,0,1-1.46-1,4.58,4.58,0,0,1-.8-1.92,16.81,16.81,0,0,1,0-5.89,4.58,4.58,0,0,1,.8-1.92,3.08,3.08,0,0,1,1.46-1A6.79,6.79,0,0,1,1261.71,64.36Zm0,1.37a3.38,3.38,0,0,0-1.87.45,2.51,2.51,0,0,0-1,1.5,15,15,0,0,0,0,5.76,2.5,2.5,0,0,0,1,1.51,3.38,3.38,0,0,0,1.87.45,3.31,3.31,0,0,0,1.85-.45,2.55,2.55,0,0,0,1-1.51,14,14,0,0,0,0-5.76,2.55,2.55,0,0,0-1-1.5A3.31,3.31,0,0,0,1261.71,65.73ZM1261,77.29a16.25,16.25,0,0,0,2.17.73,20.9,20.9,0,0,0,2.43.48L1265.1,80a12.85,12.85,0,0,1-2.48-.77,19.77,19.77,0,0,1-2.06-1.05Z" />
            <path class="cls-3"
                d="M1270.48,64.59v9.53a1.18,1.18,0,0,0,.28.87,1.24,1.24,0,0,0,.88.27H1276l.07,1.18c-.75.06-1.51.09-2.29.11h-2.33a2.09,2.09,0,0,1-2.43-2.25V64.59Z" />
            <circle class="cls-2" cx="344" cy="388" r="47.5" />
            <path class="cls-3"
                d="M344,343a45,45,0,1,1-45,45,45.05,45.05,0,0,1,45-45m0-5a50,50,0,1,0,50,50,50,50,0,0,0-50-50Z" />
            <path class="cls-3"
                d="M322.63,380.82a6.79,6.79,0,0,1,2.23.31,2.13,2.13,0,0,1,1.24,1.05,4.55,4.55,0,0,1,.39,2.09,5,5,0,0,1-.22,1.62,2.09,2.09,0,0,1-.7,1,2.7,2.7,0,0,1-1.28.46v.09a1.48,1.48,0,0,1,.58.28,2.65,2.65,0,0,1,.53.57,2.94,2.94,0,0,1,.37.86l1.16,3.78H325.3l-1.06-3.74a2,2,0,0,0-.61-1,1.58,1.58,0,0,0-1-.28h-1.84c-.52,0-.95,0-1.3,0h-.83l.05-1.27h3.86a4.26,4.26,0,0,0,1.4-.21,1.24,1.24,0,0,0,.74-.68,3.43,3.43,0,0,0,.22-1.38,3.29,3.29,0,0,0-.22-1.36,1.29,1.29,0,0,0-.74-.67,4.33,4.33,0,0,0-1.4-.19l-2.45,0-1.39,0-.25-1.2c.44-.05.85-.08,1.23-.1s.8,0,1.26-.05ZM320,381v12H318.5V381Z" />
            <path class="cls-3"
                d="M331.42,381h1.74c.58,0,1.16,0,1.73,0s1.13,0,1.66.08l-.07,1.19h-4.8a1,1,0,0,0-.79.27,1.25,1.25,0,0,0-.25.88v7.1a1.3,1.3,0,0,0,.25.89,1,1,0,0,0,.79.28h4.8l.07,1.17c-.53,0-1.09.06-1.66.07l-1.73,0h-1.74a2.37,2.37,0,0,1-1.68-.57,2,2,0,0,1-.63-1.51V383a2,2,0,0,1,.63-1.52A2.42,2.42,0,0,1,331.42,381Zm-2,5.05h6.38v1.23h-6.38Z" />
            <path class="cls-3"
                d="M343.19,380.82a6.54,6.54,0,0,1,2.17.32,3,3,0,0,1,1.44,1,4.71,4.71,0,0,1,.8,1.89,17.06,17.06,0,0,1,0,5.82,4.71,4.71,0,0,1-.8,1.89,2.9,2.9,0,0,1-1.44,1,6.54,6.54,0,0,1-2.17.32c-.82,0-1.58,0-2.28-.05s-1.36-.06-2-.11l.66-1.25,1.62.05,2,0a3.36,3.36,0,0,0,1.82-.44,2.47,2.47,0,0,0,1-1.49,14.85,14.85,0,0,0,0-5.74,2.5,2.5,0,0,0-1-1.5,3.27,3.27,0,0,0-1.82-.45l-1.94,0-1.67,0-.66-1.21c.63-.05,1.29-.08,2-.11S342.37,380.82,343.19,380.82Zm-2.74.16v12h-1.53V381Z" />
            <path class="cls-3"
                d="M359.05,381v7.38a7.75,7.75,0,0,1-.42,2.8,2.83,2.83,0,0,1-1.35,1.53,5.57,5.57,0,0,1-2.52.48,5.88,5.88,0,0,1-2.58-.48,2.84,2.84,0,0,1-1.4-1.53,7.5,7.5,0,0,1-.44-2.8V381h1.53v7.38a6.21,6.21,0,0,0,.27,2,1.9,1.9,0,0,0,.89,1.08,3.73,3.73,0,0,0,1.67.32,3.64,3.64,0,0,0,1.65-.32,1.9,1.9,0,0,0,.89-1.08,5.92,5.92,0,0,0,.28-2V381Z" />
            <path class="cls-3"
                d="M362.77,381l3.07,5.77-3.28,6.19H360.9l3.36-6.19L361.13,381Zm3.9,5.17v1.17h-1.84v-1.17ZM370.4,381l-3.16,5.77,3.38,6.19H369l-3.28-6.19,3.07-5.77Z" />
            <circle class="cls-2" cx="52.2" cy="234.31" r="49.7" transform="translate(-187.83 231.28) rotate(-76.72)" />
            <path class="cls-3"
                d="M52.2,187.11A47.2,47.2,0,1,1,5,234.31a47.25,47.25,0,0,1,47.2-47.2m0-5a52.2,52.2,0,1,0,52.2,52.2,52.2,52.2,0,0,0-52.2-52.2Z" />
            <path class="cls-3"
                d="M31.44,227v11.86c0,.42-.2.63-.61.63H29.27a.65.65,0,0,1-.43-.13.87.87,0,0,1-.27-.38l-4.22-8.85c-.11-.24-.23-.51-.38-.81a7.12,7.12,0,0,1-.33-.83h-.28c0,.26,0,.53.05.81s0,.56,0,.83v9.36H21.84V227.62a.56.56,0,0,1,.63-.64H24a.68.68,0,0,1,.44.13,1.06,1.06,0,0,1,.27.38l4.09,8.63c.13.25.27.54.42.86s.29.64.43,1h.3l0-1c0-.31,0-.63,0-.94V227Z" />
            <path class="cls-3"
                d="M36.89,227h1.82c.61,0,1.21,0,1.81,0l1.73.08-.07,1.25h-5a1.06,1.06,0,0,0-.82.28,1.3,1.3,0,0,0-.26.92v7.42a1.31,1.31,0,0,0,.26.92,1.06,1.06,0,0,0,.82.29h5l.07,1.23c-.56,0-1.13.06-1.73.07l-1.81,0H36.89a2.52,2.52,0,0,1-1.75-.59,2.15,2.15,0,0,1-.66-1.58v-8.18a2.16,2.16,0,0,1,.66-1.6A2.56,2.56,0,0,1,36.89,227Zm-2.08,5.27h6.66v1.28H34.81Z" />
            <path class="cls-3"
                d="M45.56,227l3.2,6-3.42,6.46H43.6L47.12,233l-3.28-6Zm4.07,5.39v1.24H47.71v-1.24ZM53.52,227l-3.29,6,3.53,6.46H52L48.6,233l3.2-6Z" />
            <path class="cls-3" d="M64.29,227v1.41H54.64V227Zm-4,0v12.49H58.66V227Z" />
            <path class="cls-3"
                d="M66,237.33a.67.67,0,0,1,.45.13.65.65,0,0,1,.13.45v1a.63.63,0,0,1-.13.45.62.62,0,0,1-.45.13H65.5a.61.61,0,0,1-.44-.13.59.59,0,0,1-.14-.45v-1a.6.6,0,0,1,.14-.45.66.66,0,0,1,.44-.13Z" />
            <path class="cls-3"
                d="M72.47,227v9.86a3.05,3.05,0,0,1-.63,2.09,2.26,2.26,0,0,1-1.8.7l-.55,0a3.91,3.91,0,0,1-.61-.08,3.36,3.36,0,0,1-.5-.12l.18-1.13h.9a1.23,1.23,0,0,0,1.41-1.37V227Z" />
            <path class="cls-3"
                d="M79,226.77c.59,0,1.2,0,1.82.09a12.29,12.29,0,0,1,1.89.27l-.11,1.16-1.72-.07-1.81,0c-.45,0-.83,0-1.15.05a1.94,1.94,0,0,0-.79.22,1,1,0,0,0-.44.56,3.38,3.38,0,0,0-.14,1.07,2.19,2.19,0,0,0,.37,1.44,2.33,2.33,0,0,0,1.21.61l2.53.63a3,3,0,0,1,2,1.21,4.28,4.28,0,0,1,.54,2.3A5.3,5.3,0,0,1,83,238a2,2,0,0,1-.75,1,3.13,3.13,0,0,1-1.3.49,11.37,11.37,0,0,1-1.88.14c-.41,0-1,0-1.61-.06a18.8,18.8,0,0,1-2.27-.29l.11-1.17,1.72.06,1.12,0h1a6,6,0,0,0,1.51-.15,1.16,1.16,0,0,0,.78-.58,2.87,2.87,0,0,0,.23-1.28,3,3,0,0,0-.17-1.12,1.23,1.23,0,0,0-.51-.61,3.46,3.46,0,0,0-.9-.34l-2.59-.65a3.05,3.05,0,0,1-1.91-1.19,4.23,4.23,0,0,1-.55-2.28,5,5,0,0,1,.25-1.75,2,2,0,0,1,.74-1,3,3,0,0,1,1.26-.45A13.46,13.46,0,0,1,79,226.77Z" />
            <circle class="cls-2" cx="197.8" cy="60.35" r="49.7" transform="translate(106.55 245.92) rotate(-80.78)" />
            <path class="cls-3"
                d="M197.8,13.15a47.2,47.2,0,1,1-47.2,47.2,47.25,47.25,0,0,1,47.2-47.2m0-5A52.2,52.2,0,1,0,250,60.35a52.2,52.2,0,0,0-52.2-52.2Z" />
            <path class="cls-3"
                d="M166.47,53a.64.64,0,0,1,.38.12.51.51,0,0,1,.21.31l4,12.06h-1.65L166.2,55.26c0-.17-.1-.34-.16-.51s-.1-.34-.15-.5h-.51c0,.16-.1.32-.14.5s-.11.34-.17.51l-3.24,10.25h-1.64l4-12.06a.58.58,0,0,1,.22-.31.64.64,0,0,1,.38-.12Zm2.31,7.2V61.6h-6.33V60.22Z" />
            <path class="cls-3"
                d="M176.31,52.8q.88,0,1.83.09a15.2,15.2,0,0,1,1.88.27l-.11,1.16-1.72-.06-1.81,0c-.44,0-.83,0-1.15.05a2,2,0,0,0-.78.21,1,1,0,0,0-.45.56,3.45,3.45,0,0,0-.13,1.08,2.13,2.13,0,0,0,.37,1.44,2.41,2.41,0,0,0,1.2.61l2.54.63a3,3,0,0,1,2,1.2,4.44,4.44,0,0,1,.53,2.31,5.37,5.37,0,0,1-.24,1.76,2.2,2.2,0,0,1-.75,1,3.32,3.32,0,0,1-1.31.49,11.46,11.46,0,0,1-1.88.13c-.41,0-.94,0-1.6,0a20.45,20.45,0,0,1-2.27-.29l.11-1.18,1.72.07,1.12,0h1a6.67,6.67,0,0,0,1.51-.14,1.16,1.16,0,0,0,.77-.58,2.89,2.89,0,0,0,.23-1.29,3.06,3.06,0,0,0-.16-1.12,1.18,1.18,0,0,0-.52-.6,3.25,3.25,0,0,0-.89-.34l-2.59-.65a3.07,3.07,0,0,1-1.91-1.19,4.14,4.14,0,0,1-.55-2.28,5.23,5.23,0,0,1,.24-1.75,2,2,0,0,1,.74-1,3,3,0,0,1,1.26-.44A13.4,13.4,0,0,1,176.31,52.8Z" />
            <path class="cls-3" d="M191.49,53v1.41h-9.64V53Zm-4,0V65.51h-1.59V53Z" />
            <path class="cls-3"
                d="M197.81,52.86a7.13,7.13,0,0,1,2.33.31,2.26,2.26,0,0,1,1.3,1.1,4.84,4.84,0,0,1,.4,2.19,5.15,5.15,0,0,1-.23,1.69,2.19,2.19,0,0,1-.73,1.05,2.8,2.8,0,0,1-1.33.48v.09a1.69,1.69,0,0,1,.6.3,2.56,2.56,0,0,1,.93,1.49l1.22,4h-1.7l-1.11-3.91a2.09,2.09,0,0,0-.63-1,1.68,1.68,0,0,0-1-.3h-1.92l-1.36,0-.87,0,.06-1.32h4a4.58,4.58,0,0,0,1.46-.22A1.34,1.34,0,0,0,200,58a3.55,3.55,0,0,0,.23-1.44,3.35,3.35,0,0,0-.23-1.42,1.36,1.36,0,0,0-.77-.7,4.38,4.38,0,0,0-1.46-.2l-2.56,0-1.45,0L193.5,53c.46-.05.89-.09,1.29-.11l1.31,0Zm-2.73.16V65.51H193.5V53Z" />
            <path class="cls-3"
                d="M209.15,52.78a7.06,7.06,0,0,1,2.31.33A3.13,3.13,0,0,1,213,54.19a4.85,4.85,0,0,1,.83,2,17.65,17.65,0,0,1,0,6.15,4.91,4.91,0,0,1-.83,2,3,3,0,0,1-1.52,1.07,8.22,8.22,0,0,1-4.61,0,3.08,3.08,0,0,1-1.53-1.07,4.78,4.78,0,0,1-.84-2,17.65,17.65,0,0,1,0-6.15,4.72,4.72,0,0,1,.84-2,3.16,3.16,0,0,1,1.53-1.08A7,7,0,0,1,209.15,52.78Zm0,1.43a3.52,3.52,0,0,0-1.94.47,2.57,2.57,0,0,0-1,1.57,11.87,11.87,0,0,0-.3,3,12,12,0,0,0,.3,3,2.54,2.54,0,0,0,1,1.57,3.52,3.52,0,0,0,1.94.47,3.56,3.56,0,0,0,1.95-.47,2.58,2.58,0,0,0,1-1.57,12,12,0,0,0,.3-3,11.87,11.87,0,0,0-.3-3,2.61,2.61,0,0,0-1-1.57A3.56,3.56,0,0,0,209.15,54.21Z" />
            <path class="cls-3"
                d="M217.46,63.37A.48.48,0,0,1,218,64v1a.62.62,0,0,1-.13.45.63.63,0,0,1-.45.13H217a.66.66,0,0,1-.44-.13.62.62,0,0,1-.13-.45V64a.59.59,0,0,1,.13-.45.61.61,0,0,1,.44-.13Z" />
            <path class="cls-3"
                d="M223.92,53v9.86A3.08,3.08,0,0,1,223.3,65a2.29,2.29,0,0,1-1.8.71l-.56,0a6,6,0,0,1-.61-.08,3.24,3.24,0,0,1-.5-.13l.18-1.12h.91a1.23,1.23,0,0,0,1.41-1.37V53Z" />
            <path class="cls-3"
                d="M230.49,52.8q.88,0,1.83.09a15.48,15.48,0,0,1,1.88.27l-.11,1.16-1.72-.06-1.81,0c-.44,0-.83,0-1.15.05a2,2,0,0,0-.78.21,1,1,0,0,0-.45.56,3.45,3.45,0,0,0-.13,1.08,2.13,2.13,0,0,0,.37,1.44,2.37,2.37,0,0,0,1.2.61l2.53.63a3,3,0,0,1,2,1.2,4.44,4.44,0,0,1,.53,2.31,5.37,5.37,0,0,1-.24,1.76,2.15,2.15,0,0,1-.76,1,3.21,3.21,0,0,1-1.3.49,11.46,11.46,0,0,1-1.88.13c-.41,0-.94,0-1.6,0a20.45,20.45,0,0,1-2.27-.29l.11-1.18,1.71.07,1.13,0h1a6.54,6.54,0,0,0,1.51-.14,1.16,1.16,0,0,0,.78-.58,2.89,2.89,0,0,0,.23-1.29,3.29,3.29,0,0,0-.16-1.12,1.18,1.18,0,0,0-.52-.6,3.2,3.2,0,0,0-.9-.34l-2.58-.65A3.07,3.07,0,0,1,227,58.38a4.14,4.14,0,0,1-.55-2.28,5.23,5.23,0,0,1,.24-1.75,2,2,0,0,1,.74-1,3,3,0,0,1,1.26-.44A13.4,13.4,0,0,1,230.49,52.8Z" />
            <circle class="cls-2" cx="904" cy="60" r="57.5" />
            <path class="cls-3"
                d="M904,5a55,55,0,1,1-55,55A55.06,55.06,0,0,1,904,5m0-5a60,60,0,1,0,60,60A60,60,0,0,0,904,0Z" />
            <path class="cls-3"
                d="M863.38,51.56h2c.67,0,1.35,0,2,0s1.31,0,1.92.1l-.11,1.41h-5.38a1.45,1.45,0,0,0-1.06.33,1.37,1.37,0,0,0-.34,1.05V65.93h-1.83V54.13a2.43,2.43,0,0,1,.75-1.9A2.9,2.9,0,0,1,863.38,51.56ZM861,57.82h7.46v1.47H861Z" />
            <path class="cls-3" d="M873.7,51.58V65.93h-1.84V51.58Z" />
            <path class="cls-3"
                d="M882.26,51.39a8.28,8.28,0,0,1,2.69.36A2.62,2.62,0,0,1,886.43,53a5.44,5.44,0,0,1,.47,2.52,6,6,0,0,1-.27,1.94,2.45,2.45,0,0,1-.84,1.21,3.22,3.22,0,0,1-1.53.55v.1a1.84,1.84,0,0,1,.7.35,2.77,2.77,0,0,1,.63.68,3.11,3.11,0,0,1,.44,1l1.39,4.54h-1.95l-1.27-4.49a2.26,2.26,0,0,0-.73-1.16,1.93,1.93,0,0,0-1.19-.34h-2.2l-1.56,0c-.42,0-.75,0-1,0l.06-1.52h4.64a5.52,5.52,0,0,0,1.68-.25,1.54,1.54,0,0,0,.88-.82,4.13,4.13,0,0,0,.27-1.66,3.9,3.9,0,0,0-.27-1.63,1.51,1.51,0,0,0-.88-.8,5,5,0,0,0-1.68-.23l-2.94,0-1.68,0-.29-1.43c.53-.06,1-.1,1.48-.13s1,0,1.51-.05Zm-3.14.19V65.93h-1.81V51.58Z" />
            <path class="cls-3"
                d="M892.81,51.56h2.09c.7,0,1.39,0,2.08,0s1.35,0,2,.09l-.09,1.43h-5.76a1.21,1.21,0,0,0-.94.33,1.45,1.45,0,0,0-.31,1.05V63a1.51,1.51,0,0,0,.31,1.06,1.21,1.21,0,0,0,.94.33h5.76l.09,1.41c-.64.05-1.3.07-2,.09l-2.08,0h-2.09a2.86,2.86,0,0,1-2-.68,2.43,2.43,0,0,1-.76-1.82v-9.4a2.42,2.42,0,0,1,.76-1.83A2.9,2.9,0,0,1,892.81,51.56Zm-2.39,6h7.65v1.47h-7.65Z" />
            <path class="cls-3"
                d="M906.48,51.41a10,10,0,0,1,2.8.32,2.48,2.48,0,0,1,1.51,1.14,4.61,4.61,0,0,1,.47,2.28,4.06,4.06,0,0,1-.57,2.35,2.41,2.41,0,0,1-1.86.94v.08a2.77,2.77,0,0,1,2.23,1.13,4.94,4.94,0,0,1,.64,2.7,4.75,4.75,0,0,1-.46,2.29,2.47,2.47,0,0,1-1.47,1.13,8.74,8.74,0,0,1-2.65.32H905c-.59,0-1.14,0-1.63,0l-1.56-.1.29-1.46c.3,0,.88,0,1.73,0s1.85,0,3,0a6.63,6.63,0,0,0,1.8-.19,1.44,1.44,0,0,0,.93-.74,3.42,3.42,0,0,0,.28-1.56,4,4,0,0,0-.29-1.73,1.67,1.67,0,0,0-1-.85,5.81,5.81,0,0,0-1.88-.27h-4.61V57.8h4.59a6.29,6.29,0,0,0,1.66-.22,1.44,1.44,0,0,0,.88-.73,3.33,3.33,0,0,0,.27-1.49,3.19,3.19,0,0,0-.29-1.5,1.5,1.5,0,0,0-1-.7,6.91,6.91,0,0,0-1.84-.19h-3.25c-.41,0-.76,0-1,.05l-.29-1.45q.72-.09,1.38-.12l1.43,0Zm-2.87.17V65.93h-1.79V51.58Z" />
            <path class="cls-3"
                d="M920.33,51.58a.71.71,0,0,1,.43.13.61.61,0,0,1,.25.36l4.62,13.86h-1.89L920,54.16l-.18-.6q-.09-.3-.18-.57h-.58c-.06.18-.11.37-.17.57s-.11.4-.18.6L915,65.93h-1.89l4.62-13.86a.61.61,0,0,1,.25-.36.71.71,0,0,1,.43-.13ZM923,59.85v1.59h-7.28V59.85Z" />
            <path class="cls-3"
                d="M931.64,51.33c.68,0,1.38.05,2.1.1a18,18,0,0,1,2.17.31l-.13,1.33-2-.07-2.08,0c-.52,0-1,0-1.32.05a2.46,2.46,0,0,0-.91.25,1.13,1.13,0,0,0-.51.65,3.94,3.94,0,0,0-.16,1.23,2.51,2.51,0,0,0,.43,1.66,2.71,2.71,0,0,0,1.38.69l2.92.73a3.48,3.48,0,0,1,2.27,1.38,5,5,0,0,1,.62,2.66,6.14,6.14,0,0,1-.28,2,2.37,2.37,0,0,1-.87,1.18,3.54,3.54,0,0,1-1.49.56,12.42,12.42,0,0,1-2.17.16c-.47,0-1.08,0-1.84-.07a21.11,21.11,0,0,1-2.61-.33l.13-1.35,2,.07,1.29,0h1.13a7.19,7.19,0,0,0,1.73-.16,1.32,1.32,0,0,0,.9-.67,3.3,3.3,0,0,0,.26-1.47,3.58,3.58,0,0,0-.19-1.29,1.41,1.41,0,0,0-.59-.7,3.82,3.82,0,0,0-1-.39l-3-.74a3.52,3.52,0,0,1-2.19-1.38,4.77,4.77,0,0,1-.64-2.62,6.14,6.14,0,0,1,.28-2,2.35,2.35,0,0,1,.86-1.14,3.32,3.32,0,0,1,1.44-.51A15.67,15.67,0,0,1,931.64,51.33Z" />
            <path class="cls-3"
                d="M942,51.56h2.09c.7,0,1.39,0,2.08,0s1.35,0,2,.09L948,53.11h-5.76a1.25,1.25,0,0,0-.95.33,1.5,1.5,0,0,0-.3,1.05V63a1.56,1.56,0,0,0,.3,1.06,1.25,1.25,0,0,0,.95.33H948l.09,1.41c-.64.05-1.3.07-2,.09l-2.08,0H942a2.86,2.86,0,0,1-2-.68,2.43,2.43,0,0,1-.76-1.82v-9.4a2.42,2.42,0,0,1,.76-1.83A2.9,2.9,0,0,1,942,51.56Zm-2.39,6h7.65v1.47h-7.65Z" />
            <circle class="cls-2" cx="569.47" cy="78.55" r="54.92" />
            <path class="cls-3"
                d="M569.47,26.13a52.42,52.42,0,1,1-52.42,52.42,52.48,52.48,0,0,1,52.42-52.42m0-5a57.42,57.42,0,1,0,57.42,57.42,57.42,57.42,0,0,0-57.42-57.42Z" />
            <path class="cls-3" d="M569.19,70.49V72H558.58V70.49Zm-4.44,0V84.22H563V70.49Z" />
            <path class="cls-3"
                d="M575.22,70.25c.65,0,1.32,0,2,.1a16.36,16.36,0,0,1,2.07.29l-.12,1.28-1.89-.07-2,0c-.49,0-.91,0-1.26.05a2.13,2.13,0,0,0-.87.24,1,1,0,0,0-.48.61,3.75,3.75,0,0,0-.15,1.19,2.37,2.37,0,0,0,.4,1.58,2.64,2.64,0,0,0,1.33.67l2.78.69a3.33,3.33,0,0,1,2.18,1.33,4.71,4.71,0,0,1,.59,2.54,5.74,5.74,0,0,1-.27,1.93,2.27,2.27,0,0,1-.82,1.12,3.5,3.5,0,0,1-1.44.54,12.37,12.37,0,0,1-2.07.15c-.45,0-1,0-1.76-.06a21.13,21.13,0,0,1-2.5-.32l.12-1.29,1.89.07,1.24,0h1.07a7.22,7.22,0,0,0,1.67-.16,1.27,1.27,0,0,0,.85-.64,3.09,3.09,0,0,0,.25-1.41,3.39,3.39,0,0,0-.18-1.24,1.32,1.32,0,0,0-.57-.66,3.19,3.19,0,0,0-1-.37l-2.85-.72a3.38,3.38,0,0,1-2.1-1.31,4.61,4.61,0,0,1-.61-2.51A5.6,5.6,0,0,1,571,72a2.17,2.17,0,0,1,.82-1.1,3.36,3.36,0,0,1,1.38-.48A14.26,14.26,0,0,1,575.22,70.25Z" />
            <circle class="cls-2" cx="1171.65" cy="242.82" r="62.5" />
            <path class="cls-3"
                d="M1171.65,182.82a60,60,0,1,1-60,60,60.07,60.07,0,0,1,60-60m0-5a65,65,0,1,0,65,65,65,65,0,0,0-65-65Z" />
            <path class="cls-3"
                d="M1143.58,233.69v14.76c0,.53-.25.79-.76.79h-1.94a.81.81,0,0,1-.54-.16,1.08,1.08,0,0,1-.34-.47l-5.25-11c-.13-.3-.29-.64-.47-1a6.74,6.74,0,0,1-.41-1h-.36c0,.33,0,.67.07,1s0,.69,0,1v11.65h-2V234.48a.7.7,0,0,1,.79-.79h1.87a.91.91,0,0,1,.54.16,1.21,1.21,0,0,1,.34.48l5.09,10.74.53,1.07c.19.4.36.8.53,1.19h.38c0-.41,0-.81,0-1.2s0-.78,0-1.17V233.69Z" />
            <path class="cls-3"
                d="M1153.07,233.4a8.89,8.89,0,0,1,2.87.41,3.9,3.9,0,0,1,1.9,1.34,6.21,6.21,0,0,1,1,2.49,22.39,22.39,0,0,1,0,7.66,6.21,6.21,0,0,1-1,2.49,4,4,0,0,1-1.9,1.34,10.25,10.25,0,0,1-5.74,0,4,4,0,0,1-1.91-1.34,6.08,6.08,0,0,1-1-2.49,23.08,23.08,0,0,1,0-7.66,6.08,6.08,0,0,1,1-2.49,3.93,3.93,0,0,1,1.91-1.34A8.89,8.89,0,0,1,1153.07,233.4Zm0,1.78a4.35,4.35,0,0,0-2.42.59,3.17,3.17,0,0,0-1.26,1.95,18.64,18.64,0,0,0,0,7.49,3.16,3.16,0,0,0,1.26,2,5.26,5.26,0,0,0,4.84,0,3.16,3.16,0,0,0,1.26-2,18.64,18.64,0,0,0,0-7.49,3.17,3.17,0,0,0-1.26-1.95A4.35,4.35,0,0,0,1153.07,235.18Z" />
            <path class="cls-3"
                d="M1168.1,233.49a8.68,8.68,0,0,1,2.83.41,4,4,0,0,1,1.87,1.33,6,6,0,0,1,1,2.45,21.87,21.87,0,0,1,0,7.57,6,6,0,0,1-1,2.46,4,4,0,0,1-1.87,1.33,8.68,8.68,0,0,1-2.83.41c-1.07,0-2.06,0-3-.06s-1.77-.09-2.58-.15l.85-1.62,2.11.06q1.15,0,2.58,0a4.27,4.27,0,0,0,2.36-.57,3.23,3.23,0,0,0,1.26-1.94,19,19,0,0,0,0-7.46,3.25,3.25,0,0,0-1.26-2,4.18,4.18,0,0,0-2.36-.59c-.93,0-1.77,0-2.51,0l-2.18,0-.85-1.58c.81-.06,1.67-.1,2.58-.14S1167,233.49,1168.1,233.49Zm-3.56.2v15.55h-2V233.69Z" />
            <path class="cls-3"
                d="M1180.38,233.67h2.26c.76,0,1.51,0,2.26,0s1.46,0,2.15.1l-.09,1.55h-6.24a1.36,1.36,0,0,0-1,.35,1.62,1.62,0,0,0-.32,1.14v9.24a1.68,1.68,0,0,0,.32,1.15,1.33,1.33,0,0,0,1,.36H1187l.09,1.53c-.69.05-1.41.08-2.15.09s-1.5,0-2.26,0h-2.26a3.11,3.11,0,0,1-2.18-.73,2.63,2.63,0,0,1-.82-2V236.38a2.63,2.63,0,0,1,.82-2A3.15,3.15,0,0,1,1180.38,233.67Zm-2.59,6.56h8.29v1.6h-8.29Z" />
            <path class="cls-3"
                d="M1191.06,246.58a.8.8,0,0,1,.56.16.77.77,0,0,1,.16.56v1.22a.6.6,0,0,1-.72.72h-.63a.61.61,0,0,1-.72-.72V247.3a.76.76,0,0,1,.17-.56.8.8,0,0,1,.55-.16Z" />
            <path class="cls-3"
                d="M1199.11,233.69V246a3.8,3.8,0,0,1-.78,2.59,2.86,2.86,0,0,1-2.24.88c-.2,0-.43,0-.69,0a6.48,6.48,0,0,1-.77-.1,4.58,4.58,0,0,1-.62-.16l.23-1.39h1.13a1.54,1.54,0,0,0,1.75-1.72V233.69Z" />
            <path class="cls-3"
                d="M1207.28,233.42q1.11,0,2.28.12a18.82,18.82,0,0,1,2.34.33l-.13,1.45-2.14-.08c-.78,0-1.53,0-2.26,0-.55,0-1,0-1.43.06a2.64,2.64,0,0,0-1,.27,1.23,1.23,0,0,0-.55.7,4.28,4.28,0,0,0-.17,1.34,2.71,2.71,0,0,0,.46,1.79,2.94,2.94,0,0,0,1.5.76l3.16.79a3.72,3.72,0,0,1,2.46,1.49,5.36,5.36,0,0,1,.67,2.88,6.53,6.53,0,0,1-.3,2.18,2.66,2.66,0,0,1-.94,1.28,4,4,0,0,1-1.62.6,13.38,13.38,0,0,1-2.35.17c-.51,0-1.17,0-2-.06a23.25,23.25,0,0,1-2.83-.37l.14-1.46,2.14.08,1.4,0h1.21a7.67,7.67,0,0,0,1.88-.18,1.44,1.44,0,0,0,1-.72,3.53,3.53,0,0,0,.28-1.6,3.74,3.74,0,0,0-.2-1.4,1.48,1.48,0,0,0-.64-.75,4.24,4.24,0,0,0-1.12-.42l-3.22-.81a3.76,3.76,0,0,1-2.38-1.49,5.2,5.2,0,0,1-.68-2.83,6.49,6.49,0,0,1,.3-2.18,2.43,2.43,0,0,1,.93-1.24,3.65,3.65,0,0,1,1.56-.55A16.1,16.1,0,0,1,1207.28,233.42Z" />
            <circle class="cls-2" cx="454.05" cy="774.4" r="47.5" />
            <path class="cls-3"
                d="M454.05,729.4a45,45,0,1,1-45,45,45,45,0,0,1,45-45m0-5a50,50,0,1,0,50,50,50,50,0,0,0-50-50Z" />
            <path class="cls-3" d="M425.13,767.38v1.35h-9.24v-1.35Zm-3.86,0v12h-1.53v-12Z" />
            <path class="cls-3"
                d="M430.71,767.38a.6.6,0,0,1,.37.11.49.49,0,0,1,.2.3l3.85,11.55h-1.57l-3.11-9.81c0-.17-.09-.33-.14-.5s-.11-.33-.15-.48h-.49c0,.15-.09.31-.14.48a4.74,4.74,0,0,1-.15.5l-3.1,9.81H424.7l3.85-11.55a.49.49,0,0,1,.2-.3.6.6,0,0,1,.37-.11Zm2.22,6.89v1.32h-6.07v-1.32Z" />
            <path class="cls-3" d="M438.34,767.38v12h-1.53v-12Z" />
            <path class="cls-3"
                d="M442.83,767.38v9.53a1.18,1.18,0,0,0,.28.87,1.27,1.27,0,0,0,.88.27h4.32l.07,1.18c-.76.06-1.52.09-2.3.11h-2.33a2.33,2.33,0,0,1-1.87-.64,2.37,2.37,0,0,1-.56-1.61v-9.72Z" />
            <path class="cls-3"
                d="M463.82,767.38l-2.43,11.51a.6.6,0,0,1-.21.32.61.61,0,0,1-.39.13h-1.74a.65.65,0,0,1-.39-.13.57.57,0,0,1-.2-.34l-1.87-9c0-.23-.09-.46-.14-.68s-.09-.45-.14-.67H456c-.05.22-.09.44-.13.68s-.08.45-.13.67l-1.85,9a.62.62,0,0,1-.61.47h-1.75a.65.65,0,0,1-.39-.13.53.53,0,0,1-.2-.32l-2.43-11.51h1.61L452,776.7c0,.22.08.46.12.7s.07.51.12.77h.4c0-.26.09-.52.14-.76s.09-.48.13-.71l1.86-8.82a.57.57,0,0,1,.59-.5H457a.55.55,0,0,1,.38.13.66.66,0,0,1,.21.37l1.86,8.82c.05.26.1.5.14.75s.08.48.1.72h.43c0-.24.07-.48.11-.73s.07-.49.12-.72l1.89-9.34Z" />
            <path class="cls-3" d="M467.39,767.38v12h-1.53v-12Z" />
            <path class="cls-3"
                d="M479.61,767.38v11.35a.53.53,0,0,1-.59.61h-1.49a.64.64,0,0,1-.42-.13.93.93,0,0,1-.26-.36l-4-8.48-.37-.78a4.74,4.74,0,0,1-.31-.79h-.28c0,.25,0,.51.05.78s0,.53,0,.79v9h-1.52V768a.53.53,0,0,1,.6-.6h1.44a.7.7,0,0,1,.42.12.93.93,0,0,1,.26.36l3.91,8.27c.13.24.27.52.41.82s.28.61.41.91h.29l0-.92c0-.3,0-.6,0-.9v-8.66Z" />
            <path class="cls-3"
                d="M486.89,767.22a6.55,6.55,0,0,1,2.17.31,3,3,0,0,1,1.44,1,4.7,4.7,0,0,1,.8,1.89,17.12,17.12,0,0,1,0,5.83,4.7,4.7,0,0,1-.8,1.89,3,3,0,0,1-1.44,1,6.55,6.55,0,0,1-2.17.31c-.82,0-1.58,0-2.28,0l-2-.11.65-1.25,1.62,0c.6,0,1.26,0,2,0a3.25,3.25,0,0,0,1.82-.45,2.44,2.44,0,0,0,1-1.49,14.3,14.3,0,0,0,0-5.73,2.5,2.5,0,0,0-1-1.5,3.25,3.25,0,0,0-1.82-.45H485l-1.68,0-.65-1.21q.93-.07,2-.12C485.31,767.23,486.07,767.22,486.89,767.22Zm-2.74.16v12h-1.52v-12Z" />
            <circle class="cls-2" cx="1341" cy="455" r="72.5" />
            <path class="cls-3"
                d="M1341,385a70,70,0,1,1-70,70,70.08,70.08,0,0,1,70-70m0-5a75,75,0,1,0,75,75,75,75,0,0,0-75-75Z" />
            <path class="cls-3"
                d="M1303.85,444.24a9.68,9.68,0,0,1,3.42.49,3.17,3.17,0,0,1,1.8,1.7,8.46,8.46,0,0,1,.55,3.42,8.89,8.89,0,0,1-.53,3.43,3.09,3.09,0,0,1-1.75,1.71,8.9,8.9,0,0,1-3.23.48c-.73,0-1.43,0-2.1-.05s-1.27-.09-1.83-.15-1-.12-1.42-.19a6.73,6.73,0,0,1-.81-.18l.07-1.41h5.8a6,6,0,0,0,2.07-.32,1.89,1.89,0,0,0,1.09-1.09,6,6,0,0,0,.32-2.23,6,6,0,0,0-.32-2.23,2,2,0,0,0-1.09-1.1,5.78,5.78,0,0,0-2.07-.31c-1.42,0-2.65,0-3.68,0s-1.73,0-2.09.08l-.37-1.85c.66-.07,1.28-.12,1.85-.16s1.2-.05,1.87-.06Zm-3.88.23v17.94h-2.29V444.47Z" />
            <path class="cls-3"
                d="M1319.21,444.24a10.33,10.33,0,0,1,3.36.45,3.24,3.24,0,0,1,1.86,1.57,6.94,6.94,0,0,1,.58,3.15,7.37,7.37,0,0,1-.34,2.43,3,3,0,0,1-1.05,1.51,3.93,3.93,0,0,1-1.91.69v.13a2.35,2.35,0,0,1,.87.43,3.47,3.47,0,0,1,.79.86,3.65,3.65,0,0,1,.55,1.28l1.74,5.67h-2.44l-1.59-5.62a2.89,2.89,0,0,0-.91-1.44,2.43,2.43,0,0,0-1.48-.43h-2.76l-2,0-1.25,0,.08-1.89h5.8a6.32,6.32,0,0,0,2.09-.32,1.92,1.92,0,0,0,1.11-1,5.24,5.24,0,0,0,.34-2.07,5,5,0,0,0-.34-2,1.92,1.92,0,0,0-1.11-1,6.16,6.16,0,0,0-2.09-.29c-1.42,0-2.65,0-3.68,0s-1.73,0-2.09,0l-.37-1.79c.66-.07,1.28-.12,1.85-.16s1.2-.05,1.89-.06Zm-3.92.23v17.94H1313V444.47Z" />
            <path class="cls-3" d="M1331.38,444.47v17.94h-2.29V444.47Z" />
            <path class="cls-3"
                d="M1340.9,444.16c.85,0,1.72.06,2.62.13a21.31,21.31,0,0,1,2.71.39l-.16,1.66-2.47-.09c-.9,0-1.77,0-2.6,0a15.7,15.7,0,0,0-1.65.07,2.86,2.86,0,0,0-1.13.31,1.36,1.36,0,0,0-.64.81,4.83,4.83,0,0,0-.19,1.54,3.07,3.07,0,0,0,.53,2.07,3.31,3.31,0,0,0,1.73.87l3.64.91a4.4,4.4,0,0,1,2.85,1.73,6.24,6.24,0,0,1,.76,3.31,7.66,7.66,0,0,1-.35,2.53,2.93,2.93,0,0,1-1.08,1.47,4.69,4.69,0,0,1-1.87.7,16.29,16.29,0,0,1-2.7.19c-.59,0-1.36,0-2.3-.07a29.34,29.34,0,0,1-3.27-.42l.16-1.69,2.47.09c.62,0,1.16,0,1.61,0h1.4a8.93,8.93,0,0,0,2.18-.21,1.67,1.67,0,0,0,1.11-.83,4.08,4.08,0,0,0,.33-1.85,4.3,4.3,0,0,0-.24-1.61,1.71,1.71,0,0,0-.74-.87,4.4,4.4,0,0,0-1.28-.48l-3.72-.94a4.36,4.36,0,0,1-2.74-1.71,6,6,0,0,1-.8-3.28,7.49,7.49,0,0,1,.35-2.51,2.88,2.88,0,0,1,1.07-1.43,4.4,4.4,0,0,1,1.81-.64A19.29,19.29,0,0,1,1340.9,444.16Z" />
            <path class="cls-3"
                d="M1367.44,444.47a.84.84,0,0,1,.94,1l.75,17h-2.29l-.65-16h-.54l-4,13.23a.93.93,0,0,1-1,.78h-2.06a1,1,0,0,1-1-.78l-4-13.23H1353l-.63,16h-2.28l.7-17a.87.87,0,0,1,1-1h2.6a.94.94,0,0,1,1,.78l3.36,10.95c.13.4.25.79.35,1.19s.2.81.32,1.22h.47c.12-.41.23-.82.34-1.22s.22-.81.34-1.24l3.35-10.9a.94.94,0,0,1,1-.78Z" />
            <path class="cls-3"
                d="M1380.31,444.47a.94.94,0,0,1,.55.17.8.8,0,0,1,.31.45l5.77,17.32h-2.36l-4.66-14.71c-.07-.25-.14-.5-.22-.75l-.22-.71h-.73c-.07.22-.14.46-.21.71s-.14.5-.23.75l-4.65,14.71h-2.37l5.77-17.32a.8.8,0,0,1,.31-.45.94.94,0,0,1,.55-.17Zm3.33,10.35v2h-9.1v-2Z" />
            <circle class="cls-2" cx="741" cy="431" r="128" transform="translate(-87.73 650.2) rotate(-45)" />
            <path class="cls-3"
                d="M741,305.5a125.51,125.51,0,1,1-88.74,36.76A124.65,124.65,0,0,1,741,305.5m0-5A130.5,130.5,0,1,0,871.5,431,130.5,130.5,0,0,0,741,300.5Z" />
            <path class="cls-3"
                d="M736.15,397.84l-4.62,21.91a1.23,1.23,0,0,1-.4.61,1.16,1.16,0,0,1-.76.25h-3.3a1.2,1.2,0,0,1-.74-.25,1,1,0,0,1-.38-.65l-3.56-17.12-.27-1.31c-.08-.43-.17-.85-.26-1.27h-.69c-.09.42-.17.85-.25,1.29s-.16.87-.25,1.29l-3.53,17.12a1.18,1.18,0,0,1-.41.65,1.2,1.2,0,0,1-.74.25h-3.34a1.2,1.2,0,0,1-.74-.25,1,1,0,0,1-.38-.61l-4.62-21.91H710l3.56,17.75c.09.42.17.86.24,1.34s.14,1,.23,1.46h.75c.09-.5.18-1,.27-1.45s.17-.91.26-1.35l3.53-16.8a1.13,1.13,0,0,1,.38-.69,1.11,1.11,0,0,1,.75-.26h3.16a1,1,0,0,1,.73.26,1.33,1.33,0,0,1,.4.69l3.53,16.8c.11.48.2,1,.28,1.42s.14.92.18,1.38h.82c.07-.46.14-.93.2-1.4s.15-.93.23-1.37l3.6-17.78Z" />
            <path class="cls-3"
                d="M744.23,397.8h3.32c1.11,0,2.21,0,3.3.05s2.14.08,3.15.15l-.13,2.28h-9.14a2,2,0,0,0-1.5.51,2.39,2.39,0,0,0-.48,1.66V416a2.44,2.44,0,0,0,.48,1.68,1.94,1.94,0,0,0,1.5.53h9.14l.13,2.24c-1,.07-2.06.11-3.15.13l-3.3.05-3.32,0a4.55,4.55,0,0,1-3.18-1.07,3.87,3.87,0,0,1-1.21-2.89V401.76a3.83,3.83,0,0,1,1.21-2.9A4.54,4.54,0,0,1,744.23,397.8Zm-3.79,9.61h12.14v2.34H740.44Z" />
            <path class="cls-3"
                d="M765.91,397.57a15.64,15.64,0,0,1,4.46.51,4,4,0,0,1,2.39,1.8,7.28,7.28,0,0,1,.74,3.63,6.48,6.48,0,0,1-.9,3.73,3.88,3.88,0,0,1-3,1.49v.13a4.41,4.41,0,0,1,3.55,1.78,7.82,7.82,0,0,1,1,4.29,7.4,7.4,0,0,1-.73,3.63,3.89,3.89,0,0,1-2.32,1.8,14.24,14.24,0,0,1-4.21.51l-3.35,0c-.94,0-1.8,0-2.59-.08s-1.62-.1-2.48-.16l.47-2.31,2.75.06q2,0,4.74,0a10.22,10.22,0,0,0,2.85-.31,2.38,2.38,0,0,0,1.49-1.17,5.62,5.62,0,0,0,.44-2.48,6.4,6.4,0,0,0-.46-2.73,2.69,2.69,0,0,0-1.55-1.36,9.85,9.85,0,0,0-3-.43H759V407.7h7.29a9.44,9.44,0,0,0,2.63-.34,2.27,2.27,0,0,0,1.4-1.16,5.23,5.23,0,0,0,.43-2.36,4.91,4.91,0,0,0-.46-2.37,2.41,2.41,0,0,0-1.54-1.13,11.73,11.73,0,0,0-2.92-.29h-5.16c-.65,0-1.2,0-1.63.09l-.47-2.31c.77-.09,1.5-.15,2.2-.19s1.45,0,2.27-.06Zm-4.55.27v22.77h-2.84V397.84Z" />
            <path class="cls-3"
                d="M639,437.14a12.77,12.77,0,0,1,4.14.59,5.77,5.77,0,0,1,2.74,1.95,8.92,8.92,0,0,1,1.52,3.6,32.21,32.21,0,0,1,0,11.08,8.92,8.92,0,0,1-1.52,3.6,5.77,5.77,0,0,1-2.74,2,12.77,12.77,0,0,1-4.14.59c-1.56,0-3,0-4.34-.08s-2.59-.13-3.78-.22l1.26-2.37,3.08.08c1.14,0,2.4,0,3.78,0a6.3,6.3,0,0,0,3.47-.84,4.76,4.76,0,0,0,1.83-2.84,27.87,27.87,0,0,0,0-10.92,4.87,4.87,0,0,0-1.83-2.86,6.21,6.21,0,0,0-3.47-.85c-1.36,0-2.59,0-3.68,0l-3.18.06-1.26-2.3c1.19-.09,2.45-.16,3.78-.22S637.42,437.14,639,437.14Zm-5.21.3V460.2h-2.91V437.44Z" />
            <path class="cls-3"
                d="M657,437.4h3.31c1.11,0,2.21,0,3.3.05s2.14.08,3.15.15l-.13,2.28h-9.14a2,2,0,0,0-1.5.51,2.37,2.37,0,0,0-.48,1.66v13.53a2.45,2.45,0,0,0,.48,1.69,1.94,1.94,0,0,0,1.5.53h9.14l.13,2.24c-1,.07-2.06.11-3.15.13l-3.3.05-3.31,0a4.56,4.56,0,0,1-3.19-1.07,3.83,3.83,0,0,1-1.2-2.89V441.36a3.79,3.79,0,0,1,1.2-2.9A4.55,4.55,0,0,1,657,437.4Zm-3.8,9.6h12.14v2.35H653.17Z" />
            <path class="cls-3"
                d="M687.92,437.44,681,459.38a1.49,1.49,0,0,1-.43.58,1.05,1.05,0,0,1-.69.24H677a1.12,1.12,0,0,1-.72-.24,1.25,1.25,0,0,1-.4-.58l-6.9-21.94h3l5.38,18.05c.11.41.22.83.34,1.23s.23.82.32,1.24h.89l.33-1.25q.16-.63.36-1.26l5.35-18Z" />
            <path class="cls-3"
                d="M695.54,437.4h3.32c1.11,0,2.21,0,3.3.05s2.14.08,3.15.15l-.13,2.28H696a2,2,0,0,0-1.5.51,2.37,2.37,0,0,0-.48,1.66v13.53a2.45,2.45,0,0,0,.48,1.69,1.93,1.93,0,0,0,1.5.53h9.14l.13,2.24c-1,.07-2.06.11-3.15.13l-3.3.05-3.32,0a4.55,4.55,0,0,1-3.18-1.07,3.87,3.87,0,0,1-1.21-2.89V441.36a3.83,3.83,0,0,1,1.21-2.9A4.54,4.54,0,0,1,695.54,437.4Zm-3.79,9.6h12.14v2.35H691.75Z" />
            <path class="cls-3"
                d="M712.64,437.44v18.14a2.26,2.26,0,0,0,.54,1.66,2.32,2.32,0,0,0,1.67.52h8.21l.14,2.25c-1.43.11-2.89.17-4.38.19s-3,0-4.43,0a4,4,0,0,1-4.62-4.29V437.44Z" />
            <path class="cls-3"
                d="M734.42,437a12.89,12.89,0,0,1,4.2.59,5.78,5.78,0,0,1,2.78,2,9.16,9.16,0,0,1,1.51,3.65,33,33,0,0,1,0,11.22,9.16,9.16,0,0,1-1.51,3.65,5.78,5.78,0,0,1-2.78,2,15.28,15.28,0,0,1-8.41,0,5.81,5.81,0,0,1-2.79-2,8.89,8.89,0,0,1-1.53-3.65,33,33,0,0,1,0-11.22,8.89,8.89,0,0,1,1.53-3.65,5.81,5.81,0,0,1,2.79-2A13,13,0,0,1,734.42,437Zm0,2.6a6.41,6.41,0,0,0-3.55.86,4.7,4.7,0,0,0-1.85,2.85,28.18,28.18,0,0,0,0,11,4.72,4.72,0,0,0,1.85,2.87,7.74,7.74,0,0,0,7.09,0,4.72,4.72,0,0,0,1.85-2.87,27.68,27.68,0,0,0,0-11,4.7,4.7,0,0,0-1.85-2.85A6.39,6.39,0,0,0,734.42,439.61Z" />
            <path class="cls-3"
                d="M756.13,437.14a12.4,12.4,0,0,1,4.34.62,4,4,0,0,1,2.29,2.17,10.68,10.68,0,0,1,.7,4.34,11.17,11.17,0,0,1-.68,4.35,3.88,3.88,0,0,1-2.21,2.16,11.27,11.27,0,0,1-4.11.61c-.92,0-1.81,0-2.66-.06s-1.62-.11-2.32-.18-1.31-.16-1.8-.25a10.19,10.19,0,0,1-1-.23l.1-1.78h7.36a7.82,7.82,0,0,0,2.62-.42,2.39,2.39,0,0,0,1.39-1.38,10,10,0,0,0,0-5.66,2.5,2.5,0,0,0-1.39-1.39,7.2,7.2,0,0,0-2.62-.39c-1.81,0-3.36,0-4.67,0s-2.2.05-2.66.1l-.46-2.34c.84-.09,1.62-.16,2.34-.2s1.52-.07,2.38-.09Zm-4.92.3V460.2h-2.9V437.44Z" />
            <path class="cls-3"
                d="M789.29,437.44a1.06,1.06,0,0,1,1.19,1.22l1,21.54h-2.9l-.83-20.36H787l-5.08,16.8a1.2,1.2,0,0,1-1.26,1h-2.61a1.27,1.27,0,0,1-1.32-1l-5.08-16.8H771l-.79,20.36h-2.9l.89-21.54a1.11,1.11,0,0,1,1.22-1.22h3.3a1.2,1.2,0,0,1,1.22,1l4.26,13.9c.17.5.32,1,.44,1.52s.26,1,.42,1.55h.59c.15-.53.3-1.05.43-1.55s.27-1,.43-1.59l4.25-13.83a1.19,1.19,0,0,1,1.26-1Z" />
            <path class="cls-3"
                d="M800.91,437.4h3.32c1.11,0,2.21,0,3.3.05s2.14.08,3.15.15l-.13,2.28h-9.14a1.94,1.94,0,0,0-1.5.51,2.37,2.37,0,0,0-.48,1.66v13.53a2.45,2.45,0,0,0,.48,1.69,1.91,1.91,0,0,0,1.5.53h9.14l.13,2.24c-1,.07-2.06.11-3.15.13l-3.3.05-3.32,0a4.55,4.55,0,0,1-3.18-1.07,3.84,3.84,0,0,1-1.21-2.89V441.36a3.8,3.8,0,0,1,1.21-2.9A4.54,4.54,0,0,1,800.91,437.4Zm-3.79,9.6h12.14v2.35H797.12Z" />
            <path class="cls-3"
                d="M832.72,437.44v21.61a1,1,0,0,1-1.12,1.15h-2.84A1.22,1.22,0,0,1,828,460a1.61,1.61,0,0,1-.49-.69l-7.69-16.14c-.2-.44-.43-.93-.7-1.48a10,10,0,0,1-.59-1.52H818c0,.48.08,1,.1,1.49s0,1,0,1.51V460.2h-2.9V438.59a1,1,0,0,1,1.16-1.15h2.73a1.25,1.25,0,0,1,.8.23,1.7,1.7,0,0,1,.49.69l7.46,15.74c.24.46.5,1,.77,1.57s.54,1.16.78,1.73H830c0-.59,0-1.18-.07-1.75s0-1.14,0-1.71v-16.5Z" />
            <path class="cls-3" d="M854,437.44V440H836.39v-2.57Zm-7.35,0V460.2h-2.91V437.44Z" />
            <circle class="cls-2" cx="345.07" cy="613.2" r="42.5" />
            <path class="cls-3"
                d="M345.07,573.2a40,40,0,1,1-40,40,40,40,0,0,1,40-40m0-5a45,45,0,1,0,45,45,45,45,0,0,0-45-45Z" />
            <path class="cls-3"
                d="M331.44,606.69c.51,0,1,0,1.58.08a12.89,12.89,0,0,1,1.62.23l-.09,1-1.48,0-1.56,0c-.39,0-.72,0-1,0a1.72,1.72,0,0,0-.68.19.86.86,0,0,0-.39.48,3.28,3.28,0,0,0-.11.93,1.79,1.79,0,0,0,.32,1.24,1.92,1.92,0,0,0,1,.52l2.18.55a2.61,2.61,0,0,1,1.71,1,3.8,3.8,0,0,1,.46,2,4.49,4.49,0,0,1-.21,1.51,1.75,1.75,0,0,1-.65.88,2.7,2.7,0,0,1-1.12.42,9.61,9.61,0,0,1-1.63.12c-.35,0-.81,0-1.38-.05a14.67,14.67,0,0,1-1.95-.25l.09-1,1.48.05,1,0h.84a5,5,0,0,0,1.3-.13,1,1,0,0,0,.67-.5,2.42,2.42,0,0,0,.2-1.1,2.73,2.73,0,0,0-.14-1,1,1,0,0,0-.45-.52,2.64,2.64,0,0,0-.77-.29l-2.23-.56a2.59,2.59,0,0,1-1.64-1,3.57,3.57,0,0,1-.48-2,4.43,4.43,0,0,1,.21-1.5,1.68,1.68,0,0,1,.64-.86,2.61,2.61,0,0,1,1.08-.38A10.13,10.13,0,0,1,331.44,606.69Z" />
            <path class="cls-3"
                d="M341.41,606.88a.52.52,0,0,1,.52.37l3.46,10.39H344l-2.79-8.83c0-.14-.09-.29-.13-.44l-.14-.43h-.43a4.38,4.38,0,0,0-.13.43c0,.15-.09.3-.14.44l-2.79,8.83H336l3.46-10.39a.52.52,0,0,1,.52-.37Zm2,6.21v1.18H338v-1.18Z" />
            <path class="cls-3"
                d="M349.9,606.69c.51,0,1,0,1.57.08a13,13,0,0,1,1.63.23l-.1,1-1.48,0-1.56,0c-.38,0-.71,0-1,0a1.77,1.77,0,0,0-.68.19.89.89,0,0,0-.38.48,2.91,2.91,0,0,0-.12.93,1.85,1.85,0,0,0,.32,1.24,2,2,0,0,0,1,.52l2.18.55a2.56,2.56,0,0,1,1.71,1,3.71,3.71,0,0,1,.46,2,4.49,4.49,0,0,1-.21,1.51,1.69,1.69,0,0,1-.65.88,2.65,2.65,0,0,1-1.12.42,9.57,9.57,0,0,1-1.62.12c-.36,0-.82,0-1.38-.05a14.8,14.8,0,0,1-2-.25l.09-1,1.49.05,1,0H350a5,5,0,0,0,1.3-.13,1,1,0,0,0,.67-.5,2.44,2.44,0,0,0,.19-1.1,2.52,2.52,0,0,0-.14-1,1,1,0,0,0-.44-.52,2.64,2.64,0,0,0-.77-.29l-2.23-.56a2.65,2.65,0,0,1-1.65-1,3.57,3.57,0,0,1-.48-2,4.43,4.43,0,0,1,.21-1.5,1.8,1.8,0,0,1,.64-.86,2.6,2.6,0,0,1,1.09-.38A10.13,10.13,0,0,1,349.9,606.69Z" />
            <path class="cls-3"
                d="M358.65,606.69c.51,0,1,0,1.58.08a12.89,12.89,0,0,1,1.62.23l-.1,1-1.48,0-1.56,0c-.38,0-.71,0-1,0a1.82,1.82,0,0,0-.68.19.89.89,0,0,0-.38.48,2.91,2.91,0,0,0-.12.93,1.85,1.85,0,0,0,.32,1.24,2,2,0,0,0,1,.52l2.19.55a2.56,2.56,0,0,1,1.7,1,3.71,3.71,0,0,1,.46,2,4.49,4.49,0,0,1-.21,1.51,1.73,1.73,0,0,1-.64.88,2.75,2.75,0,0,1-1.13.42,9.57,9.57,0,0,1-1.62.12c-.35,0-.81,0-1.38-.05a14.8,14.8,0,0,1-2-.25l.1-1,1.48.05,1,0h.85a5,5,0,0,0,1.3-.13,1,1,0,0,0,.67-.5,2.42,2.42,0,0,0,.2-1.1,2.49,2.49,0,0,0-.15-1,1,1,0,0,0-.44-.52,2.64,2.64,0,0,0-.77-.29l-2.23-.56a2.65,2.65,0,0,1-1.65-1,3.57,3.57,0,0,1-.47-2,4.43,4.43,0,0,1,.21-1.5,1.68,1.68,0,0,1,.64-.86,2.51,2.51,0,0,1,1.08-.38A10.13,10.13,0,0,1,358.65,606.69Z" />
            <circle class="cls-2" cx="649.07" cy="227.01" r="47.5" />
            <path class="cls-3"
                d="M649.07,182a45,45,0,1,1-45,45,45,45,0,0,1,45-45m0-5a50,50,0,1,0,50,50,50,50,0,0,0-50-50Z" />
            <path class="cls-3"
                d="M630.9,219.45,627,231.86a.79.79,0,0,1-.25.33.6.6,0,0,1-.39.14H624.7a.64.64,0,0,1-.41-.14.64.64,0,0,1-.22-.33l-3.91-12.41h1.7l3,10.21c.06.24.12.47.19.7s.13.46.18.7h.5c.07-.24.13-.47.19-.71s.13-.47.21-.71l3-10.19Z" />
            <path class="cls-3" d="M634.48,219.45v12.88h-1.64V219.45Z" />
            <path class="cls-3" d="M646.5,219.45v1.45h-10v-1.45Zm-4.16,0v12.88H640.7V219.45Z" />
            <path class="cls-3"
                d="M651,219.43h1.87c.63,0,1.25,0,1.87,0s1.21,0,1.78.08l-.07,1.29h-5.17a1.12,1.12,0,0,0-.85.29,1.35,1.35,0,0,0-.27.94v7.66a1.4,1.4,0,0,0,.27.95,1.08,1.08,0,0,0,.85.3h5.17l.07,1.27c-.57,0-1.17.06-1.78.07l-1.87,0H651a2.62,2.62,0,0,1-1.81-.61,2.19,2.19,0,0,1-.68-1.63v-8.44a2.18,2.18,0,0,1,.68-1.64A2.62,2.62,0,0,1,651,219.43Zm-2.15,5.43h6.87v1.33H648.8Z" />
            <path class="cls-3"
                d="M662.61,219.22c.61,0,1.24.05,1.89.1a14.63,14.63,0,0,1,1.94.28l-.11,1.19-1.78-.06-1.86,0a10.35,10.35,0,0,0-1.19.05,2,2,0,0,0-.81.22,1,1,0,0,0-.46.58,3.61,3.61,0,0,0-.14,1.11,2.23,2.23,0,0,0,.38,1.48,2.44,2.44,0,0,0,1.25.63l2.61.65a3.12,3.12,0,0,1,2,1.24,4.46,4.46,0,0,1,.55,2.38,5.33,5.33,0,0,1-.25,1.81,2.13,2.13,0,0,1-.77,1.06,3.31,3.31,0,0,1-1.35.5,10.93,10.93,0,0,1-1.94.14c-.42,0-1,0-1.65-.05a19.75,19.75,0,0,1-2.34-.3l.11-1.22,1.77.07,1.16,0h1a6.4,6.4,0,0,0,1.56-.15,1.19,1.19,0,0,0,.8-.6,2.89,2.89,0,0,0,.23-1.32,3,3,0,0,0-.17-1.16,1.22,1.22,0,0,0-.53-.63,3.48,3.48,0,0,0-.92-.34l-2.67-.67a3.15,3.15,0,0,1-2-1.24,4.26,4.26,0,0,1-.57-2.35,5.26,5.26,0,0,1,.25-1.8,2.1,2.1,0,0,1,.77-1,3,3,0,0,1,1.3-.45A12.43,12.43,0,0,1,662.61,219.22Z" />
            <path class="cls-3" d="M678.27,219.45v1.45h-9.95v-1.45Zm-4.16,0v12.88h-1.64V219.45Z" />
        </g>
    </g>
</svg>