<svg xmlns="http://www.w3.org/2000/svg" viewBox="0 0 1000 1000"><defs><style>.cls-1{fill:#4353ff;}.cls-2{fill:#fff;}</style></defs><g id="Layer_2" data-name="Layer 2"><g id="Layer_1-2" data-name="Layer 1"><circle class="cls-1" cx="500" cy="500" r="500"/><path class="cls-2" d="M646.88,440.62,601.56,583.44c0-10.94-31.25-247.82-31.25-247.82-71.87,0-110,50.94-130,105L385,583.75c0-10.31-7.81-141.88-7.81-141.88A116.87,116.87,0,0,0,263.75,335.94L322.5,694.69c75,0,115.62-50.94,136.56-105l46.88-121.88c0,5,31.25,226.88,31.25,226.88a144.38,144.38,0,0,0,137.5-100.94L780.94,335.62c-75,0-114.38,50.94-134.38,105Z"/></g></g></svg>