<svg xmlns="http://www.w3.org/2000/svg" xmlns:xlink="http://www.w3.org/1999/xlink" viewBox="0 0 945.32 1000"><defs><style>.cls-1,.cls-11,.cls-23,.cls-24,.cls-4,.cls-7,.cls-8,.cls-9{fill:none;}.cls-16,.cls-2,.cls-6{fill:#fff;}.cls-2{opacity:0.7;}.cls-14,.cls-18,.cls-2{isolation:isolate;}.cls-3,.cls-5{fill:#50d890;}.cls-10,.cls-21,.cls-22,.cls-23,.cls-24,.cls-4,.cls-5,.cls-6,.cls-7,.cls-8,.cls-9{stroke:#263238;}.cls-10,.cls-11,.cls-21,.cls-22,.cls-23,.cls-24,.cls-4,.cls-5,.cls-6,.cls-7,.cls-8,.cls-9{stroke-linecap:round;stroke-linejoin:round;}.cls-7{stroke-width:2px;}.cls-8{stroke-dasharray:1 3;}.cls-9{stroke-dasharray:1 2.99;}.cls-10,.cls-12{fill:#263238;}.cls-11{stroke:#fff;}.cls-13{clip-path:url(#clip-path);}.cls-14,.cls-18{fill-opacity:0.7;}.cls-14{opacity:0.3;}.cls-15{clip-path:url(#clip-path-2);}.cls-17{clip-path:url(#clip-path-3);}.cls-18{opacity:0.2;}.cls-19{clip-path:url(#clip-path-4);}.cls-20{clip-path:url(#clip-path-5);}.cls-21{fill:#757575;}.cls-22{fill:#999;}.cls-23{stroke-dasharray:0.98 2.93;}.cls-24{stroke-dasharray:1 3;}</style><clipPath id="clip-path"><path class="cls-1" d="M811.86,887.71C796.57,912.54,719,924.3,676.71,923.2s-164.12-58.69-172.38-71c-7.65-11.29-26.46-48.7,2.53-71.29a56.35,56.35,0,0,1,7.81-5.06C534.51,765.13,666.48,799,666.48,799s8.17-5.17,11.17-4.79c9.21,1.18,15.81,8.63,34.41,13.93,13,3.73,48.58-10.59,71.29,1.72a30.9,30.9,0,0,1,6.9,5C811.47,835.16,827.12,862.81,811.86,887.71Z"/></clipPath><clipPath id="clip-path-2"><path class="cls-1" d="M655.53,909.29l39.55,31a452.36,452.36,0,0,0,56.71-8.49h0c18.73-4.33,35.1-10.54,36-19.07,1.38-13-12.48-16.5-28.94-16-3.07,0-6.23.32-9.41.64-26.35,2.82-59.85-11.72-59.85-11.72Z"/></clipPath><clipPath id="clip-path-3"><path class="cls-1" d="M692.39,921.53c-7.13,1.15.7,15.8,10.37,11.28S699.53,920.35,692.39,921.53Z"/></clipPath><clipPath id="clip-path-4"><path class="cls-1" d="M751.79,931.82c18.73-4.33,35.1-10.54,36-19.07,1.38-13-12.48-16.51-28.94-16C758.11,897.44,742.15,912.86,751.79,931.82Z"/></clipPath><clipPath id="clip-path-5"><path class="cls-1" d="M631.22,910.49l-42.58,26.7a454.64,454.64,0,0,1-55.51-14.38h0c-18.17-6.27-33.86-14.17-33.86-22.75,0-13,14.16-15.1,30.48-12.89,3,.41,6.16,1,9.3,1.63,25.89,5.57,60.72-5.38,60.72-5.38Z"/></clipPath></defs><g id="Layer_2" data-name="Layer 2"><g id="Layer_1-2" data-name="Layer 1"><g id="freepik--background-simple--inject-13"><path class="cls-2" d="M59.06,311.46S-3.88,474,84.57,637.66,355.18,887.78,501,961.71s297.21,37.92,369.15-83.16S843.41,671,843.28,498.35,869.13,280,775.56,134.1s-322.95-178.18-496.41-70S59.06,311.46,59.06,311.46Z"/><path class="cls-3" d="M61.47,908.71H538.21c1.92-3.07,3.86-6.14,5.85-9.15,51.29-78.06,133.41-133.73,223.1-159.84,40.18-11.7,83.7-18.65,116-45.29,33.22-27.38,48.48-71.08,55.08-113.64,8-51.51,3.68-109.28-31.29-147.95-41.06-45.39-109.87-50.49-163.37-80.25C651.49,301.35,615.8,184.67,532,120.74c-52.94-40.39-124.36-56-188.38-47.18C252.92,86.13,167.57,146.92,142,236.09a224.84,224.84,0,0,0-7.77,80c4.09,53.16,15.53,107,4.74,159.21C127,532.8,89.6,581.36,67.23,635.74c-27.86,67.72-31.6,143.57-19.8,215.76A372.59,372.59,0,0,0,61.47,908.71Z"/><path class="cls-2" d="M61.47,908.71H538.21c1.92-3.07,3.86-6.14,5.85-9.15,51.29-78.06,133.41-133.73,223.1-159.84,40.18-11.7,83.7-18.65,116-45.29,33.22-27.38,48.48-71.08,55.08-113.64,8-51.51,3.68-109.28-31.29-147.95-41.06-45.39-109.87-50.49-163.37-80.25C651.49,301.35,615.8,184.67,532,120.74c-52.94-40.39-124.36-56-188.38-47.18C252.92,86.13,167.57,146.92,142,236.09a224.84,224.84,0,0,0-7.77,80c4.09,53.16,15.53,107,4.74,159.21C127,532.8,89.6,581.36,67.23,635.74c-27.86,67.72-31.6,143.57-19.8,215.76A372.59,372.59,0,0,0,61.47,908.71Z"/></g><g id="freepik--Floor--inject-13"><line class="cls-4" x1="0.5" y1="908.71" x2="944.82" y2="908.71"/></g><g id="freepik--Graphics--inject-13"><path class="cls-4" d="M535.53,190.24V154.8L509,152.54a73.35,73.35,0,0,0-6.55-15.91l17.14-20.32L494.51,91.25l-20.32,17.14a71.66,71.66,0,0,0-15.8-6.57l-2.26-26.55H420.4l-2.26,26.55a71.86,71.86,0,0,0-15.8,6.57L382,91.25l-25,25.06,17.13,20.32a73.85,73.85,0,0,0-6.55,15.91L341,154.8v35.44l26.54,2.26a73.48,73.48,0,0,0,6.55,15.8L357,228.62l25,25,20.32-17.13a72.35,72.35,0,0,0,15.8,6.57l2.26,26.55h35.44l2.26-26.55A72.71,72.71,0,0,0,474,236.54l20.32,17.13,25.06-25L502.25,208.3a73.48,73.48,0,0,0,6.55-15.8Zm-97.3,23.46a41.18,41.18,0,1,1,41.18-41.18,41.18,41.18,0,0,1-41.18,41.18h0Z"/><path class="cls-4" d="M916.33,536.64v-17l-12.73-1.1a36.05,36.05,0,0,0-3.14-7.63l8.22-9.78-12-12L887,497.36a35,35,0,0,0-7.63-3.14l-1.11-12.73h-17l-1.09,12.73a34.55,34.55,0,0,0-7.63,3.14l-9.77-8.22-12,12,8.22,9.78a34.64,34.64,0,0,0-3.17,7.63l-12.73,1.1v17l12.73,1.11a34.64,34.64,0,0,0,3.17,7.63l-8.29,9.68,12,12,9.77-8.22a34.07,34.07,0,0,0,7.63,3.14l1.09,12.73h17l1.1-12.73a34.55,34.55,0,0,0,7.63-3.14l9.75,8.22,12-12-8.22-9.77a36.49,36.49,0,0,0,3.14-7.63Zm-46.66,11.29a19.76,19.76,0,1,1,19.73-19.78v0a19.75,19.75,0,0,1-19.78,19.73Z"/><path class="cls-4" d="M903.48,227.29a46.35,46.35,0,0,0-57.24-55.18,44.47,44.47,0,0,0-83.12,19A36.3,36.3,0,0,0,720.65,220c-.18.92-.32,1.84-.42,2.77a20.32,20.32,0,0,0,.45,40.45H890.62a20.31,20.31,0,0,0,12.86-35.91Z"/><line class="cls-4" x1="810.1" y1="247.67" x2="810.1" y2="294.51"/><line class="cls-4" x1="810.1" y1="219.59" x2="810.1" y2="238.3"/><line class="cls-4" x1="810.1" y1="202.07" x2="810.1" y2="212.09"/><polyline class="cls-4" points="801.25 289.05 810.1 300 818.95 289.05"/><path class="cls-4" d="M385.73,776.62a46.37,46.37,0,0,0-57.27-55.17,44.45,44.45,0,0,0-83.1,19.06,36.23,36.23,0,0,0-42.89,31.58,20.32,20.32,0,0,0,.43,40.45H373a20.32,20.32,0,0,0,12.8-35.92Z"/><line class="cls-4" x1="292.27" y1="803.71" x2="292.27" y2="756.89"/><line class="cls-4" x1="292.27" y1="831.82" x2="292.27" y2="813.08"/><line class="cls-4" x1="292.27" y1="849.34" x2="292.27" y2="839.31"/><polyline class="cls-4" points="301.12 762.36 292.27 751.41 283.42 762.36"/></g><g id="freepik--Window--inject-13"><path class="cls-5" d="M26.44,182.36H594.06a9.57,9.57,0,0,1,9.57,9.57v26.78H16.87V191.93A9.57,9.57,0,0,1,26.44,182.36Z"/><rect class="cls-6" x="42.56" y="225.41" width="593.04" height="417.33"/><path class="cls-6" d="M644.67,200.51a9,9,0,1,1-9-9A9,9,0,0,1,644.67,200.51Z"/><path class="cls-6" d="M612.71,200.51a9,9,0,1,1-9-9A9,9,0,0,1,612.71,200.51Z"/><path class="cls-6" d="M580.68,200.51a9,9,0,1,1-9-9A9,9,0,0,1,580.68,200.51Z"/><line class="cls-7" x1="617.63" y1="243.31" x2="594.15" y2="243.31"/><line class="cls-7" x1="617.63" y1="252.84" x2="594.15" y2="252.84"/><line class="cls-7" x1="617.63" y1="262.37" x2="594.15" y2="262.37"/><line class="cls-7" x1="83.62" y1="489.55" x2="261.34" y2="489.55"/><line class="cls-7" x1="83.62" y1="503.57" x2="261.34" y2="503.57"/><line class="cls-7" x1="83.62" y1="517.84" x2="223.76" y2="517.84"/><line class="cls-4" x1="460.49" y1="230.11" x2="460.49" y2="231.24"/><line class="cls-8" x1="460.49" y1="238.01" x2="460.49" y2="631.32"/><line class="cls-4" x1="460.49" y1="634.7" x2="460.49" y2="635.83"/><line class="cls-4" x1="49.69" y1="549.15" x2="50.82" y2="549.15"/><line class="cls-9" x1="57.57" y1="549.15" x2="622.01" y2="549.15"/><line class="cls-4" x1="625.39" y1="549.15" x2="626.52" y2="549.15"/><rect class="cls-6" x="456.61" y="545.24" width="7.79" height="7.79"/><line class="cls-4" x1="429.41" y1="474.34" x2="325.43" y2="474.34"/><path class="cls-4" d="M431.42,522.42s0-48.33-54-48.33-54.09,48.33-54.09,48.33"/><circle class="cls-5" cx="431.42" cy="522.42" r="4.56"/><path class="cls-5" d="M318.82,522.42a4.52,4.52,0,1,1,4.51,4.51A4.51,4.51,0,0,1,318.82,522.42Z"/><rect class="cls-5" x="427.42" y="470.09" width="7.99" height="7.99"/><rect class="cls-5" x="373.42" y="470.09" width="7.99" height="7.99"/><rect class="cls-5" x="319.43" y="470.09" width="7.99" height="7.99"/><path class="cls-5" d="M148.22,329V313l-11.94-1a34.33,34.33,0,0,0-2.95-7.18l7.72-9.17L129.76,284.4l-9.19,7.72a32,32,0,0,0-7.18-3l-1-12H96.42l-1,12a31.53,31.53,0,0,0-7.16,3L79,284.4,67.75,295.68l7.72,9.17a32.83,32.83,0,0,0-3,7.18l-12,1v16l12,1a33.32,33.32,0,0,0,3,7.18l-7.72,9.17L79,357.67,88.22,350a31.62,31.62,0,0,0,7.11,3l1,12h16l1-12a32,32,0,0,0,7.16-3l9.18,7.72L141,346.39l-7.72-9.17a34.91,34.91,0,0,0,3-7.18Zm-43.86,10.56A18.56,18.56,0,1,1,122.92,321a18.56,18.56,0,0,1-18.56,18.55Z"/><path class="cls-5" d="M202.49,364.83V353.9l-8.19-.72a22.26,22.26,0,0,0-2-4.9l5.28-6.27-7.74-7.72-6.28,5.28a23.34,23.34,0,0,0-4.9-2l-.7-8.22H167l-.72,8.19a22.85,22.85,0,0,0-4.9,2l-6.28-5.29L147.39,342l5.3,6.28a21.21,21.21,0,0,0-2,4.9l-8.19.72v10.93l8.19.7a21,21,0,0,0,2,4.89l-5.3,6.33,7.74,7.72,6.28-5.29a23.37,23.37,0,0,0,4.9,2l.72,8.17H178l.7-8.17a23.37,23.37,0,0,0,4.9-2l6.28,5.29,7.74-7.72-5.17-6.3a21.78,21.78,0,0,0,2-4.9Zm-30,7.22a12.71,12.71,0,1,1,12.69-12.73v.05A12.71,12.71,0,0,1,172.49,372.05Z"/><line class="cls-7" x1="482.79" y1="575.69" x2="570.22" y2="575.69"/><line class="cls-7" x1="482.79" y1="589.71" x2="570.22" y2="589.71"/><line class="cls-7" x1="482.79" y1="603.98" x2="532.64" y2="603.98"/><path class="cls-5" d="M367.6,609.8h-46a11.29,11.29,0,0,1-11.29-11.28h0a11.29,11.29,0,0,1,11.29-11.29h46a11.29,11.29,0,0,1,11.29,11.29h0A11.29,11.29,0,0,1,367.6,609.8Z"/><path class="cls-5" d="M453.38,609.8h-46a11.29,11.29,0,0,1-11.29-11.28h0a11.29,11.29,0,0,1,11.29-11.29h46a11.29,11.29,0,0,1,11.29,11.29h0A11.29,11.29,0,0,1,453.38,609.8Z"/><rect class="cls-6" x="489.18" y="367.63" width="97.61" height="97.61"/><line class="cls-4" x1="489.18" y1="367.63" x2="586.79" y2="465.24"/><line class="cls-4" x1="586.79" y1="367.63" x2="489.18" y2="465.24"/><polygon class="cls-6" points="527.47 256.81 527.47 279.59 517.42 289.63 494.65 289.63 494.65 256.81 527.47 256.81"/><polygon class="cls-6" points="527.47 279.59 517.42 289.63 517.42 279.59 527.47 279.59"/><polygon class="cls-6" points="178.41 432.96 178.41 455.74 168.36 465.8 145.58 465.8 145.58 432.96 178.41 432.96"/><polygon class="cls-6" points="178.41 455.74 168.36 465.8 168.36 455.74 178.41 455.74"/><polygon class="cls-6" points="54.38 573.3 54.38 596.08 44.34 606.12 21.54 606.12 21.54 573.3 54.38 573.3"/><polygon class="cls-6" points="54.38 596.08 44.34 606.12 44.34 596.08 54.38 596.08"/></g><g id="freepik--Screens--inject-13"><rect class="cls-10" x="571.67" y="309.64" width="121.13" height="75.92"/><rect class="cls-5" x="571.67" y="309.64" width="121.13" height="11.54"/><line class="cls-11" x1="584.02" y1="330.9" x2="614.99" y2="330.9"/><line class="cls-11" x1="599.5" y1="339.55" x2="653.09" y2="339.55"/><line class="cls-11" x1="592.66" y1="347.6" x2="608.44" y2="347.6"/><line class="cls-11" x1="599.5" y1="357.11" x2="635.6" y2="357.11"/><line class="cls-11" x1="584.02" y1="365.73" x2="614.99" y2="365.73"/><rect class="cls-10" x="116.1" y="615.08" width="121.13" height="75.92"/><rect class="cls-5" x="116.1" y="615.08" width="121.13" height="11.54"/><line class="cls-11" x1="128.47" y1="636.37" x2="159.42" y2="636.37"/><line class="cls-11" x1="143.94" y1="645" x2="197.53" y2="645"/><line class="cls-11" x1="137.1" y1="653.05" x2="152.87" y2="653.05"/><line class="cls-11" x1="143.94" y1="662.56" x2="180.03" y2="662.56"/><line class="cls-11" x1="128.47" y1="671.2" x2="159.42" y2="671.2"/></g><g id="freepik--speech-bubble--inject-13"><path class="cls-5" d="M282.7,65.2H171.41a5,5,0,0,0-4.92,4.92v51.93a4.92,4.92,0,0,0,4.92,4.89H221.3L227,147.26l5.71-20.32h50a4.92,4.92,0,0,0,4.92-4.89V70.12A5,5,0,0,0,282.7,65.2Z"/><line class="cls-7" x1="184.95" y1="80.06" x2="269.04" y2="80.06"/><line class="cls-7" x1="184.95" y1="90.71" x2="269.04" y2="90.71"/><line class="cls-7" x1="184.95" y1="101.37" x2="269.04" y2="101.37"/><line class="cls-7" x1="184.95" y1="112.02" x2="248.32" y2="112.02"/></g><g id="freepik--Character--inject-13"><path class="cls-6" d="M465.25,434.47c-11.94,1-27.08-13.25-27.08-13.25a2.7,2.7,0,0,1-4.27-.54c-1.94-2.8-10.36-9.28-10.84-14.88s9.46-14.67,9.46-14.67c-7.65,2.07-8.46-2.42-8.46-2.42s12.89-10.63,17.4-10.92c1.76-.12,9.44,4.31,16.86,10.27,7.77,6.25,22.35,28.26,22.35,28.26s49.33,35.83,61.79,45c16.45,12.1,36,33.57,36,33.57s65.46,29.52,83.52,45.76l-24.42,57.83s-59.53-39.89-65.47-50-11.89-4-17.85-10.66-11.67-14.17-11.67-14.17a100.87,100.87,0,0,1-28.43-20.5c-13.9-14.29-26.16-36.12-33.86-49.26A81.24,81.24,0,0,0,465.25,434.47Z"/><path class="cls-6" d="M468.89,426s-17.77-4.31-19.3-16a21.52,21.52,0,0,0-3.82-8.19s-16.57-.82-15.53-7.57l22.12-2a38.45,38.45,0,0,1,19.26,16.21"/><path class="cls-4" d="M438.14,421.22a7.3,7.3,0,0,0,.75-4.79s4.87-.9,4.33-5.21c0,0,7.23-.88,2.55-9.41"/><path class="cls-4" d="M443.22,411.22s-9.73-7.2-10.81-10.5"/><path class="cls-4" d="M438.89,416.43s-10.36-6.32-10.54-10"/><path class="cls-4" d="M441.26,384s-3.3,5.92-8.76,7.16"/><path class="cls-4" d="M439.61,386.27a28.86,28.86,0,0,1,4.88,3.23"/><path class="cls-12" d="M818,586.21a533,533,0,0,0-78.8-26.32c-39.64-9.28-103.84-17.56-103.84-17.56s17.65,180.14,13,191-32.55,47.23-32.55,47.23,151,58.87,177.32,63.88,12.59-86.34,12.59-86.34S833.5,642,818,586.21Z"/><path class="cls-6" d="M763.77,566.87s3.59,6.77-5.84,10.31c-24.45,9-50.5,1.06-47.72-8.51,1.06-3.65,7.11,0,6.77-13.54a16.77,16.77,0,0,0-1.65-6,61.09,61.09,0,0,0-6.21-10.4,127.62,127.62,0,0,0-8.37-10.45s38.8-24.84,67.58,0C768.29,528.15,757.59,533.57,763.77,566.87Z"/><path class="cls-3" d="M811.86,887.71C796.57,912.54,719,924.3,676.71,923.2s-164.12-58.69-172.38-71c-7.65-11.29-26.46-48.7,2.53-71.29a56.35,56.35,0,0,1,7.81-5.06C534.51,765.13,666.48,799,666.48,799s8.17-5.17,11.17-4.79c9.21,1.18,15.81,8.63,34.41,13.93,13,3.73,48.58-10.59,71.29,1.72a30.9,30.9,0,0,1,6.9,5C811.47,835.16,827.12,862.81,811.86,887.71Z"/><g class="cls-13"><path class="cls-14" d="M783.35,809.88c-23.28-1.56-44,3.31-58.52,11.87C707.65,831.91,626.52,871,626.52,871c.18-4.19,4.7-12.66,4.7-12.66-7.63-6.77-27.59-12.08-27.59-12.08-15.46-13.2-76.75-52.59-96.77-65.3a56.35,56.35,0,0,1,7.81-5.06C534.51,765.13,666.48,799,666.48,799s8.17-5.17,11.17-4.79c9.21,1.18,15.81,8.63,34.41,13.93C725.15,811.89,760.64,797.57,783.35,809.88Z"/></g><path class="cls-4" d="M811.86,887.71C796.57,912.54,719,924.3,676.71,923.2s-164.12-58.69-172.38-71c-7.65-11.29-26.46-48.7,2.53-71.29a56.35,56.35,0,0,1,7.81-5.06C534.51,765.13,666.48,799,666.48,799s8.17-5.17,11.17-4.79c9.21,1.18,15.81,8.63,34.41,13.93,13,3.73,48.58-10.59,71.29,1.72a30.9,30.9,0,0,1,6.9,5C811.47,835.16,827.12,862.81,811.86,887.71Z"/><path class="cls-6" d="M788.06,910.2l1.94,8.51s-5.19,14.71-28,17.13-36.34,7.45-47.41,8.1a91.43,91.43,0,0,1-17.35-.27L695,940.33Z"/><path class="cls-12" d="M655.53,909.29l39.55,31a452.36,452.36,0,0,0,56.71-8.49h0c18.73-4.33,35.1-10.54,36-19.07,1.38-13-12.48-16.5-28.94-16-3.07,0-6.23.32-9.41.64-26.35,2.82-59.85-11.72-59.85-11.72Z"/><g class="cls-15"><path class="cls-14" d="M787.79,912.45a120.66,120.66,0,0,0-22,10.84s-36.73,18.89-93.19-.57l-17.09-13.43,34-23.63s33.48,14.56,59.85,11.71c3.18-.34,6.34-.56,9.41-.63C775.17,896.24,788.92,899.72,787.79,912.45Z"/></g><path class="cls-4" d="M655.53,909.29l39.55,31a452.36,452.36,0,0,0,56.71-8.49h0c18.73-4.33,35.1-10.54,36-19.07,1.38-13-12.48-16.5-28.94-16-3.07,0-6.23.32-9.41.64-26.35,2.82-59.85-11.72-59.85-11.72Z"/><path class="cls-16" d="M692.39,921.53c-7.13,1.15.7,15.8,10.37,11.28S699.53,920.35,692.39,921.53Z"/><g class="cls-17"><path class="cls-18" d="M705.78,930.49a150.59,150.59,0,0,1-15.37-2.69c-1.36-2.86-1-5.8,2-6.27C698.38,920.53,708.44,926.06,705.78,930.49Z"/></g><path class="cls-4" d="M692.39,921.53c-7.13,1.15.7,15.8,10.37,11.28S699.53,920.35,692.39,921.53Z"/><path class="cls-16" d="M751.79,931.82c18.73-4.33,35.1-10.54,36-19.07,1.38-13-12.48-16.51-28.94-16C758.11,897.44,742.15,912.86,751.79,931.82Z"/><g class="cls-19"><path class="cls-14" d="M787.79,912.45a120.66,120.66,0,0,0-22,10.84,74,74,0,0,1-15.47,5.17c-6.32-17.38,7.81-31.06,8.49-31.72C775.17,896.24,788.92,899.72,787.79,912.45Z"/></g><path class="cls-4" d="M751.79,931.82c18.73-4.33,35.1-10.54,36-19.07,1.38-13-12.48-16.51-28.94-16C758.11,897.44,742.15,912.86,751.79,931.82Z"/><path class="cls-6" d="M738.42,915.73h.12a1.94,1.94,0,0,0,2-1.85v0A26.6,26.6,0,0,1,747.34,899a2,2,0,0,0,0-2.75h0a2,2,0,0,0-2.75,0,30.16,30.16,0,0,0-7.84,17.41A2,2,0,0,0,738.42,915.73Z"/><path class="cls-6" d="M730.59,916.25h.16a1.94,1.94,0,0,0,2-1.9v0a29,29,0,0,1,6-15.49,2,2,0,1,0-2.81-2.74,2.75,2.75,0,0,0-.22.26,32.68,32.68,0,0,0-6.88,17.88A1.94,1.94,0,0,0,730.59,916.25Z"/><path class="cls-6" d="M721.22,915.21h0a1.94,1.94,0,0,0,2.12-1.75h0c.61-6.78,6.44-15.65,6.5-15.81a2,2,0,1,0-3.25-2.19c-.27.39-6.45,9.69-7.15,17.54a2,2,0,0,0,1.69,2.21Z"/><path class="cls-6" d="M712.37,914.28a2.26,2.26,0,0,0,.52,0,1.94,1.94,0,0,0,1.61-2.22v0c-1.37-8.3,6.35-15.41,6.42-15.48a2,2,0,0,0-2.53-2.87c-.39.34-9.39,8.6-7.66,19.05A2,2,0,0,0,712.37,914.28Z"/><path class="cls-6" d="M702.76,912a2.22,2.22,0,0,0,.63,0,2,2,0,0,0,1.47-2.26c-1.7-7.41,5.59-15.8,5.68-15.8a2,2,0,0,0-2.92-2.61h0c-.36.41-8.71,10-6.57,19.35A1.94,1.94,0,0,0,702.76,912Z"/><path class="cls-6" d="M499.41,897.46l-2.82,8.27s3.61,15.19,26.05,20,35.35,11.29,46.18,13a93,93,0,0,0,17.3,1.54l2.59-3.1Z"/><path class="cls-12" d="M631.22,910.49l-42.58,26.7a454.64,454.64,0,0,1-55.51-14.38h0c-18.17-6.27-33.86-14.17-33.86-22.75,0-13,14.16-15.1,30.48-12.89,3,.41,6.16,1,9.3,1.63,25.89,5.57,60.72-5.38,60.72-5.38Z"/><g class="cls-20"><path class="cls-14" d="M631.22,910.49l-25,15.8a101.26,101.26,0,0,1-50.88-35.82,169.78,169.78,0,0,0,44.54-7Z"/></g><path class="cls-4" d="M631.22,910.49l-42.58,26.7a454.64,454.64,0,0,1-55.51-14.38h0c-18.17-6.27-33.86-14.17-33.86-22.75,0-13,14.16-15.1,30.48-12.89,3,.41,6.16,1,9.3,1.63,25.89,5.57,60.72-5.38,60.72-5.38Z"/><path class="cls-6" d="M533.13,922.79C515,916.52,499.27,908.62,499.27,900c0-13,14.16-15.11,30.48-12.89C530.47,887.91,544.72,905,533.13,922.79Z"/><path class="cls-6" d="M548.12,908.19H548a2,2,0,0,1-1.85-2.08A26.57,26.57,0,0,0,541,890.62a2,2,0,1,1,2.81-2.73,1.65,1.65,0,0,1,.26.32,30,30,0,0,1,6,18.06A2,2,0,0,1,548.12,908.19Z"/><path class="cls-6" d="M555.84,909.47h-.18a2,2,0,0,1-1.78-2.12,28.83,28.83,0,0,0-4.31-16,2,2,0,1,1,3.25-2.26,32.35,32.35,0,0,1,5,18.51A2,2,0,0,1,555.84,909.47Z"/><path class="cls-6" d="M565.28,909.47h0a2,2,0,0,1-1.94-2c.13-6.89-4.74-16.21-4.81-16.3a2,2,0,0,1,.84-2.67,2,2,0,0,1,2.64.84c.22.41,5.39,10.29,5.26,18.19A2,2,0,0,1,565.28,909.47Z"/><path class="cls-6" d="M574.17,909.47h-.52a2,2,0,0,1-1.35-2.41c2.26-8.11-4.67-16-4.74-16.08a2,2,0,1,1,2.71-2.84,2.2,2.2,0,0,1,.2.23c.34.38,8.44,9.54,5.6,19.75A2,2,0,0,1,574.17,909.47Z"/><path class="cls-6" d="M584,908.19a1.54,1.54,0,0,1-.63-.12,1.92,1.92,0,0,1-1.24-2.41s0,0,0-.07c2.46-7.18-3.93-16.28-4-16.37a2,2,0,0,1,2.92-2.62,1.9,1.9,0,0,1,.26.37c.32.43,7.61,10.81,4.52,19.93A2,2,0,0,1,584,908.19Z"/><path class="cls-6" d="M593.27,918.77c7,1.92-2.26,15.58-11.49,10.16S586.32,916.88,593.27,918.77Z"/><path class="cls-5" d="M512.77,846.27c10.45,14.65,41.45,30.83,72.24,44.17a145.13,145.13,0,0,0,19.37,25.31c19,19.55,26.75,8.6,26.75,8.6s12-1.36,29.73-3.77a8.46,8.46,0,0,0,9,5c2.26-.36,6.77-3.65,11.76-8,44.76-6.77,105.51-18.06,121.9-31.2"/><path class="cls-4" d="M786.1,818.36c-7.74-8.51-15.49-8.89-31.74-7.74,0,0-42.42,13.55-72,31.36s-72.76,36.7-72.76,36.7-13.16-3.81-22.32,0c0,0-6.44.5-2.12,11.74"/><path class="cls-4" d="M805.78,869.22s.23,13.12-18.37,22.19"/><path class="cls-4" d="M600.63,814.5s29.35,21.22,35.24,35.22a120.9,120.9,0,0,1,16.66,8.6"/><path class="cls-4" d="M638,832.13a33.93,33.93,0,0,1,1,19"/><path class="cls-4" d="M631.22,818.36a51.75,51.75,0,0,1,4.2,7.34"/><path class="cls-4" d="M673,816.42s9.82,13.14,12.25,23.8"/><path class="cls-4" d="M727.72,895.79a82.71,82.71,0,0,0,10.88-1.35"/><path class="cls-4" d="M635.6,886.38a522.64,522.64,0,0,0,84.4,9.68"/><path class="cls-6" d="M834.23,687.32s-5.31,92.56-11.56,97.86-16.12,7-34.79,8.51-101.24,6.61-101.24,6.61l-8.9-26.52s43.91-4.51,63.39-11.63a327.82,327.82,0,0,1,45-11.87S782.4,727,782.4,717V669.85"/><path class="cls-12" d="M818,586.21c20.12,12.4,26,41,19.1,102.2,0,0,5.94,7.22-2.84,10.83,0,0-32.89-12.3-48.18-3.81s-11.28-11.72-11.28-11.72-6.3-56.25,7.63-66.44"/><path class="cls-11" d="M780.55,608.67s-19.35,20.12-2.26,71A83.4,83.4,0,0,0,776,692.27c0,3.4,4.67,5.16,4.67,5.16"/><path class="cls-11" d="M757.93,642.74s1.4,24.83,16.79,35.6"/><path class="cls-11" d="M762.89,585.08s-30,11.49-53.86-1.24c-14.15-7.54-8.33-19.66-8.33-19.66"/><path class="cls-21" d="M547.15,818.41h163.3A42.91,42.91,0,0,0,721.38,817l32.21-8.45a2.06,2.06,0,0,0,1.56-2h0a2.1,2.1,0,0,0-2.1-2.1H540.4a2.09,2.09,0,0,0-2.07,2.1v3a8.82,8.82,0,0,0,8.82,8.83Z"/><path class="cls-22" d="M531,810.28H694.76a3.88,3.88,0,0,0,4.06-3.7,3.81,3.81,0,0,0-.24-1.53L668.22,686.92a7.22,7.22,0,0,0-6.55-5.26H497.87a3.89,3.89,0,0,0-4.05,3.74,3.94,3.94,0,0,0,.24,1.52l30.38,118.13A7.19,7.19,0,0,0,531,810.28Z"/><line class="cls-4" x1="503.65" y1="685.85" x2="500.56" y2="685.85"/><line class="cls-4" x1="527.65" y1="685.85" x2="511.67" y2="685.85"/><path class="cls-4" d="M690.79,795.36,664,691.11a7.2,7.2,0,0,0-6.52-5.26H531.26"/><line class="cls-4" x1="693.12" y1="804.44" x2="692.44" y2="801.84"/><path class="cls-6" d="M580.25,749a15.86,15.86,0,0,0,.58,2.82c2.08,7.11,8.74,11.45,14.86,9.64s9.39-9,7.31-16.14-8.78-11.45-14.9-9.64a10.3,10.3,0,0,0-2.05.88A12.62,12.62,0,0,1,580.25,749Z"/><path class="cls-12" d="M652.53,527.57c-14.18-1.54-21.9-15-30.43-17.12a93.38,93.38,0,0,1-14-4.51s-2.94-10.25-7.34-6.77-10.18,80.13-4.51,77.72,5.69,6.64,5.69,6.64l52.62,46.36,44.11-78.1S666.71,529.12,652.53,527.57Z"/><polyline class="cls-4" points="223.74 254.58 223.74 253.45 224.86 253.45"/><line class="cls-23" x1="231.5" y1="253.45" x2="422.48" y2="253.45"/><polyline class="cls-4" points="425.77 253.45 426.9 253.45 426.9 254.58"/><line class="cls-24" x1="426.92" y1="261.35" x2="426.92" y2="384.38"/><polyline class="cls-4" points="426.9 387.76 426.9 388.89 425.77 388.89"/><line class="cls-23" x1="419.16" y1="388.89" x2="228.18" y2="388.89"/><polyline class="cls-4" points="224.86 388.89 223.74 388.89 223.74 387.76"/><line class="cls-24" x1="223.76" y1="380.99" x2="223.76" y2="257.96"/><circle class="cls-5" cx="325.34" cy="253.45" r="3.34"/><circle class="cls-5" cx="223.76" cy="321.17" r="3.34"/><circle class="cls-5" cx="325.34" cy="388.89" r="3.34"/><circle class="cls-5" cx="426.92" cy="321.17" r="3.34"/><rect class="cls-5" x="423.02" y="385.01" width="7.79" height="7.79"/><rect class="cls-5" x="423.02" y="249.57" width="7.79" height="7.79"/><rect class="cls-5" x="219.85" y="385.01" width="7.79" height="7.79"/><rect class="cls-5" x="219.85" y="249.57" width="7.79" height="7.79"/><rect class="cls-6" x="237.23" y="265.44" width="176.82" height="112.35"/><polygon class="cls-5" points="414.06 344.6 394.39 364.26 341.21 311.08 318.84 333.45 283.17 297.78 237.23 343.7 237.23 377.79 414.06 377.79 414.06 344.6"/><circle class="cls-5" cx="377.42" cy="297.33" r="12.48"/><path class="cls-11" d="M661.94,548.29s-13.54,25.21-15.15,63.79"/><path class="cls-11" d="M622.12,565.74s4,21.44,15.8,37"/><path class="cls-11" d="M677.74,654.23S698.06,721,742.19,740.6"/><path class="cls-12" d="M731.2,533.43S729.28,548,715.28,549a62.18,62.18,0,0,0-6.2-10.41A196.63,196.63,0,0,1,731.2,533.43Z"/><path class="cls-6" d="M761,534.45s23.41,2.87,33.21-28.56,2.1-55.1-36.64-66.5c-21.49-6.32-42.89-1.24-50.73,15-6.63,13.92-3.49,25.5-5,30.18-1.71,5.23-17.56,9.68-17.56,13.27,0,3,8.78,8,8.78,8l-2.57,7.81,2.41,1.29s-4.51,17.59-2.41,23.79c1.49,4.52,41.15,6.42,44.24-4.83"/><path class="cls-4" d="M707.09,465.83s7.74,1.94,9.86,6"/><path class="cls-12" d="M708.44,483.68c-.33,2.26.19,4.22,1.18,4.36s2-1.58,2.37-3.86-.2-4.22-1.18-4.36S708.78,481.4,708.44,483.68Z"/><path class="cls-4" d="M692.91,515s12.6,4.83,17.3,1.92"/><path class="cls-4" d="M697.34,481.88c-.93,5.05.2,9.48,2.53,9.91s5-3.3,5.91-8.33-.18-9.51-2.53-9.94S698.29,476.84,697.34,481.88Z"/><path class="cls-12" d="M795.26,456.16a37.24,37.24,0,0,0-14.71-22.71,69,69,0,0,0-28.31-11.58s7.47,3.28,10.31,7.59c0,0-19.34-14.54-42.32-5s-20.12,34.36-20.12,34.36l3.35-6.5s-.39,7.74,3.68,10.58a50.19,50.19,0,0,1,4.94-10.83s6.09,18.31,22.87,24.51a13.28,13.28,0,0,1-.27-9s9.3,20.12,6.59,29.94l3,5.14s10.68-10.81,19.37-1.8c5,5.19-9.55,24.83-11.62,24.83l8.78,12.89s21.94,3.14,34.58-20.63,9.55-33.87,9.55-33.87,4.13,5.78,4.52,9C809.44,493.05,813.19,467.52,795.26,456.16Z"/><path class="cls-6" d="M743.64,504.92s6.77-22.75,21.17-14.74,4.13,20.16-1,24.83-9,13.16-12.39,13.16-4.11-4.13-4.11-4.13"/><line class="cls-4" x1="705.78" y1="483.46" x2="745.96" y2="491.79"/></g></g></g></svg>